<svg width="80" height="19" viewBox="0 0 80 19" fill="none" xmlns="http://www.w3.org/2000/svg">
<path d="M27.666 17.9189H33.0643V9.14806L39.2584 17.9189H44.25V0.618927H38.8342V8.83939L32.9576 0.618927H27.666V17.9189Z" fill="white"/>
<path d="M45.4402 9.43903C45.4402 14.6737 49.0335 18.5355 54.7317 18.5177C60.1125 18.5007 63.9175 14.9137 63.9175 9.33558C63.9175 9.0091 63.9 8.6487 63.8641 8.30611H55.2626V12.3053H58.4134C57.8651 13.3008 56.5017 13.7299 54.9267 13.7299C52.4493 13.7299 50.9093 11.8592 50.9093 9.25078C50.9093 6.50497 52.8035 4.84036 54.9442 4.84036C56.6967 4.84036 57.8117 5.61288 58.2892 6.76276H63.6875C62.9267 2.21412 58.8209 0 54.8559 0C49.4227 0 45.4402 3.96438 45.4402 9.43903Z" fill="white"/>
<path d="M65.1084 17.9189H78.8957V13.3533H70.6833V11.5165H78.2058V7.02044H70.6833V5.18368H78.8957V0.618927H65.1084V17.9189Z" fill="white"/>
<path d="M19.8628 0.618927V17.9189H25.4911V0.618927H19.8628Z" fill="white"/>
<path d="M0.000244141 18.09L15.2034 12.4093L15.2209 6.09342L0.000244141 0.446625H11.1859C15.0617 0.446625 17.8942 1.54478 17.8942 4.99442C17.8942 6.6938 17.0451 8.238 15.2217 9.11313C17.08 9.64483 18.3017 11.1381 18.3017 13.1292C18.3017 16.7163 15.3634 18.0892 11.8418 18.0892H0.000244141V18.09Z" fill="white"/>
<path d="M15.2209 6.09342L0.000244141 0.446625V6.24776L8.93848 9.21659L0.000244141 12.2032V18.09L15.2034 12.4093L15.2209 6.09342Z" fill="#E10092"/>
</svg>
