<svg xmlns="http://www.w3.org/2000/svg" width="121.233" height="20.836" viewBox="0 0 121.233 20.836">
  <g id="Group_6179" data-name="Group 6179" transform="translate(-119 -61)">
    <g id="Group_5998" data-name="Group 5998" transform="translate(-7189 -7744)">
      <g id="Group_4288" data-name="Group 4288" transform="translate(7343.15 7805)">
        <path id="Path_25070" data-name="Path 25070" d="M684.748,26.753h5.89v-9.87l6.759,9.87h5.446V7.286h-5.909v9.251l-6.413-9.251h-5.773Z" transform="translate(-654.563 -6.591)" fill="#fff"/>
        <path id="Path_25071" data-name="Path 25071" d="M888,10.621c0,5.89,3.92,10.235,10.138,10.215,5.871-.019,10.022-4.055,10.022-10.331,0-.367-.019-.772-.058-1.159h-9.385v4.5h3.437c-.6,1.12-2.083,1.6-3.8,1.6-2.7,0-4.384-2.1-4.384-5.04,0-3.09,2.066-4.963,4.4-4.963a3.611,3.611,0,0,1,3.65,2.163h5.89C907.079,2.491,902.6,0,898.273,0,892.345,0,888,4.459,888,10.621Z" transform="translate(-838.422 0)" fill="#fff"/>
        <path id="Path_25072" data-name="Path 25072" d="M1112.9,26.753h15.044V21.615h-8.96V19.548h8.206V14.489h-8.21V12.423h8.96V7.286H1112.9V26.753Z" transform="translate(-1041.865 -6.591)" fill="#fff"/>
        <path id="Path_25073" data-name="Path 25073" d="M595.524,7.286V26.753h6.141V7.286Z" transform="translate(-573.852 -6.591)" fill="#fff"/>
        <g id="Group_4287" data-name="Group 4287" transform="translate(0 0.502)">
          <path id="Path_25074" data-name="Path 25074" d="M368.39,25.114l16.59-6.393L385,11.615,368.39,5.262h12.2c4.229,0,7.319,1.236,7.319,5.117A4.993,4.993,0,0,1,385,15.014a4.542,4.542,0,0,1,3.359,4.519c0,4.036-3.205,5.581-7.049,5.581Z" transform="translate(-368.39 -5.262)" fill="#fff"/>
          <path id="Path_25075" data-name="Path 25075" d="M385,11.616,368.39,5.262v6.527l9.751,3.341-9.751,3.358v6.626l16.588-6.393L385,11.615Z" transform="translate(-368.39 -5.262)" fill="#e10092"/>
        </g>
      </g>
      <path id="Path_25076" data-name="Path 25076" d="M2.915,137.482H5.527v-1.814H6.591a2.966,2.966,0,0,0,3.3-3.1c0-1.777-1.292-2.878-3.2-2.878H2.915ZM5.527,133.6v-1.695h.846a.8.8,0,0,1,.907.81.846.846,0,0,1-.967.883Zm5.284,3.881h5.695v-2.25h-2.95V129.7H10.81Zm6.372,0H20.1l1.62-4.643,1.644,4.643h2.986L23.36,129.7H20.1Zm8-7.785,2.805,5.658v2.128H30.82v-2.152l3.071-5.634H31.1l-1.561,2.972L28.1,129.7Z" transform="translate(7305.362 7687.679)" fill="#fff"/>
      <path id="Path_25077" data-name="Path 25077" d="M7.5,7.284H0v2.25H2.225V15.07h3.1V9.532H7.5V7.282Z" transform="translate(7308 7798.411)" fill="#fff"/>
      <path id="Path_25078" data-name="Path 25078" d="M71.469,15.072h2.914l1.608-4.643,1.657,4.643h2.974L77.647,7.286H74.383Z" transform="translate(7243.351 7798.409)" fill="#fff"/>
      <path id="Path_25079" data-name="Path 25079" d="M160.679,9.532h2.212V15.07H166V9.532h2.176V7.282h-7.5Z" transform="translate(7162.652 7798.411)" fill="#fff"/>
      <path id="Path_25080" data-name="Path 25080" d="M231.641,15.072h2.9l1.62-4.643,1.644,4.643h2.986l-2.985-7.786h-3.266Z" transform="translate(7098.461 7798.409)" fill="#fff"/>
    </g>
  </g>
</svg>
