<?xml version="1.0" encoding="utf-8"?>
<!-- Generator: Adobe Illustrator 16.0.0, SVG Export Plug-In . SVG Version: 6.00 Build 0)  -->
<!DOCTYPE svg PUBLIC "-//W3C//DTD SVG 1.1//EN" "http://www.w3.org/Graphics/SVG/1.1/DTD/svg11.dtd">
<svg version="1.1" id="Layer_1" xmlns="http://www.w3.org/2000/svg" xmlns:xlink="http://www.w3.org/1999/xlink" x="0px" y="0px"
	 width="18px" height="18.001px" viewBox="302.33 322.652 18 18.001" enable-background="new 302.33 322.652 18 18.001"
	 xml:space="preserve">
<path fill="#FFFFFF" d="M312.699,331.653l7.305-7.337c0.392-0.392,0.392-1.011,0-1.37c-0.391-0.392-1.011-0.392-1.369,0
	l-7.305,7.337l-7.337-7.337c-0.392-0.392-1.011-0.392-1.37,0c-0.391,0.392-0.391,1.011,0,1.37l7.305,7.337l-7.305,7.337
	c-0.391,0.391-0.391,1.011,0,1.369c0.195,0.195,0.456,0.294,0.685,0.294s0.489-0.098,0.685-0.294l7.338-7.337l7.337,7.337
	c0.195,0.195,0.456,0.294,0.685,0.294c0.228,0,0.489-0.098,0.685-0.294c0.392-0.392,0.392-1.011,0-1.369L312.699,331.653z"/>
</svg>
