<svg width="24" height="17" viewBox="0 0 24 17" fill="none" xmlns="http://www.w3.org/2000/svg">
<path d="M1.6115 16.2855C1.40931 16.2855 1.17824 16.2616 0.91828 16.2137C0.672764 16.1659 0.477795 16.0942 0.333374 15.9985L5.12094 0.715257C5.39534 0.635532 5.66252 0.579725 5.92247 0.547836C6.19688 0.515945 6.45683 0.5 6.70235 0.5C7.04896 0.5 7.33058 0.53189 7.54721 0.59567C7.77829 0.643505 7.96604 0.731202 8.11046 0.858761C8.26932 0.970376 8.3993 1.12185 8.50039 1.31319C8.60149 1.48859 8.69536 1.71182 8.78202 1.98288L13.1363 15.9746C12.963 16.0543 12.7608 16.126 12.5297 16.1898C12.3131 16.2536 12.1109 16.2855 11.9232 16.2855C11.591 16.2855 11.3022 16.2377 11.0567 16.142C10.8111 16.0623 10.6306 15.839 10.5151 15.4723L9.47524 12.0521H3.92946L2.91129 15.4723C2.79576 15.8231 2.62967 16.0463 2.41304 16.142C2.19641 16.2377 1.92923 16.2855 1.6115 16.2855ZM4.62268 9.75604H8.80368L6.72401 2.81999L4.62268 9.75604Z" fill="white"/>
<path d="M17.622 16.3333C17.0588 16.3333 16.5533 16.2456 16.1056 16.0702C15.6723 15.8789 15.304 15.6238 15.0008 15.3049C14.7119 14.986 14.4881 14.6193 14.3292 14.2047C14.1848 13.7742 14.1126 13.3197 14.1126 12.8414C14.1126 12.2674 14.1992 11.7412 14.3725 11.2628C14.5603 10.7845 14.8419 10.3779 15.2174 10.0431C15.5929 9.69226 16.0623 9.4212 16.6255 9.22986C17.2032 9.03852 17.8892 8.94285 18.6835 8.94285C19.4345 8.94285 20.2866 9.03852 21.2398 9.22986V8.63192C21.2398 7.85062 21.0809 7.30052 20.7632 6.98162C20.4454 6.64678 19.875 6.47936 19.0518 6.47936C18.633 6.47936 18.2647 6.51125 17.947 6.57503C17.6292 6.62286 17.3404 6.68664 17.0804 6.76637C16.8349 6.83015 16.6111 6.89392 16.4089 6.95771C16.2211 7.00554 16.0406 7.02946 15.8673 7.02946C15.564 7.02946 15.3402 6.88595 15.1957 6.59894C15.0513 6.31193 14.9791 5.96114 14.9791 5.54658C14.9791 5.46685 14.9791 5.3951 14.9791 5.33132C14.9791 5.2516 14.9863 5.17187 15.0008 5.09215C15.4774 4.91675 16.0695 4.7573 16.7771 4.6138C17.4848 4.45435 18.2719 4.37462 19.1384 4.37462C19.9761 4.37462 20.6693 4.47826 21.2181 4.68555C21.7813 4.89283 22.229 5.20376 22.5612 5.61833C22.9078 6.01695 23.1461 6.51125 23.2761 7.10121C23.4205 7.67523 23.4927 8.34492 23.4927 9.11027V11.6216C23.4927 12.1 23.4927 12.5305 23.4927 12.9131C23.5072 13.2958 23.5288 13.6546 23.5577 13.9894C23.601 14.3243 23.6516 14.6591 23.7094 14.994C23.7671 15.3129 23.8466 15.6636 23.9477 16.0463C23.8177 16.1101 23.6516 16.1659 23.4494 16.2137C23.2617 16.2616 23.0378 16.2855 22.7778 16.2855C22.489 16.2855 22.2507 16.2297 22.063 16.1181C21.8897 15.9905 21.7525 15.8311 21.6514 15.6397C21.5503 15.4324 21.4781 15.1933 21.4347 14.9222C21.4058 14.6511 21.3842 14.3641 21.3697 14.0612H21.3481C21.1748 14.3641 20.9726 14.6591 20.7415 14.9461C20.5249 15.2172 20.2649 15.4564 19.9616 15.6636C19.6583 15.8709 19.3117 16.0304 18.9218 16.142C18.5463 16.2696 18.113 16.3333 17.622 16.3333ZM18.2502 14.2286C18.9435 14.2286 19.5428 14.0054 20.0483 13.5589C20.5682 13.1125 20.9726 12.5544 21.2614 11.8847V10.8802C20.5249 10.7367 19.8678 10.6649 19.2901 10.6649C18.3369 10.6649 17.622 10.8403 17.1454 11.1911C16.6833 11.5259 16.4522 12.0123 16.4522 12.6501C16.4522 13.1603 16.6183 13.5509 16.9505 13.822C17.2826 14.0931 17.7159 14.2286 18.2502 14.2286Z" fill="white"/>
<path d="M1.6115 16.2855C1.40931 16.2855 1.17824 16.2616 0.91828 16.2137C0.672764 16.1659 0.477795 16.0942 0.333374 15.9985L5.12094 0.715257C5.39534 0.635532 5.66252 0.579725 5.92247 0.547836C6.19688 0.515945 6.45683 0.5 6.70235 0.5C7.04896 0.5 7.33058 0.53189 7.54721 0.59567C7.77829 0.643505 7.96604 0.731202 8.11046 0.858761C8.26932 0.970376 8.3993 1.12185 8.50039 1.31319C8.60149 1.48859 8.69536 1.71182 8.78202 1.98288L13.1363 15.9746C12.963 16.0543 12.7608 16.126 12.5297 16.1898C12.3131 16.2536 12.1109 16.2855 11.9232 16.2855C11.591 16.2855 11.3022 16.2377 11.0567 16.142C10.8111 16.0623 10.6306 15.839 10.5151 15.4723L9.47524 12.0521H3.92946L2.91129 15.4723C2.79576 15.8231 2.62967 16.0463 2.41304 16.142C2.19641 16.2377 1.92923 16.2855 1.6115 16.2855ZM4.62268 9.75604H8.80368L6.72401 2.81999L4.62268 9.75604Z" stroke="white"/>
<path d="M17.622 16.3333C17.0588 16.3333 16.5533 16.2456 16.1056 16.0702C15.6723 15.8789 15.304 15.6238 15.0008 15.3049C14.7119 14.986 14.4881 14.6193 14.3292 14.2047C14.1848 13.7742 14.1126 13.3197 14.1126 12.8414C14.1126 12.2674 14.1992 11.7412 14.3725 11.2628C14.5603 10.7845 14.8419 10.3779 15.2174 10.0431C15.5929 9.69226 16.0623 9.4212 16.6255 9.22986C17.2032 9.03852 17.8892 8.94285 18.6835 8.94285C19.4345 8.94285 20.2866 9.03852 21.2398 9.22986V8.63192C21.2398 7.85062 21.0809 7.30052 20.7632 6.98162C20.4454 6.64678 19.875 6.47936 19.0518 6.47936C18.633 6.47936 18.2647 6.51125 17.947 6.57503C17.6292 6.62286 17.3404 6.68664 17.0804 6.76637C16.8349 6.83015 16.6111 6.89392 16.4089 6.95771C16.2211 7.00554 16.0406 7.02946 15.8673 7.02946C15.564 7.02946 15.3402 6.88595 15.1957 6.59894C15.0513 6.31193 14.9791 5.96114 14.9791 5.54658C14.9791 5.46685 14.9791 5.3951 14.9791 5.33132C14.9791 5.2516 14.9863 5.17187 15.0008 5.09215C15.4774 4.91675 16.0695 4.7573 16.7771 4.6138C17.4848 4.45435 18.2719 4.37462 19.1384 4.37462C19.9761 4.37462 20.6693 4.47826 21.2181 4.68555C21.7813 4.89283 22.229 5.20376 22.5612 5.61833C22.9078 6.01695 23.1461 6.51125 23.2761 7.10121C23.4205 7.67523 23.4927 8.34492 23.4927 9.11027V11.6216C23.4927 12.1 23.4927 12.5305 23.4927 12.9131C23.5072 13.2958 23.5288 13.6546 23.5577 13.9894C23.601 14.3243 23.6516 14.6591 23.7094 14.994C23.7671 15.3129 23.8466 15.6636 23.9477 16.0463C23.8177 16.1101 23.6516 16.1659 23.4494 16.2137C23.2617 16.2616 23.0378 16.2855 22.7778 16.2855C22.489 16.2855 22.2507 16.2297 22.063 16.1181C21.8897 15.9905 21.7525 15.8311 21.6514 15.6397C21.5503 15.4324 21.4781 15.1933 21.4347 14.9222C21.4058 14.6511 21.3842 14.3641 21.3697 14.0612H21.3481C21.1748 14.3641 20.9726 14.6591 20.7415 14.9461C20.5249 15.2172 20.2649 15.4564 19.9616 15.6636C19.6583 15.8709 19.3117 16.0304 18.9218 16.142C18.5463 16.2696 18.113 16.3333 17.622 16.3333ZM18.2502 14.2286C18.9435 14.2286 19.5428 14.0054 20.0483 13.5589C20.5682 13.1125 20.9726 12.5544 21.2614 11.8847V10.8802C20.5249 10.7367 19.8678 10.6649 19.2901 10.6649C18.3369 10.6649 17.622 10.8403 17.1454 11.1911C16.6833 11.5259 16.4522 12.0123 16.4522 12.6501C16.4522 13.1603 16.6183 13.5509 16.9505 13.822C17.2826 14.0931 17.7159 14.2286 18.2502 14.2286Z" stroke="white
"/>
</svg>
