<svg width="24" height="24" viewBox="0 0 24 24" fill="none" xmlns="http://www.w3.org/2000/svg">
<g clip-path="url(#clip0_12081_111489)">
<rect width="24" height="24" rx="12" fill="#220046"/>
<g filter="url(#filter0_d_12081_111489)">
<path fill-rule="evenodd" clip-rule="evenodd" d="M12.6944 5.34762C12.6944 5.73438 12.3835 6.0479 11.9999 6.0479C11.6164 6.0479 11.3055 5.73438 11.3055 5.34762C11.3055 4.96087 11.6164 4.64734 11.9999 4.64734C12.3835 4.64734 12.6944 4.96087 12.6944 5.34762ZM18.9444 9.74916L15.7622 10.8494L14.6041 11.2498L13.5281 9.38961L11.9999 6.74795L10.4718 9.38962L9.39578 11.2498L8.23768 10.8494L5.0555 9.74916L6.15952 12.93L7.65967 17.2522H16.3402L17.8404 12.93L18.9444 9.74916ZM16.3402 17.9525H7.65967V19.353H16.3402V17.9525ZM4.36119 9.54942C4.74472 9.54942 5.05564 9.23589 5.05564 8.84913C5.05564 8.46238 4.74472 8.14885 4.36119 8.14885C3.97766 8.14885 3.66675 8.46238 3.66675 8.84913C3.66675 9.23589 3.97766 9.54942 4.36119 9.54942ZM19.6391 9.54942C20.0226 9.54942 20.3335 9.23589 20.3335 8.84913C20.3335 8.46238 20.0226 8.14885 19.6391 8.14885C19.2556 8.14885 18.9447 8.46238 18.9447 8.84913C18.9447 9.23589 19.2556 9.54942 19.6391 9.54942Z" fill="url(#paint0_linear_12081_111489)"/>
</g>
<path fill-rule="evenodd" clip-rule="evenodd" d="M10.1482 16.1129L12.191 16.1129L13.4195 14.4019L13.8519 13.7997L13.42 13.1971L12.1916 11.4833L10.1503 11.4833L11.8099 13.7986L10.1482 16.1129Z" fill="#E10092"/>
</g>
<defs>
<filter id="filter0_d_12081_111489" x="-2.99992" y="-0.352661" width="30.0001" height="28.039" filterUnits="userSpaceOnUse" color-interpolation-filters="sRGB">
<feFlood flood-opacity="0" result="BackgroundImageFix"/>
<feColorMatrix in="SourceAlpha" type="matrix" values="0 0 0 0 0 0 0 0 0 0 0 0 0 0 0 0 0 0 127 0" result="hardAlpha"/>
<feOffset dy="1.66667"/>
<feGaussianBlur stdDeviation="3.33333"/>
<feComposite in2="hardAlpha" operator="out"/>
<feColorMatrix type="matrix" values="0 0 0 0 0 0 0 0 0 0 0 0 0 0 0 0 0 0 0.9 0"/>
<feBlend mode="normal" in2="BackgroundImageFix" result="effect1_dropShadow_12081_111489"/>
<feBlend mode="normal" in="SourceGraphic" in2="effect1_dropShadow_12081_111489" result="shape"/>
</filter>
<linearGradient id="paint0_linear_12081_111489" x1="21.9671" y1="11.51" x2="2.03324" y2="11.51" gradientUnits="userSpaceOnUse">
<stop stop-color="#FFA800"/>
<stop offset="0.453125" stop-color="#FFF389"/>
<stop offset="1" stop-color="#FFA800"/>
</linearGradient>
<clipPath id="clip0_12081_111489">
<rect width="24" height="24" fill="white"/>
</clipPath>
</defs>
</svg>
