<svg width="24" height="24" viewBox="0 0 24 24" fill="none" xmlns="http://www.w3.org/2000/svg">
<g clip-path="url(#clip0_8978_212888)">
<g filter="url(#filter0_d_8978_212888)">
<path fill-rule="evenodd" clip-rule="evenodd" d="M12.8333 4.0171C12.8333 4.4812 12.4602 4.85744 12 4.85744C11.5398 4.85744 11.1667 4.4812 11.1667 4.0171C11.1667 3.55299 11.5398 3.17676 12 3.17676C12.4602 3.17676 12.8333 3.55299 12.8333 4.0171ZM20.3333 9.29895L18.0421 10.0911L15.1249 11.0997L13.1002 7.59949L11.9999 5.69749L10.8997 7.59949L8.87493 11.0997L5.95775 10.0911L3.66659 9.29895L4.46148 11.5892L6.79159 18.3026H17.2083L19.5384 11.5892L20.3333 9.29895ZM17.2084 19.1429H6.79168V20.8236H17.2084V19.1429ZM2.83333 9.05925C3.29357 9.05925 3.66667 8.68302 3.66667 8.21891C3.66667 7.75481 3.29357 7.37857 2.83333 7.37857C2.3731 7.37857 2 7.75481 2 8.21891C2 8.68302 2.3731 9.05925 2.83333 9.05925ZM21.1667 9.05925C21.6269 9.05925 22 8.68302 22 8.21891C22 7.75481 21.6269 7.37857 21.1667 7.37857C20.7065 7.37857 20.3334 7.75481 20.3334 8.21891C20.3334 8.68302 20.7065 9.05925 21.1667 9.05925Z" fill="url(#paint0_linear_8978_212888)"/>
</g>
<path fill-rule="evenodd" clip-rule="evenodd" d="M9.77734 16.9355L12.2287 16.9355L13.7029 14.8823L14.2218 14.1597L13.7035 13.4365L12.2294 11.38L9.7799 11.38L11.7714 14.1584L9.77734 16.9355Z" fill="#E10092"/>
</g>
<defs>
<filter id="filter0_d_8978_212888" x="-4" y="-2.82324" width="32" height="29.6465" filterUnits="userSpaceOnUse" color-interpolation-filters="sRGB">
<feFlood flood-opacity="0" result="BackgroundImageFix"/>
<feColorMatrix in="SourceAlpha" type="matrix" values="0 0 0 0 0 0 0 0 0 0 0 0 0 0 0 0 0 0 127 0" result="hardAlpha"/>
<feOffset/>
<feGaussianBlur stdDeviation="3"/>
<feComposite in2="hardAlpha" operator="out"/>
<feColorMatrix type="matrix" values="0 0 0 0 0 0 0 0 0 0 0 0 0 0 0 0 0 0 0.9 0"/>
<feBlend mode="normal" in2="BackgroundImageFix" result="effect1_dropShadow_8978_212888"/>
<feBlend mode="normal" in="SourceGraphic" in2="effect1_dropShadow_8978_212888" result="shape"/>
</filter>
<linearGradient id="paint0_linear_8978_212888" x1="23.9602" y1="11.4119" x2="0.0397999" y2="11.4119" gradientUnits="userSpaceOnUse">
<stop stop-color="#FFA800"/>
<stop offset="0.453125" stop-color="#FFF389"/>
<stop offset="1" stop-color="#FFA800"/>
</linearGradient>
<clipPath id="clip0_8978_212888">
<rect width="24" height="24" fill="white"/>
</clipPath>
</defs>
</svg>
