<svg width="20" height="21" viewBox="0 0 20 21" fill="none" xmlns="http://www.w3.org/2000/svg">
<path fill-rule="evenodd" clip-rule="evenodd" d="M14.084 15.2365C14.0863 15.2362 14.0882 15.236 14.0895 15.2358L14.0895 15.2359C14.1075 15.2335 14.1242 15.2289 14.1413 15.2242C14.1496 15.2219 14.158 15.2196 14.1667 15.2175V18.8608C14.1667 19.552 13.6079 20.1108 12.9167 20.1108H2.91675C2.22557 20.1108 1.66675 19.552 1.66675 18.8608V1.36084C1.66675 0.670581 2.22557 0.11084 2.91675 0.11084H12.9167C13.607 0.11084 14.1667 0.670581 14.1667 1.36084L14.1658 5.00413C14.1558 5.00199 14.1458 4.99928 14.1357 4.99656C14.1199 4.9923 14.104 4.988 14.0877 4.98575L14.0848 4.98537C14.0446 4.98015 13.7912 4.94715 13.4848 4.94715C13.2228 4.94715 13.0004 4.97104 12.9167 4.98115V3.23574H2.91674L2.91766 16.9849H12.9177V15.2395C13.0004 15.2496 13.2228 15.2735 13.4857 15.2735C13.7858 15.2735 14.0356 15.2425 14.084 15.2365ZM10.9425 1.6568C10.9425 1.48401 10.8019 1.3443 10.63 1.3443C10.4572 1.3443 10.3175 1.484 10.3175 1.6568C10.3175 1.82958 10.4572 1.96929 10.63 1.96929C10.8019 1.96929 10.9425 1.82867 10.9425 1.6568ZM9.29448 1.36084H6.53895C6.36524 1.36084 6.22646 1.50055 6.22646 1.67334C6.22646 1.84613 6.36524 1.98583 6.53895 1.98583H9.29448C9.46727 1.98583 9.60698 1.84613 9.60698 1.67334C9.60698 1.50055 9.4682 1.36084 9.29448 1.36084ZM6.97921 18.5483C6.97921 19.0657 7.39926 19.4858 7.91672 19.4858C8.43418 19.4858 8.85422 19.0657 8.85422 18.5483C8.85422 18.0299 8.43418 17.6108 7.91672 17.6108C7.39926 17.6108 6.97921 18.0308 6.97921 18.5483ZM17.9415 10.6228C17.9185 10.7883 17.7632 10.9243 17.5959 10.9243L16.7273 10.9225C16.56 10.9225 16.3063 11.2662 16.2457 11.3894C16.1859 11.5116 16.2328 11.7092 16.3514 11.8278L16.9635 12.4409C17.083 12.5594 17.0922 12.7626 16.9847 12.8912L16.2641 13.6109C16.1345 13.7184 15.9332 13.7093 15.8146 13.5907L15.2016 12.9786C15.083 12.8591 14.6639 12.9216 14.5334 12.9666C14.4019 13.0116 14.2953 13.1863 14.2953 13.3535V14.2203C14.2953 14.3876 14.1593 14.5438 13.9939 14.5668C13.9939 14.5668 13.7604 14.599 13.4819 14.599C13.2043 14.599 12.9709 14.5668 12.9709 14.5668C12.8045 14.5429 12.6694 14.3876 12.6694 14.2203V13.3535C12.6694 13.1862 12.3247 12.9326 12.2025 12.8719C12.0803 12.8122 11.8826 12.86 11.7641 12.9785L11.151 13.5907C11.0334 13.7102 10.8312 13.7194 10.7025 13.6118L9.98191 12.8912C9.87437 12.7616 9.88356 12.5603 10.0021 12.4418L10.6143 11.8287C10.7338 11.7101 10.6713 11.291 10.6262 11.1605C10.5803 11.0291 10.4066 10.9225 10.2393 10.9225H9.37255C9.20526 10.9225 9.04901 10.7874 9.02603 10.621C9.02603 10.621 8.99386 10.3876 8.99386 10.11C8.99386 9.8324 9.02603 9.59895 9.02603 9.59895C9.04902 9.43352 9.20527 9.29749 9.37255 9.29749H10.2393C10.4075 9.29749 10.6612 8.95373 10.7218 8.83057C10.7816 8.70833 10.7347 8.51071 10.6152 8.39215L10.0031 7.78C9.88449 7.66142 9.8753 7.45922 9.98284 7.33055L10.7034 6.60996C10.8321 6.50242 11.0334 6.51161 11.1519 6.63018L11.765 7.24232C11.8836 7.36088 12.3027 7.2993 12.4341 7.25427C12.5656 7.20923 12.6722 7.03461 12.6722 6.86733V6.0006C12.6722 5.83239 12.8073 5.67706 12.9736 5.65408C12.9736 5.65408 13.2071 5.62191 13.4847 5.62191C13.7632 5.62191 13.9966 5.65408 13.9966 5.65408C14.163 5.67707 14.2981 5.8324 14.2981 6.0006V6.86733C14.2981 7.03554 14.6428 7.28829 14.765 7.34895C14.8872 7.40961 15.0849 7.36182 15.2034 7.24325L15.8165 6.63111C15.9351 6.51254 16.1364 6.50335 16.2659 6.61089L16.9865 7.33148C17.0941 7.46016 17.0849 7.66237 16.9654 7.78094L16.3533 8.39308C16.2356 8.51164 16.2972 8.93075 16.3422 9.06127C16.3873 9.19178 16.561 9.29931 16.7292 9.29931H17.5959C17.7632 9.29931 17.9185 9.43533 17.9415 9.60077C17.9415 9.60077 17.9737 9.83423 17.9737 10.1118C17.9737 10.3894 17.9415 10.6228 17.9415 10.6228ZM11.8421 10.1109C11.8421 11.019 12.5774 11.7543 13.4846 11.7543C14.3927 11.7543 15.128 11.018 15.1271 10.1109C15.1271 9.20369 14.3918 8.4684 13.4846 8.4684C12.5783 8.4684 11.8421 9.20369 11.8421 10.1109Z" fill="white"/>
</svg>
