<svg xmlns="http://www.w3.org/2000/svg" width="24" height="18.544" viewBox="0 0 24 18.544">
  <g id="noun_read_message_599625" data-name="noun_read message_599625" transform="translate(-6 -15.998)">
    <g id="Group_4005" data-name="Group 4005" transform="translate(6 15.998)">
      <path id="Path_24902" data-name="Path 24902" d="M6.494,16A.546.546,0,0,0,6,16.544V31.271a.545.545,0,0,0,.545.545H8.727V34a.546.546,0,0,0,.861.443l3.673-2.625H29.455A.545.545,0,0,0,30,31.271V16.544A.545.545,0,0,0,29.455,16H6.494Zm.6,1.091H28.909V30.726H13.091a.545.545,0,0,0-.315.1L9.818,32.942v-1.67a.545.545,0,0,0-.545-.545H7.091Zm15.477,2.991a.546.546,0,0,0-.315.162l-6.145,6.145-2.344-2.574a.546.546,0,1,0-.8.733l2.727,3a.546.546,0,0,0,.784.017l6.545-6.545a.546.546,0,0,0-.452-.937Z" transform="translate(-6 -15.998)" fill="#fff"/>
    </g>
  </g>
</svg>
