<svg width="200" height="207" viewBox="0 0 200 207" fill="none" xmlns="http://www.w3.org/2000/svg">
<g clip-path="url(#clip0_3847_212396)">
<path opacity="0.4" d="M56.608 149.728C50.656 149.728 45.424 149.056 40.912 147.712C36.496 146.272 32.752 144.352 29.68 141.952C26.704 139.552 24.448 136.72 22.912 133.456C21.376 130.096 20.608 126.496 20.608 122.656C20.608 116.608 22.192 111.616 25.36 107.68C28.528 103.648 32.848 100.768 38.32 99.04C36.4 98.272 34.576 97.264 32.848 96.016C31.12 94.768 29.584 93.28 28.24 91.552C26.896 89.728 25.792 87.712 24.928 85.504C24.16 83.2 23.776 80.704 23.776 78.016C23.776 74.752 24.4 71.632 25.648 68.656C26.992 65.584 29.008 62.896 31.696 60.592C34.384 58.192 37.792 56.272 41.92 54.832C46.048 53.392 50.944 52.672 56.608 52.672C62.272 52.672 67.168 53.392 71.296 54.832C75.424 56.272 78.784 58.192 81.376 60.592C84.064 62.896 86.032 65.584 87.28 68.656C88.624 71.632 89.296 74.752 89.296 78.016C89.296 80.8 88.864 83.296 88 85.504C87.232 87.712 86.176 89.68 84.832 91.408C83.488 93.136 81.904 94.672 80.08 96.016C78.352 97.264 76.576 98.272 74.752 99.04C80.224 100.768 84.544 103.648 87.712 107.68C90.88 111.712 92.464 116.656 92.464 122.512C92.464 126.448 91.696 130.096 90.16 133.456C88.624 136.72 86.32 139.552 83.248 141.952C80.272 144.352 76.528 146.272 72.016 147.712C67.6 149.056 62.464 149.728 56.608 149.728ZM56.608 136.192C59.488 136.192 62.08 135.856 64.384 135.184C66.784 134.416 68.848 133.36 70.576 132.016C72.304 130.672 73.648 129.136 74.608 127.408C75.568 125.584 76.048 123.568 76.048 121.36C76.048 119.344 75.664 117.424 74.896 115.6C74.128 113.776 72.928 112.144 71.296 110.704C69.76 109.264 67.744 108.112 65.248 107.248C62.848 106.384 59.968 105.952 56.608 105.952C53.152 105.952 50.176 106.384 47.68 107.248C45.184 108.112 43.12 109.264 41.488 110.704C39.952 112.144 38.8 113.776 38.032 115.6C37.36 117.424 37.024 119.344 37.024 121.36C37.024 125.68 38.752 129.232 42.208 132.016C45.76 134.8 50.56 136.192 56.608 136.192ZM56.608 93.568C61.792 93.568 65.872 92.32 68.848 89.824C71.92 87.232 73.456 83.92 73.456 79.888C73.456 75.856 72.016 72.64 69.136 70.24C66.256 67.84 62.08 66.64 56.608 66.64C51.136 66.64 46.912 67.84 43.936 70.24C41.056 72.64 39.616 75.856 39.616 79.888C39.616 83.92 41.152 87.232 44.224 89.824C47.296 92.32 51.424 93.568 56.608 93.568Z" fill="#DB62AB"/>
</g>
<g clip-path="url(#clip1_3847_212396)">
<path opacity="0.8" d="M56.608 156.728C50.656 156.728 45.424 156.056 40.912 154.712C36.496 153.272 32.752 151.352 29.68 148.952C26.704 146.552 24.448 143.72 22.912 140.456C21.376 137.096 20.608 133.496 20.608 129.656C20.608 123.608 22.192 118.616 25.36 114.68C28.528 110.648 32.848 107.768 38.32 106.04C36.4 105.272 34.576 104.264 32.848 103.016C31.12 101.768 29.584 100.28 28.24 98.552C26.896 96.728 25.792 94.712 24.928 92.504C24.16 90.2 23.776 87.704 23.776 85.016C23.776 81.752 24.4 78.632 25.648 75.656C26.992 72.584 29.008 69.896 31.696 67.592C34.384 65.192 37.792 63.272 41.92 61.832C46.048 60.392 50.944 59.672 56.608 59.672C62.272 59.672 67.168 60.392 71.296 61.832C75.424 63.272 78.784 65.192 81.376 67.592C84.064 69.896 86.032 72.584 87.28 75.656C88.624 78.632 89.296 81.752 89.296 85.016C89.296 87.8 88.864 90.296 88 92.504C87.232 94.712 86.176 96.68 84.832 98.408C83.488 100.136 81.904 101.672 80.08 103.016C78.352 104.264 76.576 105.272 74.752 106.04C80.224 107.768 84.544 110.648 87.712 114.68C90.88 118.712 92.464 123.656 92.464 129.512C92.464 133.448 91.696 137.096 90.16 140.456C88.624 143.72 86.32 146.552 83.248 148.952C80.272 151.352 76.528 153.272 72.016 154.712C67.6 156.056 62.464 156.728 56.608 156.728ZM56.608 143.192C59.488 143.192 62.08 142.856 64.384 142.184C66.784 141.416 68.848 140.36 70.576 139.016C72.304 137.672 73.648 136.136 74.608 134.408C75.568 132.584 76.048 130.568 76.048 128.36C76.048 126.344 75.664 124.424 74.896 122.6C74.128 120.776 72.928 119.144 71.296 117.704C69.76 116.264 67.744 115.112 65.248 114.248C62.848 113.384 59.968 112.952 56.608 112.952C53.152 112.952 50.176 113.384 47.68 114.248C45.184 115.112 43.12 116.264 41.488 117.704C39.952 119.144 38.8 120.776 38.032 122.6C37.36 124.424 37.024 126.344 37.024 128.36C37.024 132.68 38.752 136.232 42.208 139.016C45.76 141.8 50.56 143.192 56.608 143.192ZM56.608 100.568C61.792 100.568 65.872 99.32 68.848 96.824C71.92 94.232 73.456 90.92 73.456 86.888C73.456 82.856 72.016 79.64 69.136 77.24C66.256 74.84 62.08 73.64 56.608 73.64C51.136 73.64 46.912 74.84 43.936 77.24C41.056 79.64 39.616 82.856 39.616 86.888C39.616 90.92 41.152 94.232 44.224 96.824C47.296 99.32 51.424 100.568 56.608 100.568Z" fill="#564372"/>
</g>
<defs>
<clipPath id="clip0_3847_212396">
<rect width="200" height="100" fill="white"/>
</clipPath>
<clipPath id="clip1_3847_212396">
<rect width="200" height="100" fill="white" transform="translate(0 107)"/>
</clipPath>
</defs>
</svg>
