<svg width="200" height="207" viewBox="0 0 200 207" fill="none" xmlns="http://www.w3.org/2000/svg">
<g clip-path="url(#clip0_3847_212362)">
<path opacity="0.4" d="M50.416 149.296C44.368 149.296 38.8 148.576 33.712 147.136C28.72 145.696 24.16 143.776 20.032 141.376C20.032 137.632 20.752 134.848 22.192 133.024C23.728 131.104 25.6 130.144 27.808 130.144C28.96 130.144 30.208 130.384 31.552 130.864C32.992 131.344 34.576 131.872 36.304 132.448C38.128 132.928 40.144 133.408 42.352 133.888C44.656 134.368 47.248 134.608 50.128 134.608C57.04 134.608 62.08 133.12 65.248 130.144C68.416 127.072 70 123.04 70 118.048C70 113.056 68.272 109.168 64.816 106.384C61.36 103.504 57.04 102.064 51.856 102.064C47.632 102.064 44.176 102.64 41.488 103.792C38.8 104.848 36.208 106.288 33.712 108.112L22.624 104.224L27.664 54.4H80.8C81.28 56.128 81.52 58.384 81.52 61.168C81.52 63.952 80.944 65.92 79.792 67.072C78.64 68.224 77.152 68.8 75.328 68.8H40.192L37.024 94.576C39.232 93.04 41.584 91.744 44.08 90.688C46.672 89.632 50.128 89.104 54.448 89.104C59.344 89.104 63.76 89.92 67.696 91.552C71.632 93.088 74.944 95.2 77.632 97.888C80.416 100.48 82.528 103.552 83.968 107.104C85.504 110.56 86.272 114.208 86.272 118.048C86.272 122.464 85.504 126.592 83.968 130.432C82.528 134.176 80.272 137.488 77.2 140.368C74.224 143.152 70.48 145.36 65.968 146.992C61.552 148.528 56.368 149.296 50.416 149.296Z" fill="#DB62AB"

/>
</g>
<g clip-path="url(#clip1_3847_212362)">
<path opacity="0.8" d="M50.416 156.296C44.368 156.296 38.8 155.576 33.712 154.136C28.72 152.696 24.16 150.776 20.032 148.376C20.032 144.632 20.752 141.848 22.192 140.024C23.728 138.104 25.6 137.144 27.808 137.144C28.96 137.144 30.208 137.384 31.552 137.864C32.992 138.344 34.576 138.872 36.304 139.448C38.128 139.928 40.144 140.408 42.352 140.888C44.656 141.368 47.248 141.608 50.128 141.608C57.04 141.608 62.08 140.12 65.248 137.144C68.416 134.072 70 130.04 70 125.048C70 120.056 68.272 116.168 64.816 113.384C61.36 110.504 57.04 109.064 51.856 109.064C47.632 109.064 44.176 109.64 41.488 110.792C38.8 111.848 36.208 113.288 33.712 115.112L22.624 111.224L27.664 61.4H80.8C81.28 63.128 81.52 65.384 81.52 68.168C81.52 70.952 80.944 72.92 79.792 74.072C78.64 75.224 77.152 75.8 75.328 75.8H40.192L37.024 101.576C39.232 100.04 41.584 98.744 44.08 97.688C46.672 96.632 50.128 96.104 54.448 96.104C59.344 96.104 63.76 96.92 67.696 98.552C71.632 100.088 74.944 102.2 77.632 104.888C80.416 107.48 82.528 110.552 83.968 114.104C85.504 117.56 86.272 121.208 86.272 125.048C86.272 129.464 85.504 133.592 83.968 137.432C82.528 141.176 80.272 144.488 77.2 147.368C74.224 150.152 70.48 152.36 65.968 153.992C61.552 155.528 56.368 156.296 50.416 156.296Z" fill="#564372"/>
</g>
<defs>
<clipPath id="clip0_3847_212362">
<rect width="200" height="100" fill="white"/>
</clipPath>
<clipPath id="clip1_3847_212362">
<rect width="200" height="100" fill="white" transform="translate(0 107)"/>
</clipPath>
</defs>
</svg>
