<svg width="200" height="207" viewBox="0 0 200 207" fill="none" xmlns="http://www.w3.org/2000/svg">
<g clip-path="url(#clip0_3847_212352)">
<path opacity="0.4" d="M71.728 148.864C70.192 148.864 68.704 148.768 67.264 148.576C65.824 148.48 64.72 148.336 63.952 148.144V127.12H20.464C20.272 126.352 20.08 125.392 19.888 124.24C19.696 123.088 19.6 121.744 19.6 120.208C19.6 118.48 19.888 116.8 20.464 115.168C21.04 113.536 22 111.76 23.344 109.84L62.512 54.4H79.504V113.152H93.904C94.384 114.88 94.624 117.088 94.624 119.776C94.624 122.56 94 124.48 92.752 125.536C91.6 126.592 90.208 127.12 88.576 127.12H79.504V142.384C79.504 144.208 78.928 145.744 77.776 146.992C76.72 148.24 74.704 148.864 71.728 148.864ZM36.88 113.296H63.952V74.992L36.88 113.296Z" fill="#DB62AB"/>
</g>
<g clip-path="url(#clip1_3847_212352)">
<path opacity="0.8" d="M71.728 155.864C70.192 155.864 68.704 155.768 67.264 155.576C65.824 155.48 64.72 155.336 63.952 155.144V134.12H20.464C20.272 133.352 20.08 132.392 19.888 131.24C19.696 130.088 19.6 128.744 19.6 127.208C19.6 125.48 19.888 123.8 20.464 122.168C21.04 120.536 22 118.76 23.344 116.84L62.512 61.4H79.504V120.152H93.904C94.384 121.88 94.624 124.088 94.624 126.776C94.624 129.56 94 131.48 92.752 132.536C91.6 133.592 90.208 134.12 88.576 134.12H79.504V149.384C79.504 151.208 78.928 152.744 77.776 153.992C76.72 155.24 74.704 155.864 71.728 155.864ZM36.88 120.296H63.952V81.992L36.88 120.296Z" fill="#564372"/>
</g>
<defs>
<clipPath id="clip0_3847_212352">
<rect width="200" height="100" fill="white"/>
</clipPath>
<clipPath id="clip1_3847_212352">
<rect width="200" height="100" fill="white" transform="translate(0 107)"/>
</clipPath>
</defs>
</svg>
