<svg width="30" height="28" viewBox="0 0 30 28" fill="none" xmlns="http://www.w3.org/2000/svg">
<g filter="url(#filter0_d_5027_166692)">
<path d="M20.7536 2.19622V14.1095C20.6368 14.1387 20.5054 14.1679 20.3594 14.1971C20.2134 14.2263 20.0528 14.2409 19.8776 14.2409C19.4542 14.2409 19.1476 14.1606 18.9578 14C18.768 13.854 18.6731 13.6131 18.6731 13.2773V8.34995C18.4979 8.39375 18.3008 8.42295 18.0818 8.43755C17.8628 8.45215 17.6073 8.45945 17.3154 8.45945C16.8482 8.45945 16.3518 8.41565 15.8262 8.32805C15.3152 8.22586 14.9064 8.11636 14.5998 7.99956L14.556 8.06526C14.8334 8.28425 15.0597 8.59815 15.2349 9.00693C15.4101 9.40112 15.4977 9.80261 15.4977 10.2114C15.4977 11.2188 15.1035 12.0291 14.3151 12.6422C13.5268 13.2554 12.4318 13.562 11.0302 13.562C10.5484 13.562 10.0813 13.5255 9.62866 13.4525C9.19068 13.3795 8.79649 13.27 8.4461 13.124C8.09571 12.978 7.81101 12.8028 7.59202 12.5984C7.38762 12.3794 7.28543 12.124 7.28543 11.832C7.28543 11.54 7.36573 11.3064 7.52632 11.1312C7.68692 10.9414 7.85481 10.81 8.03001 10.737C8.3804 11.0436 8.78919 11.2991 9.25637 11.5035C9.72356 11.6933 10.2783 11.7882 10.9207 11.7882C11.6653 11.7882 12.2566 11.613 12.6946 11.2626C13.1472 10.8976 13.3735 10.4085 13.3735 9.79531C13.3735 9.18213 13.1764 8.69304 12.7822 8.32805C12.4026 7.94846 11.8916 7.75867 11.2492 7.75867H9.21258C9.13958 7.64187 9.08118 7.52507 9.03738 7.40828C9.00818 7.27688 8.99358 7.11629 8.99358 6.92649C8.99358 6.5761 9.06658 6.28411 9.21258 6.05051H11.0959C11.7383 6.05051 12.242 5.88262 12.607 5.54683C12.972 5.19644 13.1545 4.72195 13.1545 4.12337C13.1545 3.58318 12.972 3.13059 12.607 2.7656C12.242 2.40061 11.7018 2.21812 10.9864 2.21812C10.4316 2.21812 9.95716 2.31301 9.56297 2.50281C9.16878 2.6926 8.84759 2.9116 8.59939 3.15979C8.3658 3.043 8.1687 2.897 8.00811 2.7218C7.86211 2.54661 7.78911 2.33491 7.78911 2.08672C7.78911 1.86773 7.86941 1.66333 8.03001 1.47354C8.1906 1.26914 8.4169 1.09395 8.70889 0.947952C9.01548 0.787356 9.37317 0.663259 9.78196 0.575662C10.1907 0.488065 10.6433 0.444266 11.1397 0.444266C11.7237 0.444266 12.2712 0.524564 12.7822 0.685159C13.2932 0.845755 13.7312 1.07935 14.0961 1.38594C14.4757 1.67793 14.7677 2.03562 14.9721 2.45901C15.1911 2.8824 15.3006 3.36419 15.3006 3.90437C15.3006 4.50296 15.1692 5.01394 14.9064 5.43733C14.6582 5.86072 14.3662 6.19651 14.0304 6.4447C14.1326 6.4885 14.264 6.5323 14.4246 6.5761C14.5998 6.6053 14.7896 6.6345 14.994 6.6637C15.1984 6.6929 15.4101 6.7148 15.6291 6.7294C15.8481 6.744 16.0452 6.7513 16.2204 6.7513C16.673 6.7513 17.1037 6.7221 17.5125 6.6637C17.9212 6.6053 18.3081 6.5104 18.6731 6.37901V2.19622H17.0964C16.6292 2.19622 16.3956 1.91883 16.3956 1.36404C16.3956 1.24724 16.4029 1.12315 16.4175 0.991751C16.4467 0.845755 16.4832 0.714358 16.527 0.597561H22.4617C22.9435 0.597561 23.1844 0.867654 23.1844 1.40784C23.1844 1.52464 23.1698 1.65603 23.1406 1.80203C23.1114 1.94802 23.0822 2.07942 23.053 2.19622H20.7536Z" fill="white" fill-opacity="0.75" shape-rendering="crispEdges"/>
</g>
<defs>
<filter id="filter0_d_5027_166692" x="0.526081" y="0.444336" width="29.4176" height="27.315" filterUnits="userSpaceOnUse" color-interpolation-filters="sRGB">
<feFlood flood-opacity="0" result="BackgroundImageFix"/>
<feColorMatrix in="SourceAlpha" type="matrix" values="0 0 0 0 0 0 0 0 0 0 0 0 0 0 0 0 0 0 127 0" result="hardAlpha"/>
<feOffset dy="6.75908"/>
<feGaussianBlur stdDeviation="3.37954"/>
<feComposite in2="hardAlpha" operator="out"/>
<feColorMatrix type="matrix" values="0 0 0 0 0 0 0 0 0 0 0 0 0 0 0 0 0 0 0.5 0"/>
<feBlend mode="normal" in2="BackgroundImageFix" result="effect1_dropShadow_5027_166692"/>
<feBlend mode="normal" in="SourceGraphic" in2="effect1_dropShadow_5027_166692" result="shape"/>
</filter>
</defs>
</svg>
