<?xml version="1.0" encoding="utf-8"?>
<!-- Generator: Adobe Illustrator 16.0.0, SVG Export Plug-In . SVG Version: 6.00 Build 0)  -->
<!DOCTYPE svg PUBLIC "-//W3C//DTD SVG 1.1//EN" "http://www.w3.org/Graphics/SVG/1.1/DTD/svg11.dtd">
<svg version="1.1" id="Layer_1" xmlns="http://www.w3.org/2000/svg" xmlns:xlink="http://www.w3.org/1999/xlink" x="0px" y="0px"
	 width="30px" height="30px" viewBox="282.637 331.538 30 30" enable-background="new 282.637 331.538 30 30" xml:space="preserve">
<rect y="48.895" fill="none" width="595.279" height="595.28"/>
<g>
	<path fill="#220046" d="M298.245,331.55c-4.248-0.167-8.251,1.423-11.19,4.36c0.008-0.51,0.014-1.028,0.021-1.534
		c0.011-0.793-0.622-1.446-1.416-1.458c-0.794-0.02-1.446,0.622-1.457,1.416c0,0-0.021,1.439-0.038,2.883
		c-0.041,3.48-0.041,3.48,0.399,3.93l0,0c0.271,0.273,0.64,0.428,1.024,0.428h6.063c0.75,0,1.42-0.549,1.49-1.295
		c0.082-0.857-0.588-1.578-1.429-1.578h-3.327c2.422-2.862,5.975-4.438,9.768-4.28c6.144,0.254,11.193,5.188,11.584,11.325
		c0.451,7.043-5.151,12.918-12.102,12.918c-6.669,0-12.099-5.412-12.127-12.075c-0.003-0.742-0.545-1.403-1.281-1.479
		c-0.863-0.09-1.592,0.584-1.592,1.429c0,8.271,6.729,15,15,15c8.436,0,15.268-7,14.992-15.496
		C312.377,338.242,306.043,331.855,298.245,331.55z"/>
	<path fill="#220046" d="M297.33,338.832c-0.793,0-1.438,0.645-1.438,1.438v6.268c0,0.66,0.526,1.804,2.09,1.829h5.484
		c0.793,0,1.436-0.644,1.436-1.437s-0.643-1.438-1.436-1.438h-4.701v-5.225C298.766,339.475,298.123,338.832,297.33,338.832z"/>
</g>
</svg>
