<svg xmlns="http://www.w3.org/2000/svg" width="40" height="40" viewBox="0 0 41 40">
    <g fill="#A3A6C2">
        <path
                d="M20 0c11.046 0 20 8.954 20 20s-8.954 20-20 20S0 31.046 0 20 8.954 0 20 0zm0 2.5C10.335 2.5 2.5 10.335 2.5 20S10.335 37.5 20 37.5 37.5 29.665 37.5 20 29.665 2.5 20 2.5z"
                transform="translate(.5)"/>
        <path
                d="M25.682 20.91c0-1.883 1.527-3.41 3.409-3.41s3.409 1.527 3.409 3.41c0 1.881-1.527 3.408-3.41 3.408-1.881 0-3.408-1.527-3.408-3.409M7.5 20.91c0-1.883 1.527-3.41 3.41-3.41 1.881 0 3.408 1.527 3.408 3.41 0 1.881-1.527 3.408-3.409 3.408S7.5 22.791 7.5 20.91M16.59 20.91c0-1.883 1.528-3.41 3.41-3.41 1.882 0 3.41 1.527 3.41 3.41 0 1.881-1.528 3.408-3.41 3.408-1.882 0-3.41-1.527-3.41-3.409"
                transform="translate(.5)"/>
    </g>
</svg>
