<?xml version="1.0" encoding="UTF-8"?>
<svg width="41px" height="40px" viewBox="0 0 41 40" version="1.1" xmlns="http://www.w3.org/2000/svg" xmlns:xlink="http://www.w3.org/1999/xlink">
    <!-- Generator: sketchtool 63.1 (101010) - https://sketch.com -->
    <title>6DEB5E8C-B682-4B65-9C0B-0BF61132F15B</title>
    <desc>Created with sketchtool.</desc>
    <g id="PI-DETAILS-PAGE" stroke="none" stroke-width="1" fill="none" fill-rule="evenodd">
        <g id="TV-Show-–-No-Trailer-–-Not-Subscribed-–-Default" transform="translate(-700.000000, -2222.000000)" fill="#A3A6C2">
            <g id="Group-2" transform="translate(673.000000, 2222.000000)">
                <g id="1-atoms/icons/load_more" transform="translate(27.500000, 0.000000)">
                    <path d="M20,0 C31.045695,0 40,8.954305 40,20 C40,31.045695 31.045695,40 20,40 C8.954305,40 0,31.045695 0,20 C0,8.954305 8.954305,0 20,0 Z M20,2.5 C10.3350169,2.5 2.5,10.3350169 2.5,20 C2.5,29.6649831 10.3350169,37.5 20,37.5 C29.6649831,37.5 37.5,29.6649831 37.5,20 C37.5,10.3350169 29.6649831,2.5 20,2.5 Z" id="Combined-Shape"></path>
                    <path d="M32.5,20.9090909 C32.5,22.7912727 30.9730909,24.3181818 29.0909091,24.3181818 C27.2087273,24.3181818 25.6818182,22.7912727 25.6818182,20.9090909 C25.6818182,19.0269091 27.2087273,17.5 29.0909091,17.5 C30.9730909,17.5 32.5,19.0269091 32.5,20.9090909" id="Fill-1" transform="translate(29.090909, 20.909091) rotate(-540.000000) translate(-29.090909, -20.909091) "></path>
                    <path d="M14.3181818,20.9090909 C14.3181818,22.7912727 12.7912727,24.3181818 10.9090909,24.3181818 C9.02690909,24.3181818 7.5,22.7912727 7.5,20.9090909 C7.5,19.0269091 9.02690909,17.5 10.9090909,17.5 C12.7912727,17.5 14.3181818,19.0269091 14.3181818,20.9090909" id="Fill-2" transform="translate(10.909091, 20.909091) rotate(-540.000000) translate(-10.909091, -20.909091) "></path>
                    <path d="M23.4090909,20.9090909 C23.4090909,22.7912727 21.8821818,24.3181818 20,24.3181818 C18.1178182,24.3181818 16.5909091,22.7912727 16.5909091,20.9090909 C16.5909091,19.0269091 18.1178182,17.5 20,17.5 C21.8821818,17.5 23.4090909,19.0269091 23.4090909,20.9090909" id="Fill-3" transform="translate(20.000000, 20.909091) rotate(-540.000000) translate(-20.000000, -20.909091) "></path>
                </g>
            </g>
        </g>
    </g>
</svg>