<svg width="31" height="30" viewBox="0 0 31 30" fill="none" xmlns="http://www.w3.org/2000/svg">
<path d="M15.5 0C14.5833 0 13.8333 0.75 13.8333 1.66667V15C13.8333 15.9167 14.5833 16.6667 15.5 16.6667C16.4167 16.6667 17.1667 15.9167 17.1667 15V1.66667C17.1667 0.75 16.4167 0 15.5 0ZM24.0667 4.76667C23.7601 5.0732 23.5865 5.48807 23.5834 5.92158C23.5803 6.3551 23.7479 6.77242 24.05 7.08333C25.9333 9.08333 27.1 11.75 27.1667 14.7C27.3167 21.0833 22.0333 26.5833 15.65 26.65C14.1056 26.6741 12.5718 26.3905 11.1382 25.8156C9.70454 25.2408 8.3997 24.3862 7.29978 23.3018C6.19985 22.2174 5.32685 20.9248 4.7317 19.4995C4.13655 18.0742 3.83116 16.5446 3.83334 15C3.83334 11.9333 5.01667 9.15 6.95001 7.06667C7.56667 6.41667 7.56667 5.4 6.93334 4.76667C6.77672 4.60861 6.58984 4.48376 6.38387 4.39958C6.17791 4.31539 5.95707 4.27361 5.73459 4.27672C5.5121 4.27983 5.29253 4.32778 5.08899 4.41769C4.88546 4.5076 4.70214 4.63763 4.55001 4.8C2.04884 7.44929 0.607619 10.9248 0.500006 14.5667C0.266673 22.7 6.88334 29.7333 15.0167 29.9833C23.5167 30.25 30.5 23.4333 30.5 14.9833C30.5 11.0333 28.9667 7.46667 26.4667 4.8C25.8333 4.11667 24.7333 4.1 24.0667 4.76667Z" fill="white"/>
</svg>
