<svg width="18" height="18" viewBox="0 0 18 18" fill="none" xmlns="http://www.w3.org/2000/svg">
<path fill-rule="evenodd" clip-rule="evenodd" d="M5.57129 8.45455V3.54545C5.57129 1.58735 7.10631 0 8.99986 0C10.8934 0 12.4284 1.58735 12.4284 3.54545V8.45455C12.4284 10.4126 10.8934 12 8.99986 12C7.10631 12 5.57129 10.4126 5.57129 8.45455ZM15 8V8.53914C14.9995 11.5307 12.7677 14.0587 9.78261 14.4489V16.4448H11.6087V18H6.3913V16.4448H8.21739V14.4489C5.23226 14.0587 3.00046 11.5307 3 8.53914V8H4.56522V8.53914C4.56522 10.9727 6.55074 12.9456 9 12.9456C11.4493 12.9456 13.4348 10.9727 13.4348 8.53914V8H15Z" fill="white"/>
</svg>
