<svg width="69" height="16" viewBox="0 0 69 16" fill="none" xmlns="http://www.w3.org/2000/svg">
<path d="M23.9034 15.4819H28.5676V7.90396L33.9192 15.4819H38.232V0.53479H33.5528V7.63727L28.4754 0.53479H23.9034V15.4819Z" fill="white"/>
<path d="M39.2604 8.15532C39.2604 12.6781 42.365 16.0147 47.2883 15.9993C51.9373 15.9846 55.2247 12.8854 55.2247 8.06594C55.2247 7.78386 55.2096 7.47248 55.1787 7.17648H47.7469V10.6317H50.4692C49.9955 11.4919 48.8175 11.8626 47.4568 11.8626C45.3162 11.8626 43.9857 10.2464 43.9857 7.99267C43.9857 5.62029 45.6222 4.18207 47.4719 4.18207C48.986 4.18207 49.9494 4.84953 50.3619 5.84303H55.026C54.3687 1.913 50.8213 0 47.3956 0C42.7012 0 39.2604 3.42522 39.2604 8.15532Z" fill="white"/>
<path d="M56.2538 15.4819H68.166V11.5373H61.0705V9.95031H67.5699V6.0657H61.0705V4.47874H68.166V0.53479H56.2538V15.4819Z" fill="white"/>
<path d="M17.1615 0.53479V15.4819H22.0243V0.53479H17.1615Z" fill="white"/>
<path d="M0.000366211 15.6298L13.1359 10.7216L13.151 5.2647L0.000366211 0.385864H9.6648C13.0135 0.385864 15.4607 1.33467 15.4607 4.31516C15.4607 5.78343 14.7271 7.11762 13.1517 7.87373C14.7573 8.33311 15.8128 9.62334 15.8128 11.3436C15.8128 14.4428 13.2741 15.629 10.2315 15.629H0.000366211V15.6298Z" fill="white"/>
<path d="M13.151 5.2647L0.000366211 0.385864V5.39804L7.723 7.96311L0.000366211 10.5436V15.6298L13.1359 10.7216L13.151 5.2647Z" fill="#E10092"/>
</svg>
