<svg width="200" height="207" viewBox="0 0 200 207" fill="none" xmlns="http://www.w3.org/2000/svg">
<g clip-path="url(#clip0_3847_212406)">
<path opacity="0.4" d="M49.984 149.152C45.664 149.152 41.392 148.72 37.168 147.856C33.04 146.896 29.296 145.6 25.936 143.968C25.84 143.008 25.792 142.384 25.792 142.096C25.792 135.376 28.288 132.016 33.28 132.016C34.528 132.016 35.728 132.16 36.88 132.448C38.128 132.736 39.376 133.024 40.624 133.312C41.968 133.6 43.36 133.888 44.8 134.176C46.336 134.464 48.064 134.608 49.984 134.608C57.856 134.608 63.808 132.352 67.84 127.84C71.968 123.328 74.272 115.696 74.752 104.944C71.68 107.728 68.32 109.936 64.672 111.568C61.024 113.2 56.608 114.016 51.424 114.016C46.24 114.016 41.728 113.2 37.888 111.568C34.048 109.936 30.832 107.776 28.24 105.088C25.744 102.304 23.872 99.136 22.624 95.584C21.376 91.936 20.752 88.096 20.752 84.064C20.752 79.648 21.52 75.568 23.056 71.824C24.592 67.984 26.8 64.672 29.68 61.888C32.56 59.008 36.064 56.8 40.192 55.264C44.32 53.632 49.024 52.816 54.304 52.816C65.632 52.816 74.512 56.8 80.944 64.768C87.472 72.64 90.736 84.544 90.736 100.48C90.736 116.704 87.136 128.896 79.936 137.056C72.736 145.12 62.752 149.152 49.984 149.152ZM54.304 101.488C58.624 101.488 62.32 100.816 65.392 99.472C68.56 98.128 71.488 96.112 74.176 93.424C74.08 89.392 73.6 85.744 72.736 82.48C71.968 79.12 70.768 76.24 69.136 73.84C67.6 71.44 65.584 69.616 63.088 68.368C60.688 67.024 57.76 66.352 54.304 66.352C49.12 66.352 44.896 67.984 41.632 71.248C38.368 74.512 36.736 78.784 36.736 84.064C36.736 89.248 38.176 93.472 41.056 96.736C44.032 99.904 48.448 101.488 54.304 101.488Z" fill="#DB62AB"

/>
</g>
<g clip-path="url(#clip1_3847_212406)">
<path opacity="0.8" d="M49.984 156.152C45.664 156.152 41.392 155.72 37.168 154.856C33.04 153.896 29.296 152.6 25.936 150.968C25.84 150.008 25.792 149.384 25.792 149.096C25.792 142.376 28.288 139.016 33.28 139.016C34.528 139.016 35.728 139.16 36.88 139.448C38.128 139.736 39.376 140.024 40.624 140.312C41.968 140.6 43.36 140.888 44.8 141.176C46.336 141.464 48.064 141.608 49.984 141.608C57.856 141.608 63.808 139.352 67.84 134.84C71.968 130.328 74.272 122.696 74.752 111.944C71.68 114.728 68.32 116.936 64.672 118.568C61.024 120.2 56.608 121.016 51.424 121.016C46.24 121.016 41.728 120.2 37.888 118.568C34.048 116.936 30.832 114.776 28.24 112.088C25.744 109.304 23.872 106.136 22.624 102.584C21.376 98.936 20.752 95.096 20.752 91.064C20.752 86.648 21.52 82.568 23.056 78.824C24.592 74.984 26.8 71.672 29.68 68.888C32.56 66.008 36.064 63.8 40.192 62.264C44.32 60.632 49.024 59.816 54.304 59.816C65.632 59.816 74.512 63.8 80.944 71.768C87.472 79.64 90.736 91.544 90.736 107.48C90.736 123.704 87.136 135.896 79.936 144.056C72.736 152.12 62.752 156.152 49.984 156.152ZM54.304 108.488C58.624 108.488 62.32 107.816 65.392 106.472C68.56 105.128 71.488 103.112 74.176 100.424C74.08 96.392 73.6 92.744 72.736 89.48C71.968 86.12 70.768 83.24 69.136 80.84C67.6 78.44 65.584 76.616 63.088 75.368C60.688 74.024 57.76 73.352 54.304 73.352C49.12 73.352 44.896 74.984 41.632 78.248C38.368 81.512 36.736 85.784 36.736 91.064C36.736 96.248 38.176 100.472 41.056 103.736C44.032 106.904 48.448 108.488 54.304 108.488Z" fill="#564372"/>
</g>
<defs>
<clipPath id="clip0_3847_212406">
<rect width="200" height="100" fill="white"/>
</clipPath>
<clipPath id="clip1_3847_212406">
<rect width="200" height="100" fill="white" transform="translate(0 107)"/>
</clipPath>
</defs>
</svg>
