<svg width="20" height="20" viewBox="0 0 20 20" fill="none" xmlns="http://www.w3.org/2000/svg">
<mask id="path-1-inside-1_1218_69637" fill="white">
<path fill-rule="evenodd" clip-rule="evenodd" d="M8.66666 0C9.95573 0 11 1.07105 11 2.39184V2.48131C11.9463 2.8435 12.783 3.41546 13.4625 4.13777C12.9678 4.25073 12.4998 4.43354 12.0687 4.67446C11.5674 4.24792 10.9858 3.9123 10.3462 3.69524L10.1483 3.63243L9.6665 3.48953V2.39179L9.66134 2.28697C9.6101 1.77009 9.18406 1.36747 8.6665 1.36747C8.15016 1.36747 7.72305 1.77126 7.67168 2.28719L7.6665 2.39179V3.48953L7.18473 3.63243L6.98683 3.69523C4.895 4.40504 3.42437 6.38167 3.33717 8.67314L3.33307 8.88885V12.9914L3.32761 13.1158C3.26624 13.8122 2.6946 14.359 2.00103 14.359C1.66088 14.359 1.37955 14.6207 1.33828 14.9572L1.33307 15.0427V15.7265H15.9999V15.0427L15.9947 14.9571C15.9749 14.7967 15.9004 14.6532 15.791 14.547C16.2514 14.4492 16.6905 14.2907 17.0991 14.0809C17.2485 14.367 17.3333 14.6948 17.3333 15.0427V16.0697C17.3333 16.6333 16.8841 17.094 16.332 17.094H11.6628C11.5756 18.7139 10.2683 20 8.66673 20C7.06517 20 5.75787 18.7139 5.67063 17.094H1.0013C0.4479 17.094 0 16.636 0 16.0697V15.0427C0 13.9102 0.895834 12.9914 2.0013 12.9914L2.00085 12.7921L2.0008 12.7422L2 9.08821L2 9.04335L2 8.88885C2 5.9989 3.76173 3.46559 6.33333 2.48131V2.39184C6.33333 1.07105 7.3789 0 8.66666 0ZM10.3256 17.094H7.0079L7.02522 17.2221C7.16389 18.0238 7.8454 18.6325 8.66677 18.6325C9.53137 18.6325 10.241 17.958 10.3256 17.094ZM14.6677 4C14.9986 4 15.2759 4.03822 15.2759 4.03822C15.4735 4.06554 15.634 4.25011 15.634 4.44996V5.47982C15.634 5.67969 16.0434 5.98002 16.1886 6.05209C16.3338 6.12417 16.5685 6.06739 16.7094 5.9265L17.4376 5.19915C17.5785 5.05826 17.8175 5.04734 17.9715 5.17512L18.8274 6.03133C18.9552 6.18424 18.9443 6.4245 18.8023 6.56539L18.0752 7.29274C17.9354 7.43362 18.0086 7.93161 18.0621 8.08669C18.1156 8.24177 18.3219 8.36954 18.5217 8.36954H19.5513C19.75 8.36954 19.9345 8.53117 19.9618 8.72774C19.9618 8.72774 20 9.00514 20 9.33496C20 9.66479 19.9618 9.94218 19.9618 9.94218C19.9345 10.1388 19.75 10.3004 19.5513 10.3004L18.5195 10.2982C18.3208 10.2982 18.0195 10.7067 17.9474 10.853C17.8764 10.9982 17.9321 11.2331 18.073 11.3739L18.8001 12.1024C18.942 12.2433 18.9529 12.4846 18.8252 12.6375L17.9693 13.4927C17.8153 13.6204 17.5762 13.6095 17.4354 13.4686L16.7071 12.7413C16.5663 12.5993 16.0685 12.6736 15.9134 12.7271C15.7573 12.7806 15.6307 12.9881 15.6307 13.1868V14.2167C15.6307 14.4155 15.4691 14.6011 15.2726 14.6284C15.2726 14.6284 14.9953 14.6667 14.6645 14.6667C14.3347 14.6667 14.0574 14.6284 14.0574 14.6284C13.8598 14.6 13.6993 14.4155 13.6993 14.2167V13.1868C13.6993 12.9881 13.2899 12.6866 13.1447 12.6146C12.9995 12.5436 12.7648 12.6004 12.6239 12.7413L11.8957 13.4686C11.756 13.6106 11.5158 13.6215 11.3629 13.4937L10.507 12.6375C10.3792 12.4835 10.3902 12.2443 10.531 12.1035L11.2581 11.375C11.4001 11.2341 11.3258 10.7361 11.2723 10.5811C11.2177 10.4249 11.0114 10.2982 10.8127 10.2982H9.78316C9.58444 10.2982 9.39884 10.1377 9.37155 9.94001C9.37155 9.94001 9.33333 9.66261 9.33333 9.33279C9.33333 9.00297 9.37155 8.72557 9.37155 8.72557C9.39885 8.52901 9.58445 8.36738 9.78316 8.36738H10.8127C11.0125 8.36738 11.3138 7.95892 11.3859 7.81258C11.4569 7.66734 11.4012 7.43252 11.2592 7.29164L10.5321 6.56428C10.3913 6.42337 10.3804 6.18312 10.5081 6.03023L11.364 5.17401C11.5169 5.04624 11.756 5.05716 11.8968 5.19804L12.625 5.92539C12.7659 6.06628 13.2637 5.9931 13.4199 5.93959C13.576 5.88608 13.7026 5.67859 13.7026 5.47982V4.44996C13.7026 4.25009 13.8631 4.06553 14.0607 4.03822C14.0607 4.03822 14.338 4 14.6677 4ZM14.6677 7.38224C13.5912 7.38224 12.7167 8.25592 12.7167 9.33384C12.7167 10.4129 13.5901 11.2865 14.6677 11.2865C15.7463 11.2865 16.6198 10.4118 16.6187 9.33384C16.6187 8.25592 15.7453 7.38224 14.6677 7.38224Z"/>
</mask>
<path fill-rule="evenodd" clip-rule="evenodd" d="M8.66666 0C9.95573 0 11 1.07105 11 2.39184V2.48131C11.9463 2.8435 12.783 3.41546 13.4625 4.13777C12.9678 4.25073 12.4998 4.43354 12.0687 4.67446C11.5674 4.24792 10.9858 3.9123 10.3462 3.69524L10.1483 3.63243L9.6665 3.48953V2.39179L9.66134 2.28697C9.6101 1.77009 9.18406 1.36747 8.6665 1.36747C8.15016 1.36747 7.72305 1.77126 7.67168 2.28719L7.6665 2.39179V3.48953L7.18473 3.63243L6.98683 3.69523C4.895 4.40504 3.42437 6.38167 3.33717 8.67314L3.33307 8.88885V12.9914L3.32761 13.1158C3.26624 13.8122 2.6946 14.359 2.00103 14.359C1.66088 14.359 1.37955 14.6207 1.33828 14.9572L1.33307 15.0427V15.7265H15.9999V15.0427L15.9947 14.9571C15.9749 14.7967 15.9004 14.6532 15.791 14.547C16.2514 14.4492 16.6905 14.2907 17.0991 14.0809C17.2485 14.367 17.3333 14.6948 17.3333 15.0427V16.0697C17.3333 16.6333 16.8841 17.094 16.332 17.094H11.6628C11.5756 18.7139 10.2683 20 8.66673 20C7.06517 20 5.75787 18.7139 5.67063 17.094H1.0013C0.4479 17.094 0 16.636 0 16.0697V15.0427C0 13.9102 0.895834 12.9914 2.0013 12.9914L2.00085 12.7921L2.0008 12.7422L2 9.08821L2 9.04335L2 8.88885C2 5.9989 3.76173 3.46559 6.33333 2.48131V2.39184C6.33333 1.07105 7.3789 0 8.66666 0ZM10.3256 17.094H7.0079L7.02522 17.2221C7.16389 18.0238 7.8454 18.6325 8.66677 18.6325C9.53137 18.6325 10.241 17.958 10.3256 17.094ZM14.6677 4C14.9986 4 15.2759 4.03822 15.2759 4.03822C15.4735 4.06554 15.634 4.25011 15.634 4.44996V5.47982C15.634 5.67969 16.0434 5.98002 16.1886 6.05209C16.3338 6.12417 16.5685 6.06739 16.7094 5.9265L17.4376 5.19915C17.5785 5.05826 17.8175 5.04734 17.9715 5.17512L18.8274 6.03133C18.9552 6.18424 18.9443 6.4245 18.8023 6.56539L18.0752 7.29274C17.9354 7.43362 18.0086 7.93161 18.0621 8.08669C18.1156 8.24177 18.3219 8.36954 18.5217 8.36954H19.5513C19.75 8.36954 19.9345 8.53117 19.9618 8.72774C19.9618 8.72774 20 9.00514 20 9.33496C20 9.66479 19.9618 9.94218 19.9618 9.94218C19.9345 10.1388 19.75 10.3004 19.5513 10.3004L18.5195 10.2982C18.3208 10.2982 18.0195 10.7067 17.9474 10.853C17.8764 10.9982 17.9321 11.2331 18.073 11.3739L18.8001 12.1024C18.942 12.2433 18.9529 12.4846 18.8252 12.6375L17.9693 13.4927C17.8153 13.6204 17.5762 13.6095 17.4354 13.4686L16.7071 12.7413C16.5663 12.5993 16.0685 12.6736 15.9134 12.7271C15.7573 12.7806 15.6307 12.9881 15.6307 13.1868V14.2167C15.6307 14.4155 15.4691 14.6011 15.2726 14.6284C15.2726 14.6284 14.9953 14.6667 14.6645 14.6667C14.3347 14.6667 14.0574 14.6284 14.0574 14.6284C13.8598 14.6 13.6993 14.4155 13.6993 14.2167V13.1868C13.6993 12.9881 13.2899 12.6866 13.1447 12.6146C12.9995 12.5436 12.7648 12.6004 12.6239 12.7413L11.8957 13.4686C11.756 13.6106 11.5158 13.6215 11.3629 13.4937L10.507 12.6375C10.3792 12.4835 10.3902 12.2443 10.531 12.1035L11.2581 11.375C11.4001 11.2341 11.3258 10.7361 11.2723 10.5811C11.2177 10.4249 11.0114 10.2982 10.8127 10.2982H9.78316C9.58444 10.2982 9.39884 10.1377 9.37155 9.94001C9.37155 9.94001 9.33333 9.66261 9.33333 9.33279C9.33333 9.00297 9.37155 8.72557 9.37155 8.72557C9.39885 8.52901 9.58445 8.36738 9.78316 8.36738H10.8127C11.0125 8.36738 11.3138 7.95892 11.3859 7.81258C11.4569 7.66734 11.4012 7.43252 11.2592 7.29164L10.5321 6.56428C10.3913 6.42337 10.3804 6.18312 10.5081 6.03023L11.364 5.17401C11.5169 5.04624 11.756 5.05716 11.8968 5.19804L12.625 5.92539C12.7659 6.06628 13.2637 5.9931 13.4199 5.93959C13.576 5.88608 13.7026 5.67859 13.7026 5.47982V4.44996C13.7026 4.25009 13.8631 4.06553 14.0607 4.03822C14.0607 4.03822 14.338 4 14.6677 4ZM14.6677 7.38224C13.5912 7.38224 12.7167 8.25592 12.7167 9.33384C12.7167 10.4129 13.5901 11.2865 14.6677 11.2865C15.7463 11.2865 16.6198 10.4118 16.6187 9.33384C16.6187 8.25592 15.7453 7.38224 14.6677 7.38224Z" fill="white" stroke="white
" stroke-width="2" mask="url(#path-1-inside-1_1218_69637)"/>
</svg>
