<svg xmlns="http://www.w3.org/2000/svg" width="22" height="22" viewBox="0 0 25 22">
    <g fill="none" fill-rule="evenodd">
        <path fill="#5087c7" d="M10.982 22c-2.65 0-3.695-1.729-3.936-3.143h-4.9c-.321 0-.643-.157-.723-.471-.08-.315-.08-.629.16-.865 0 0 2.17-2.2 2.17-5.735 0-2.279 0-8.879 6.426-9.429V.786c0-.472.321-.786.803-.786.482 0 .804.314.804.786v1.571c6.426.472 6.426 7.15 6.426 9.429 0 3.535 2.169 5.735 2.169 5.735.24.236.321.55.16.865-.08.314-.401.471-.723.471h-4.9C14.678 20.271 13.633 22 10.982 22zm-2.25-3.143c.242.707.804 1.572 2.25 1.572 1.526 0 2.089-.865 2.25-1.572h-4.5zm-.963-1.571h10.443c-.723-1.179-1.607-3.065-1.607-5.5 0-5.422-1.767-7.858-5.623-7.858-3.856 0-5.623 2.436-5.623 7.858 0 2.435-.884 4.321-1.607 5.5H7.77z"/>
        <circle cx="21.313" cy="3.438" r="3.438" fill="#E56C6C"/>
    </g>
</svg>
