<svg width="24" height="24" viewBox="0 0 24 24" fill="none" xmlns="http://www.w3.org/2000/svg">
<path fill-rule="evenodd" clip-rule="evenodd" d="M18.1661 8.26789C18.1765 8.44614 18.1818 8.62577 18.1818 8.80645V14L20 15V18H4V15L5.8182 14V8.80645C5.8182 5.63312 7.44606 2.8006 10.3927 2.1C10.3927 2.1 11 2 12 2C13 2 13.6117 2.1 13.6117 2.1C13.9766 2.18644 14.321 2.3055 14.6444 2.45375C14.1538 2.9078 13.7947 3.50187 13.6306 4.17245C13.4334 4.10652 13.2239 4.06195 13.0017 4.04196C12.7766 4.02171 12.4338 4 12 4C11.5663 4 11.2248 4.02171 11.0013 4.04189C8.7765 4.24281 7.8182 6.91368 7.8182 8.80645V15.1825L6.33191 16H17.6681L16.1818 15.1825V8.80645C16.1818 8.66412 16.1764 8.51742 16.1655 8.36772C16.4328 8.43373 16.7123 8.46875 17 8.46875C17.4091 8.46875 17.8016 8.39793 18.1661 8.26789ZM10.7083 4.07495L10.7123 4.07434L10.7113 4.07447L10.7083 4.07495Z" fill="#766A84"/>
<path fill-rule="evenodd" clip-rule="evenodd" d="M14.172 22L9.82782 22L7.87109 19L10.2589 19L12 21.6693L13.7407 19L16.1284 19L14.172 22Z" fill="#766A84"/>
<circle cx="17" cy="5" r="2" fill="#E10092"/>
</svg>
