<svg width="24" height="25" viewBox="0 0 24 25" fill="none" xmlns="http://www.w3.org/2000/svg">
<g clip-path="url(#clip0_11709_519244)">
<path fill-rule="evenodd" clip-rule="evenodd" d="M20.875 12.5C20.875 17.4015 16.9015 21.375 12 21.375C7.09847 21.375 3.125 17.4015 3.125 12.5C3.125 7.59847 7.09847 3.625 12 3.625C16.9015 3.625 20.875 7.59847 20.875 12.5ZM24 12.5C24 19.1274 18.6274 24.5 12 24.5C5.37258 24.5 0 19.1274 0 12.5C0 5.87258 5.37258 0.5 12 0.5C18.6274 0.5 24 5.87258 24 12.5ZM10.8109 6.96149H12.8714V11.3112H17.2212V13.3717H12.8714V17.7213H10.8109V13.3717H6.46118V11.3112H10.8109V6.96149Z" fill="white"/>
</g>
<defs>
<clipPath id="clip0_11709_519244">
<rect width="24" height="24" fill="white" transform="translate(0 0.5)"/>
</clipPath>
</defs>
</svg>
