<svg width="200" height="207" viewBox="0 0 200 207" fill="none" xmlns="http://www.w3.org/2000/svg">
<g clip-path="url(#clip0_3847_212318)">
<path opacity="0.4" d="M48.832 148.864C47.296 148.864 45.76 148.768 44.224 148.576C42.688 148.48 41.536 148.336 40.768 148.144V72.4L23.056 80.752C21.712 79.696 20.656 78.4 19.888 76.864C19.12 75.328 18.736 73.84 18.736 72.4C18.736 69.04 20.416 66.4 23.776 64.48L44.512 54.4H57.04V142.096C57.04 144.016 56.416 145.648 55.168 146.992C54.016 148.24 51.904 148.864 48.832 148.864Z" fill="#DB62AB"/>
</g>
<g clip-path="url(#clip1_3847_212318)">
<path opacity="0.8" d="M48.832 155.864C47.296 155.864 45.76 155.768 44.224 155.576C42.688 155.48 41.536 155.336 40.768 155.144V79.4L23.056 87.752C21.712 86.696 20.656 85.4 19.888 83.864C19.12 82.328 18.736 80.84 18.736 79.4C18.736 76.04 20.416 73.4 23.776 71.48L44.512 61.4H57.04V149.096C57.04 151.016 56.416 152.648 55.168 153.992C54.016 155.24 51.904 155.864 48.832 155.864Z" fill="#564372"/>
</g>
<defs>
<clipPath id="clip0_3847_212318">
<rect width="200" height="100" fill="white"/>
</clipPath>
<clipPath id="clip1_3847_212318">
<rect width="200" height="100" fill="white" transform="translate(0 107)"/>
</clipPath>
</defs>
</svg>
