<?xml version="1.0" encoding="utf-8"?>
<!-- Generator: Adobe Illustrator 16.0.0, SVG Export Plug-In . SVG Version: 6.00 Build 0)  -->
<!DOCTYPE svg PUBLIC "-//W3C//DTD SVG 1.1//EN" "http://www.w3.org/Graphics/SVG/1.1/DTD/svg11.dtd">
<svg version="1.1" id="Layer_1" xmlns="http://www.w3.org/2000/svg" xmlns:xlink="http://www.w3.org/1999/xlink" x="0px" y="0px"
	 width="24px" height="18.543px" viewBox="0 0 24 18.543" enable-background="new 0 0 24 18.543" xml:space="preserve">
<g id="Group_4001" transform="translate(-527 -172)">
	<g id="Group_3999" transform="translate(40)">
		<g id="noun_read_message_599625" transform="translate(481 156.002)">
			<g id="Group_3997" transform="translate(6 15.998)">
				<path id="Path_24896" fill="#FFFFFF" d="M0.494,0.002C0.214,0.029,0,0.265,0,0.546v14.727c0,0.302,0.244,0.545,0.545,0.545l0,0
					h2.182v2.185c0.001,0.301,0.248,0.545,0.549,0.543c0.112-0.001,0.221-0.035,0.312-0.101l3.673-2.625h16.194
					c0.301,0,0.545-0.243,0.545-0.545c0-0.001,0-0.001,0-0.002V0.546c0-0.3-0.244-0.544-0.545-0.544H0.494z M1.094,1.093h21.815
					v13.635H7.091c-0.113,0-0.223,0.034-0.315,0.101l-2.958,2.115v-1.67c0-0.301-0.244-0.545-0.545-0.545l0,0H1.091L1.094,1.093z"/>
			</g>
		</g>
	</g>
	<g id="noun_exclamation_3021504" transform="translate(575.041 146)">
		<g id="Group_4000" transform="translate(-37.041 29)">
			<path id="Path_24898" fill="#FFFFFF" d="M1.732,0.853c0.078-1.137-1.783-1.137-1.731,0l0.34,6.407
				c0.039,0.293,0.307,0.5,0.599,0.461C1.18,7.69,1.369,7.5,1.4,7.26L1.732,0.853z"/>
			<path id="Path_24899" fill="#FFFFFF" d="M0.88,8.579c0.393,0.016,0.698,0.346,0.684,0.738C1.55,9.688,1.251,9.986,0.88,10
				c-0.392,0.014-0.722-0.292-0.737-0.684C0.128,8.924,0.434,8.594,0.827,8.579C0.844,8.579,0.862,8.579,0.88,8.579z"/>
		</g>
	</g>
</g>
</svg>
