<svg width="20" height="20" viewBox="0 0 20 20" fill="none" xmlns="http://www.w3.org/2000/svg">
<path d="M15.125 8.125V8.625H15.625C16.3841 8.625 17 9.24011 17 10V11.875V12.5V13.75V14.375C17 17.2057 14.7057 19.5 11.875 19.5H8.125C5.29427 19.5 3 17.2057 3 14.375V13.75V12.5V11.875V10C3 9.24052 3.61552 8.625 4.375 8.625H4.875V8.125V5.625C4.875 2.79427 7.16927 0.5 10 0.5C12.8307 0.5 15.125 2.79427 15.125 5.625V8.125ZM14.375 8.625H14.875V8.125V5.625C14.875 2.93261 12.6924 0.75 10 0.75C7.30761 0.75 5.125 2.93261 5.125 5.625V8.125V8.625H5.625H6.875H7H7.375H7.5H12.5H12.625H13H13.125H14.375ZM16.75 12.5V11.875V10C16.75 9.37853 16.2452 8.875 15.625 8.875H15.6226H15.6201H15.6177H15.6152H15.6128H15.6103H15.6079H15.6054H15.603H15.6005H15.5981H15.5956H15.5932H15.5908H15.5883H15.5859H15.5834H15.581H15.5785H15.5761H15.5736H15.5712H15.5687H15.5663H15.5639H15.5614H15.559H15.5565H15.5541H15.5516H15.5492H15.5467H15.5443H15.5418H15.5394H15.537H15.5345H15.5321H15.5296H15.5272H15.5247H15.5223H15.5198H15.5174H15.5149H15.5125H15.5101H15.5076H15.5052H15.5027H15.5003H15.4978H15.4954H15.4929H15.4905H15.4881H15.4856H15.4832H15.4807H15.4783H15.4758H15.4734H15.4709H15.4685H15.466H15.4636H15.4612H15.4587H15.4563H15.4538H15.4514H15.4489H15.4465H15.444H15.4416H15.4392H15.4367H15.4343H15.4318H15.4294H15.4269H15.4245H15.4221H15.4196H15.4172H15.4147H15.4123H15.4098H15.4074H15.4049H15.4025H15.4001H15.3976H15.3952H15.3927H15.3903H15.3878H15.3854H15.3829H15.3805H15.3781H15.3756H15.3732H15.3707H15.3683H15.3658H15.3634H15.361H15.3585H15.3561H15.3536H15.3512H15.3487H15.3463H15.3439H15.3414H15.339H15.3365H15.3341H15.3316H15.3292H15.3267H15.3243H15.3219H15.3194H15.317H15.3145H15.3121H15.3096H15.3072H15.3048H15.3023H15.2999H15.2974H15.295H15.2925H15.2901H15.2877H15.2852H15.2828H15.2803H15.2779H15.2754H15.273H15.2706H15.2681H15.2657H15.2632H15.2608H15.2583H15.2559H15.2535H15.251H15.2486H15.2461H15.2437H15.2412H15.2388H15.2364H15.2339H15.2315H15.229H15.2266H15.2242H15.2217H15.2193H15.2168H15.2144H15.2119H15.2095H15.2071H15.2046H15.2022H15.1997H15.1973H15.1948H15.1924H15.19H15.1875H15.1851H15.1826H15.1802H15.1778H15.1753H15.1729H15.1704H15.168H15.1655H15.1631H15.1607H15.1582H15.1558H15.1533H15.1509H15.1484H15.146H15.1436H15.1411H15.1387H15.1362H15.1338H15.1314H15.1289H15.1265H15.124H15.1216H15.1191H15.1167H15.1143H15.1118H15.1094H15.1069H15.1045H15.1021H15.0996H15.0972H15.0947H15.0923H15.0899H15.0874H15.085H15.0825H15.0801H15.0776H15.0752H15.0728H15.0703H15.0679H15.0654H15.063H15.0606H15.0581H15.0557H15.0532H15.0508H15.0484H15.0459H15.0435H15.041H15.0386H15.0361H15.0337H15.0313H15.0288H15.0264H15.0239H15.0215H15.0191H15.0166H15.0142H15.0117H15.0093H15.0069H15.0044H15.002H14.9995H14.9971H14.9946H14.9922H14.9898H14.9873H14.9849H14.9824H14.98H14.9776H14.9751H14.9727H14.9702H14.9678H14.9654H14.9629H14.9605H14.958H14.9556H14.9532H14.9507H14.9483H14.9458H14.9434H14.941H14.9385H14.9361H14.9336H14.9312H14.9288H14.9263H14.9239H14.9214H14.919H14.9166H14.9141H14.9117H14.9092H14.9068H14.9044H14.9019H14.8995H14.897H14.8946H14.8921H14.8897H14.8873H14.8848H14.8824H14.8799H14.8775H14.8751H14.8726H14.8702H14.8677H14.8653H14.8629H14.8604H14.858H14.8555H14.8531H14.8507H14.8482H14.8458H14.8433H14.8409H14.8385H14.836H14.8336H14.8311H14.8287H14.8263H14.8238H14.8214H14.8189H14.8165H14.8141H14.8116H14.8092H14.8067H14.8043H14.8019H14.7994H14.797H14.7945H14.7921H14.7897H14.7872H14.7848H14.7824H14.7799H14.7775H14.775H14.7726H14.7702H14.7677H14.7653H14.7628H14.7604H14.758H14.7555H14.7531H14.7506H14.7482H14.7458H14.7433H14.7409H14.7384H14.736H14.7336H14.7311H14.7287H14.7262H14.7238H14.7214H14.7189H14.7165H14.714H14.7116H14.7092H14.7067H14.7043H14.7018H14.6994H14.697H14.6945H14.6921H14.6896H14.6872H14.6848H14.6823H14.6799H14.6774H14.675H14.6726H14.6701H14.6677H14.6653H14.6628H14.6604H14.6579H14.6555H14.6531H14.6506H14.6482H14.6457H14.6433H14.6409H14.6384H14.636H14.6335H14.6311H14.6287H14.6262H14.6238H14.6213H14.6189H14.6165H14.614H14.6116H14.6091H14.6067H14.6043H14.6018H14.5994H14.597H14.5945H14.5921H14.5896H14.5872H14.5848H14.5823H14.5799H14.5774H14.575H14.5726H14.5701H14.5677H14.5652H14.5628H14.5604H14.5579H14.5555H14.553H14.5506H14.5482H14.5457H14.5433H14.5409H14.5384H14.536H14.5335H14.5311H14.5287H14.5262H14.5238H14.5213H14.5189H14.5165H14.514H14.5116H14.5091H14.5067H14.5043H14.5018H14.4994H14.4969H14.4945H14.4921H14.4896H14.4872H14.4848H14.4823H14.4799H14.4774H14.475H14.4726H14.4701H14.4677H14.4652H14.4628H14.4604H14.4579H14.4555H14.453H14.4506H14.4482H14.4457H14.4433H14.4409H14.4384H14.436H14.4335H14.4311H14.4287H14.4262H14.4238H14.4213H14.4189H14.4165H14.414H14.4116H14.4091H14.4067H14.4043H14.4018H14.3994H14.397H14.3945H14.3921H14.3896H14.3872H14.3848H14.3823H14.3799H14.3774H14.375H5.625H5.62256H5.62011H5.61767H5.61523H5.61279H5.61034H5.6079H5.60546H5.60302H5.60057H5.59813H5.59569H5.59325H5.5908H5.58836H5.58592H5.58348H5.58103H5.57859H5.57615H5.57371H5.57127H5.56882H5.56638H5.56394H5.5615H5.55905H5.55661H5.55417H5.55173H5.54929H5.54684H5.5444H5.54196H5.53952H5.53707H5.53463H5.53219H5.52975H5.52731H5.52486H5.52242H5.51998H5.51754H5.5151H5.51265H5.51021H5.50777H5.50533H5.50289H5.50044H5.498H5.49556H5.49312H5.49068H5.48823H5.48579H5.48335H5.48091H5.47847H5.47602H5.47358H5.47114H5.4687H5.46626H5.46382H5.46137H5.45893H5.45649H5.45405H5.45161H5.44916H5.44672H5.44428H5.44184H5.4394H5.43696H5.43451H5.43207H5.42963H5.42719H5.42475H5.42231H5.41986H5.41742H5.41498H5.41254H5.4101H5.40766H5.40521H5.40277H5.40033H5.39789H5.39545H5.39301H5.39057H5.38812H5.38568H5.38324H5.3808H5.37836H5.37592H5.37348H5.37103H5.36859H5.36615H5.36371H5.36127H5.35883H5.35639H5.35394H5.3515H5.34906H5.34662H5.34418H5.34174H5.3393H5.33685H5.33441H5.33197H5.32953H5.32709H5.32465H5.32221H5.31977H5.31732H5.31488H5.31244H5.31H5.30756H5.30512H5.30268H5.30024H5.29779H5.29535H5.29291H5.29047H5.28803H5.28559H5.28315H5.28071H5.27826H5.27582H5.27338H5.27094H5.2685H5.26606H5.26362H5.26118H5.25874H5.25629H5.25385H5.25141H5.24897H5.24653H5.24409H5.24165H5.23921H5.23677H5.23432H5.23188H5.22944H5.227H5.22456H5.22212H5.21968H5.21724H5.2148H5.21236H5.20991H5.20747H5.20503H5.20259H5.20015H5.19771H5.19527H5.19283H5.19039H5.18795H5.1855H5.18306H5.18062H5.17818H5.17574H5.1733H5.17086H5.16842H5.16598H5.16354H5.1611H5.15865H5.15621H5.15377H5.15133H5.14889H5.14645H5.14401H5.14157H5.13913H5.13669H5.13425H5.1318H5.12936H5.12692H5.12448H5.12204H5.1196H5.11716H5.11472H5.11228H5.10984H5.1074H5.10495H5.10251H5.10007H5.09763H5.09519H5.09275H5.09031H5.08787H5.08543H5.08299H5.08055H5.07811H5.07566H5.07322H5.07078H5.06834H5.0659H5.06346H5.06102H5.05858H5.05614H5.0537H5.05126H5.04882H5.04638H5.04393H5.04149H5.03905H5.03661H5.03417H5.03173H5.02929H5.02685H5.02441H5.02197H5.01953H5.01709H5.01464H5.0122H5.00976H5.00732H5.00488H5.00244H5H4.99756H4.99512H4.99268H4.99024H4.9878H4.98536H4.98291H4.98047H4.97803H4.97559H4.97315H4.97071H4.96827H4.96583H4.96339H4.96095H4.95851H4.95607H4.95362H4.95118H4.94874H4.9463H4.94386H4.94142H4.93898H4.93654H4.9341H4.93166H4.92922H4.92678H4.92434H4.92189H4.91945H4.91701H4.91457H4.91213H4.90969H4.90725H4.90481H4.90237H4.89993H4.89749H4.89505H4.8926H4.89016H4.88772H4.88528H4.88284H4.8804H4.87796H4.87552H4.87308H4.87064H4.8682H4.86575H4.86331H4.86087H4.85843H4.85599H4.85355H4.85111H4.84867H4.84623H4.84379H4.84135H4.8389H4.83646H4.83402H4.83158H4.82914H4.8267H4.82426H4.82182H4.81938H4.81694H4.8145H4.81205H4.80961H4.80717H4.80473H4.80229H4.79985H4.79741H4.79497H4.79253H4.79009H4.78764H4.7852H4.78276H4.78032H4.77788H4.77544H4.773H4.77056H4.76812H4.76568H4.76323H4.76079H4.75835H4.75591H4.75347H4.75103H4.74859H4.74615H4.74371H4.74126H4.73882H4.73638H4.73394H4.7315H4.72906H4.72662H4.72418H4.72174H4.71929H4.71685H4.71441H4.71197H4.70953H4.70709H4.70465H4.70221H4.69976H4.69732H4.69488H4.69244H4.69H4.68756H4.68512H4.68268H4.68023H4.67779H4.67535H4.67291H4.67047H4.66803H4.66559H4.66315H4.6607H4.65826H4.65582H4.65338H4.65094H4.6485H4.64606H4.64361H4.64117H4.63873H4.63629H4.63385H4.63141H4.62897H4.62652H4.62408H4.62164H4.6192H4.61676H4.61432H4.61188H4.60943H4.60699H4.60455H4.60211H4.59967H4.59723H4.59479H4.59234H4.5899H4.58746H4.58502H4.58258H4.58014H4.57769H4.57525H4.57281H4.57037H4.56793H4.56549H4.56304H4.5606H4.55816H4.55572H4.55328H4.55084H4.54839H4.54595H4.54351H4.54107H4.53863H4.53618H4.53374H4.5313H4.52886H4.52642H4.52398H4.52153H4.51909H4.51665H4.51421H4.51177H4.50932H4.50688H4.50444H4.502H4.49956H4.49711H4.49467H4.49223H4.48979H4.48735H4.4849H4.48246H4.48002H4.47758H4.47514H4.47269H4.47025H4.46781H4.46537H4.46293H4.46048H4.45804H4.4556H4.45316H4.45071H4.44827H4.44583H4.44339H4.44095H4.4385H4.43606H4.43362H4.43118H4.42873H4.42629H4.42385H4.42141H4.41896H4.41652H4.41408H4.41164H4.4092H4.40675H4.40431H4.40187H4.39943H4.39698H4.39454H4.3921H4.38966H4.38721H4.38477H4.38233H4.37989H4.37744H4.375C3.75386 8.875 3.25 9.37886 3.25 10V11.875V12.5V13.75V14.375C3.25 17.063 5.43698 19.25 8.125 19.25H11.875C14.563 19.25 16.75 17.063 16.75 14.375V13.75V12.5Z" fill="white" stroke="white"/>
</svg>
