<svg width="18" height="13" viewBox="0 0 18 13" fill="none" xmlns="http://www.w3.org/2000/svg">
<path d="M1.50002 4.71415H1.00002V5.21415V10.7499C1.00002 11.5189 1.62387 12.1427 2.39287 12.1427H15.6072C16.3762 12.1427 17 11.5189 17 10.7499V5.21415V4.71415H16.5H1.50002ZM1.00002 4.14272V4.64272H1.50002H16.5H17V4.14272V2.53558C17 1.76658 16.3762 1.14272 15.6072 1.14272H2.39287C1.62387 1.14272 1.00002 1.76658 1.00002 2.53558V4.14272ZM1.35747 1.50017C1.63207 1.22556 2.00452 1.07129 2.39287 1.07129H15.6072C15.9955 1.07129 16.368 1.22556 16.6426 1.50017C16.9172 1.77477 17.0714 2.14722 17.0714 2.53558V10.7499C17.0714 11.1382 16.9172 11.5107 16.6426 11.7853C16.368 12.0599 15.9955 12.2141 15.6072 12.2141H2.39287C2.00452 12.2141 1.63207 12.0599 1.35747 11.7853C1.08286 11.5107 0.928589 11.1382 0.928589 10.7499V2.53558C0.928589 2.14722 1.08286 1.77478 1.35747 1.50017Z" fill="white" stroke="white
"/>
</svg>
