<svg width="20" height="20" viewBox="0 0 20 20" fill="none" xmlns="http://www.w3.org/2000/svg">
<path fill-rule="evenodd" clip-rule="evenodd" d="M10 0C4.47715 0 0 4.47715 0 10C0 15.5228 4.47715 20 10 20C15.5228 20 20 15.5228 20 10C20 4.47715 15.5228 0 10 0ZM10 1.25C14.8325 1.25 18.75 5.16751 18.75 10C18.75 14.8325 14.8325 18.75 10 18.75C5.16751 18.75 1.25 14.8325 1.25 10C1.25 5.16751 5.16751 1.25 10 1.25ZM8.0254 5.74912L13.8009 9.59862V9.59889C14.2511 9.89869 14.2511 10.5491 13.8009 10.8499L8.0254 14.6994C7.5498 15.0246 6.875 14.674 6.875 14.0744V6.37412C6.875 5.77451 7.5254 5.42392 8.0254 5.74912Z" fill="white"/>
</svg>
