<svg width="20" height="20" viewBox="0 0 20 20" fill="none" xmlns="http://www.w3.org/2000/svg">
<path opacity="0.5" fill-rule="evenodd" clip-rule="evenodd" d="M10.0013 16.5822C13.6374 16.5822 16.5851 13.6345 16.5851 9.99837C16.5851 6.36224 13.6374 3.41457 10.0013 3.41457C6.36517 3.41457 3.4175 6.36224 3.4175 9.99837C3.4175 13.6345 6.36517 16.5822 10.0013 16.5822ZM10.0013 18.3317C14.6037 18.3317 18.3346 14.6007 18.3346 9.99837C18.3346 5.396 14.6037 1.66504 10.0013 1.66504C5.39893 1.66504 1.66797 5.396 1.66797 9.99837C1.66797 14.6007 5.39893 18.3317 10.0013 18.3317Z" fill="white"/>
<path fill-rule="evenodd" clip-rule="evenodd" d="M8.14844 7.22168H10.2867L12.1295 9.27494L12.7781 9.99755L12.1302 10.7207L10.2876 12.7772H8.15163L10.641 9.99881L8.14844 7.22168Z" fill="white"/>
</svg>
