<svg width="20" height="20" viewBox="0 0 20 20" fill="none" xmlns="http://www.w3.org/2000/svg">
<path fill-rule="evenodd" clip-rule="evenodd" d="M10.2503 0C7.17888 0 5.37802 2.40619 5.37802 5.58449C5.37802 7.12103 5.74672 8.35691 6.44286 9.65816L7.13386 10.8805C7.31251 11.215 7.3886 11.4304 7.3886 11.5827C7.3886 11.8835 7.12679 12.2404 6.51726 12.5617L2.08266 14.9374C1.29955 15.3564 0.929575 16.2007 0.849756 17.3058C0.808893 17.8716 0.847093 18.468 0.93524 19.0515L0.980498 19.3252L1.02154 19.5345L1.13075 20H19.3394L19.4467 19.5331L19.4865 19.326L19.5303 19.0549C19.6166 18.4703 19.6534 17.8724 19.6117 17.3052C19.5305 16.2009 19.1634 15.3578 18.3873 14.9383L13.954 12.5633C13.3148 12.2197 13.0327 11.8886 13.0327 11.6619C13.0327 11.5562 13.0893 11.3967 13.2249 11.1461L13.2983 11.0153L13.8613 10.068L14.0001 9.82337C14.7079 8.52462 15.0903 7.21643 15.0903 5.56835C15.0903 2.23178 13.2305 0 10.2503 0ZM10.2503 1.00719C12.6294 1.00719 14.0831 2.75156 14.0831 5.56835C14.0831 7.0345 13.7478 8.18157 13.1157 9.34136L12.9285 9.66828L12.4133 10.5333C12.1508 10.9928 12.0255 11.3165 12.0255 11.6619C12.0255 12.3389 12.546 12.95 13.4777 13.4508L17.91 15.8252C18.3142 16.0437 18.5486 16.5819 18.6072 17.3791L18.6206 17.6741C18.6281 18.0733 18.595 18.4939 18.5339 18.9077L18.5208 18.9923H1.94495L1.93113 18.901C1.85324 18.3854 1.81957 17.8597 1.85433 17.3784C1.91184 16.5821 2.14714 16.0452 2.55807 15.8253L6.98993 13.4511C7.90165 12.9704 8.39579 12.2969 8.39579 11.5827C8.39579 11.2232 8.2728 10.875 8.02223 10.4059L7.4231 9.35014L7.33095 9.18304C6.70732 8.01734 6.38522 6.93763 6.38522 5.58449C6.38522 2.90951 7.80896 1.00719 10.2503 1.00719Z" fill="white"/>
</svg>
