<svg width="20" height="20" viewBox="0 0 20 20" fill="none" xmlns="http://www.w3.org/2000/svg">
<path d="M18.3333 9.9937C18.3348 11.9727 17.6319 13.8877 16.3504 15.3958C15.069 16.9039 13.2926 17.9068 11.3393 18.2248C9.38601 18.5429 7.38327 18.1555 5.68955 17.1318C3.99583 16.1082 2.7217 14.5151 2.09521 12.6379C1.46871 10.7607 1.53076 8.72172 2.27024 6.88604C3.00971 5.05036 4.37835 3.53777 6.13118 2.619C7.884 1.70023 9.9066 1.43526 11.8369 1.87151C13.7673 2.30776 15.4794 3.41676 16.6667 5.00001V3.88822C16.6667 3.74099 16.7252 3.59978 16.8293 3.49567C16.9335 3.39156 17.0747 3.33308 17.2219 3.33308C17.3691 3.33308 17.5103 3.39156 17.6144 3.49567C17.7185 3.59978 17.777 3.74099 17.777 3.88822V6.66395C17.777 6.81118 17.7185 6.95238 17.6144 7.05649C17.5103 7.1606 17.3691 7.21909 17.2219 7.21909H14.4462C14.2989 7.21909 14.1577 7.1606 14.0536 7.05649C13.9495 6.95238 13.891 6.81118 13.891 6.66395C13.891 6.51671 13.9495 6.37551 14.0536 6.2714C14.1577 6.16729 14.2989 6.1088 14.4462 6.1088H16.0862C15.1507 4.64608 13.719 3.56981 12.054 3.07751C10.3889 2.58522 8.60219 2.70992 7.02166 3.42875C5.44114 4.14757 4.17287 5.41228 3.44961 6.99079C2.72635 8.56929 2.59663 10.3557 3.08425 12.0221C3.57186 13.6885 4.64411 15.1232 6.1042 16.0628C7.5643 17.0025 9.31428 17.384 11.033 17.1374C12.7517 16.8909 14.3238 16.0327 15.4609 14.7205C16.5979 13.4083 17.2236 11.73 17.223 9.9937C17.223 9.84647 17.2815 9.70527 17.3856 9.60116C17.4897 9.49705 17.6309 9.43856 17.7781 9.43856C17.9254 9.43856 18.0666 9.49705 18.1707 9.60116C18.2748 9.70527 18.3333 9.84647 18.3333 9.9937Z" fill="white" stroke="white" stroke-width="0.5"/>
</svg>
