<?xml version="1.0" encoding="utf-8"?>
<!-- Generator: Adobe Illustrator 16.0.0, SVG Export Plug-In . SVG Version: 6.00 Build 0)  -->
<!DOCTYPE svg PUBLIC "-//W3C//DTD SVG 1.1//EN" "http://www.w3.org/Graphics/SVG/1.1/DTD/svg11.dtd">
<svg version="1.1" id="Layer_1" xmlns="http://www.w3.org/2000/svg" xmlns:xlink="http://www.w3.org/1999/xlink" x="0px" y="0px"
	 width="18px" height="24px" viewBox="0 0 18 24" enable-background="new 0 0 18 24" xml:space="preserve">
<path id="Path_24895" fill="#61626F" d="M3.86,11.27V4.73c0.238-2.839,2.731-4.947,5.57-4.709c2.509,0.21,4.5,2.201,4.71,4.709v6.54
	c-0.238,2.839-2.732,4.947-5.571,4.709C6.061,15.77,4.07,13.779,3.86,11.27z M18,10.67v0.72c0,3.98-3.35,7.35-7.83,7.879v2.66h2.74
	V24H5.09v-2.07h2.74v-2.66C3.35,18.74,0,15.37,0,11.39v-0.72h2.35v0.72c0,3.24,2.98,5.87,6.65,5.87s6.65-2.63,6.65-5.87v-0.72H18z"
	/>
</svg>
