<?xml version="1.0" encoding="utf-8"?>
<!-- Generator: Adobe Illustrator 16.0.0, SVG Export Plug-In . SVG Version: 6.00 Build 0)  -->
<!DOCTYPE svg PUBLIC "-//W3C//DTD SVG 1.1//EN" "http://www.w3.org/Graphics/SVG/1.1/DTD/svg11.dtd">
<svg version="1.1" id="Layer_1" xmlns="http://www.w3.org/2000/svg" xmlns:xlink="http://www.w3.org/1999/xlink" x="0px" y="0px"
	 width="24px" height="24px" viewBox="0 0 24 24" enable-background="new 0 0 24 24" xml:space="preserve">
<path id="Path_24894" fill="#61626F" d="M17.154,15.09h-1.088l-0.379-0.37c3.21-3.746,2.775-9.385-0.971-12.596
	c-3.746-3.21-9.385-2.776-12.596,0.97s-2.776,9.386,0.97,12.596c3.345,2.867,8.28,2.867,11.625,0l0.379,0.371v1.09L21.954,24
	L24,21.949L17.154,15.09z M9,15.6c-3.645,0-6.6-2.955-6.6-6.6c0-3.645,2.955-6.6,6.6-6.6c3.645,0,6.6,2.955,6.6,6.6l0,0
	C15.6,12.645,12.645,15.6,9,15.6z"/>
</svg>
