<svg width="200" height="207" viewBox="0 0 200 207" fill="none" xmlns="http://www.w3.org/2000/svg">
<g clip-path="url(#clip0_3847_212384)">
<path opacity="0.4" d="M35.872 149.152C34.24 149.152 32.512 148.96 30.688 148.576C28.96 148.288 27.52 147.904 26.368 147.424L65.968 69.088H24.64C22.72 69.088 21.184 68.56 20.032 67.504C18.976 66.352 18.448 64.288 18.448 61.312C18.448 59.872 18.496 58.576 18.592 57.424C18.688 56.176 18.832 55.168 19.024 54.4H84.544V65.2L46.096 143.824C45.04 146.032 43.6 147.472 41.776 148.144C40.048 148.816 38.08 149.152 35.872 149.152Z" fill="#DB62AB"/>
</g>
<g clip-path="url(#clip1_3847_212384)">
<path opacity="0.8" d="M35.872 156.152C34.24 156.152 32.512 155.96 30.688 155.576C28.96 155.288 27.52 154.904 26.368 154.424L65.968 76.088H24.64C22.72 76.088 21.184 75.56 20.032 74.504C18.976 73.352 18.448 71.288 18.448 68.312C18.448 66.872 18.496 65.576 18.592 64.424C18.688 63.176 18.832 62.168 19.024 61.4H84.544V72.2L46.096 150.824C45.04 153.032 43.6 154.472 41.776 155.144C40.048 155.816 38.08 156.152 35.872 156.152Z" fill="#564372"/>
</g>
<defs>
<clipPath id="clip0_3847_212384">
<rect width="200" height="100" fill="white"/>
</clipPath>
<clipPath id="clip1_3847_212384">
<rect width="200" height="100" fill="white" transform="translate(0 107)"/>
</clipPath>
</defs>
</svg>
