<svg width="19" height="20" viewBox="0 0 19 20" fill="none" xmlns="http://www.w3.org/2000/svg">
<mask id="path-1-inside-1_5027_153090" fill="white">
<path fill-rule="evenodd" clip-rule="evenodd" d="M16.5 3.5C16.5 4.32843 15.8284 5 15 5C14.1716 5 13.5 4.32843 13.5 3.5C13.5 2.67157 14.1716 2 15 2C15.8284 2 16.5 2.67157 16.5 3.5ZM18.5 3.5C18.5 5.433 16.933 7 15 7C14.0814 7 13.2454 6.6461 12.621 6.06721L7.47809 9.10621C7.49257 9.23548 7.5 9.36687 7.5 9.5C7.5 9.94678 7.41628 10.374 7.26368 10.7669L12.6212 13.9327C13.2456 13.3538 14.0815 13 15 13C16.933 13 18.5 14.567 18.5 16.5C18.5 18.433 16.933 20 15 20C13.067 20 11.5 18.433 11.5 16.5C11.5 16.2083 11.5357 15.9249 11.6029 15.654L6.02274 12.3567C5.45156 12.7618 4.7536 13 4 13C2.067 13 0.5 11.433 0.5 9.5C0.5 7.567 2.067 6 4 6C5.07753 6 6.04133 6.48693 6.68336 7.25275L11.6029 4.34576C11.5357 4.07492 11.5 3.79163 11.5 3.5C11.5 1.567 13.067 0 15 0C16.933 0 18.5 1.567 18.5 3.5ZM5.5 9.5C5.5 10.3284 4.82842 11 4 11C3.17157 11 2.5 10.3284 2.5 9.5C2.5 8.67157 3.17157 8 4 8C4.82842 8 5.5 8.67157 5.5 9.5ZM15 18C15.8284 18 16.5 17.3284 16.5 16.5C16.5 15.6716 15.8284 15 15 15C14.1716 15 13.5 15.6716 13.5 16.5C13.5 17.3284 14.1716 18 15 18Z"/>
</mask>
<path fill-rule="evenodd" clip-rule="evenodd" d="M16.5 3.5C16.5 4.32843 15.8284 5 15 5C14.1716 5 13.5 4.32843 13.5 3.5C13.5 2.67157 14.1716 2 15 2C15.8284 2 16.5 2.67157 16.5 3.5ZM18.5 3.5C18.5 5.433 16.933 7 15 7C14.0814 7 13.2454 6.6461 12.621 6.06721L7.47809 9.10621C7.49257 9.23548 7.5 9.36687 7.5 9.5C7.5 9.94678 7.41628 10.374 7.26368 10.7669L12.6212 13.9327C13.2456 13.3538 14.0815 13 15 13C16.933 13 18.5 14.567 18.5 16.5C18.5 18.433 16.933 20 15 20C13.067 20 11.5 18.433 11.5 16.5C11.5 16.2083 11.5357 15.9249 11.6029 15.654L6.02274 12.3567C5.45156 12.7618 4.7536 13 4 13C2.067 13 0.5 11.433 0.5 9.5C0.5 7.567 2.067 6 4 6C5.07753 6 6.04133 6.48693 6.68336 7.25275L11.6029 4.34576C11.5357 4.07492 11.5 3.79163 11.5 3.5C11.5 1.567 13.067 0 15 0C16.933 0 18.5 1.567 18.5 3.5ZM5.5 9.5C5.5 10.3284 4.82842 11 4 11C3.17157 11 2.5 10.3284 2.5 9.5C2.5 8.67157 3.17157 8 4 8C4.82842 8 5.5 8.67157 5.5 9.5ZM15 18C15.8284 18 16.5 17.3284 16.5 16.5C16.5 15.6716 15.8284 15 15 15C14.1716 15 13.5 15.6716 13.5 16.5C13.5 17.3284 14.1716 18 15 18Z" fill="white"/>
<path d="M12.621 6.06721L13.9808 4.60056L12.8873 3.58678L11.6036 4.34536L12.621 6.06721ZM7.47809 9.10621L6.46063 7.38436L5.34652 8.0427L5.49051 9.32876L7.47809 9.10621ZM7.26368 10.7669L5.39939 10.0427L4.78472 11.6251L6.24622 12.4887L7.26368 10.7669ZM12.6212 13.9327L11.6037 15.6545L12.8874 16.413L13.9808 15.3994L12.6212 13.9327ZM11.6029 15.654L13.544 16.1358L13.9029 14.69L12.6204 13.9322L11.6029 15.654ZM6.02274 12.3567L7.0402 10.6348L5.92351 9.97495L4.86559 10.7254L6.02274 12.3567ZM6.68336 7.25275L5.15072 8.53766L6.24048 9.83753L7.70082 8.9746L6.68336 7.25275ZM11.6029 4.34576L12.6203 6.06762L13.9028 5.30982L13.544 3.86407L11.6029 4.34576ZM15 7C16.933 7 18.5 5.433 18.5 3.5H14.5C14.5 3.22386 14.7239 3 15 3V7ZM11.5 3.5C11.5 5.433 13.067 7 15 7V3C15.2761 3 15.5 3.22386 15.5 3.5H11.5ZM15 0C13.067 0 11.5 1.567 11.5 3.5H15.5C15.5 3.77614 15.2761 4 15 4V0ZM18.5 3.5C18.5 1.567 16.933 0 15 0V4C14.7239 4 14.5 3.77614 14.5 3.5H18.5ZM15 9C18.0376 9 20.5 6.53757 20.5 3.5H16.5C16.5 4.32843 15.8284 5 15 5V9ZM11.2613 7.53386C12.2409 8.44205 13.5575 9 15 9V5C14.6053 5 14.25 4.85016 13.9808 4.60056L11.2613 7.53386ZM8.49555 10.8281L13.6385 7.78906L11.6036 4.34536L6.46063 7.38436L8.49555 10.8281ZM9.5 9.5C9.5 9.29237 9.4884 9.08668 9.46567 8.88367L5.49051 9.32876C5.49673 9.38427 5.5 9.44137 5.5 9.5H9.5ZM9.12797 11.491C9.36883 10.871 9.5 10.1984 9.5 9.5H5.5C5.5 9.69514 5.46374 9.87705 5.39939 10.0427L9.12797 11.491ZM13.6386 12.2108L8.28114 9.04501L6.24622 12.4887L11.6037 15.6545L13.6386 12.2108ZM13.9808 15.3994C14.2501 15.1498 14.6053 15 15 15V11C13.5576 11 12.2411 11.5579 11.2615 12.4659L13.9808 15.3994ZM15 15C15.8284 15 16.5 15.6716 16.5 16.5H20.5C20.5 13.4624 18.0376 11 15 11V15ZM16.5 16.5C16.5 17.3284 15.8284 18 15 18V22C18.0376 22 20.5 19.5376 20.5 16.5H16.5ZM15 18C14.1716 18 13.5 17.3284 13.5 16.5H9.5C9.5 19.5376 11.9624 22 15 22V18ZM13.5 16.5C13.5 16.372 13.5156 16.2504 13.544 16.1358L9.66183 15.1722C9.55577 15.5995 9.5 16.0446 9.5 16.5H13.5ZM5.00528 14.0785L10.5855 17.3759L12.6204 13.9322L7.0402 10.6348L5.00528 14.0785ZM4 15C5.18164 15 6.28167 14.6251 7.1799 13.9879L4.86559 10.7254C4.62146 10.8986 4.32555 11 4 11V15ZM-1.5 9.5C-1.5 12.5376 0.962433 15 4 15V11C3.17157 11 2.5 10.3284 2.5 9.5H-1.5ZM4 4C0.962433 4 -1.5 6.46243 -1.5 9.5H2.5C2.5 8.67157 3.17157 8 4 8V4ZM8.21601 5.96784C7.21023 4.76815 5.69387 4 4 4V8C4.46118 8 4.87242 8.20571 5.15072 8.53766L8.21601 5.96784ZM10.5854 2.62391L5.6659 5.53089L7.70082 8.9746L12.6203 6.06762L10.5854 2.62391ZM9.5 3.5C9.5 3.95526 9.55575 4.40028 9.66175 4.82745L13.544 3.86407C13.5156 3.74956 13.5 3.62799 13.5 3.5H9.5ZM15 -2C11.9624 -2 9.5 0.462434 9.5 3.5H13.5C13.5 2.67157 14.1716 2 15 2V-2ZM20.5 3.5C20.5 0.462434 18.0376 -2 15 -2V2C15.8284 2 16.5 2.67157 16.5 3.5H20.5ZM4 13C5.93299 13 7.5 11.433 7.5 9.5H3.5C3.5 9.22386 3.72386 9 4 9V13ZM0.5 9.5C0.5 11.433 2.067 13 4 13V9C4.27614 9 4.5 9.22386 4.5 9.5H0.5ZM4 6C2.067 6 0.5 7.567 0.5 9.5H4.5C4.5 9.77614 4.27614 10 4 10V6ZM7.5 9.5C7.5 7.567 5.93299 6 4 6V10C3.72386 10 3.5 9.77614 3.5 9.5H7.5ZM14.5 16.5C14.5 16.2239 14.7239 16 15 16V20C16.933 20 18.5 18.433 18.5 16.5H14.5ZM15 17C14.7239 17 14.5 16.7761 14.5 16.5H18.5C18.5 14.567 16.933 13 15 13V17ZM15.5 16.5C15.5 16.7761 15.2761 17 15 17V13C13.067 13 11.5 14.567 11.5 16.5H15.5ZM15 16C15.2761 16 15.5 16.2239 15.5 16.5H11.5C11.5 18.433 13.067 20 15 20V16Z" fill="white" mask="url(#path-1-inside-1_5027_153090)"/>
</svg>
