<svg width="20" height="20" viewBox="0 0 20 20" fill="none" xmlns="http://www.w3.org/2000/svg">
<path d="M14.6368 5.23689L14.6368 5.23691C14.5764 5.29728 14.5422 5.379 14.5416 5.46439C14.541 5.54978 14.574 5.63198 14.6335 5.69322L14.639 5.69885L14.639 5.69889C15.6625 6.78583 16.2969 8.23619 16.3331 9.8387C16.4144 13.3064 13.553 16.2879 10.0815 16.325C9.24336 16.3379 8.411 16.1839 7.63295 15.8719C6.85452 15.5598 6.14603 15.0958 5.54879 14.507C4.95156 13.9182 4.47755 13.2163 4.1544 12.4424C3.83125 11.6685 3.66543 10.838 3.66661 9.99929M14.6368 5.23689L4.16661 10M14.6368 5.23689C14.7728 5.10088 14.9957 5.10951 15.1166 5.23988L15.1166 5.23989L15.1185 5.24197C16.2856 6.48691 16.9999 8.14945 16.9999 9.99167C16.9999 13.9353 13.7408 17.1164 9.77395 16.9919L9.77364 16.9919C5.98312 16.8754 2.89108 13.5893 2.99973 9.79788M14.6368 5.23689L9.75828 17.4917M3.66661 9.99929L4.16661 10M3.66661 9.99929C3.66661 9.99953 3.66661 9.99976 3.66661 10H4.16661M3.66661 9.99929C3.66679 8.33474 4.30982 6.8232 5.35844 5.69322L5.36219 5.68918L5.36221 5.6892C5.48924 5.55531 5.48276 5.35659 5.36306 5.23689L5.36144 5.23527L5.36144 5.23526C5.33045 5.20399 5.29347 5.17928 5.25271 5.16262C5.21195 5.14596 5.16825 5.1377 5.12422 5.13831C5.0802 5.13893 5.03675 5.14841 4.99647 5.16621C4.95619 5.184 4.91992 5.20973 4.88981 5.24186L4.88851 5.24324C3.7221 6.47873 3.04997 8.09952 2.99973 9.79788M4.16661 10C4.16661 8.46667 4.75828 7.075 5.72494 6.03333C6.03328 5.70833 6.03328 5.2 5.71661 4.88333C5.6383 4.80431 5.54486 4.74188 5.44188 4.69979C5.33889 4.6577 5.22848 4.6368 5.11723 4.63836C5.00599 4.63992 4.8962 4.66389 4.79443 4.70884C4.69267 4.7538 4.60101 4.81881 4.52494 4.9M2.99973 9.79788C2.99973 9.79781 2.99973 9.79774 2.99974 9.79767L2.49994 9.78333M2.99973 9.79788C2.99973 9.79795 2.99973 9.79803 2.99972 9.7981L2.49994 9.78333M2.49994 9.78333C2.55375 7.96241 3.27436 6.22465 4.52494 4.9M2.49994 9.78333C2.38328 13.85 5.69161 17.3667 9.75828 17.4917M4.52494 4.9L4.52496 4.90001L4.52494 4.9ZM9.75828 17.4917C14.0083 17.625 17.4999 14.2167 17.4999 9.99167C17.4999 8.01667 16.7333 6.23333 15.4833 4.9C15.1666 4.55833 14.6166 4.55 14.2833 4.88333L9.75828 17.4917ZM9.66661 3.33333C9.66661 3.15114 9.81775 3 9.99994 3C10.1821 3 10.3333 3.15114 10.3333 3.33333V10C10.3333 10.1822 10.1821 10.3333 9.99994 10.3333C9.81775 10.3333 9.66661 10.1822 9.66661 10V3.33333Z" fill="white" stroke="white"/>
</svg>
