<svg width="200" height="207" viewBox="0 0 200 207" fill="none" xmlns="http://www.w3.org/2000/svg">
<g clip-path="url(#clip0_3847_212374)">
<path opacity="0.4" d="M59.344 149.584C53.968 149.584 49.024 148.576 44.512 146.56C40 144.544 36.112 141.568 32.848 137.632C29.584 133.6 27.04 128.608 25.216 122.656C23.392 116.704 22.48 109.792 22.48 101.92C22.48 93.568 23.44 86.368 25.36 80.32C27.28 74.176 29.968 69.136 33.424 65.2C36.976 61.168 41.152 58.192 45.952 56.272C50.848 54.352 56.224 53.392 62.08 53.392C66.976 53.392 71.536 53.872 75.76 54.832C79.984 55.792 83.872 57.136 87.424 58.864V60.88C87.424 64.24 86.752 66.784 85.408 68.512C84.16 70.144 82.384 70.96 80.08 70.96C78.832 70.96 77.632 70.816 76.48 70.528C75.328 70.144 74.032 69.808 72.592 69.52C71.248 69.136 69.712 68.8 67.984 68.512C66.352 68.128 64.384 67.936 62.08 67.936C54.304 67.936 48.496 70.432 44.656 75.424C40.912 80.32 38.8 87.808 38.32 97.888C41.104 95.392 44.368 93.088 48.112 90.976C51.952 88.864 56.704 87.808 62.368 87.808C67.456 87.808 71.92 88.624 75.76 90.256C79.696 91.888 82.96 94.096 85.552 96.88C88.144 99.664 90.064 102.88 91.312 106.528C92.656 110.08 93.328 113.872 93.328 117.904C93.328 122.128 92.56 126.16 91.024 130C89.584 133.84 87.424 137.2 84.544 140.08C81.664 142.96 78.112 145.264 73.888 146.992C69.664 148.72 64.816 149.584 59.344 149.584ZM59.488 136.048C64.96 136.048 69.28 134.32 72.448 130.864C75.712 127.408 77.344 122.944 77.344 117.472C77.344 112 75.712 107.824 72.448 104.944C69.28 101.968 64.96 100.48 59.488 100.48C54.688 100.48 50.608 101.44 47.248 103.36C43.984 105.28 41.2 107.296 38.896 109.408C39.28 118.048 41.248 124.672 44.8 129.28C48.448 133.792 53.344 136.048 59.488 136.048Z" fill="#DB62AB"/>
</g>
<g clip-path="url(#clip1_3847_212374)">
<path opacity="0.8" d="M59.344 156.584C53.968 156.584 49.024 155.576 44.512 153.56C40 151.544 36.112 148.568 32.848 144.632C29.584 140.6 27.04 135.608 25.216 129.656C23.392 123.704 22.48 116.792 22.48 108.92C22.48 100.568 23.44 93.368 25.36 87.32C27.28 81.176 29.968 76.136 33.424 72.2C36.976 68.168 41.152 65.192 45.952 63.272C50.848 61.352 56.224 60.392 62.08 60.392C66.976 60.392 71.536 60.872 75.76 61.832C79.984 62.792 83.872 64.136 87.424 65.864V67.88C87.424 71.24 86.752 73.784 85.408 75.512C84.16 77.144 82.384 77.96 80.08 77.96C78.832 77.96 77.632 77.816 76.48 77.528C75.328 77.144 74.032 76.808 72.592 76.52C71.248 76.136 69.712 75.8 67.984 75.512C66.352 75.128 64.384 74.936 62.08 74.936C54.304 74.936 48.496 77.432 44.656 82.424C40.912 87.32 38.8 94.808 38.32 104.888C41.104 102.392 44.368 100.088 48.112 97.976C51.952 95.864 56.704 94.808 62.368 94.808C67.456 94.808 71.92 95.624 75.76 97.256C79.696 98.888 82.96 101.096 85.552 103.88C88.144 106.664 90.064 109.88 91.312 113.528C92.656 117.08 93.328 120.872 93.328 124.904C93.328 129.128 92.56 133.16 91.024 137C89.584 140.84 87.424 144.2 84.544 147.08C81.664 149.96 78.112 152.264 73.888 153.992C69.664 155.72 64.816 156.584 59.344 156.584ZM59.488 143.048C64.96 143.048 69.28 141.32 72.448 137.864C75.712 134.408 77.344 129.944 77.344 124.472C77.344 119 75.712 114.824 72.448 111.944C69.28 108.968 64.96 107.48 59.488 107.48C54.688 107.48 50.608 108.44 47.248 110.36C43.984 112.28 41.2 114.296 38.896 116.408C39.28 125.048 41.248 131.672 44.8 136.28C48.448 140.792 53.344 143.048 59.488 143.048Z" fill="#564372"/>
</g>
<defs>
<clipPath id="clip0_3847_212374">
<rect width="200" height="100" fill="white"/>
</clipPath>
<clipPath id="clip1_3847_212374">
<rect width="200" height="100" fill="white" transform="translate(0 107)"/>
</clipPath>
</defs>
</svg>
