<svg width="16" height="16" viewBox="0 0 16 16" fill="none" xmlns="http://www.w3.org/2000/svg">
<rect x="2.00004" y="2.00001" width="12" height="12" stroke="white" stroke-width="1.33333"/>
<rect x="4" y="6" width="0.666667" height="4" fill="white"/>
<path d="M5.33337 5.99999L8.00004 4.66666V11.3333L5.33337 9.99999V5.99999Z" fill="white"/>
<mask id="mask0_753_5374" style="mask-type:alpha" maskUnits="userSpaceOnUse" x="5" y="4" width="7" height="8">
<path fill-rule="evenodd" clip-rule="evenodd" d="M11.3334 7.99999C11.3334 9.47275 10.1395 10.6667 8.66671 10.6667C7.19395 10.6667 6.00004 9.47275 6.00004 7.99999C6.00004 6.52723 7.19395 5.33332 8.66671 5.33332C10.1395 5.33332 11.3334 6.52723 11.3334 7.99999ZM12 7.99999C12 9.84094 10.5077 11.3333 8.66671 11.3333C6.82576 11.3333 5.33337 9.84094 5.33337 7.99999C5.33337 6.15904 6.82576 4.66666 8.66671 4.66666C10.5077 4.66666 12 6.15904 12 7.99999ZM9.83337 7.99999C9.83337 8.64432 9.31104 9.16666 8.66671 9.16666C8.02238 9.16666 7.50004 8.64432 7.50004 7.99999C7.50004 7.35566 8.02238 6.83332 8.66671 6.83332C9.31104 6.83332 9.83337 7.35566 9.83337 7.99999ZM10.5 7.99999C10.5 9.01251 9.67923 9.83332 8.66671 9.83332C7.65419 9.83332 6.83337 9.01251 6.83337 7.99999C6.83337 6.98747 7.65419 6.16666 8.66671 6.16666C9.67923 6.16666 10.5 6.98747 10.5 7.99999Z" fill="black"/>
</mask>
<g mask="url(#mask0_753_5374)">
<path d="M9.80676 11.1322C10.4682 10.8915 11.0365 10.4475 11.4302 9.86389C11.8238 9.28031 12.0226 8.58709 11.998 7.88358C11.9734 7.18008 11.7268 6.50242 11.2934 5.94771C10.86 5.393 10.2621 4.98974 9.58548 4.79571L8.66669 7.99992L9.80676 11.1322Z" fill="white"/>
</g>
</svg>
