<svg width="24" height="24" viewBox="0 0 24 24" fill="none" xmlns="http://www.w3.org/2000/svg">
<rect x="3.12415" y="3.12415" width="17.7517" height="17.7517" stroke="#D7C6F4" stroke-width="2.2483"/>
<rect x="6" y="9" width="0.999999" height="6" fill="#D7C6F4"/>
<path d="M8 9L12 7V17L8 15V9Z" fill="#D7C6F4"/>
<mask id="mask0_5027_153057" style="mask-type:alpha" maskUnits="userSpaceOnUse" x="8" y="7" width="11" height="11">
<path fill-rule="evenodd" clip-rule="evenodd" d="M16.8768 12.002C16.8768 14.1425 15.1415 15.8778 13.001 15.8778C10.8604 15.8778 9.12513 14.1425 9.12513 12.002C9.12513 9.86138 10.8604 8.12611 13.001 8.12611C15.1415 8.12611 16.8768 9.86138 16.8768 12.002ZM18.001 12.002C18.001 14.7634 15.7624 17.002 13.001 17.002C10.2396 17.002 8.00098 14.7634 8.00098 12.002C8.00098 9.24053 10.2396 7.00195 13.001 7.00195C15.7624 7.00195 18.001 9.24053 18.001 12.002ZM14.6268 12.002C14.6268 12.8999 13.8989 13.6278 13.001 13.6278C12.103 13.6278 11.3751 12.8999 11.3751 12.002C11.3751 11.104 12.103 10.3761 13.001 10.3761C13.8989 10.3761 14.6268 11.104 14.6268 12.002ZM15.751 12.002C15.751 13.5207 14.5198 14.752 13.001 14.752C11.4822 14.752 10.251 13.5207 10.251 12.002C10.251 10.4832 11.4822 9.25195 13.001 9.25195C14.5198 9.25195 15.751 10.4832 15.751 12.002Z" fill="black"/>
</mask>
<g mask="url(#mask0_5027_153057)">
<path d="M14.71 16.6988C15.7022 16.3377 16.5547 15.6717 17.1451 14.7963C17.7356 13.9209 18.0337 12.8811 17.9969 11.8259C17.96 10.7706 17.59 9.75411 16.94 8.92205C16.2899 8.08999 15.3931 7.4851 14.3781 7.19405L12.9999 12.0004L14.71 16.6988Z" fill="#D7C6F4"/>
</g>
</svg>
