<svg width="19" height="20" viewBox="0 0 19 20" fill="none" xmlns="http://www.w3.org/2000/svg">
<path d="M8.01212 18.7382C8.37346 18.8067 8.72211 18.5704 8.79086 18.2105C8.85961 17.8505 8.62243 17.5032 8.2611 17.4347L8.01212 18.7382ZM8.01212 18.7382L8.10783 18.2474C4.21779 17.4888 1.33337 14.0212 1.33337 9.9312C1.33337 6.51729 3.37877 3.56525 6.32213 2.24235L7.41866 1.74951L6.29604 1.31939L4.98201 0.815934L4.98204 0.815862L4.97373 0.812846C4.89885 0.785661 4.85608 0.710359 4.86864 0.635174C4.88113 0.560467 4.9455 0.50269 5.02484 0.500002C5.04606 0.500101 5.06698 0.504223 5.08645 0.512074L5.08642 0.512141L5.09436 0.515184L7.97139 1.61864L7.97138 1.61866L7.97544 1.62018C8.01944 1.63662 8.05365 1.67064 8.07025 1.71299L8.5062 1.54206L8.07025 1.71299C8.08683 1.75526 8.0846 1.8025 8.06402 1.84313L8.06311 1.84495L6.73544 4.49287C6.69522 4.57291 6.59571 4.60713 6.51284 4.56582C6.43105 4.52503 6.39977 4.42769 6.43944 4.34874L6.44021 4.3472L6.97274 3.27822L7.61565 1.98766L6.31177 2.60311C3.56445 3.89988 1.66124 6.68918 1.66124 9.9312C1.66124 13.8776 4.42771 17.1966 8.16539 17.9255L8.16798 17.926C8.2594 17.9433 8.31631 18.0299 8.29974 18.1167C8.28306 18.204 8.19719 18.2644 8.10523 18.2469L8.01212 18.7382ZM11.3264 1.75076L11.3264 1.75086L11.3367 1.75092C11.3474 1.75098 11.358 1.7521 11.3685 1.75426L11.3685 1.7543L11.374 1.75538C15.2408 2.51254 18.1112 5.98113 18.1112 10.0679C18.1112 13.4783 16.0763 16.4209 13.1496 17.7403L12.0575 18.2327L13.1756 18.6628L14.4827 19.1656L14.5105 19.1763L14.5393 19.1836C14.5992 19.1988 14.6451 19.2471 14.6573 19.3078C14.6694 19.3685 14.6457 19.4307 14.5962 19.4679L14.8964 19.8677L14.5962 19.4679C14.5468 19.505 14.4805 19.5104 14.4257 19.4818L14.4001 19.4684L14.3731 19.4581L11.5112 18.3629L11.5103 18.3625C11.4681 18.3465 11.4346 18.3134 11.418 18.2712C11.4016 18.2294 11.4034 18.1826 11.423 18.1422C11.4231 18.142 11.4232 18.1417 11.4234 18.1414L12.743 15.4989L12.7431 15.4989L12.7482 15.4881C12.7734 15.4344 12.8262 15.399 12.8853 15.396L12.8876 15.3959C12.9455 15.3926 13.0006 15.4209 13.0319 15.4699C13.0631 15.5188 13.0654 15.5809 13.0381 15.6321L13.0379 15.632L13.0322 15.6434L12.4956 16.711L11.8436 18.0083L13.1561 17.3876C15.8932 16.0932 17.7903 13.3079 17.7903 10.0679C17.7903 6.12807 15.0395 2.80454 11.3185 2.07591L11.3008 2.07244L11.2829 2.07026C11.2002 2.06018 11.1389 1.9884 11.1419 1.90492C11.145 1.82144 11.2114 1.75435 11.2946 1.75035L11.2966 1.75025C11.298 1.75018 11.2993 1.75012 11.3007 1.75009L11.3264 1.75076ZM11.6051 10.9167C12.1444 10.9167 12.5466 11.2985 12.5899 11.7706L12.5939 11.8686V13.25H7.46364V11.8584C7.46364 11.3766 7.85071 10.9651 8.36227 10.9206L8.4622 10.9167H11.6051ZM10.0288 6.75002C10.5589 6.75002 11.0613 7.23372 11.0613 7.91669C11.0613 8.59966 10.5589 9.08335 10.0288 9.08335C9.4987 9.08335 8.99621 8.59966 8.99621 7.91669C8.99621 7.23372 9.4987 6.75002 10.0288 6.75002Z" fill="white" stroke="white
"/>
</svg>
