<svg width="200" height="207" viewBox="0 0 200 207" fill="none" xmlns="http://www.w3.org/2000/svg">
<g clip-path="url(#clip0_3847_212418)">
<path opacity="0.4" d="M48.832 148.864C47.296 148.864 45.76 148.768 44.224 148.576C42.688 148.48 41.536 148.336 40.768 148.144V72.4L23.056 80.752C21.712 79.696 20.656 78.4 19.888 76.864C19.12 75.328 18.736 73.84 18.736 72.4C18.736 69.04 20.416 66.4 23.776 64.48L44.512 54.4H57.04V142.096C57.04 144.016 56.416 145.648 55.168 146.992C54.016 148.24 51.904 148.864 48.832 148.864ZM116.033 149.584C110.561 149.584 105.521 148.576 100.913 146.56C96.3048 144.544 92.3208 141.52 88.9608 137.488C85.6968 133.456 83.1048 128.416 81.1848 122.368C79.3608 116.32 78.4488 109.264 78.4488 101.2C78.4488 93.136 79.3608 86.08 81.1848 80.032C83.1048 73.984 85.6968 68.944 88.9608 64.912C92.3208 60.88 96.3048 57.856 100.913 55.84C105.521 53.824 110.561 52.816 116.033 52.816C121.505 52.816 126.545 53.824 131.153 55.84C135.857 57.856 139.889 60.88 143.249 64.912C146.705 68.944 149.345 73.984 151.169 80.032C153.089 86.08 154.049 93.136 154.049 101.2C154.049 109.264 153.089 116.32 151.169 122.368C149.345 128.416 146.705 133.456 143.249 137.488C139.889 141.52 135.857 144.544 131.153 146.56C126.545 148.576 121.505 149.584 116.033 149.584ZM116.033 136.048C122.657 136.048 127.937 133.216 131.873 127.552C135.809 121.888 137.777 113.104 137.777 101.2C137.777 89.296 135.809 80.512 131.873 74.848C127.937 69.184 122.657 66.352 116.033 66.352C109.409 66.352 104.225 69.136 100.481 74.704C96.7368 80.272 94.8648 89.104 94.8648 101.2C94.8648 113.296 96.7368 122.128 100.481 127.696C104.225 133.264 109.409 136.048 116.033 136.048Z" fill="#DB62AB"/>
</g>
<g clip-path="url(#clip1_3847_212418)">
<path opacity="0.8" d="M48.832 155.864C47.296 155.864 45.76 155.768 44.224 155.576C42.688 155.48 41.536 155.336 40.768 155.144V79.4L23.056 87.752C21.712 86.696 20.656 85.4 19.888 83.864C19.12 82.328 18.736 80.84 18.736 79.4C18.736 76.04 20.416 73.4 23.776 71.48L44.512 61.4H57.04V149.096C57.04 151.016 56.416 152.648 55.168 153.992C54.016 155.24 51.904 155.864 48.832 155.864ZM116.033 156.584C110.561 156.584 105.521 155.576 100.913 153.56C96.3048 151.544 92.3208 148.52 88.9608 144.488C85.6968 140.456 83.1048 135.416 81.1848 129.368C79.3608 123.32 78.4488 116.264 78.4488 108.2C78.4488 100.136 79.3608 93.08 81.1848 87.032C83.1048 80.984 85.6968 75.944 88.9608 71.912C92.3208 67.88 96.3048 64.856 100.913 62.84C105.521 60.824 110.561 59.816 116.033 59.816C121.505 59.816 126.545 60.824 131.153 62.84C135.857 64.856 139.889 67.88 143.249 71.912C146.705 75.944 149.345 80.984 151.169 87.032C153.089 93.08 154.049 100.136 154.049 108.2C154.049 116.264 153.089 123.32 151.169 129.368C149.345 135.416 146.705 140.456 143.249 144.488C139.889 148.52 135.857 151.544 131.153 153.56C126.545 155.576 121.505 156.584 116.033 156.584ZM116.033 143.048C122.657 143.048 127.937 140.216 131.873 134.552C135.809 128.888 137.777 120.104 137.777 108.2C137.777 96.296 135.809 87.512 131.873 81.848C127.937 76.184 122.657 73.352 116.033 73.352C109.409 73.352 104.225 76.136 100.481 81.704C96.7368 87.272 94.8648 96.104 94.8648 108.2C94.8648 120.296 96.7368 129.128 100.481 134.696C104.225 140.264 109.409 143.048 116.033 143.048Z" fill="#564372"/>
</g>
<defs>
<clipPath id="clip0_3847_212418">
<rect width="200" height="100" fill="white"/>
</clipPath>
<clipPath id="clip1_3847_212418">
<rect width="200" height="100" fill="white" transform="translate(0 107)"/>
</clipPath>
</defs>
</svg>
