<svg width="200" height="207" viewBox="0 0 200 207" fill="none" xmlns="http://www.w3.org/2000/svg">
<g clip-path="url(#clip0_3847_212340)">
<path opacity="0.4" d="M53.584 149.584C46.576 149.584 40.528 148.768 35.44 147.136C30.448 145.504 25.888 143.44 21.76 140.944C21.856 137.296 22.576 134.512 23.92 132.592C25.264 130.672 26.992 129.712 29.104 129.712C30.544 129.712 31.984 130 33.424 130.576C34.864 131.152 36.496 131.776 38.32 132.448C40.144 133.024 42.256 133.6 44.656 134.176C47.056 134.752 49.936 135.04 53.296 135.04C59.344 135.04 63.856 133.696 66.832 131.008C69.808 128.32 71.296 124.816 71.296 120.496C71.296 116.752 69.904 113.536 67.12 110.848C64.336 108.16 59.488 106.816 52.576 106.816H41.056C39.52 106.816 38.224 106.288 37.168 105.232C36.112 104.176 35.584 102.4 35.584 99.904C35.584 97.504 35.824 95.44 36.304 93.712H51.28C57.616 93.712 62.176 92.608 64.96 90.4C67.744 88.192 69.136 84.928 69.136 80.608C69.136 78.976 68.848 77.392 68.272 75.856C67.792 74.32 66.928 72.976 65.68 71.824C64.432 70.672 62.8 69.76 60.784 69.088C58.864 68.32 56.416 67.936 53.44 67.936C50.368 67.936 47.728 68.176 45.52 68.656C43.408 69.136 41.488 69.664 39.76 70.24C38.032 70.816 36.496 71.344 35.152 71.824C33.808 72.304 32.464 72.544 31.12 72.544C28.912 72.544 27.136 71.536 25.792 69.52C24.448 67.504 23.728 64.72 23.632 61.168C27.376 59.056 31.792 57.232 36.88 55.696C41.968 54.16 47.872 53.392 54.592 53.392C59.872 53.392 64.432 54.064 68.272 55.408C72.112 56.656 75.232 58.384 77.632 60.592C80.128 62.8 81.952 65.44 83.104 68.512C84.256 71.488 84.832 74.704 84.832 78.16C84.832 83.344 83.392 87.76 80.512 91.408C77.632 94.96 73.744 97.504 68.848 99.04C74.32 100 78.88 102.448 82.528 106.384C86.176 110.32 88 115.36 88 121.504C88 125.824 87.184 129.76 85.552 133.312C83.92 136.768 81.616 139.696 78.64 142.096C75.664 144.496 72.016 146.368 67.696 147.712C63.472 148.96 58.768 149.584 53.584 149.584Z" fill="#DB62AB"/>
</g>
<g clip-path="url(#clip1_3847_212340)">
<path opacity="0.8" d="M53.584 156.584C46.576 156.584 40.528 155.768 35.44 154.136C30.448 152.504 25.888 150.44 21.76 147.944C21.856 144.296 22.576 141.512 23.92 139.592C25.264 137.672 26.992 136.712 29.104 136.712C30.544 136.712 31.984 137 33.424 137.576C34.864 138.152 36.496 138.776 38.32 139.448C40.144 140.024 42.256 140.6 44.656 141.176C47.056 141.752 49.936 142.04 53.296 142.04C59.344 142.04 63.856 140.696 66.832 138.008C69.808 135.32 71.296 131.816 71.296 127.496C71.296 123.752 69.904 120.536 67.12 117.848C64.336 115.16 59.488 113.816 52.576 113.816H41.056C39.52 113.816 38.224 113.288 37.168 112.232C36.112 111.176 35.584 109.4 35.584 106.904C35.584 104.504 35.824 102.44 36.304 100.712H51.28C57.616 100.712 62.176 99.608 64.96 97.4C67.744 95.192 69.136 91.928 69.136 87.608C69.136 85.976 68.848 84.392 68.272 82.856C67.792 81.32 66.928 79.976 65.68 78.824C64.432 77.672 62.8 76.76 60.784 76.088C58.864 75.32 56.416 74.936 53.44 74.936C50.368 74.936 47.728 75.176 45.52 75.656C43.408 76.136 41.488 76.664 39.76 77.24C38.032 77.816 36.496 78.344 35.152 78.824C33.808 79.304 32.464 79.544 31.12 79.544C28.912 79.544 27.136 78.536 25.792 76.52C24.448 74.504 23.728 71.72 23.632 68.168C27.376 66.056 31.792 64.232 36.88 62.696C41.968 61.16 47.872 60.392 54.592 60.392C59.872 60.392 64.432 61.064 68.272 62.408C72.112 63.656 75.232 65.384 77.632 67.592C80.128 69.8 81.952 72.44 83.104 75.512C84.256 78.488 84.832 81.704 84.832 85.16C84.832 90.344 83.392 94.76 80.512 98.408C77.632 101.96 73.744 104.504 68.848 106.04C74.32 107 78.88 109.448 82.528 113.384C86.176 117.32 88 122.36 88 128.504C88 132.824 87.184 136.76 85.552 140.312C83.92 143.768 81.616 146.696 78.64 149.096C75.664 151.496 72.016 153.368 67.696 154.712C63.472 155.96 58.768 156.584 53.584 156.584Z" fill="#564372"/>
</g>
<defs>
<clipPath id="clip0_3847_212340">
<rect width="200" height="100" fill="white"/>
</clipPath>
<clipPath id="clip1_3847_212340">
<rect width="200" height="100" fill="white" transform="translate(0 107)"/>
</clipPath>
</defs>
</svg>
