<svg xmlns="http://www.w3.org/2000/svg" width="19.248" height="20" viewBox="0 0 19.248 20">
  <path id="Union_80" data-name="Union 80" d="M4.748,2.929H1.219A1.218,1.218,0,0,0,0,4.148V14.811A1.218,1.218,0,0,0,1.219,16.03H4.748a1.218,1.218,0,0,0,1.218-1.217v-.29a2.091,2.091,0,0,1,1.492,1.218l1.777,3.732a3.92,3.92,0,0,1,.342,1.141l.182,1.316a.6.6,0,0,0,.02.087,1.289,1.289,0,0,0,1.255.912h.075a2.753,2.753,0,0,0,1.967-1.255,3.858,3.858,0,0,0,.117-3.312,5.772,5.772,0,0,1-.424-2.6,18.3,18.3,0,0,0,4.3-.365H17.1a2.313,2.313,0,0,0,.936-.414,2.061,2.061,0,0,0,.158-.135,2.234,2.234,0,0,0,.558-2.554,2.56,2.56,0,0,0,.5-1.387,2.664,2.664,0,0,0-.609-1.758,2.68,2.68,0,0,0-.792-2.977,2.657,2.657,0,0,0-1.781-2.868,4.491,4.491,0,0,0-1.812-.361H9.1a4.622,4.622,0,0,0-2.38.66l-.756.453A1.218,1.218,0,0,0,4.751,2.929ZM1.219,4.148H4.748V14.811H1.219ZM10.95,21.7l-.187-1.231a5.135,5.135,0,0,0-.446-1.5L8.555,15.244a3.3,3.3,0,0,0-2.462-1.952l-.127-.019v-7.8l1.374-.823a3.408,3.408,0,0,1,1.752-.488H14.25a3.276,3.276,0,0,1,1.34.254c1.338.587,1.08,1.586,1.014,1.781a.62.62,0,0,0,.215.692,1.526,1.526,0,0,1,.588,2.047.609.609,0,0,0,.08.731,1.673,1.673,0,0,1,.549,1.185,1.446,1.446,0,0,1-.412.892.61.61,0,0,0-.107.783,1.1,1.1,0,0,1-.146,1.418l-.078.066a1.107,1.107,0,0,1-.451.19h-.024a17.6,17.6,0,0,1-4.144.338,1.1,1.1,0,0,0-1.082.858,6.637,6.637,0,0,0,.438,3.341,2.78,2.78,0,0,1,0,2.289,1.549,1.549,0,0,1-1.05.678.066.066,0,0,1-.029-.014ZM2.24,6.044A.743.743,0,1,0,2.983,5.3a.743.743,0,0,0-.743.744Z" transform="translate(0 -2.929)" fill="#E10092"/>
</svg>
