<svg xmlns="http://www.w3.org/2000/svg" width="19.248" height="20" viewBox="0 0 19.248 20">
  <path id="Union_80" data-name="Union 80" d="M4.748,22.928H1.219A1.218,1.218,0,0,1,0,21.71V11.046A1.218,1.218,0,0,1,1.219,9.828H4.748a1.218,1.218,0,0,1,1.218,1.217v.29a2.091,2.091,0,0,0,1.492-1.218L9.234,6.384a3.92,3.92,0,0,0,.342-1.141l.182-1.316a.6.6,0,0,1,.02-.087,1.289,1.289,0,0,1,1.255-.912h.075a2.753,2.753,0,0,1,1.967,1.255A3.859,3.859,0,0,1,13.191,7.5a5.772,5.772,0,0,0-.424,2.6,18.3,18.3,0,0,1,4.3.365H17.1a2.313,2.313,0,0,1,.936.414A2.061,2.061,0,0,1,18.19,11a2.234,2.234,0,0,1,.558,2.554,2.56,2.56,0,0,1,.5,1.387,2.664,2.664,0,0,1-.609,1.758,2.68,2.68,0,0,1-.792,2.978,2.657,2.657,0,0,1-1.781,2.868,4.491,4.491,0,0,1-1.812.361H9.1a4.622,4.622,0,0,1-2.38-.66L5.967,21.8a1.218,1.218,0,0,1-1.216,1.133ZM1.219,21.71H4.748V11.046H1.219ZM10.95,4.162l-.187,1.231a5.135,5.135,0,0,1-.446,1.5L8.555,10.613a3.3,3.3,0,0,1-2.462,1.952l-.127.019v7.8l1.374.823a3.408,3.408,0,0,0,1.752.488H14.25a3.276,3.276,0,0,0,1.34-.254c1.338-.587,1.08-1.586,1.014-1.781a.62.62,0,0,1,.215-.692,1.526,1.526,0,0,0,.588-2.047.609.609,0,0,1,.08-.731A1.673,1.673,0,0,0,18.036,15a1.446,1.446,0,0,0-.412-.892.61.61,0,0,1-.107-.783,1.1,1.1,0,0,0-.146-1.418l-.078-.066a1.107,1.107,0,0,0-.451-.19h-.024a17.6,17.6,0,0,0-4.144-.338,1.1,1.1,0,0,1-1.082-.858,6.637,6.637,0,0,1,.438-3.341,2.78,2.78,0,0,0,0-2.289,1.549,1.549,0,0,0-1.05-.678.066.066,0,0,0-.029.014ZM2.24,19.813a.743.743,0,1,1,.743.744.743.743,0,0,1-.743-.744Z" transform="translate(0 -2.929)" fill="#E10092"/>
</svg>
