<svg xmlns="http://www.w3.org/2000/svg" xmlns:xlink="http://www.w3.org/1999/xlink" width="19.248" height="20" viewBox="0 0 19.248 20">
  <defs>
    <clipPath id="clip-path">
      <path id="Union_80" data-name="Union 80" d="M4.748,22.928H1.219A1.218,1.218,0,0,1,0,21.71V11.046A1.218,1.218,0,0,1,1.219,9.828H4.748a1.218,1.218,0,0,1,1.218,1.217v.29a2.091,2.091,0,0,0,1.492-1.218L9.234,6.384a3.92,3.92,0,0,0,.342-1.141l.182-1.316a.6.6,0,0,1,.02-.087,1.289,1.289,0,0,1,1.255-.912h.075a2.753,2.753,0,0,1,1.967,1.255A3.858,3.858,0,0,1,13.191,7.5a5.772,5.772,0,0,0-.424,2.6,18.3,18.3,0,0,1,4.3.365H17.1a2.313,2.313,0,0,1,.936.414A2.061,2.061,0,0,1,18.19,11a2.234,2.234,0,0,1,.558,2.554,2.56,2.56,0,0,1,.5,1.387,2.664,2.664,0,0,1-.609,1.758,2.68,2.68,0,0,1-.792,2.977,2.657,2.657,0,0,1-1.781,2.868,4.491,4.491,0,0,1-1.812.361H9.1a4.622,4.622,0,0,1-2.38-.66L5.967,21.8a1.218,1.218,0,0,1-1.216,1.133Zm0-1.712v.493S1.9,18.131,1.9,15.465a15,15,0,0,1,.343-3.813l.18,1.907ZM10.317,9.828,12.388,4.58a19.82,19.82,0,0,1-.41,3.027l-1.662,9.309c-.438,1.025,2.81,1.617,1.712,1.81l-.709-.442L5.966,20.379l8.284-8.728c.529.318-1.677,5.051-1.059,5.052l1.422,4.513c-1.229-1.48-1.846-3.438-1.422-3.616.959-.421.628-.911,1.588.116-.017-.023-.257.277-.276.222-.085-.253-2.079-.862-1.866-1.022.718-.41,1.718-.441,1.327-1.169-.14-.234-.463-.492-.276-.69.336-.3.4.7.415.249-.029-.336,2.918-.8,2.681-1.043-.223-.2.572-.685.733-.937l.242.336L14.252,17.6l2.138-4.275a13.36,13.36,0,0,1,1.642,0l-4.841,7.891c-1.363-.276.228-5.8-1.162-5.752-.518,0,.237,3.324.123,2.82-.144-1.133-1.343,1.209-.912.151A6.494,6.494,0,0,0,11.5,14.9S9.964,19.1,11.02,20.171s-1.786-1.1-1.786-1.1,1.091-9.25,1.082-9.243ZM2.24,19.813a.743.743,0,1,1,.743.744.743.743,0,0,1-.743-.744Z" transform="translate(0 -2.929)" fill="#5087c7"/>
    </clipPath>
  </defs>
  <g id="Group_3832" data-name="Group 3832" transform="translate(-37.445 -732)">
    <g id="Group_3826" data-name="Group 3826">
      <g id="Group_3825" data-name="Group 3825">
        <g id="Group_3824" data-name="Group 3824">
          <g id="Group_3822" data-name="Group 3822" transform="translate(-40 -2.928)">
            <g id="Mask_Group_25" data-name="Mask Group 25" transform="translate(77.445 734.928)" clip-path="url(#clip-path)">
              <path id="Path_24651" data-name="Path 24651" d="M0,0H27.553V27.044H0Z" transform="translate(-5.909 -5.717)" fill="#E10092"/>
              <rect id="Rectangle_1463" data-name="Rectangle 1463" width="1.327" height="1.327" transform="translate(11.025 14.673)" fill="#E10092"/>
            </g>
          </g>
        </g>
      </g>
    </g>
    <circle id="Ellipse_126" data-name="Ellipse 126" cx="0.75" cy="0.75" r="0.75" transform="translate(40 748)" fill="#1d1e30"/>
  </g>
</svg>
