<svg width="21" height="20" viewBox="0 0 21 20" fill="none" xmlns="http://www.w3.org/2000/svg">
<path fill-rule="evenodd" clip-rule="evenodd" d="M19.0775 2.95032H1.0781C0.525926 2.95032 0.0778122 2.50315 0.0778122 1.95097C0.0778122 1.3988 0.525926 0.950684 1.0781 0.950684H19.0775C19.6297 0.950684 20.0778 1.3988 20.0778 1.95097C20.0778 2.50315 19.6297 2.95032 19.0775 2.95032ZM7.07791 4.9509C5.22171 4.9509 3.44155 5.68775 2.12807 7.00115C0.815597 8.31362 0.0778122 10.0939 0.0778122 11.95C0.0778122 13.8072 0.815597 15.5874 2.12807 16.8999C3.44147 18.2123 5.22181 18.9501 7.07791 18.9501C8.93401 18.9501 10.7143 18.2123 12.0278 16.8999C13.3402 15.5874 14.078 13.8071 14.078 11.95C14.078 10.0938 13.3402 8.31367 12.0278 7.00115C10.7143 5.68775 8.93401 4.9509 7.07791 4.9509ZM7.07791 16.9505C5.75233 16.9505 4.48023 16.4237 3.54282 15.4862C2.60536 14.5478 2.07848 13.2766 2.07848 11.9501C2.07848 10.6246 2.60534 9.35246 3.54282 8.41505C4.4803 7.47763 5.75243 6.95071 7.07791 6.95071C8.40339 6.95071 9.67558 7.47756 10.613 8.41505C11.5504 9.35253 12.0773 10.6247 12.0773 11.9501C12.0773 13.2766 11.5505 14.5478 10.613 15.4862C9.67554 16.4236 8.40339 16.9505 7.07791 16.9505ZM19.0775 4.9509H15.0773C14.5252 4.9509 14.078 5.39808 14.078 5.95025C14.078 6.50243 14.5252 6.95054 15.0773 6.95054H19.0775C19.6297 6.95054 20.0778 6.50243 20.0778 5.95025C20.0778 5.39808 19.6297 4.9509 19.0775 4.9509ZM19.0775 8.95013H17.0779C16.5257 8.95013 16.0776 9.39824 16.0776 9.95042C16.0776 10.5026 16.5257 10.9507 17.0779 10.9507H19.0775C19.6297 10.9507 20.0778 10.5026 20.0778 9.95042C20.0778 9.39824 19.6297 8.95013 19.0775 8.95013ZM17.0779 12.9503H19.0775C19.6297 12.9503 20.0778 13.3984 20.0778 13.9506C20.0778 14.5028 19.6297 14.95 19.0775 14.95H17.0779C16.5257 14.95 16.0776 14.5028 16.0776 13.9506C16.0776 13.3984 16.5257 12.9503 17.0779 12.9503ZM19.0775 16.9505H15.0773C14.5252 16.9505 14.078 17.3977 14.078 17.9499C14.078 18.502 14.5252 18.9502 15.0773 18.9502H19.0775C19.6297 18.9502 20.0778 18.502 20.0778 17.9499C20.0778 17.3977 19.6297 16.9505 19.0775 16.9505ZM6.07762 9.95042C6.07762 9.39824 6.52573 8.95013 7.07791 8.95013L7.07793 8.95013C7.34324 8.95013 7.59728 9.05609 7.78478 9.24357C7.97228 9.43105 8.07822 9.68511 8.07822 9.95042V11.95C8.07635 12.2172 7.96854 12.4731 7.77823 12.6606V12.6597L6.77794 13.66C6.59701 13.8718 6.33547 13.9984 6.05703 14.0087C5.77859 14.02 5.5086 13.914 5.31173 13.7172C5.11391 13.5203 5.00798 13.2494 5.01923 12.9709C5.02953 12.6925 5.1561 12.4319 5.36796 12.25L6.07762 11.5404V9.95042Z" fill="white"/>
</svg>
