<svg width="24" height="20" viewBox="0 0 24 20" fill="none" xmlns="http://www.w3.org/2000/svg">
<path d="M18.776 3.17751C18.0586 2.41332 17.0439 1.97471 15.9932 1.97471C13.8917 1.97471 12.182 3.68434 12.182 5.78583C12.182 6.07727 12.2152 6.37064 12.2814 6.65527C12.3155 6.80345 12.2785 6.96036 12.1801 7.0783M18.776 3.17751L18.721 3.22856C18.7211 3.22862 18.7211 3.22869 18.7212 3.22875M18.776 3.17751C18.891 3.30129 19.0616 3.35589 19.2253 3.32175L19.7332 5.74971C19.7255 5.56084 19.8132 5.38099 19.9661 5.2708C20.2427 5.07102 20.5058 4.85477 20.754 4.623C20.5178 4.67034 20.279 4.70858 20.0382 4.73736C19.7751 4.77435 19.5241 4.61225 19.438 4.36182L19.438 4.36163C19.3525 4.11078 19.4538 3.83426 19.6807 3.69716L19.6809 3.69703C19.9753 3.5206 20.2414 3.30619 20.4736 3.06228C20.0711 3.20195 19.6592 3.31383 19.2401 3.39527C19.0507 3.43459 18.8538 3.37134 18.7212 3.22875M18.776 3.17751L18.7213 3.22884C18.7213 3.22881 18.7212 3.22878 18.7212 3.22875M18.7212 3.22875C18.0181 2.47976 17.0232 2.04971 15.9932 2.04971C13.9331 2.04971 12.257 3.72576 12.257 5.78583C12.257 6.07163 12.2895 6.3593 12.3545 6.63827L12.3545 6.63845C12.3939 6.80942 12.3512 6.99033 12.2377 7.12632M12.2377 7.12632L12.1801 7.0783M12.2377 7.12632C12.2377 7.12633 12.2376 7.12635 12.2376 7.12636L12.1801 7.0783M12.2377 7.12632C12.1302 7.2553 11.9605 7.35422 11.7747 7.32652C8.47198 7.15905 5.35873 5.70709 3.10135 3.30437C2.98609 3.66841 2.92702 4.04958 2.92702 4.43391C2.92702 5.68768 3.54808 6.84854 4.58767 7.54325L12.1801 7.0783M3.76152 17.1225C5.12653 17.6676 6.58786 17.9503 8.07746 17.9503C15.3799 17.9503 19.7449 12.0205 19.7449 6.28294C19.7449 6.10597 19.74 5.92775 19.7332 5.74996L3.76152 17.1225ZM3.76152 17.1225C5.37781 16.9058 6.8931 16.2686 8.19684 15.2471C8.38357 15.1008 8.45895 14.8513 8.38352 14.6261C8.30826 14.4014 8.09934 14.2461 7.86164 14.2416C6.56484 14.2157 5.39847 13.5266 4.74383 12.4582C5.14094 12.453 5.54248 12.3895 5.92548 12.2855L5.92593 12.2854C6.17657 12.2157 6.34747 11.9831 6.3385 11.7233M3.76152 17.1225L6.33851 11.7235C6.33851 11.7234 6.33851 11.7233 6.3385 11.7233M6.3385 11.7233C6.33049 11.462 6.14348 11.2429 5.88753 11.1912L5.88748 11.1912C4.44369 10.9008 3.32808 9.78538 2.99478 8.36403M6.3385 11.7233L2.99478 8.36403M2.99478 8.36403C3.40442 8.48943 3.83055 8.55999 4.25912 8.57346L4.25911 8.57364L4.26431 8.57344C4.4957 8.5647 4.73362 8.42485 4.81145 8.18221L4.81148 8.18211C4.88793 7.94259 4.79684 7.68274 4.58774 7.5433L2.99478 8.36403ZM1.1837 17.0552L1.18374 17.0552C3.24275 18.3769 5.62636 19.075 8.07746 19.075C16.0849 19.075 20.8696 12.5685 20.8696 6.28391C20.8696 6.1909 20.8688 6.09688 20.8666 6.00329C21.6567 5.39178 22.3421 4.65788 22.9057 3.81776L22.9059 3.81751C23.0441 3.60971 23.0296 3.33438 22.8688 3.14302C22.7082 2.95006 22.4374 2.88653 22.2103 2.99021C22.0876 3.04451 21.9638 3.09572 21.8387 3.14357C22.0747 2.78242 22.2623 2.3891 22.3953 1.9732L22.3953 1.9731C22.4663 1.75034 22.3919 1.50757 22.21 1.36159L22.2094 1.36111C22.0262 1.21724 21.7746 1.2005 21.5737 1.31723L21.5731 1.31757C20.8632 1.7386 20.1039 2.0454 19.3117 2.23083C18.416 1.39664 17.224 0.925 15.9931 0.925C13.3131 0.925 11.1323 3.10589 11.1323 5.78586C11.1323 5.90586 11.1367 6.02711 11.1455 6.14716C8.12149 5.81394 5.32198 4.29691 3.3819 1.9176L3.38162 1.91726C3.2648 1.77571 3.08621 1.69933 2.90306 1.71279L2.90263 1.71282C2.71855 1.72743 2.55316 1.8307 2.46072 1.99057C2.02898 2.73121 1.80232 3.57662 1.80232 4.43391C1.80232 5.33195 2.04773 6.19577 2.4948 6.93981C2.3416 6.90018 2.1773 6.93873 2.04493 7.0166L2.04492 7.0166C1.86948 7.11983 1.76721 7.33279 1.76721 7.52766C1.76721 9.03708 2.46657 10.4151 3.58287 11.3159C3.52102 11.3472 3.46465 11.3899 3.41715 11.4427L3.417 11.4428C3.28422 11.5914 3.24041 11.7984 3.30109 11.9884L3.3011 11.9884C3.77881 13.4815 4.93508 14.6211 6.3683 15.1082C4.91157 15.8983 3.19841 16.2151 1.55457 16.024C1.29486 15.987 1.04498 16.1456 0.957638 16.392C0.87003 16.6391 0.963232 16.9135 1.1837 17.0552ZM4.54607 7.60565C4.72738 7.72653 4.80631 7.95166 4.74003 8.1593C4.67375 8.36594 4.46808 8.49069 4.26147 8.4985L4.54607 7.60565Z" fill="white" stroke="white" stroke-width="0.15"/>
</svg>
