<svg width="25" height="24" viewBox="0 0 25 24" fill="none" xmlns="http://www.w3.org/2000/svg">
<rect x="3.62415" y="3.12415" width="17.7517" height="17.7517" stroke="#D7C6F4" stroke-width="2.2483"/>
<rect x="6.5" y="9" width="0.999999" height="6" fill="#D7C6F4"/>
<path d="M8.5 9L12.5 7V17L8.5 15V9Z" fill="#D7C6F4"/>
<mask id="mask0_5027_156960" style="mask-type:alpha" maskUnits="userSpaceOnUse" x="8" y="7" width="11" height="11">
<path fill-rule="evenodd" clip-rule="evenodd" d="M17.3768 12.002C17.3768 14.1425 15.6415 15.8778 13.501 15.8778C11.3604 15.8778 9.62513 14.1425 9.62513 12.002C9.62513 9.86138 11.3604 8.12611 13.501 8.12611C15.6415 8.12611 17.3768 9.86138 17.3768 12.002ZM18.501 12.002C18.501 14.7634 16.2624 17.002 13.501 17.002C10.7396 17.002 8.50098 14.7634 8.50098 12.002C8.50098 9.24053 10.7396 7.00195 13.501 7.00195C16.2624 7.00195 18.501 9.24053 18.501 12.002ZM15.1268 12.002C15.1268 12.8999 14.3989 13.6278 13.501 13.6278C12.603 13.6278 11.8751 12.8999 11.8751 12.002C11.8751 11.104 12.603 10.3761 13.501 10.3761C14.3989 10.3761 15.1268 11.104 15.1268 12.002ZM16.251 12.002C16.251 13.5207 15.0198 14.752 13.501 14.752C11.9822 14.752 10.751 13.5207 10.751 12.002C10.751 10.4832 11.9822 9.25195 13.501 9.25195C15.0198 9.25195 16.251 10.4832 16.251 12.002Z" fill="black"/>
</mask>
<g mask="url(#mask0_5027_156960)">
<path d="M15.21 16.6988C16.2022 16.3377 17.0547 15.6717 17.6451 14.7963C18.2356 13.9209 18.5337 12.8811 18.4969 11.8259C18.46 10.7706 18.09 9.75411 17.44 8.92205C16.7899 8.08999 15.8931 7.4851 14.8781 7.19405L13.4999 12.0004L15.21 16.6988Z" fill="#D7C6F4"/>
</g>
</svg>
