<svg width="38" height="38" viewBox="0 0 38 38" fill="none" xmlns="http://www.w3.org/2000/svg">
<path d="M31.5196 6.3293H28.585V5.18854C28.585 4.71183 28.3956 4.25465 28.0586 3.91757C27.7215 3.58048 27.2643 3.39111 26.7876 3.39111C26.3109 3.39111 25.8537 3.58048 25.5166 3.91757C25.1795 4.25465 24.9902 4.71183 24.9902 5.18854V6.3293H20.7962V5.18854C20.7962 4.71183 20.6068 4.25465 20.2697 3.91757C19.9327 3.58048 19.4755 3.39111 18.9988 3.39111C18.5221 3.39111 18.0649 3.58048 17.7278 3.91757C17.3907 4.25465 17.2013 4.71183 17.2013 5.18854V6.3293H13.0074V5.18854C13.0074 4.71183 12.818 4.25465 12.4809 3.91757C12.1438 3.58048 11.6866 3.39111 11.2099 3.39111C10.7332 3.39111 10.2761 3.58048 9.93897 3.91757C9.60189 4.25465 9.41252 4.71183 9.41252 5.18854V6.3293H6.47793C5.7152 6.3293 4.98371 6.63229 4.44438 7.17162C3.90504 7.71095 3.60205 8.44244 3.60205 9.20517V31.7329C3.60205 32.4956 3.90504 33.2271 4.44438 33.7664C4.98371 34.3057 5.7152 34.6087 6.47793 34.6087H31.522C32.2847 34.6087 33.0162 34.3057 33.5556 33.7664C34.0949 33.2271 34.3979 32.4956 34.3979 31.7329V9.20997C34.3985 8.8317 34.3245 8.45702 34.1801 8.10739C34.0357 7.75776 33.8238 7.44006 33.5564 7.17247C33.289 6.90488 32.9715 6.69267 32.622 6.54798C32.2725 6.4033 31.8979 6.32898 31.5196 6.3293ZM26.1885 5.18854C26.1885 5.02963 26.2516 4.87724 26.3639 4.76488C26.4763 4.65252 26.6287 4.58939 26.7876 4.58939C26.9465 4.58939 27.0989 4.65252 27.2113 4.76488C27.3236 4.87724 27.3867 5.02963 27.3867 5.18854V7.5851C27.3867 7.744 27.3236 7.89639 27.2113 8.00875C27.0989 8.12112 26.9465 8.18424 26.7876 8.18424C26.6287 8.18424 26.4763 8.12112 26.3639 8.00875C26.2516 7.89639 26.1885 7.744 26.1885 7.5851V5.18854ZM18.3996 5.18854C18.3996 5.02963 18.4628 4.87724 18.5751 4.76488C18.6875 4.65252 18.8399 4.58939 18.9988 4.58939C19.1577 4.58939 19.3101 4.65252 19.4224 4.76488C19.5348 4.87724 19.5979 5.02963 19.5979 5.18854V7.5851C19.5979 7.744 19.5348 7.89639 19.4224 8.00875C19.3101 8.12112 19.1577 8.18424 18.9988 8.18424C18.8399 8.18424 18.6875 8.12112 18.5751 8.00875C18.4628 7.89639 18.3996 7.744 18.3996 7.5851V5.18854ZM10.6108 5.18854C10.6108 5.02963 10.6739 4.87724 10.7863 4.76488C10.8986 4.65252 11.051 4.58939 11.2099 4.58939C11.3688 4.58939 11.5212 4.65252 11.6336 4.76488C11.746 4.87724 11.8091 5.02963 11.8091 5.18854V7.5851C11.8091 7.744 11.746 7.89639 11.6336 8.00875C11.5212 8.12112 11.3688 8.18424 11.2099 8.18424C11.051 8.18424 10.8986 8.12112 10.7863 8.00875C10.6739 7.89639 10.6108 7.744 10.6108 7.5851V5.18854ZM7.07707 7.52758H9.41252V7.5851C9.41252 8.0618 9.60189 8.51899 9.93897 8.85607C10.2761 9.19315 10.7332 9.38252 11.2099 9.38252C11.6866 9.38252 12.1438 9.19315 12.4809 8.85607C12.818 8.51899 13.0074 8.0618 13.0074 7.5851V7.52758H17.2013V7.5851C17.2013 8.0618 17.3907 8.51899 17.7278 8.85607C18.0649 9.19315 18.5221 9.38252 18.9988 9.38252C19.4755 9.38252 19.9327 9.19315 20.2697 8.85607C20.6068 8.51899 20.7962 8.0618 20.7962 7.5851V7.52758H24.9902V7.5851C24.9902 8.0618 25.1795 8.51899 25.5166 8.85607C25.8537 9.19315 26.3109 9.38252 26.7876 9.38252C27.2643 9.38252 27.7215 9.19315 28.0586 8.85607C28.3956 8.51899 28.585 8.0618 28.585 7.5851V7.52758H30.9205C31.5243 7.52758 32.1034 7.76745 32.5304 8.19442C32.9573 8.62139 33.1972 9.20049 33.1972 9.80432L33.202 11.3521H4.79554V9.80911C4.79491 9.50932 4.85349 9.21235 4.96792 8.93526C5.08236 8.65817 5.25039 8.4064 5.46237 8.19442C5.67436 7.98243 5.92612 7.8144 6.20322 7.69997C6.48031 7.58553 6.77728 7.52695 7.07707 7.52758ZM30.9229 33.4105H7.07707C6.47324 33.4105 5.89414 33.1706 5.46717 32.7436C5.0402 32.3166 4.80033 31.7376 4.80033 31.1337V12.6225H33.202V31.1349C33.2025 31.4346 33.1438 31.7314 33.0293 32.0084C32.9148 32.2854 32.7467 32.537 32.5347 32.7488C32.3228 32.9607 32.0711 33.1286 31.794 33.243C31.517 33.3573 31.2202 33.4159 30.9205 33.4152L30.9229 33.4105Z" fill="#A3A6C2"/>
<rect x="8.11316" y="14.5176" width="4.39941" height="4.275" rx="0.791667" fill="url(#paint0_linear_5764_16712)"/>
<rect x="13.9795" y="14.5176" width="4.39941" height="4.275" rx="0.791667" fill="url(#paint1_linear_5764_16712)"/>
<rect x="13.9795" y="20.22" width="4.39941" height="4.275" rx="0.791667" fill="url(#paint2_linear_5764_16712)"/>
<rect x="8.11316" y="20.22" width="4.39941" height="4.275" rx="0.791667" fill="url(#paint3_linear_5764_16712)"/>
<rect x="13.9795" y="25.9194" width="4.39941" height="4.275" rx="0.791667" fill="url(#paint4_linear_5764_16712)"/>
<rect x="8.11316" y="25.9194" width="4.39941" height="4.275" rx="0.791667" fill="url(#paint5_linear_5764_16712)"/>
<rect x="19.8428" y="14.5176" width="4.39941" height="4.275" rx="0.791667" fill="url(#paint6_linear_5764_16712)"/>
<rect x="19.8428" y="20.22" width="4.39941" height="4.275" rx="0.791667" fill="url(#paint7_linear_5764_16712)"/>
<rect x="19.8428" y="25.9194" width="4.39941" height="4.275" rx="0.791667" fill="url(#paint8_linear_5764_16712)"/>
<rect x="25.7091" y="14.5176" width="4.39941" height="4.275" rx="0.791667" fill="url(#paint9_linear_5764_16712)"/>
<rect x="25.7091" y="20.22" width="4.39941" height="4.275" rx="0.791667" fill="url(#paint10_linear_5764_16712)"/>
<rect x="25.7091" y="25.9194" width="4.39941" height="4.275" rx="0.791667" fill="url(#paint11_linear_5764_16712)"/>
<defs>
<linearGradient id="paint0_linear_5764_16712" x1="12.5126" y1="16.6551" x2="8.11316" y2="16.6551" gradientUnits="userSpaceOnUse">
<stop stop-color="#FFA800"/>
<stop offset="0.453125" stop-color="#FFF389"/>
<stop offset="1" stop-color="#FFA800"/>
</linearGradient>
<linearGradient id="paint1_linear_5764_16712" x1="18.3789" y1="16.6551" x2="13.9795" y2="16.6551" gradientUnits="userSpaceOnUse">
<stop stop-color="#FFA800"/>
<stop offset="0.453125" stop-color="#FFF389"/>
<stop offset="1" stop-color="#FFA800"/>
</linearGradient>
<linearGradient id="paint2_linear_5764_16712" x1="18.3789" y1="22.3575" x2="13.9795" y2="22.3575" gradientUnits="userSpaceOnUse">
<stop stop-color="#FFA800"/>
<stop offset="0.453125" stop-color="#FFF389"/>
<stop offset="1" stop-color="#FFA800"/>
</linearGradient>
<linearGradient id="paint3_linear_5764_16712" x1="12.5126" y1="22.3575" x2="8.11316" y2="22.3575" gradientUnits="userSpaceOnUse">
<stop stop-color="#FFA800"/>
<stop offset="0.453125" stop-color="#FFF389"/>
<stop offset="1" stop-color="#FFA800"/>
</linearGradient>
<linearGradient id="paint4_linear_5764_16712" x1="18.3789" y1="28.0569" x2="13.9795" y2="28.0569" gradientUnits="userSpaceOnUse">
<stop stop-color="#FFA800"/>
<stop offset="0.453125" stop-color="#FFF389"/>
<stop offset="1" stop-color="#FFA800"/>
</linearGradient>
<linearGradient id="paint5_linear_5764_16712" x1="12.5126" y1="28.0569" x2="8.11316" y2="28.0569" gradientUnits="userSpaceOnUse">
<stop stop-color="#FFA800"/>
<stop offset="0.453125" stop-color="#FFF389"/>
<stop offset="1" stop-color="#FFA800"/>
</linearGradient>
<linearGradient id="paint6_linear_5764_16712" x1="24.2422" y1="16.6551" x2="19.8428" y2="16.6551" gradientUnits="userSpaceOnUse">
<stop stop-color="#FFA800"/>
<stop offset="0.453125" stop-color="#FFF389"/>
<stop offset="1" stop-color="#FFA800"/>
</linearGradient>
<linearGradient id="paint7_linear_5764_16712" x1="24.2422" y1="22.3575" x2="19.8428" y2="22.3575" gradientUnits="userSpaceOnUse">
<stop stop-color="#FFA800"/>
<stop offset="0.453125" stop-color="#FFF389"/>
<stop offset="1" stop-color="#FFA800"/>
</linearGradient>
<linearGradient id="paint8_linear_5764_16712" x1="24.2422" y1="28.0569" x2="19.8428" y2="28.0569" gradientUnits="userSpaceOnUse">
<stop stop-color="#FFA800"/>
<stop offset="0.453125" stop-color="#FFF389"/>
<stop offset="1" stop-color="#FFA800"/>
</linearGradient>
<linearGradient id="paint9_linear_5764_16712" x1="30.1085" y1="16.6551" x2="25.7091" y2="16.6551" gradientUnits="userSpaceOnUse">
<stop stop-color="#FFA800"/>
<stop offset="0.453125" stop-color="#FFF389"/>
<stop offset="1" stop-color="#FFA800"/>
</linearGradient>
<linearGradient id="paint10_linear_5764_16712" x1="30.1085" y1="22.3575" x2="25.7091" y2="22.3575" gradientUnits="userSpaceOnUse">
<stop stop-color="#FFA800"/>
<stop offset="0.453125" stop-color="#FFF389"/>
<stop offset="1" stop-color="#FFA800"/>
</linearGradient>
<linearGradient id="paint11_linear_5764_16712" x1="30.1085" y1="28.0569" x2="25.7091" y2="28.0569" gradientUnits="userSpaceOnUse">
<stop stop-color="#FFA800"/>
<stop offset="0.453125" stop-color="#FFF389"/>
<stop offset="1" stop-color="#FFA800"/>
</linearGradient>
</defs>
</svg>
