<svg width="22" height="18" viewBox="0 0 22 18" fill="none" xmlns="http://www.w3.org/2000/svg">
<path d="M18.3333 0H3.66667C2.69418 0 1.76163 0.431009 1.07398 1.19824C0.38632 1.96547 0 3.00591 0 4.09091V13.9091C0 14.9941 0.386312 16.0345 1.07398 16.8018C1.76164 17.569 2.69418 18 3.66667 18H18.3333C19.3058 18 20.2384 17.569 20.926 16.8018C21.6137 16.0345 22 14.9941 22 13.9091V4.09091C22 3.00591 21.6137 1.96546 20.926 1.19824C20.2384 0.431018 19.3058 0 18.3333 0ZM20.5333 13.9091C20.5333 14.5602 20.3015 15.1844 19.889 15.6448C19.4764 16.105 18.9169 16.3636 18.3333 16.3636H3.66667C3.0831 16.3636 2.52363 16.105 2.11095 15.6448C1.69845 15.1844 1.46667 14.5602 1.46667 13.9091V4.09091C1.46667 3.43982 1.69845 2.81562 2.11095 2.35519C2.52362 1.89497 3.0831 1.63636 3.66667 1.63636H18.3333C18.9169 1.63636 19.4764 1.89497 19.889 2.35519C20.3015 2.81561 20.5333 3.43982 20.5333 4.09091V13.9091ZM14.6009 7.46977L9.856 4.35245V4.35263C9.59671 4.1837 9.30189 4.09457 9.00169 4.09457C8.70148 4.09457 8.40668 4.1837 8.14738 4.35263C7.90299 4.50512 7.69904 4.72702 7.55614 4.99567C7.41324 5.26414 7.33647 5.57022 7.33336 5.88254V12.1171C7.33516 12.4308 7.41144 12.7384 7.55434 13.0087C7.69741 13.2788 7.90202 13.502 8.14738 13.6552C8.40568 13.8226 8.69934 13.9103 8.99808 13.9088C9.2996 13.9072 9.59556 13.817 9.856 13.6469L14.6009 10.5296V10.5298C14.9256 10.3242 15.1745 9.99673 15.3031 9.6055C15.4316 9.21431 15.4316 8.78512 15.3031 8.39394C15.1745 8.00274 14.9256 7.67529 14.6009 7.46963V7.46977ZM13.8675 9.10613L9.11554 12.2726C9.03975 12.3162 8.94956 12.3162 8.87361 12.2726C8.8322 12.2481 8.8047 12.2019 8.80028 12.1499V5.88259C8.8047 5.83054 8.8322 5.78451 8.87361 5.75986C8.91486 5.75146 8.95709 5.75146 8.99834 5.75986C9.03681 5.74945 9.07708 5.74945 9.11555 5.75986L13.8604 8.87718C13.9064 8.89617 13.9369 8.94512 13.9369 8.99991C13.9369 9.0547 13.9064 9.10364 13.8604 9.12263L13.8675 9.10613Z" fill="white"/>
</svg>
