<svg xmlns="http://www.w3.org/2000/svg" width="24" height="23.447" viewBox="0 0 24 23.447">
  <g id="noun_Zoom_In_4187201" data-name="noun_Zoom In_4187201" transform="translate(-2.834 -4.15)">
    <g id="_38_Zoom_In_Zooming_In" data-name="38 Zoom In, Zooming In" transform="translate(2.834 4.15)">
      <path id="Path_24909" data-name="Path 24909" d="M26.465,25.447l-4.622-4.622a10.505,10.505,0,1,0-1.71,1.845l4.551,4.559a1.26,1.26,0,0,0,1.782-1.782ZM13.539,23.123h-.13a8.531,8.531,0,1,1-.13-17.061h.13a8.531,8.531,0,0,1,.13,17.061Zm5.333-8.53a1.261,1.261,0,0,1-1.261,1.261H14.67v2.942a1.261,1.261,0,1,1-2.521,0V15.853H9.207a1.261,1.261,0,1,1,0-2.521h2.942V10.39a1.261,1.261,0,0,1,2.521,0v2.942h2.942A1.261,1.261,0,0,1,18.872,14.592Z" transform="translate(-2.834 -4.15)" fill="#fff"/>
    </g>
  </g>
</svg>
