<svg width="32" height="32" viewBox="0 0 32 32" xmlns="http://www.w3.org/2000/svg">
    <g fill="none" fill-rule="evenodd">
        <path d="M0 0h32v32H0z"/>
        <path d="M16.5 19.25a3.756 3.756 0 0 1-3.75-3.75 3.756 3.756 0 0 1 3.75-3.75 3.756 3.756 0 0 1 3.75 3.75 3.756 3.756 0 0 1-3.75 3.75z" stroke="#FFF" stroke-width="2"/>
        <path fill="#FFF" d="M13.959 3h4.991l2.165 3.75H18.23l-1.781-3.085-1.706 3.085h-2.857zM13.959 28h4.991l2.165-3.75H18.23l-1.781 3.084-1.706-3.084h-2.857z"/>
        <path fill="#FFF" d="m23.542 4.864 3.53 3.53-1.121 4.182-2.042-2.04.922-3.441-3.387.974-2.02-2.02zM5.864 22.542l3.53 3.53 4.182-1.121-2.04-2.042-3.441.922.975-3.387-2.02-2.02z"/>
        <path fill="#FFF" d="M29 12.959v4.991l-3.75 2.165v-2.887l3.085-1.78-3.085-1.707v-2.856zM4 12.959v4.991l3.75 2.165v-2.887l-3.085-1.78L7.75 13.74v-2.856z"/>
        <path fill="#FFF" d="m27.136 22.542-3.53 3.53-4.182-1.121 2.041-2.042 3.44.922-.974-3.387 2.02-2.02zM9.458 4.864l-3.53 3.53 1.121 4.182 2.042-2.04-.922-3.441 3.387.974 2.02-2.02z"/>
    </g>
</svg>
