<svg xmlns="http://www.w3.org/2000/svg" width="32" height="32" viewBox="0 0 32 32">
    <g fill="none" fill-rule="evenodd">
        <g>
            <g>
                <g>
                    <g>
                        <path d="M0 0H32V32H0z" transform="translate(-1148 -672) translate(44 672) translate(992) translate(112)"/>
                        <path fill="#FFF" fill-rule="nonzero" d="M24.842 6C26.586 6 28 7.4 28 9.125v13.75C28 24.601 26.586 26 24.842 26H7.158C5.414 26 4 24.6 4 22.875V9.125C4 7.399 5.414 6 7.158 6zm0 1.25H7.158c-1.047 0-1.895.84-1.895 1.875v13.75c0 1.036.848 1.875 1.895 1.875h17.684c1.047 0 1.895-.84 1.895-1.875V9.125c0-1.036-.848-1.875-1.895-1.875zm-.663 7.875c.366 0 .663.297.663.663v6.174c0 .366-.297.663-.663.663h-7.516c-.366 0-.663-.297-.663-.663v-6.174c0-.366.297-.663.663-.663h7.516z" transform="translate(-1148 -672) translate(44 672) translate(992) translate(112)"/>
                    </g>
                </g>
            </g>
        </g>
    </g>
</svg>
