<svg xmlns="http://www.w3.org/2000/svg" width="24" height="24" viewBox="0 0 24 24">
    <g fill="none" fill-rule="evenodd">
        <path d="M0 0H24V24H0z"/>
        <path fill="#FFF" fill-rule="nonzero" d="M19.168 3.29c.32-.32.838-.32 1.157 0 .32.319.32.837 0 1.156l-7.361 7.36 7.361 7.362c.293.293.318.753.074 1.074l-.074.083c-.319.32-.837.32-1.157 0l-7.361-7.361-7.36 7.362c-.294.293-.753.317-1.074.073l-.084-.073c-.32-.32-.32-.838 0-1.157l7.36-7.363-7.36-7.36c-.293-.293-.317-.752-.073-1.073l.073-.084c.32-.32.838-.32 1.157 0l7.36 7.36z"/>
    </g>
</svg>
