<svg xmlns="http://www.w3.org/2000/svg" width="138" height="20" viewBox="0 0 138 20">
    <g fill="none" fill-rule="evenodd" opacity=".3">
        <g fill="#FFF">
            <path d="M77.393 0c-.556 0-1.112.06-1.668.18-.556.121-1.082.296-1.577.525-.496.229-.95.505-1.36.83-.411.326-.738.681-.98 1.066V1.01H69.2V19h2.61V8.164c0-.699.15-1.385.453-2.06.302-.673.707-1.27 1.215-1.787.508-.518 1.1-.933 1.777-1.247.677-.312 1.39-.47 2.14-.47.749 0 1.463.145 2.14.434.676.29 1.269.687 1.777 1.192.507.506.906 1.096 1.196 1.77.29.675.436 1.397.436 2.168V19h2.609V8.164c0-1.108-.218-2.161-.653-3.161-.435-.999-1.021-1.866-1.758-2.6-.738-.735-1.602-1.32-2.593-1.753C79.556.217 78.505 0 77.393 0zM92.78.774c-1.197.516-2.243 1.224-3.14 2.124-.898.9-1.604 1.95-2.119 3.15-.514 1.2-.771 2.484-.771 3.852 0 1.368.257 2.652.771 3.852.515 1.2 1.22 2.25 2.118 3.15.898.9 1.944 1.608 3.141 2.124 1.196.516 2.477.774 3.84.774 1.365 0 2.645-.258 3.842-.774 1.196-.516 2.243-1.224 3.14-2.124.898-.9 1.603-1.95 2.118-3.15.515-1.2.772-2.484.772-3.852 0-1.368-.257-2.652-.772-3.852-.515-1.2-1.22-2.25-2.117-3.15-.898-.9-1.945-1.608-3.141-2.124C99.264.258 97.984 0 96.62 0c-1.364 0-2.645.258-3.84.774zm1.14 16.24c-.912-.39-1.708-.926-2.389-1.61-.681-.682-1.216-1.48-1.605-2.395-.39-.915-.584-1.885-.584-2.909 0-1.024.195-1.994.584-2.909.389-.914.924-1.713 1.605-2.396.68-.683 1.477-1.22 2.39-1.61.911-.39 1.878-.585 2.9-.585 1.02 0 1.987.196 2.9.585.911.39 1.708.927 2.389 1.61.68.683 1.216 1.482 1.605 2.396.389.915.584 1.885.584 2.91 0 1.023-.195 1.993-.584 2.908-.39.914-.924 1.713-1.605 2.396-.681.683-1.478 1.22-2.39 1.61-.912.39-1.878.585-2.9.585-1.021 0-1.988-.195-2.9-.585zM38.339.983c-1.195.522-2.24 1.226-3.134 2.111-.893.886-1.6 1.93-2.119 3.13-.52 1.202-.779 2.494-.779 3.877 0 1.383.26 2.675.78 3.876.518 1.201 1.225 2.245 2.118 3.13.894.886 1.939 1.59 3.134 2.112 1.195.521 2.481.782 3.858.782 1.376 0 2.662-.26 3.858-.782 1.195-.522 2.233-1.226 3.115-2.111.881-.886 1.582-1.93 2.101-3.13.52-1.202.78-2.494.78-3.877 0-1.383-.26-2.675-.78-3.876s-1.22-2.245-2.1-3.13c-.883-.886-1.921-1.59-3.116-2.112C44.858.461 43.572.2 42.196.2c-1.377 0-2.663.26-3.858.782zm1.774 14.37c-.68-.3-1.27-.7-1.772-1.203-.501-.503-.901-1.095-1.2-1.777-.298-.682-.446-1.406-.446-2.172 0-.766.148-1.49.447-2.172.298-.682.698-1.274 1.199-1.777.501-.502 1.091-.903 1.772-1.202.68-.3 1.402-.449 2.166-.449.763 0 1.485.15 2.165.449.68.3 1.27.7 1.771 1.202.502.503.901 1.095 1.2 1.777.298.682.447 1.406.447 2.172 0 .766-.15 1.49-.447 2.172-.299.682-.698 1.274-1.2 1.777-.5.502-1.091.903-1.771 1.202-.68.3-1.402.449-2.165.449-.764 0-1.486-.15-2.166-.449zM57.204.653c-.783.303-1.47.715-2.06 1.235-.592.521-1.062 1.133-1.411 1.835-.35.703-.525 1.453-.525 2.253 0 1.356.422 2.476 1.266 3.36.844.885 1.844 1.496 3.001 1.835l2.026.617c.602.195 1.072.382 1.41.563.337.182.596.364.777.546.181.181.295.375.344.58.048.207.072.419.072.637 0 .484-.223.944-.669 1.38-.446.436-1.03.654-1.754.654-.482 0-.886-.09-1.211-.272-.326-.182-.591-.406-.796-.673-.205-.266-.356-.568-.452-.908-.096-.339-.144-.678-.144-1.017h-4.231c0 .969.18 1.865.542 2.688.362.824.85 1.533 1.465 2.126.615.594 1.332 1.06 2.151 1.398.82.34 1.688.509 2.604.509.892 0 1.748-.133 2.568-.4.819-.266 1.542-.647 2.17-1.144.626-.496 1.126-1.102 1.5-1.817.373-.713.56-1.531.56-2.452 0-1.598-.404-2.87-1.21-3.815-.809-.944-1.863-1.646-3.165-2.107l-1.99-.69c-.265-.096-.554-.193-.867-.29-.314-.097-.609-.219-.886-.364s-.506-.327-.687-.545c-.18-.218-.271-.472-.271-.763 0-.557.217-.98.65-1.271.435-.291.929-.436 1.483-.436.362 0 .663.067.904.2s.434.29.579.472c.145.181.253.37.326.563.072.194.12.351.144.472h4.231c-.049-.508-.199-1.077-.452-1.707-.253-.63-.62-1.217-1.103-1.762-.482-.545-1.085-1.005-1.808-1.38C61.562.387 60.694.2 59.68.2c-.868 0-1.694.152-2.477.454zM30.634.562c-.616.107-1.244.287-1.884.539-.64.251-1.263.581-1.867.988-.605.408-1.145.912-1.619 1.51V1.227H21.14V19.2h4.125v-7.944c0-1.007.196-1.91.587-2.714.391-.803.895-1.48 1.512-2.031.616-.551 1.31-.97 2.08-1.258.77-.288 1.535-.432 2.294-.432L32.307.4c-.499 0-1.056.054-1.672.162zm-24.82.597c-1.16.506-2.169 1.188-3.028 2.047-.86.859-1.538 1.87-2.037 3.035C.249 7.406 0 8.66 0 10c0 1.341.25 2.594.749 3.759.499 1.164 1.177 2.177 2.037 3.035.86.86 1.868 1.541 3.028 2.047 1.159.506 2.406.759 3.74.759 1.007 0 1.99-.136 2.951-.406.96-.27 1.862-.7 2.705-1.288.843-.588 1.592-1.353 2.248-2.294.656-.941 1.183-2.083 1.581-3.424h-4.461c-.399 1.012-1.03 1.818-1.897 2.418-.867.6-1.909.9-3.126.9-.727 0-1.417-.135-2.073-.406-.656-.27-1.23-.64-1.721-1.112-.492-.47-.89-1.023-1.194-1.659-.305-.635-.47-1.317-.492-2.047h15.07c-.024-1.293-.264-2.54-.72-3.74-.457-1.2-1.096-2.254-1.915-3.16-.82-.905-1.815-1.629-2.986-2.17C12.353.67 11.03.4 9.554.4c-1.334 0-2.581.253-3.74.759zm.67 3.892C7.393 4.351 8.455 4 9.673 4c1.217 0 2.28.35 3.187 1.051.907.702 1.54 1.551 1.898 2.549H4.587c.358-.998.99-1.847 1.898-2.549zM135.407 1v10.805c0 .774-.145 1.5-.435 2.176-.29.677-.684 1.269-1.18 1.777-.495.507-1.082.906-1.759 1.196-.677.29-1.403.435-2.177.435-.75 0-1.457-.138-2.122-.416-.666-.278-1.252-.665-1.76-1.16-.508-.496-.907-1.082-1.197-1.76-.29-.676-.436-1.426-.436-2.248V1h-2.593v10.805c0 .774-.15 1.5-.45 2.176-.302.677-.704 1.269-1.209 1.777-.504.507-1.093.906-1.766 1.196-.673.29-1.382.435-2.127.435-.769 0-1.49-.145-2.162-.435-.673-.29-1.256-.689-1.748-1.196-.493-.508-.884-1.1-1.172-1.777-.288-.676-.433-1.402-.433-2.176V1h-2.593v10.805c0 1.137.21 2.2.633 3.191.423.992.996 1.856 1.72 2.593.725.738 1.576 1.323 2.554 1.758.977.435 2.033.653 3.169.653 1.448 0 2.764-.339 3.947-1.015 1.183-.677 2.149-1.596 2.897-2.756.724 1.16 1.684 2.08 2.88 2.756 1.194.676 2.516 1.015 3.965 1.015 1.11 0 2.16-.218 3.15-.653.99-.435 1.86-1.02 2.608-1.758.748-.737 1.334-1.601 1.756-2.593.422-.99.634-2.054.634-3.19V1h-2.594z" transform="translate(-1098 -24) translate(1098 24)"/>
        </g>
    </g>
</svg>
