<?xml version="1.0" standalone="no"?>
<!DOCTYPE svg PUBLIC "-//W3C//DTD SVG 1.1//EN" "http://www.w3.org/Graphics/SVG/1.1/DTD/svg11.dtd" >
<svg>
<metadata>
Created by FontForge 20090914 at Wed Jun 28 08:52:59 2017
 By www-data
Copyright (c) 2009 BSkyB Ltd.
</metadata>
<defs>
<font id="SkyTextMedium-Regular" horiz-adv-x="606" >
  <font-face 
    font-family="Sky Text Medium"
    font-weight="400"
    font-stretch="normal"
    units-per-em="1000"
    panose-1="2 11 5 6 4 2 2 2 2 4"
    ascent="800"
    descent="-200"
    x-height="483.001"
    cap-height="652"
    bbox="-162.999 -215 1034 887.997"
    underline-thickness="50"
    underline-position="-50"
    unicode-range="U+0020-U+2122"
  />
<missing-glyph horiz-adv-x="500" 
d="M62 0v660h375v-660h-375zM125 63h249v534h-249v-534z" />
    <glyph glyph-name=".notdef" horiz-adv-x="500" 
d="M62 0v660h375v-660h-375zM125 63h249v534h-249v-534z" />
    <glyph glyph-name="space" unicode=" " horiz-adv-x="200" 
 />
    <glyph glyph-name="exclam" unicode="!" horiz-adv-x="280" 
d="M140 -9c-17.333 0 -32.5 6.5 -45.5 19.5s-19.5 28.167 -19.5 45.5c0 18 6.5 33.333 19.5 46s28.167 19 45.5 19c18 0 33.333 -6.33301 46 -19s19 -28 19 -46c0 -17.333 -6.33301 -32.5 -19 -45.5s-28 -19.5 -46 -19.5zM78 599l-0.000976562 5.99902
c0 13.333 5 24.5 15 33.5s26.333 13.5 49 13.5c12 0 23.833 -0.666992 35.5 -2s20.5 -2.66602 26.5 -3.99902l-25 -389c-0.666992 -8 -3.66699 -15.167 -9 -21.5s-14.666 -9.5 -27.999 -9.5c-10.667 0 -22.667 2.33301 -36 7z" />
    <glyph glyph-name="quotedbl" unicode="&#x22;" horiz-adv-x="390" 
d="M108 385c-8.66699 0 -19.332 2 -31.999 6l-20 216v6c0 11.333 4.16699 20.666 12.5 27.999s22.166 11 41.499 11c22.667 0 40 -1.66699 52 -5l-20 -235c-0.666992 -7.33301 -3.5 -13.666 -8.5 -18.999s-13.5 -8 -25.5 -8zM283.002 385c-8.66699 0 -19.332 2 -31.999 6
l-20 216v6c0 11.333 4.16699 20.666 12.5 27.999s22.166 11 41.499 11c10 0 19.833 -0.5 29.5 -1.5s17.167 -2.16699 22.5 -3.5l-20 -235c-0.666992 -7.33301 -3.5 -13.666 -8.5 -18.999s-13.5 -8 -25.5 -8z" />
    <glyph glyph-name="numbersign" unicode="#" 
d="M120 -6c-8.66699 0 -16.834 0.667969 -24.501 2.00098s-14.5 3 -20.5 5l40 168h-88c-0.666992 4 -1.5 9.33301 -2.5 16s-1.5 13.667 -1.5 21c0 15.333 3.33301 26.166 10 32.499s14.667 9.5 24 9.5h76l36 146h-96c-0.666992 4 -1.5 9.33301 -2.5 16s-1.5 13.667 -1.5 21
c0 16 3.33301 27 10 33s14.667 9 24 9h83l37 158c3.33301 10 8.83301 16.333 16.5 19s16.5 4 26.5 4c18.667 0 33.667 -2.33301 45 -7l-42 -174h133l37 158c3.33301 10 8.83301 16.333 16.5 19s16.5 4 26.5 4c18.667 0 33.667 -2.33301 45 -7l-42 -174h93
c0.666992 -4 1.33398 -9.33301 2.00098 -16s1 -13.667 1 -21c0 -16 -3.16699 -27 -9.5 -33s-14.166 -9 -23.499 -9h-80l-35 -146h101l2.5 -17c1 -6.66699 1.5 -13.667 1.5 -21c0 -15.333 -3.33301 -26 -10 -32s-14.667 -9 -24 -9h-89l-37 -152
c-3.33301 -9.33301 -8.83301 -15.5 -16.5 -18.5s-16.167 -4.5 -25.5 -4.5c-8.66699 0 -16.834 0.666992 -24.501 2s-14.5 3 -20.5 5l40 168h-132l-36 -151c-3.33301 -10 -8.83301 -16.5 -16.5 -19.5s-16.5 -4.5 -26.5 -4.5zM217 248.001h132l36 146h-133z" />
    <glyph glyph-name="dollar" unicode="$" 
d="M301 -102c-10.667 0 -23 2.33203 -37 6.99902v92c-30 1.33301 -62.333 4.83301 -97 10.5s-69 14.5 -103 26.5c0 2.66699 -0.166992 5 -0.5 7s-0.5 4.33301 -0.5 7c0 22 3.83301 39.833 11.5 53.5s20.5 20.5 38.5 20.5c8 0 16.5 -1.33301 25.5 -4l31 -9
c11.667 -3.33301 25.167 -6.33301 40.5 -9s33.333 -4 54 -4v187l-23 7c-32 10 -59.167 21.5 -81.5 34.5s-40.333 27.5 -54 43.5s-23.5 33.167 -29.5 51.5s-9 38.166 -9 59.499c0 18.667 3.16699 37.667 9.5 57s17 37 32 53s35.167 29.667 60.5 41s57 18.666 95 21.999v64
c0 7.33301 1.83301 14.5 5.5 21.5s12.167 10.5 25.5 10.5c10.667 0 23 -2.33301 37 -7v-89c28 -2 56.5 -5.66699 85.5 -11s58.833 -13.666 89.5 -24.999v-13c0 -23.333 -3.83301 -41.333 -11.5 -54s-20.5 -19 -38.5 -19c-7.33301 0 -14.5 1.16699 -21.5 3.5l-25 8
c-9.66699 3 -20.667 5.83301 -33 8.5s-27.5 4.33398 -45.5 5.00098v-177l30 -9c58.667 -17.333 102.667 -40.666 132 -69.999s44 -67 44 -113c0 -52.667 -16.333 -95.667 -49 -129s-85 -53.333 -157 -60v-67c0 -7.33301 -1.83301 -14.5 -5.5 -21.5
s-12.167 -10.5 -25.5 -10.5zM332 94.999c32 3.33301 55.333 12.5 70 27.5s22 33.833 22 56.5c0 24 -8.33301 42.667 -25 56s-39 24 -67 32v-172zM264 554.999c-17.333 -0.666992 -31.833 -3.5 -43.5 -8.5s-21 -11 -28 -18s-12 -14.833 -15 -23.5s-4.5 -17 -4.5 -25
c0 -20 6.66699 -37.167 20 -51.5s37 -25.833 71 -34.5v161z" />
    <glyph glyph-name="percent" unicode="%" horiz-adv-x="708" 
d="M542 -6c-20 0 -39.167 3.66699 -57.5 11s-34.333 18.5 -48 33.5s-24.5 33.667 -32.5 56s-12 48.5 -12 78.5s4 56.167 12 78.5s18.833 41 32.5 56s29.667 26.167 48 33.5s37.5 11 57.5 11s39.167 -3.66699 57.5 -11s34.5 -18.5 48.5 -33.5s25 -33.667 33 -56
s12 -48.5 12 -78.5s-4 -56.167 -12 -78.5s-19 -41 -33 -56s-30.167 -26.167 -48.5 -33.5s-37.5 -11 -57.5 -11zM173 -5c-7.33301 0 -14.333 1.5 -21 4.5s-12.667 6.16699 -18 9.5l361 622c3.33301 6 8.33301 11.333 15 16s15 7 25 7s18.333 -1.83301 25 -5.5
s11.667 -6.5 15 -8.5l-360 -622c-4.66699 -8 -10.667 -13.833 -18 -17.5s-15.333 -5.5 -24 -5.5zM542 70c16.667 0 30.334 8.33301 41.001 25s16 43 16 79s-5.33301 61.833 -16 77.5s-24.334 23.5 -41.001 23.5c-17.333 0 -31 -7.83301 -41 -23.5s-15 -41.5 -15 -77.5
s5 -62.333 15 -79s23.667 -25 41 -25zM165 303c-20 0 -39.167 3.66699 -57.5 11s-34.333 18.5 -48 33.5s-24.5 33.667 -32.5 56s-12 48.5 -12 78.5s4 56.167 12 78.5s18.833 41 32.5 56s29.667 26.167 48 33.5s37.5 11 57.5 11s39.167 -3.66699 57.5 -11
s34.5 -18.5 48.5 -33.5s25 -33.667 33 -56s12 -48.5 12 -78.5s-4 -56.167 -12 -78.5s-19 -41 -33 -56s-30.167 -26.167 -48.5 -33.5s-37.5 -11 -57.5 -11zM165 379c16.667 0 30.334 8.33301 41.001 25s16 43 16 79s-5.33301 61.833 -16 77.5s-24.334 23.5 -41.001 23.5
c-17.333 0 -31 -7.83301 -41 -23.5s-15 -41.5 -15 -77.5s5 -62.333 15 -79s23.667 -25 41 -25z" />
    <glyph glyph-name="ampersand" unicode="&#x26;" horiz-adv-x="653" 
d="M252 -9c-36 0 -67.665 5.16602 -94.998 15.499s-50 24.5 -68 42.5s-31.667 38.833 -41 62.5s-14 48.5 -14 74.5c0 42 11.5 78.5 34.5 109.5s57.5 54.167 103.5 69.5c-18.667 20.667 -33 41.167 -43 61.5s-15 42.833 -15 67.5c0 20 4 39.833 12 59.5s20 37 36 52
s36.167 27.167 60.5 36.5s53.166 14 86.499 14c34.667 0 66 -3.83301 94 -11.5s53.667 -16.834 77 -27.501c0.666992 -4 1.16699 -8 1.5 -12s0.5 -7.66699 0.5 -11c0 -19.333 -4.5 -34.166 -13.5 -44.499s-20.833 -15.5 -35.5 -15.5c-8 0 -15.667 1.16699 -23 3.5l-24.5 8
c-9 3 -19.333 5.66699 -31 8s-25.834 3.5 -42.501 3.5c-32 0 -54.5 -7.16699 -67.5 -21.5s-19.5 -31.833 -19.5 -52.5c0 -14.667 3.66699 -29 11 -43s21 -31 41 -51l156 -158l70 130c6 11.333 14.333 19.5 25 24.5s22.334 7.5 35.001 7.5
c9.33301 0 19.166 -1.16699 29.499 -3.5s19.166 -5.16602 26.499 -8.49902l-119 -216l148 -154c-10 -5.33301 -21.667 -9.5 -35 -12.5s-25.666 -4.5 -36.999 -4.5c-20 0 -35.667 3.33301 -47 10s-24 17.667 -38 33l-45 49c-20 -27.333 -45.5 -50 -76.5 -68
s-70.167 -27 -117.5 -27zM257.002 88.999c32 0 57.833 5.66699 77.5 17s35.5 26.666 47.5 45.999l-154 157c-57.333 -23.333 -86 -60.666 -86 -111.999c0 -14.667 2.66699 -28.5 8 -41.5s12.833 -24.5 22.5 -34.5s21.667 -17.833 36 -23.5s30.5 -8.5 48.5 -8.5z" />
    <glyph glyph-name="quotesingle" unicode="'" horiz-adv-x="215" 
d="M108 385c-8.66699 0 -19.332 2 -31.999 6l-20 216v6c0 11.333 4.16699 20.666 12.5 27.999s22.166 11 41.499 11c22.667 0 40 -1.66699 52 -5l-20 -235c-0.666992 -7.33301 -3.5 -13.666 -8.5 -18.999s-13.5 -8 -25.5 -8z" />
    <glyph glyph-name="parenleft" unicode="(" horiz-adv-x="367" 
d="M296 -199c-33.333 18 -65.5 40.668 -96.5 68.001s-58.5 59.166 -82.5 95.499s-43.167 76.833 -57.5 121.5s-21.5 93 -21.5 145s7.33301 100.667 22 146s34.167 86.333 58.5 123s52 68.834 83 96.501s62.833 49.834 95.5 66.501
c14.667 -6.66699 25.167 -14.834 31.5 -24.501s9.5 -19.167 9.5 -28.5c0 -15.333 -5.66699 -27 -17 -35c-54.667 -38 -97.167 -84.833 -127.5 -140.5s-45.5 -123.5 -45.5 -203.5c0 -78.667 14.667 -146 44 -202s72.333 -103.333 129 -142c10.667 -8 16 -19 16 -33
c0 -9.33301 -3 -18.833 -9 -28.5s-16.667 -17.834 -32 -24.501z" />
    <glyph glyph-name="parenright" unicode=")" horiz-adv-x="367" 
d="M70 -199c-15.333 6.66699 -26 14.833 -32 24.5s-9 19.167 -9 28.5c0 15.333 5.33301 26.333 16 33c56.667 38 99.667 85.167 129 141.5s44 123.833 44 202.5c0 80 -15.167 147.833 -45.5 203.5s-72.833 102.5 -127.5 140.5c-11.333 8 -17 19.667 -17 35
c0 9.33301 3.16699 18.833 9.5 28.5s16.833 17.834 31.5 24.501c32.667 -16.667 64.5 -38.834 95.5 -66.501s58.667 -59.834 83 -96.501s43.833 -77.667 58.5 -123s22 -94 22 -146s-7.16699 -100.333 -21.5 -145s-33.5 -85.167 -57.5 -121.5s-51.5 -68.166 -82.5 -95.499
s-63.167 -50 -96.5 -68z" />
    <glyph glyph-name="asterisk" unicode="*" horiz-adv-x="337" 
d="M256 348c-7.33301 0 -14.833 2.66699 -22.5 8s-14.5 13.666 -20.5 24.999l-44 84l-68 -116h-6c-13.333 0 -24.333 3.66699 -33 11s-13 16.666 -13 27.999c0 13.333 7 27.666 21 42.999l62 64l-127 20c-4.66699 10.667 -7 19.334 -7 26.001c0 10.667 3.5 19.5 10.5 26.5
s17.167 10.5 30.5 10.5c11.333 0 22 -2.33301 32 -7l74 -33l-14 128c5.33301 5.33301 11 9 17 11s12 3 18 3c10.667 0 20 -3.66699 28 -11s12 -18.666 12 -33.999c0 -1.33301 -0.166992 -2.83301 -0.5 -4.5s-0.5 -3.5 -0.5 -5.5l-11 -87l120 43
c16.667 -10.667 25 -24.334 25 -41.001c0 -9.33301 -3.66699 -17.666 -11 -24.999s-19 -11.666 -35 -12.999l-90 -7l95 -103c-1.33301 -13.333 -6 -24 -14 -32s-17.333 -12 -28 -12z" />
    <glyph glyph-name="plus" unicode="+" 
d="M300 -1c-8.66699 0 -17.167 0.5 -25.5 1.5s-14.833 1.83301 -19.5 2.5v212h-196c-2.66699 10 -4 24.667 -4 44c0 18.667 3.83301 31 11.5 37s17.5 9 29.5 9h159v169c0 11.333 3.33301 20.666 10 27.999s19 11 37 11c8.66699 0 17.167 -0.5 25.5 -1.5
s14.833 -1.83301 19.5 -2.5v-204h199c2.66699 -10 4 -24.667 4 -44c0 -18.667 -3.83301 -31 -11.5 -37s-17.5 -9 -29.5 -9h-162v-177c0 -11.333 -3.33301 -20.666 -10 -27.999s-19 -11 -37 -11z" />
    <glyph glyph-name="comma" unicode="," horiz-adv-x="183" 
d="M61 67c8 26.667 23.666 40 46.999 40c13.333 0 23.833 -4.16699 31.5 -12.5s11.5 -19.833 11.5 -34.5c0 -11.333 -2 -24.333 -6 -39s-7.33301 -25 -10 -31c-15.333 -36.667 -33.666 -63.167 -54.999 -79.5s-44.333 -24.5 -69 -24.5h-7z" />
    <glyph glyph-name="hyphen" unicode="-" horiz-adv-x="355" 
d="M32 207c-0.666992 5.33301 -1.66699 12.1689 -3 20.502s-2 17.166 -2 26.499c0 19.333 4.16699 32.666 12.5 39.999s18.5 11 30.5 11h254l2.5 -20.5c1 -8.33301 1.5 -16.833 1.5 -25.5c0 -19.333 -4 -32.833 -12 -40.5s-18 -11.5 -30 -11.5h-254z" />
    <glyph glyph-name="period" unicode="." horiz-adv-x="199" 
d="M98 -8c-17.333 0 -32.333 6.33301 -45 19s-19 27.667 -19 45c0 18 6.33301 33.333 19 46s27.667 19 45 19c18 0 33.5 -6.33301 46.5 -19s19.5 -28 19.5 -46c0 -17.333 -6.5 -32.333 -19.5 -45s-28.5 -19 -46.5 -19z" />
    <glyph glyph-name="slash" unicode="/" horiz-adv-x="324" 
d="M72 -41c-10.667 0 -20.333 0.832031 -29 2.49902s-16.667 3.83398 -24 6.50098l189 669c4 12 10.667 19.833 20 23.5s20 5.5 32 5.5c21.333 0 39 -3.33301 53 -10l-189 -668c-3.33301 -12.667 -9.83301 -20.667 -19.5 -24s-20.5 -5 -32.5 -5z" />
    <glyph glyph-name="zero" unicode="0" horiz-adv-x="615" 
d="M306 -11c-38 0 -73 7 -105 21s-59.5 35 -82.5 63s-41 63 -54 105s-19.5 91 -19.5 147s6.5 105 19.5 147s31 77 54 105s50.5 49 82.5 63s67 21 105 21s73.167 -7 105.5 -21s60.333 -35 84 -63s42 -63 55 -105s19.5 -91 19.5 -147s-6.5 -105 -19.5 -147
s-31.333 -77 -55 -105s-51.667 -49 -84 -63s-67.5 -21 -105.5 -21zM306 83c46 0 82.667 19.667 110 59s41 100.333 41 183s-13.667 143.667 -41 183s-64 59 -110 59s-82 -19.333 -108 -58s-39 -100 -39 -184s13 -145.333 39 -184s62 -58 108 -58z" />
    <glyph glyph-name="one" unicode="1" horiz-adv-x="389" 
d="M228 -6c-10.667 0 -21.335 0.500977 -32.002 1.50098s-18.667 2.16699 -24 3.5v526l-123 -58c-9.33301 7.33301 -16.666 16.333 -21.999 27s-8 21 -8 31c0 23.333 11.667 41.666 35 54.999l144 70h87v-609c0 -13.333 -4.16699 -24.5 -12.5 -33.5
s-23.166 -13.5 -44.499 -13.5z" />
    <glyph glyph-name="two" unicode="2" horiz-adv-x="504" 
d="M21 0c-1.33301 5.33301 -2.33105 11.8369 -2.99805 19.5039s-1 15.834 -1 24.501c0 11.333 2.33301 24.666 7 39.999s12.667 27.666 24 36.999l180 162c19.333 16.667 36.333 32 51 46s27 27.667 37 41s17.667 26.666 23 39.999s8 27.666 8 42.999
c0 32 -9.66699 57.5 -29 76.5s-49 28.5 -89 28.5c-20 0 -37.833 -2.66699 -53.5 -8s-29.667 -11.333 -42 -18l-33.5 -18c-10 -5.33301 -19.333 -8 -28 -8c-14.667 0 -26.5 6.83301 -35.5 20.5s-14.167 32.5 -15.5 56.5c23.333 18.667 53.166 35.667 89.499 51
s77.5 23 123.5 23c72 0 127.667 -18.333 167 -55s59 -85 59 -145c0 -23.333 -3.5 -45 -10.5 -65s-16.833 -39 -29.5 -57s-27.334 -35 -44.001 -51s-35 -31.667 -55 -47l-156 -135h301c3.33301 -12 5 -28 5 -48c0 -20.667 -4.16699 -34.834 -12.5 -42.501
s-18.833 -11.5 -31.5 -11.5h-406z" />
    <glyph glyph-name="three" unicode="3" horiz-adv-x="538" 
d="M261 -11c-48.667 0 -90.5 5.66895 -125.5 17.002s-66.833 25.666 -95.5 42.999c0.666992 25.333 5.66699 44.666 15 57.999s21.333 20 36 20c10 0 20 -2 30 -6s21.333 -8.16699 34 -12.5s27.334 -8.5 44.001 -12.5s36.667 -6 60 -6c42 0 73.333 9.33301 94 28
s31 43 31 73c0 26 -9.66699 48.333 -29 67s-53 28 -101 28h-80c-10.667 0 -19.667 3.66699 -27 11s-11 19.666 -11 36.999c0 16.667 1.66699 31 5 43h104c44 0 75.667 7.66699 95 23s29 38 29 68c0 11.333 -1.83301 22.333 -5.5 33s-9.83398 20 -18.501 28
s-19.834 14.5 -33.501 19.5s-30.834 7.5 -51.501 7.5c-21.333 0 -39.5 -1.66699 -54.5 -5s-28.5 -7 -40.5 -11l-32 -11c-9.33301 -3.33301 -18.666 -5 -27.999 -5c-15.333 0 -27.666 7 -36.999 21s-14.333 33.333 -15 58c26 14.667 56.667 27.334 92 38.001
s76.333 16 123 16c36.667 0 68.334 -4.5 95.001 -13.5s48.5 -21.167 65.5 -36.5s29.5 -33.5 37.5 -54.5s12 -43.5 12 -67.5c0 -36 -10 -66.5 -30 -91.5s-47 -42.833 -81 -53.5c38 -6.66699 69.667 -23.667 95 -51s38 -62.333 38 -105c0 -30 -5.66699 -57.167 -17 -81.5
s-27.333 -44.833 -48 -61.5s-45.834 -29.5 -75.501 -38.5s-62.5 -13.5 -98.5 -13.5z" />
    <glyph glyph-name="four" unicode="4" horiz-adv-x="570" 
d="M387 -6c-10.667 0 -21.001 0.500977 -31.001 1.50098s-17.667 2.16699 -23 3.5v146h-302c-1.33301 5.33301 -2.66602 12 -3.99902 20s-2 17.333 -2 28c0 12 2 23.667 6 35s10.667 23.666 20 36.999l272 385h118v-408h100c3.33301 -12 5 -27.333 5 -46
c0 -19.333 -4.16699 -32.666 -12.5 -39.999s-18.166 -11 -29.499 -11h-63v-106c0 -12.667 -3.83301 -23.334 -11.5 -32.001s-21.834 -13 -42.501 -13zM144.999 241.001h188v266z" />
    <glyph glyph-name="five" unicode="5" horiz-adv-x="518" 
d="M239 -9c-42 0 -80.499 4.99902 -115.499 14.999s-66.833 23.333 -95.5 40c0 26 5.16699 45.5 15.5 58.5s23.166 19.5 38.499 19.5c8 0 16.833 -1.66699 26.5 -5s20.667 -6.83301 33 -10.5s26.333 -7.16699 42 -10.5s33.5 -5 53.5 -5c48 0 83 10.5 105 31.5
s33 48.833 33 83.5s-12 61.834 -36 81.501s-54 29.5 -90 29.5c-29.333 0 -53.333 -3.83301 -72 -11.5s-36.667 -17.834 -54 -30.501l-77 27l35 346h369c3.33301 -12 5 -27.667 5 -47s-4 -33 -12 -41s-18.333 -12 -31 -12h-244l-22 -179c15.333 10.667 31.833 19.667 49.5 27
s41.5 11 71.5 11c34 0 64.667 -5.5 92 -16.5s50.5 -25.667 69.5 -44s33.667 -39.666 44 -63.999s15.5 -49.833 15.5 -76.5c0 -30.667 -5.16699 -59.167 -15.5 -85.5s-26 -49.333 -47 -69s-47 -35 -78 -46s-67.167 -16.5 -108.5 -16.5z" />
    <glyph glyph-name="six" unicode="6" horiz-adv-x="561" 
d="M301 -11c-37.333 0 -71.6641 7.00098 -102.997 21.001s-58.333 34.833 -81 62.5s-40.334 62.167 -53.001 103.5s-19 89.333 -19 144c0 58 6.66699 108.167 20 150.5s32.166 77.333 56.499 105s53.333 48.167 87 61.5s70.834 20 111.501 20c34 0 65.667 -3.33301 95 -10
s56.333 -16 81 -28v-14c0 -23.333 -4.5 -40.833 -13.5 -52.5s-21.5 -17.5 -37.5 -17.5c-8.66699 0 -17 1.16699 -25 3.5s-16.833 4.66602 -26.5 6.99902s-20.334 4.66602 -32.001 6.99902s-25.5 3.5 -41.5 3.5c-54 0 -94.167 -17.167 -120.5 -51.5
s-41.166 -86.5 -44.499 -156.5c19.333 17.333 42.166 33.333 68.499 48s59.166 22 98.499 22c35.333 0 66.5 -5.66699 93.5 -17s49.5 -26.666 67.5 -45.999s31.5 -41.5 40.5 -66.5s13.5 -51.5 13.5 -79.5c0 -29.333 -5.16699 -57.333 -15.5 -84s-25.5 -50 -45.5 -70
s-44.667 -36 -74 -48s-63 -18 -101 -18zM302.002 83.001c38 0 68.167 12 90.5 36s33.5 55 33.5 93s-11.167 67.167 -33.5 87.5s-52.5 30.5 -90.5 30.5c-33.333 0 -61.5 -6.66699 -84.5 -20s-42.5 -27.333 -58.5 -42c2.66699 -60 16.5 -105.833 41.5 -137.5
s58.833 -47.5 101.5 -47.5z" />
    <glyph glyph-name="seven" unicode="7" horiz-adv-x="489" 
d="M138 -8c-11.333 0 -23.1689 1.16797 -35.502 3.50098s-22.5 5.16602 -30.5 8.49902l275 544h-287c-13.333 0 -23.833 3.83301 -31.5 11.5s-11.5 21.834 -11.5 42.501c0 10 0.333008 19.167 1 27.5s1.66699 15.166 3 20.499h455v-75l-267 -546
c-7.33301 -15.333 -17.166 -25.333 -29.499 -30s-26.166 -7 -41.499 -7z" />
    <glyph glyph-name="eight" unicode="8" horiz-adv-x="563" 
d="M282 -12c-41.333 0 -77.502 4.83105 -108.502 14.498s-57 22.834 -78 39.501s-36.833 36.5 -47.5 59.5s-16 47.833 -16 74.5c0 42 11 76.833 33 104.5s52 47.5 90 59.5c-13.333 5.33301 -26 12.333 -38 21s-22.667 19.167 -32 31.5s-16.833 26.333 -22.5 42
s-8.5 32.834 -8.5 51.501c0 22.667 4.5 44.5 13.5 65.5s22.833 39.667 41.5 56s42.334 29.5 71.001 39.5s62.667 15 102 15s73.333 -5 102 -15s52.167 -23.167 70.5 -39.5s32 -35 41 -56s13.5 -42.833 13.5 -65.5c0 -19.333 -2.83301 -36.666 -8.5 -51.999
s-13.167 -29 -22.5 -41s-20.166 -22.5 -32.499 -31.5s-24.833 -16.167 -37.5 -21.5c38 -12 68 -32 90 -60s33 -62.333 33 -103c0 -27.333 -5.33301 -52.5 -16 -75.5s-26.5 -42.833 -47.5 -59.5s-47 -29.834 -78 -39.501s-66.833 -14.5 -107.5 -14.5zM281.998 81.998
c20 0 38.167 2.50195 54.5 7.50195s30.5 12.167 42.5 21.5s21.333 20.166 28 32.499s10 26.166 10 41.499c0 14 -2.66699 27.333 -8 40s-13.5 24 -24.5 34s-25 18 -42 24s-37.167 9 -60.5 9c-24 0 -44.667 -3 -62 -9s-31.5 -14 -42.5 -24s-19 -21.333 -24 -34
s-7.5 -26 -7.5 -40c0 -30 12.167 -54.667 36.5 -74s57.5 -29 99.5 -29zM281.998 378c36 0 64.5 8.83301 85.5 26.5s31.5 40.5 31.5 68.5s-10 50.333 -30 67s-49 25 -87 25s-67.167 -8.33301 -87.5 -25s-30.5 -39 -30.5 -67s10.667 -50.833 32 -68.5s50 -26.5 86 -26.5z" />
    <glyph glyph-name="nine" unicode="9" horiz-adv-x="565" 
d="M236 -8c-30 0 -59.498 3.16699 -88.498 9.5s-55.167 15.166 -78.5 26.499c-0.666992 6.66699 -1 11 -1 13c0 46.667 17.333 70 52 70c8.66699 0 17.167 -1 25.5 -3l26 -6c9 -2 18.667 -4 29 -6s22.166 -3 35.499 -3c54.667 0 96.167 15.667 124.5 47
s44.166 84.333 47.499 159c-21.333 -19.333 -44.666 -34.666 -69.999 -45.999s-56 -17 -92 -17s-67.333 5.66699 -94 17s-48.834 26.5 -66.501 45.5s-30.834 41 -39.501 66s-13 51.5 -13 79.5c0 30.667 5.33301 59.167 16 85.5s26 49.333 46 69s44.333 35 73 46
s61.334 16.5 98.001 16.5c78.667 0 140.5 -27.5 185.5 -82.5s67.5 -137.833 67.5 -248.5c0 -112.667 -25 -197.167 -75 -253.5s-119.333 -84.5 -208 -84.5zM266.002 323c30 0 55.833 4.66797 77.5 14.001s41.834 23.333 60.501 42c-0.666992 28 -3.83398 53.5 -9.50098 76.5
s-14 42.833 -25 59.5s-25 29.5 -42 38.5s-37.5 13.5 -61.5 13.5c-36 0 -65.333 -11.333 -88 -34s-34 -52.334 -34 -89.001c0 -36 10.167 -65.167 30.5 -87.5s50.833 -33.5 91.5 -33.5z" />
    <glyph glyph-name="colon" unicode=":" horiz-adv-x="241" 
d="M116 -9c-17.333 0 -32.333 6.5 -45 19.5s-19 28.167 -19 45.5c0 18 6.33301 33.333 19 46s27.667 19 45 19c18 0 33.333 -6.33301 46 -19s19 -28 19 -46c0 -17.333 -6.33301 -32.5 -19 -45.5s-28 -19.5 -46 -19.5zM115 323c-17.333 0 -32.333 6.33301 -45 19
s-19 27.667 -19 45c0 18 6.33301 33.5 19 46.5s27.667 19.5 45 19.5c18 0 33.5 -6.5 46.5 -19.5s19.5 -28.5 19.5 -46.5c0 -17.333 -6.5 -32.333 -19.5 -45s-28.5 -19 -46.5 -19z" />
    <glyph glyph-name="semicolon" unicode=";" horiz-adv-x="241" 
d="M102 67c4 13.333 10.5 23.333 19.5 30s18.5 10 28.5 10c11.333 0 21.5 -4 30.5 -12s13.5 -19.667 13.5 -35c0 -13.333 -2.16699 -27 -6.5 -41s-7.83301 -23.667 -10.5 -29c-15.333 -36.667 -33.833 -63.167 -55.5 -79.5s-44.5 -24.5 -68.5 -24.5h-7zM140 323
c-17.333 0 -32.333 6.33301 -45 19s-19 27.667 -19 45c0 18 6.33301 33.5 19 46.5s27.667 19.5 45 19.5c18 0 33.333 -6.5 46 -19.5s19 -28.5 19 -46.5c0 -17.333 -6.33301 -32.333 -19 -45s-28 -19 -46 -19z" />
    <glyph glyph-name="less" unicode="&#x3c;" 
d="M90 219v84l384 207c3.33301 -7.33301 6.33301 -15.833 9 -25.5s4 -19.167 4 -28.5c0 -11.333 -2 -23 -6 -35s-14 -22 -30 -30l-251 -128l251 -134c16 -8.66699 26 -19 30 -31s6 -23.667 6 -35c0 -9.33301 -1.33301 -18.833 -4 -28.5s-5.66699 -18.167 -9 -25.5z" />
    <glyph glyph-name="equal" unicode="=" horiz-adv-x="577" 
d="M78 107c-2.66699 10 -4 24.667 -4 44c0 18.667 3.83301 31 11.5 37s17.5 9 29.5 9h385c2.66699 -10 4 -24.667 4 -44c0 -18.667 -3.83301 -31 -11.5 -37s-17.5 -9 -29.5 -9h-385zM78 318c-2.66699 10 -4 24.667 -4 44c0 18.667 3.83301 31 11.5 37s17.5 9 29.5 9h385
c2.66699 -10 4 -24.667 4 -44c0 -18.667 -3.83301 -31 -11.5 -37s-17.5 -9 -29.5 -9h-385z" />
    <glyph glyph-name="greater" unicode="&#x3e;" 
d="M132 9c-3.33301 7.33301 -6.33301 15.832 -9 25.499s-4 19.167 -4 28.5c0 11.333 2 22.833 6 34.5s14 21.834 30 30.501l251 130l-251 132c-16 8.66699 -26 19 -30 31s-6 23.667 -6 35c0 9.33301 1.33301 18.833 4 28.5s5.66699 18.167 9 25.5l384 -210v-84z" />
    <glyph glyph-name="question" unicode="?" horiz-adv-x="461" 
d="M187 -9c-17.333 0 -32.5 6.5 -45.5 19.5s-19.5 28.167 -19.5 45.5c0 18 6.5 33.333 19.5 46s28.167 19 45.5 19c18 0 33.333 -6.33301 46 -19s19 -28 19 -46c0 -17.333 -6.33301 -32.5 -19 -45.5s-28 -19.5 -46 -19.5zM187 208c-11.333 0 -23.667 2.33789 -37 7.00488
c-0.666992 5.33301 -1.16699 10.5 -1.5 15.5s-0.5 9.83301 -0.5 14.5c0 24.667 4.33301 45.667 13 63s19.667 32.333 33 45s27.666 23.667 42.999 33s29.666 18.5 42.999 27.5s24.333 18.667 33 29s13 22.833 13 37.5c0 23.333 -8.83301 42.166 -26.5 56.499
s-42.5 21.5 -74.5 21.5c-22 0 -40.833 -1.83301 -56.5 -5.5s-29.334 -7.83398 -41.001 -12.501l-31 -12.5c-9 -3.66699 -18.167 -5.5 -27.5 -5.5c-14 0 -25.667 6.83301 -35 20.5s-14.333 32.5 -15 56.5c24 16 54.667 29.833 92 41.5s75.333 17.5 114 17.5
c34 0 64.333 -4.16699 91 -12.5s49 -20 67 -35s31.667 -32.667 41 -53s14 -42.5 14 -66.5c0 -18.667 -2.66699 -35.334 -8 -50.001s-12.166 -27.834 -20.499 -39.501s-18 -21.834 -29 -30.501s-22.167 -16 -33.5 -22l-47.5 -27c-13.667 -8 -25.5 -16.167 -35.5 -24.5
s-18 -17.333 -24 -27s-10 -21.167 -12 -34.5c-1.33301 -6.66699 -5.16602 -13 -11.499 -19s-16.166 -9 -29.499 -9z" />
    <glyph glyph-name="at" unicode="@" horiz-adv-x="693" 
d="M354 -58c-47.333 0 -90.8359 8.50391 -130.503 25.5039s-74 40.5 -103 70.5s-51.667 65.667 -68 107s-24.5 86 -24.5 134c0 46.667 8.5 90.167 25.5 130.5s40.5 75.166 70.5 104.499s65.333 52.5 106 69.5s84.667 25.5 132 25.5c50 0 94.167 -8.16699 132.5 -24.5
s70.5 -38 96.5 -65s45.5 -57.833 58.5 -92.5s19.5 -70.334 19.5 -107.001c0 -34 -4 -63.833 -12 -89.5s-19 -47.167 -33 -64.5s-30.167 -30.333 -48.5 -39s-37.5 -13 -57.5 -13c-24 0 -42.667 6.16699 -56 18.5s-22.666 26.166 -27.999 41.499
c-9.33301 -15.333 -21.666 -28.5 -36.999 -39.5s-37.333 -16.5 -66 -16.5c-18.667 0 -36.167 3.5 -52.5 10.5s-30.666 17.167 -42.999 30.5s-22 29.5 -29 48.5s-10.5 40.5 -10.5 64.5c0 21.333 3.5 41.166 10.5 59.499s16.5 34.166 28.5 47.499s26 23.666 42 30.999
s33 11 51 11c23.333 0 42.666 -5 57.999 -15s27.666 -22 36.999 -36h1c0 15.333 3 27 9 35s16.667 12 32 12c13.333 0 23 -1.33301 29 -4v-190c0 -17.333 3.33301 -29.166 10 -35.499s15.334 -9.5 26.001 -9.5c21.333 0 37.5 12.167 48.5 36.5s16.5 58.5 16.5 102.5
c0 30 -5.33301 58.167 -16 84.5s-26 49.5 -46 69.5s-44.5 35.833 -73.5 47.5s-61.5 17.5 -97.5 17.5c-33.333 0 -65 -5.83301 -95 -17.5s-56.5 -28.667 -79.5 -51s-41.333 -49.333 -55 -81s-20.5 -67.5 -20.5 -107.5c0 -41.333 6.5 -78 19.5 -110s30.5 -59 52.5 -81
s47.5 -38.833 76.5 -50.5s59.833 -17.5 92.5 -17.5c21.333 0 39.833 1.5 55.5 4.5s29.334 6.16699 41.001 9.5s22.167 6.5 31.5 9.5s18 4.5 26 4.5c11.333 0 20.5 -4.16699 27.5 -12.5s10.5 -20.833 10.5 -37.5v-7.5c0 -2.33301 -0.333008 -5.16602 -1 -8.49902
c-28 -11.333 -58.167 -20.833 -90.5 -28.5s-65.5 -11.5 -99.5 -11.5zM351.997 183.004c14.667 0 28 4 40 12s21.667 18.333 29 31v84c-4.66699 13.333 -13.5 24.5 -26.5 33.5s-27.167 13.5 -42.5 13.5c-26 0 -45.667 -8.83301 -59 -26.5s-20 -38.167 -20 -61.5
s6.5 -43.5 19.5 -60.5s32.833 -25.5 59.5 -25.5z" />
    <glyph glyph-name="A" unicode="A" horiz-adv-x="603" 
d="M65 -6c-9.33301 0 -19.833 1.00098 -31.5 3.00098s-20.834 5 -27.501 9l221 639c12.667 3.33301 25.167 5.66602 37.5 6.99902s24.166 2 35.499 2c16 0 29.167 -1.16699 39.5 -3.5s19 -6 26 -11s12.833 -11.333 17.5 -19s9 -17.167 13 -28.5l201 -585
c-8 -3.33301 -17.167 -6.33301 -27.5 -9s-19.833 -4 -28.5 -4c-15.333 0 -28.666 1.83301 -39.999 5.5s-19.666 13.167 -24.999 28.5l-48 143h-256l-47 -143c-5.33301 -14.667 -13 -24 -23 -28s-22.333 -6 -37 -6zM204 267.001h193l-96 290z" />
    <glyph glyph-name="B" unicode="B" horiz-adv-x="572" 
d="M120 0c-24.667 0 -40.501 4.83398 -47.501 14.501s-10.5 22.167 -10.5 37.5v546c0 15.333 3.5 27.833 10.5 37.5s22.833 14.5 47.5 14.5h165c41.333 0 76.833 -4.16699 106.5 -12.5s54 -20 73 -35s32.833 -32.833 41.5 -53.5s13 -43.334 13 -68.001
c0 -34 -9.66699 -63.667 -29 -89s-46 -43.666 -80 -54.999c44.667 -10.667 77.834 -30 99.501 -58s32.5 -59 32.5 -93c0 -60.667 -20.667 -106.834 -62 -138.501s-105 -47.5 -191 -47.5h-169zM170.999 99.001l106 0.000976562c52 0 90 7.16699 114 21.5s36 38.5 36 72.5
c0 12 -2 23.5 -6 34.5s-11.167 20.667 -21.5 29s-24.833 15.166 -43.5 20.499s-43 8 -73 8h-112v-186zM170.999 379.002h110c24 0 44.167 2.33301 60.5 7s29.333 11 39 19s16.667 17.5 21 28.5s6.5 22.833 6.5 35.5c0 54.667 -41.667 82 -125 82h-112v-172z" />
    <glyph glyph-name="C" unicode="C" horiz-adv-x="554" 
d="M344 -9c-45.333 0 -87.333 8.16797 -126 24.501s-72.167 39.166 -100.5 68.499s-50.5 64.333 -66.5 105s-24 85 -24 133c0 46.667 8 90.334 24 131.001s38.167 76 66.5 106s61.833 53.5 100.5 70.5s80.667 25.5 126 25.5c34 0 66.5 -3.33301 97.5 -10
s60.5 -15.667 88.5 -27c0.666992 -4.66699 1.16699 -8.83398 1.5 -12.501s0.5 -7.5 0.5 -11.5c0 -21.333 -4.66699 -38 -14 -50s-21 -18 -35 -18c-6.66699 0 -14 1.33301 -22 4l-27.5 9c-10.333 3.33301 -22.5 6.33301 -36.5 9s-30.333 4 -49 4
c-28.667 0 -55.334 -5.5 -80.001 -16.5s-46.167 -26.5 -64.5 -46.5s-32.666 -44.167 -42.999 -72.5s-15.5 -59.833 -15.5 -94.5c0 -36 5.16699 -68.167 15.5 -96.5s24.666 -52.333 42.999 -72s39.833 -34.5 64.5 -44.5s51.334 -15 80.001 -15
c18.667 0 34.834 1.33301 48.501 4s25.5 5.66699 35.5 9s18.667 6.33301 26 9s14.666 4 21.999 4c16.667 0 30 -5.5 40 -16.5s15 -27.167 15 -48.5v-13c0 -4 -0.666992 -8.66699 -2 -14c-28 -12 -57 -21.167 -87 -27.5s-64 -9.5 -102 -9.5z" />
    <glyph glyph-name="D" unicode="D" horiz-adv-x="634" 
d="M119 0c-24.667 0 -40.4971 4.83301 -47.4971 14.5s-10.5 22.167 -10.5 37.5v546c0 15.333 3.5 27.833 10.5 37.5s22.833 14.5 47.5 14.5h137c54 0 102.667 -7.5 146 -22.5s80.166 -36.5 110.499 -64.5s53.666 -61.667 69.999 -101s24.5 -83.333 24.5 -132
c0 -46 -8 -89 -24 -129s-39.333 -74.833 -70 -104.5s-67.834 -53.167 -111.501 -70.5s-93.167 -26 -148.5 -26h-134zM173.003 102h88.999c31.333 0 60.833 4.83301 88.5 14.5s51.834 24 72.501 43s37 42.833 49 71.5s18 62.334 18 101.001c0 34.667 -6 65.5 -18 92.5
s-28.333 49.667 -49 68s-45 32.166 -73 41.499s-58 14 -90 14h-87v-446z" />
    <glyph glyph-name="E" unicode="E" horiz-adv-x="504" 
d="M119 0c-24.667 0 -40.5 4.8291 -47.5 14.4961s-10.5 22.167 -10.5 37.5v546c0 15.333 3.5 27.833 10.5 37.5s22.833 14.5 47.5 14.5h336c1.33301 -5.33301 2.5 -12.666 3.5 -21.999s1.5 -18.666 1.5 -27.999c0 -19.333 -4.16699 -32.833 -12.5 -40.5
s-18.5 -11.5 -30.5 -11.5h-244v-174h258l2.5 -20.5c1 -8.33301 1.5 -17.166 1.5 -26.499c0 -18.667 -3.83301 -31.667 -11.5 -39s-17.167 -11 -28.5 -11h-222v-175h291l2.5 -20.5c1 -8.33301 1.5 -17.166 1.5 -26.499c0 -20 -4 -34.167 -12 -42.5s-18 -12.5 -30 -12.5h-307z
" />
    <glyph glyph-name="F" unicode="F" horiz-adv-x="494" 
d="M121 -6c-10.667 0 -21.1699 0.5 -31.5029 1.5s-18.166 2.16699 -23.499 3.5v599c0 15.333 3.5 27.833 10.5 37.5s22.833 14.5 47.5 14.5h352c1.33301 -5.33301 2.33301 -12.5 3 -21.5s1 -18.167 1 -27.5c0 -21.333 -4.16699 -35.5 -12.5 -42.5s-18.833 -10.5 -31.5 -10.5
h-258v-190h273c3.33301 -12 5 -27.667 5 -47s-4.16699 -32.833 -12.5 -40.5s-18.166 -11.5 -29.499 -11.5h-236v-218c0 -13.333 -4.16699 -24.5 -12.5 -33.5s-23.166 -13.5 -44.499 -13.5z" />
    <glyph glyph-name="G" unicode="G" horiz-adv-x="645" 
d="M357 -11c-49.333 0 -94.166 9.00195 -134.499 27.002s-74.833 42.333 -103.5 73s-50.834 66.5 -66.501 107.5s-23.5 84.5 -23.5 130.5s8 89 24 129s38.333 74.667 67 104s63.167 52.5 103.5 69.5s84.5 25.5 132.5 25.5c38 0 76.667 -4 116 -12s75 -20.667 107 -38v-13
c0 -20.667 -4.33301 -37.334 -13 -50.001s-22 -19 -40 -19c-8.66699 0 -17.5 1.5 -26.5 4.5s-19.667 6.33301 -32 10s-27.166 7 -44.499 10s-38.333 4.5 -63 4.5c-31.333 0 -60 -5.33301 -86 -16s-48.5 -25.667 -67.5 -45s-33.833 -42.833 -44.5 -70.5
s-16 -58.834 -16 -93.501c0 -34 5.33301 -65.667 16 -95s25.5 -54.5 44.5 -75.5s41.667 -37.5 68 -49.5s55.166 -18 86.499 -18c28 0 52 2.83301 72 8.5s38.667 13.167 56 22.5v150h-125c-12 0 -21.833 3.5 -29.5 10.5s-11.5 20.167 -11.5 39.5c0 18 1.66699 33 5 45h210
c24.667 0 40.5 -4.83301 47.5 -14.5s10.5 -22.167 10.5 -37.5v-257c-36 -21.333 -72.833 -37.833 -110.5 -49.5s-80.5 -17.5 -128.5 -17.5z" />
    <glyph glyph-name="H" unicode="H" horiz-adv-x="663" 
d="M122 -6c-10.667 0 -21.167 0.5 -31.5 1.5s-18.166 2.16699 -23.499 3.5v606c0 13.333 4.16699 24.5 12.5 33.5s23.166 13.5 44.499 13.5c10.667 0 21.167 -0.5 31.5 -1.5s18.166 -2.16699 23.499 -3.5v-273h304v231c0 13.333 4.16699 24.5 12.5 33.5
s23.166 13.5 44.499 13.5c10.667 0 21.334 -0.5 32.001 -1.5s18.667 -2.16699 24 -3.5v-606c0 -13.333 -4.16699 -24.5 -12.5 -33.5s-23.166 -13.5 -44.499 -13.5c-10.667 0 -21.334 0.5 -32.001 1.5s-18.667 2.16699 -24 3.5v278h-304v-236
c0 -13.333 -4.16699 -24.5 -12.5 -33.5s-23.166 -13.5 -44.499 -13.5z" />
    <glyph glyph-name="I" unicode="I" horiz-adv-x="244" 
d="M121 -6c-10.667 0 -21.167 0.5 -31.5 1.5s-18.166 2.16699 -23.499 3.5v606c0 13.333 4.16699 24.5 12.5 33.5s23.166 13.5 44.499 13.5c10.667 0 21.167 -0.5 31.5 -1.5s18.166 -2.16699 23.499 -3.5v-606c0 -13.333 -4.16699 -24.5 -12.5 -33.5
s-23.166 -13.5 -44.499 -13.5z" />
    <glyph glyph-name="J" unicode="J" horiz-adv-x="448" 
d="M190 -7c-14 0 -31.4971 1.33105 -52.4971 3.99805s-41 6.83398 -60 12.501s-35.333 12.834 -49 21.501s-20.5 19 -20.5 31c0 21.333 4.66699 37.5 14 48.5s20.666 16.5 33.999 16.5c8 0 16.5 -1.66699 25.5 -5l29.5 -11c10.667 -4 22 -7.66699 34 -11s25 -5 39 -5
c25.333 0 46.333 7.66699 63 23s25 40 25 74v413c0 13.333 4.16699 24.5 12.5 33.5s23.166 13.5 44.499 13.5c10.667 0 21.167 -0.5 31.5 -1.5s18.166 -2.16699 23.499 -3.5v-462c0 -64 -17.333 -112 -52 -144s-82 -48 -142 -48z" />
    <glyph glyph-name="K" unicode="K" horiz-adv-x="567" 
d="M121 -6c-10.667 0 -21.167 0.499023 -31.5 1.49902s-18.166 2.16699 -23.499 3.5v606c0 13.333 4.16699 24.5 12.5 33.5s23.166 13.5 44.499 13.5c10.667 0 21.167 -0.5 31.5 -1.5s18.166 -2.16699 23.499 -3.5v-298l230 271c9.33301 11.333 19.166 19.5 29.499 24.5
s24.833 7.5 43.5 7.5c10.667 0 22.834 -1.5 36.501 -4.5s25.167 -7.16699 34.5 -12.5l-262 -301l280 -322c-10 -5.33301 -21.833 -9.66602 -35.5 -12.999s-26.167 -5 -37.5 -5c-19.333 0 -34.5 2.83301 -45.5 8.5s-21.5 14.167 -31.5 25.5l-242 280v-267
c0 -13.333 -4.16699 -24.5 -12.5 -33.5s-23.166 -13.5 -44.499 -13.5z" />
    <glyph glyph-name="L" unicode="L" horiz-adv-x="500" 
d="M120 0c-24.667 0 -40.498 4.83301 -47.498 14.5s-10.5 22.167 -10.5 37.5v553c0 13.333 4.16699 24.5 12.5 33.5s23.166 13.5 44.499 13.5c10.667 0 21.167 -0.5 31.5 -1.5s18.166 -2.16699 23.499 -3.5v-545h309c1.33301 -7.33301 2.5 -14.833 3.5 -22.5
s1.5 -15.5 1.5 -23.5c0 -21.333 -4.5 -36 -13.5 -44s-21.5 -12 -37.5 -12h-317z" />
    <glyph glyph-name="M" unicode="M" horiz-adv-x="772" 
d="M88 -5c-11.333 0 -21.167 1.16699 -29.5 3.5s-15.5 4.83301 -21.5 7.5l65 633c9.33301 4 21.5 7.16699 36.5 9.5s27.833 3.5 38.5 3.5c30 0 52.833 -4.5 68.5 -13.5s26.167 -24.833 31.5 -47.5l110 -435l111 432c5.33301 22.667 16 39 32 49s38 15 66 15
c13.333 0 27 -1 41 -3s25.667 -4.33301 35 -7l63 -636c-6.66699 -2.66699 -14.5 -5.16699 -23.5 -7.5s-19.167 -3.5 -30.5 -3.5c-15.333 0 -28 2.66699 -38 8s-15.667 15.333 -17 30l-43 514l-122 -455c-5.33301 -18.667 -14.5 -31.5 -27.5 -38.5s-29.5 -10.5 -49.5 -10.5
c-10 0 -20.5 0.666992 -31.5 2s-20.167 3.33301 -27.5 6l-138 496l-46 -515c-1.33301 -14 -7 -23.667 -17 -29s-22 -8 -36 -8z" />
    <glyph glyph-name="N" unicode="N" horiz-adv-x="667" 
d="M118 -6c-10 0 -19.833 0.333008 -29.5 1s-17.167 1.66699 -22.5 3v644c7.33301 3.33301 16.666 5.83301 27.999 7.5s21.666 2.5 30.999 2.5c26.667 0 45.834 -3.5 57.501 -10.5s21.834 -17.167 30.501 -30.5l291 -450l-6 447c0 12 3.83301 22.333 11.5 31
s21.5 13 41.5 13c9.33301 0 18.833 -0.5 28.5 -1.5s17.167 -2.16699 22.5 -3.5v-644c-15.333 -6 -33.333 -9 -54 -9c-24 0 -41.667 3.5 -53 10.5s-20.666 16.167 -27.999 27.5l-301 469l6 -463c0 -12.667 -3.83301 -23.167 -11.5 -31.5s-21.834 -12.5 -42.501 -12.5z" />
    <glyph glyph-name="O" unicode="O" horiz-adv-x="694" 
d="M347 -13c-47.333 0 -90.666 8.83301 -129.999 26.5s-73 42 -101 73s-49.833 67 -65.5 108s-23.5 85.167 -23.5 132.5c0 46.667 7.83301 90.5 23.5 131.5s37.5 76.5 65.5 106.5s61.667 53.667 101 71s82.666 26 129.999 26s90.666 -8.66699 129.999 -26s73 -41 101 -71
s49.833 -65.333 65.5 -106s23.5 -84.667 23.5 -132s-7.83301 -91.5 -23.5 -132.5s-37.5 -77 -65.5 -108s-61.667 -55.333 -101 -73s-82.666 -26.5 -129.999 -26.5zM346 87c28 0 54.332 6.16895 78.999 18.502s46.334 29.166 65.001 50.499s33.334 46.666 44.001 75.999
s16 60.666 16 93.999s-5.16699 64.5 -15.5 93.5s-24.666 54 -42.999 75s-39.833 37.5 -64.5 49.5s-51.334 18 -80.001 18c-28 0 -54.333 -5.83301 -79 -17.5s-46.167 -28 -64.5 -49s-32.833 -45.833 -43.5 -74.5s-16 -60 -16 -94c0 -34.667 5.16699 -66.667 15.5 -96
s24.666 -54.666 42.999 -75.999s39.833 -38 64.5 -50s51 -18 79 -18z" />
    <glyph glyph-name="P" unicode="P" horiz-adv-x="547" 
d="M121 -6c-10.667 0 -21.168 0.5 -31.501 1.5s-18.166 2.16699 -23.499 3.5v599c0 15.333 3.5 27.833 10.5 37.5s22.833 14.5 47.5 14.5h147c42.667 0 80.167 -5.66699 112.5 -17s59.166 -27 80.499 -47s37.333 -43.5 48 -70.5s16 -55.833 16 -86.5
c0 -32.667 -5.83301 -62.667 -17.5 -90s-28.334 -50.833 -50.001 -70.5s-47.667 -35 -78 -46s-64.166 -16.5 -101.499 -16.5h-103v-165c0 -13.333 -4.16699 -24.5 -12.5 -33.5s-23.166 -13.5 -44.499 -13.5zM177.999 305l85 -0.000976562c52 0 90 11 114 33s36 52 36 90
c0 38.667 -12 68.334 -36 89.001s-59 31 -105 31h-94v-243z" />
    <glyph glyph-name="Q" unicode="Q" horiz-adv-x="697" 
d="M576 -161c-9.33301 0.666992 -18.498 1.49902 -27.498 2.49902s-18.833 2.83301 -29.5 5.5l-270 64v6c0 37.333 18.667 61.666 56 72.999c-42 4.66699 -80 16.834 -114 36.501s-63.167 44.5 -87.5 74.5s-43.166 64.333 -56.499 103s-20 79.667 -20 123
c0 46.667 7.83301 90.5 23.5 131.5s37.5 76.5 65.5 106.5s61.667 53.667 101 71s82.666 26 129.999 26s90.666 -8.66699 129.999 -26s73 -41 101 -71s49.833 -65.333 65.5 -106s23.5 -84.667 23.5 -132c0 -44.667 -7 -86.667 -21 -126s-33.667 -74.166 -59 -104.499
s-55.833 -55 -91.5 -74s-75.167 -30.5 -118.5 -34.5l268 -61c0 -30 -6.33301 -52.167 -19 -66.5s-29.334 -21.5 -50.001 -21.5zM346.002 86.999c28 0 54.332 6.16895 78.999 18.502s46.334 29.166 65.001 50.499s33.334 46.666 44.001 75.999s16 60.666 16 93.999
s-5.16699 64.5 -15.5 93.5s-24.666 54 -42.999 75s-39.833 37.5 -64.5 49.5s-51.334 18 -80.001 18c-28 0 -54.333 -5.83301 -79 -17.5s-46.167 -28 -64.5 -49s-32.833 -45.833 -43.5 -74.5s-16 -60 -16 -94c0 -34.667 5.16699 -66.667 15.5 -96
s24.666 -54.666 42.999 -75.999s39.833 -38 64.5 -50s51 -18 79 -18z" />
    <glyph glyph-name="R" unicode="R" horiz-adv-x="564" 
d="M121 -6c-10.667 0 -21.1709 0.498047 -31.5039 1.49805s-18.166 2.16699 -23.499 3.5v599c0 15.333 3.5 27.833 10.5 37.5s22.833 14.5 47.5 14.5h163c74.667 0 132.667 -17.833 174 -53.5s62 -84.834 62 -147.501c0 -26 -4.16699 -50.167 -12.5 -72.5
s-20.166 -42.166 -35.499 -59.499s-34 -31.666 -56 -42.999s-47 -18.666 -75 -21.999l202 -240c-10.667 -6 -22.334 -10.5 -35.001 -13.5s-24.667 -4.5 -36 -4.5c-21.333 0 -38.166 3.16699 -50.499 9.5s-25.166 17.833 -38.499 34.5l-163 209h-45v-206
c0 -13.333 -4.16699 -24.5 -12.5 -33.5s-23.166 -13.5 -44.499 -13.5zM177.996 342.998h92c50.667 0 86.834 9.5 108.501 28.5s32.5 44.833 32.5 77.5c0 32 -9.83301 56.5 -29.5 73.5s-50.834 25.5 -93.501 25.5h-110v-205z" />
    <glyph glyph-name="S" unicode="S" horiz-adv-x="542" 
d="M260 -9c-32.667 0 -68.166 3.33496 -106.499 10.002s-77.5 16.667 -117.5 30c0 2.66699 -0.166992 5 -0.5 7s-0.5 4.33301 -0.5 7c0 22 4 39.833 12 53.5s21 20.5 39 20.5c8.66699 0 19 -1.33301 31 -4l40.5 -9c15 -3.33301 31.667 -6.33301 50 -9s38.5 -4 60.5 -4
c46 0 78.833 8.33301 98.5 25s29.5 37.667 29.5 63c0 12.667 -2.33301 23.5 -7 32.5s-11.334 16.667 -20.001 23s-19.167 11.833 -31.5 16.5s-26.5 9.33398 -42.5 14.001l-83 23c-65.333 18 -110.833 43 -136.5 75s-38.5 68.667 -38.5 110
c0 20.667 3.66699 41.834 11 63.501s20 41.167 38 58.5s42 31.666 72 42.999s67.667 17 113 17c30.667 0 63.5 -3 98.5 -9s71.5 -15.667 109.5 -29v-14c0 -22.667 -3.83301 -40.334 -11.5 -53.001s-20.167 -19 -37.5 -19c-8.66699 0 -18.167 1.16699 -28.5 3.5
s-22 4.66602 -35 6.99902s-27.833 4.66602 -44.5 6.99902s-35.334 3.5 -56.001 3.5c-23.333 0 -42.666 -2.16699 -57.999 -6.5s-27.666 -10.166 -36.999 -17.499s-16 -15.5 -20 -24.5s-6 -18.167 -6 -27.5c0 -22 7.5 -38.667 22.5 -50s41.833 -22.333 80.5 -33l88 -25
c116.667 -30.667 175 -91.334 175 -182.001c0 -29.333 -4.83301 -56 -14.5 -80s-24.834 -44.667 -45.501 -62s-46.667 -30.833 -78 -40.5s-69 -14.5 -113 -14.5z" />
    <glyph glyph-name="T" unicode="T" horiz-adv-x="524" 
d="M262 -6c-10.667 0 -21.1689 0.5 -31.502 1.5s-18.166 2.16699 -23.499 3.5v549h-200c-1.33301 5.33301 -2.33301 12.5 -3 21.5s-1 18.5 -1 28.5c0 21.333 4.33301 35.333 13 42s19.667 10 33 10h468c2.66699 -10 4 -25.333 4 -46c0 -37.333 -15.333 -56 -46 -56h-156
v-507c0 -13.333 -4.16699 -24.5 -12.5 -33.5s-23.166 -13.5 -44.499 -13.5z" />
    <glyph glyph-name="U" unicode="U" horiz-adv-x="647" 
d="M321 -13c-43.333 0 -81.4941 7.33301 -114.494 22s-60.833 34.834 -83.5 60.501s-39.834 55.5 -51.501 89.5s-17.5 70.667 -17.5 110v336c0 13.333 4.16699 24.5 12.5 33.5s23.166 13.5 44.499 13.5c10.667 0 21.167 -0.5 31.5 -1.5s18.166 -2.16699 23.499 -3.5v-381
c0 -54 13.5 -97.167 40.5 -129.5s65.5 -48.5 115.5 -48.5c48 0 86.167 16.167 114.5 48.5s42.5 75.5 42.5 129.5v339c0 13.333 4.16699 24.5 12.5 33.5s23.166 13.5 44.499 13.5c10.667 0 21 -0.5 31 -1.5s17.667 -2.16699 23 -3.5v-378c0 -39.333 -6 -76 -18 -110
s-29.333 -63.833 -52 -89.5s-50.834 -45.834 -84.501 -60.501s-71.834 -22 -114.501 -22z" />
    <glyph glyph-name="V" unicode="V" horiz-adv-x="594" 
d="M297 -9c-11.333 0 -23.001 0.833008 -35.001 2.5s-23.333 4.5 -34 8.5l-221 638c8 3.33301 17.833 6.5 29.5 9.5s21.834 4.5 30.501 4.5c15.333 0 28.666 -1.83301 39.999 -5.5s19.666 -13.167 24.999 -28.5l171 -521l169 521c5.33301 14.667 13.333 24 24 28
s23.334 6 38.001 6c9.33301 0 19.833 -1 31.5 -3s20.834 -5 27.501 -9l-206 -600c-7.33301 -20 -17.833 -33.5 -31.5 -40.5s-33.167 -10.5 -58.5 -10.5z" />
    <glyph glyph-name="W" unicode="W" horiz-adv-x="825" 
d="M223 -7c-10.667 0 -23.1709 0.667969 -37.5039 2.00098s-26.166 3.66602 -35.499 6.99902l-135 637c7.33301 3.33301 15.833 6.33301 25.5 9s20.834 4 33.501 4c16 0 29.333 -3 40 -9s17.667 -17.333 21 -34l50 -271l22 -124.5
c7.33301 -42.333 13.666 -81.833 18.999 -118.5c5.33301 37.333 12.333 76.333 21 117s18.667 84 30 130l64 263c4 17.333 13.167 29.5 27.5 36.5s32.5 10.5 54.5 10.5s42 -2.66699 60 -8l72 -302c10 -42 19.5 -84.5 28.5 -127.5s16.833 -82.833 23.5 -119.5
c2.66699 18 5.83398 37.833 9.50098 59.5l11.5 66l12 65.5l11 59l47 267c2.66699 15.333 9 25.833 19 31.5s22.667 8.5 38 8.5c11.333 0 21.666 -1.16699 30.999 -3.5s17.333 -4.83301 24 -7.5l-124 -598c-4.66699 -21.333 -14 -35 -28 -41s-32 -9 -54 -9
c-10 0 -21.667 0.5 -35 1.5s-24.666 3.16699 -33.999 6.5l-84 344l-8.5 39.5c-3 14.333 -6 29.5 -9 45.5l-9.5 49c-3.33301 16.667 -7 32.667 -11 48l-20.5 -96.5c-7 -32.333 -13.5 -60.833 -19.5 -85.5l-73 -302c-5.33301 -20.667 -14.166 -34.167 -26.499 -40.5
s-29.166 -9.5 -50.499 -9.5z" />
    <glyph glyph-name="X" unicode="X" horiz-adv-x="582" 
d="M78 -6c-10.667 0 -22.666 1.16699 -35.999 3.5s-24 6.16602 -32 11.499l212 322l-204 305c9.33301 5.33301 20.333 9.33301 33 12s24 4 34 4c17.333 0 31.666 -2.16699 42.999 -6.5s21 -12.833 29 -25.5l136 -220l136 220c7.33301 12 16 20.333 26 25s22.667 7 38 7
c9.33301 0 20.333 -1.16699 33 -3.5s23 -6.16602 31 -11.499l-200 -311l214 -316c-9.33301 -5.33301 -20.5 -9.33301 -33.5 -12s-24.5 -4 -34.5 -4c-17.333 0 -31.833 2.16699 -43.5 6.5s-21.5 12.833 -29.5 25.5l-144 224l-141 -222c-8 -12.667 -17 -21.5 -27 -26.5
s-23.333 -7.5 -40 -7.5z" />
    <glyph glyph-name="Y" unicode="Y" horiz-adv-x="577" 
d="M290 -6c-10.667 0 -21.1689 0.498047 -31.502 1.49805s-18.166 2.16699 -23.499 3.5v276l-236 361c9.33301 5.33301 20.333 9.33301 33 12s24 4 34 4c17.333 0 31.833 -2.16699 43.5 -6.5s21.5 -12.833 29.5 -25.5l156 -251l155 250c7.33301 12.667 16 21.334 26 26.001
s23 7 39 7c9.33301 0 20.333 -1.16699 33 -3.5s23 -6.16602 31 -11.499l-232 -361v-235c0 -13.333 -4.16699 -24.5 -12.5 -33.5s-23.166 -13.5 -44.499 -13.5z" />
    <glyph glyph-name="Z" unicode="Z" horiz-adv-x="535" 
d="M37 0c-1.33301 5.33301 -2.66602 12.002 -3.99902 20.002s-2 17.333 -2 28c0 12 2 23.667 6 35s10.667 23.666 20 36.999l308 428h-287c-12.667 0 -23.167 3.66699 -31.5 11s-12.5 21.333 -12.5 42c0 10 0.333008 19.333 1 28s1.66699 15.667 3 21h453
c1.33301 -5.33301 2.66602 -12.833 3.99902 -22.5s2 -19.167 2 -28.5c0 -13.333 -2 -26 -6 -38s-11 -25 -21 -39l-304 -420h333c1.33301 -5.33301 2.33301 -12.333 3 -21s1 -17.667 1 -27c0 -20.667 -4.16699 -34.834 -12.5 -42.501s-18.833 -11.5 -31.5 -11.5h-422z" />
    <glyph glyph-name="bracketleft" unicode="[" horiz-adv-x="376" 
d="M109 -198c-22.667 0 -37.167 4.5 -43.5 13.5s-9.5 20.5 -9.5 34.5v847c0 14 3.16699 25.5 9.5 34.5s20.833 13.5 43.5 13.5h202c1.33301 -4.66699 2.5 -11.167 3.5 -19.5s1.5 -16.833 1.5 -25.5c0 -18 -3.83301 -30.5 -11.5 -37.5s-17.167 -10.5 -28.5 -10.5h-118v-757
h153c1.33301 -4.66699 2.5 -11.167 3.5 -19.5s1.5 -16.833 1.5 -25.5c0 -18 -3.83301 -30.5 -11.5 -37.5s-17.167 -10.5 -28.5 -10.5h-167z" />
    <glyph glyph-name="backslash" unicode="\" horiz-adv-x="353" 
d="M260 -41c-11.333 0 -21.999 1.66797 -31.999 5.00098s-16.667 11.333 -20 24l-189 668c14 6.66699 31.667 10 53 10c12 0 22.833 -1.83301 32.5 -5.5s16.167 -11.5 19.5 -23.5l189 -669c-7.33301 -2.66699 -15.333 -4.83398 -24 -6.50098s-18.334 -2.5 -29.001 -2.5z" />
    <glyph glyph-name="bracketright" unicode="]" horiz-adv-x="376" 
d="M60 -198c-1.33301 4.66699 -2.5 11.167 -3.5 19.5s-1.5 16.833 -1.5 25.5c0 18 3.83301 30.5 11.5 37.5s17.167 10.5 28.5 10.5h118v757h-153c-1.33301 4.66699 -2.5 11.167 -3.5 19.5s-1.5 16.833 -1.5 25.5c0 18 3.83301 30.5 11.5 37.5s17.167 10.5 28.5 10.5h167
c22.667 0 37.167 -4.5 43.5 -13.5s9.5 -20.5 9.5 -34.5v-847c0 -14 -3.16699 -25.5 -9.5 -34.5s-20.833 -13.5 -43.5 -13.5h-202z" />
    <glyph glyph-name="asciicircum" unicode="^" horiz-adv-x="612" 
d="M202 445c-8.66699 0 -17.3291 1.00098 -25.9961 3.00098s-16 4.33301 -22 7l100 155c8 3.33301 16.667 6.16602 26 8.49902s18.666 3.5 27.999 3.5c19.333 0 33.666 -2.66699 42.999 -8s17.666 -13 24.999 -23l87 -135c-6.66699 -3.33301 -14.334 -6 -23.001 -8
s-16.667 -3 -24 -3c-13.333 0 -24.333 1.83301 -33 5.5s-15.667 10.167 -21 19.5l-53 90l-57 -94c-9.33301 -14 -26 -21 -50 -21z" />
    <glyph glyph-name="underscore" unicode="_" horiz-adv-x="474" 
d="M-7 -125v50h488v-50h-488z" />
    <glyph glyph-name="grave" unicode="`" horiz-adv-x="466" 
d="M338 537c-16.667 0 -33.335 5.66699 -50.002 17l-64 45c-11.333 8 -19.666 17 -24.999 27s-7.66602 20.667 -6.99902 32c0 12.667 3.5 24.167 10.5 34.5s17.167 17.5 30.5 21.5l160 -149c-14.667 -18.667 -33 -28 -55 -28z" />
    <glyph glyph-name="a" unicode="a" horiz-adv-x="516" 
d="M191 -8c-26 0 -49.166 3.83594 -69.499 11.5029s-37.333 18.167 -51 31.5s-24 28.833 -31 46.5s-10.5 36.5 -10.5 56.5c0 24 4.16699 46 12.5 66s21.166 37.167 38.499 51.5s39.166 25.5 65.499 33.5s57.833 12 94.5 12c34.667 0 74 -4 118 -12v25
c0 32.667 -7.33301 55.834 -22 69.501s-41 20.5 -79 20.5c-19.333 0 -36.333 -1.16699 -51 -3.5s-27.834 -5 -39.501 -8l-31 -8c-9 -2.33301 -17.5 -3.5 -25.5 -3.5c-14 0 -24.333 6 -31 18s-10 26.667 -10 44v9.5c0 3 0.333008 6.16699 1 9.5
c22 7.33301 49.333 14.166 82 20.499s69 9.5 109 9.5c38.667 0 70.834 -4.33301 96.501 -13s46.334 -21.5 62.001 -38.5s26.667 -37.667 33 -62s9.5 -52.5 9.5 -84.5v-105c0 -20 0.166992 -38 0.5 -54s1.33301 -31 3 -45s3.83398 -27.833 6.50098 -41.5
s6.33398 -28.5 11.001 -44.5c-6 -2.66699 -13.5 -5 -22.5 -7s-19.5 -3 -31.5 -3c-13.333 0 -24.166 2.5 -32.499 7.5s-14.833 11.667 -19.5 20s-7.83398 18.166 -9.50098 29.499s-2.83398 23.333 -3.50098 36h-1c-8 -12.667 -17.167 -24.834 -27.5 -36.501
s-22.5 -21.834 -36.5 -30.501s-29.833 -15.5 -47.5 -20.5s-37.834 -7.5 -60.501 -7.5zM220.001 80.0029c32 0 59.833 9.33203 83.5 27.999s42.167 42 55.5 70v42c-34 6 -64.333 9 -91 9c-44 0 -76.833 -7.16699 -98.5 -21.5s-32.5 -34.833 -32.5 -61.5
c0 -21.333 7.66699 -37.666 23 -48.999s35.333 -17 60 -17z" />
    <glyph glyph-name="b" unicode="b" horiz-adv-x="567" 
d="M322 -8c-34.667 0 -66.168 7.83594 -94.501 23.5029s-49.833 37.5 -64.5 65.5v-22.5c0 -9.66699 -1.16699 -19 -3.5 -28s-7.66602 -16.833 -15.999 -23.5s-21.5 -10 -39.5 -10c-11.333 0 -21.166 0.666992 -29.499 2s-15.166 2.66602 -20.499 3.99902
c2 32 3.33301 65 4 99s1 62.333 1 85v447c0 13.333 3.83301 24.333 11.5 33s22.167 13 43.5 13c10 0 20.167 -0.5 30.5 -1.5s18.166 -2.16699 23.499 -3.5v-251c15.333 17.333 35.666 33 60.999 47s57 21 95 21c26 0 52 -5.16699 78 -15.5s49.167 -25.833 69.5 -46.5
s36.833 -46.334 49.5 -77.001s19 -66.334 19 -107.001c0 -36 -5.33301 -69.333 -16 -100s-25.667 -57.5 -45 -80.5s-42.333 -41 -69 -54s-56 -19.5 -88 -19.5zM291.999 85.0029c38 0 70.1689 13.5 96.502 40.5s39.5 66.5 39.5 118.5c0 48 -12.833 86 -38.5 114
s-58.834 42 -99.501 42c-28 0 -52.5 -6.33301 -73.5 -19s-37.167 -29.667 -48.5 -51v-122c0 -17.333 3.16699 -33.5 9.5 -48.5s15 -28 26 -39s24.167 -19.667 39.5 -26s31.666 -9.5 48.999 -9.5z" />
    <glyph glyph-name="c" unicode="c" horiz-adv-x="456" 
d="M271 -8c-36.667 0 -70 6.49805 -100 19.498s-55.667 30.667 -77 53s-37.833 48.5 -49.5 78.5s-17.5 62.333 -17.5 97s5.83301 67 17.5 97s28.167 56.333 49.5 79s47 40.5 77 53.5s63.333 19.5 100 19.5c36 0 66.5 -3.66699 91.5 -11s47.5 -16.666 67.5 -27.999
c0.666992 -3.33301 1 -6.5 1 -9.5v-8.5c0 -18.667 -4 -33.5 -12 -44.5s-18.333 -16.5 -31 -16.5c-6 0 -12.5 1.16699 -19.5 3.5l-23 8c-8.33301 3 -18 5.83301 -29 8.5s-23.833 4 -38.5 4c-19.333 0 -37.333 -3.33301 -54 -10s-31.334 -16.667 -44.001 -30
s-22.667 -29.666 -30 -48.999s-11 -41.333 -11 -66s3.66699 -46.667 11 -66s17.5 -35.5 30.5 -48.5s28.167 -23 45.5 -30s36 -10.5 56 -10.5c14 0 26.667 1.33301 38 4s21.5 5.66699 30.5 9l24.5 9c7.33301 2.66699 14 4 20 4c13.333 0 24 -4.66699 32 -14
s12 -23.333 12 -42c0 -3.33301 -0.166992 -7 -0.5 -11s-0.833008 -8 -1.5 -12c-23.333 -12.667 -48.166 -22.5 -74.499 -29.5s-56.833 -10.5 -91.5 -10.5z" />
    <glyph glyph-name="d" unicode="d" horiz-adv-x="567" 
d="M243 -9c-26 0 -51.8311 5.33398 -77.498 16.001s-48.834 26.667 -69.501 48s-37.334 47.666 -50.001 78.999s-19 68 -19 110s6.66699 78.5 20 109.5s30.5 56.833 51.5 77.5s44.5 36 70.5 46s51.667 15 77 15c34 0 63.5 -6.33301 88.5 -19s46.5 -29.334 64.5 -50.001v211
c0 13.333 3.83301 24.333 11.5 33s22.167 13 43.5 13c10 0 20.167 -0.5 30.5 -1.5s18.166 -2.16699 23.499 -3.5v-484c0 -36 0.5 -68.667 1.5 -98s2.5 -60 4.5 -92c-5.33301 -1.33301 -12.666 -2.66602 -21.999 -3.99902s-19.666 -2 -30.999 -2
c-15.333 0 -26.833 2.5 -34.5 7.5s-13 11.5 -16 19.5s-4.5 16.667 -4.5 26v28h-1c-18.667 -30 -41.834 -51.667 -69.501 -65s-58.5 -20 -92.5 -20zM278.002 84.001c24 0 47.166 5.66797 69.499 17.001s39.833 28.666 52.5 51.999v181c-12.667 22.667 -30 39.5 -52 50.5
s-45.333 16.5 -70 16.5c-21.333 0 -40.666 -4 -57.999 -12s-32 -18.833 -44 -32.5s-21.167 -30 -27.5 -49s-9.5 -39.5 -9.5 -61.5c0 -23.333 3.16699 -45 9.5 -65s15.5 -37.167 27.5 -51.5s26.5 -25.5 43.5 -33.5s36.5 -12 58.5 -12z" />
    <glyph glyph-name="e" unicode="e" horiz-adv-x="518" 
d="M285 -11c-40.667 0 -77.0029 6.33301 -109.003 19s-59 30.334 -81 53.001s-38.833 49.5 -50.5 80.5s-17.5 64.5 -17.5 100.5s6 69.167 18 99.5s28.5 56.666 49.5 78.999s45.833 39.833 74.5 52.5s59.667 19 93 19c37.333 0 70.333 -6.83301 99 -20.5
s52.5 -31.834 71.5 -54.501s33.333 -48.334 43 -77.001s14.5 -58 14.5 -88c0 -16.667 -1.66699 -33.334 -5 -50.001h-347c4.66699 -38.667 19.834 -68.167 45.501 -88.5s59.5 -30.5 101.5 -30.5c18 0 33.667 1.33301 47 4s25.333 5.83398 36 9.50098
s20.334 6.83398 29.001 9.50098s17.334 4 26.001 4c12 0 21.833 -5.33301 29.5 -16s11.5 -25 11.5 -43c0 -3.33301 -0.166992 -7 -0.5 -11s-0.833008 -8 -1.5 -12c-20 -9.33301 -45 -18.166 -75 -26.499s-64 -12.5 -102 -12.5zM387.997 280
c-3.33301 36 -15.499 66.167 -36.499 90.5s-50.833 36.5 -89.5 36.5c-36.667 0 -65.834 -11.667 -87.501 -35s-34.167 -54 -37.5 -92h251z" />
    <glyph glyph-name="f" unicode="f" horiz-adv-x="354" 
d="M138 -6c-23.333 0 -41 1.66797 -53 5.00098v389h-67c-1.33301 4.66699 -2.33301 10.667 -3 18s-1 14.666 -1 21.999c0 16.667 3.5 28.334 10.5 35.001s15.833 10 26.5 10h34v53c0 57.333 15.833 99.833 47.5 127.5s73.167 41.5 124.5 41.5c25.333 0 50 -2.33301 74 -7
s44.667 -10 62 -16v-15c0 -22 -3.83301 -37.833 -11.5 -47.5s-18.5 -14.5 -32.5 -14.5c-10.667 0 -22 1.66699 -34 5s-28.667 5 -50 5s-38.5 -6.33301 -51.5 -19s-19.5 -35 -19.5 -67v-46h150c3.33301 -10 5 -23.333 5 -40s-3.5 -28.334 -10.5 -35.001
s-15.833 -10 -26.5 -10h-118v-348c0 -13.333 -4 -24.333 -12 -33s-22.667 -13 -44 -13z" />
    <glyph glyph-name="g" unicode="g" horiz-adv-x="506" 
d="M249 -204c-38 0 -71.335 4.00391 -100.002 12.0039s-52.5 18.667 -71.5 32s-33.333 29.166 -43 47.499s-14.5 38.166 -14.5 59.499c0 49.333 26.333 87.333 79 114c-5.33301 4.66699 -10.666 11 -15.999 19s-8 17 -8 27c0 15.333 4.33301 28.333 13 39s21.667 20 39 28
c-25.333 12.667 -47.166 31 -65.499 55s-27.5 54 -27.5 90c0 24.667 4.66699 47.667 14 69s22.833 39.666 40.5 54.999s39.334 27.333 65.001 36s54.834 13 87.501 13c33.333 0 65 -5.66699 95 -17l31 16l34.5 17.5l34 16c11 5 20.5 8.83301 28.5 11.5
c7.33301 -3.33301 14.166 -8.83301 20.499 -16.5s9.5 -16.167 9.5 -25.5c0 -12 -2.83301 -21.333 -8.5 -28s-13.167 -11.834 -22.5 -15.501s-20.333 -6.16699 -33 -7.5s-26 -3 -40 -5l1 -2c17.333 -13.333 31.666 -30.5 42.999 -51.5s17 -43.167 17 -66.5
c0 -52 -17.833 -93 -53.5 -123s-86.5 -45 -152.5 -45c-16 0 -27.667 0.833008 -35 2.5s-13.666 2.5 -18.999 2.5c-9.33301 0 -16.166 -2.33301 -20.499 -7s-6.5 -9.66699 -6.5 -15c0 -9.33301 5.16699 -16.333 15.5 -21s24.166 -8.33398 41.499 -11.001l133 -19
c51.333 -7.33301 87 -22.333 107 -45s30 -49.667 30 -81c0 -19.333 -4.33301 -38.5 -13 -57.5s-22.5 -36.167 -41.5 -51.5s-43.833 -27.666 -74.5 -36.999s-68.334 -14 -113.001 -14zM258.998 -121.996c22 0 40.832 2.16895 56.499 6.50195s28.5 9.66602 38.5 15.999
s17.333 13.333 22 21s7 14.834 7 21.501c0 15.333 -4.83301 26.166 -14.5 32.499s-27.167 11.833 -52.5 16.5l-95 16c-23.333 4 -40.5 7.83301 -51.5 11.5s-19.833 7.16699 -26.5 10.5c-18.667 -14.667 -28 -34.334 -28 -59.001c0 -28 11.333 -50.5 34 -67.5
s59.334 -25.5 110.001 -25.5zM241.997 224.006c30.667 0 55.667 8.5 75 25.5s29 39.833 29 68.5c0 30 -9.33301 53.5 -28 70.5s-44 25.5 -76 25.5c-30.667 0 -55.667 -8.33301 -75 -25s-29 -40 -29 -70c0 -28.667 9.83301 -51.667 29.5 -69s44.5 -26 74.5 -26z" />
    <glyph glyph-name="h" unicode="h" horiz-adv-x="546" 
d="M111 -6c-10 0 -20.167 0.499023 -30.5 1.49902s-18.166 2.16699 -23.499 3.5v635c0 13.333 3.83301 24.333 11.5 33s22.167 13 43.5 13c10 0 20.167 -0.5 30.5 -1.5s18.166 -2.16699 23.499 -3.5v-263c16 22 37 40.833 63 56.5s57 23.5 93 23.5c24 0 46.5 -4 67.5 -12
s39.5 -20.333 55.5 -37s28.667 -38 38 -64s14 -57 14 -93v-246c0 -13.333 -4 -24.333 -12 -33s-22.667 -13 -44 -13c-10 0 -20 0.5 -30 1.5s-17.667 2.16699 -23 3.5v275c0 42.667 -9.33301 74.167 -28 94.5s-45 30.5 -79 30.5c-23.333 0 -45.833 -6.16699 -67.5 -18.5
s-37.5 -28.166 -47.5 -47.499v-293c0 -13.333 -3.83301 -24.333 -11.5 -33s-22.167 -13 -43.5 -13z" />
    <glyph glyph-name="i" unicode="i" horiz-adv-x="225" 
d="M110 -6c-10 0 -20 0.5 -30 1.5s-17.667 2.16699 -23 3.5v442c0 13.333 4 24.333 12 33s22.333 13 43 13c10.667 0 21 -0.5 31 -1.5s17.667 -2.16699 23 -3.5v-442c0 -13.333 -4 -24.333 -12 -33s-22.667 -13 -44 -13zM112 574c-16.667 0 -31 6 -43 18s-18 26.333 -18 43
c0 17.333 6 32 18 44s26.333 18 43 18c17.333 0 32 -6 44 -18s18 -26.667 18 -44c0 -16.667 -6 -31 -18 -43s-26.667 -18 -44 -18z" />
    <glyph glyph-name="j" unicode="j" horiz-adv-x="237" 
d="M-38 -201c-22.667 16.667 -33.999 35.333 -33.999 56c0 9.33301 2.5 17.5 7.5 24.5s12.167 12.167 21.5 15.5c20.667 6.66699 37.834 12.834 51.501 18.501s24.667 12.834 33 21.501s14.333 19.5 18 32.5s5.5 30.5 5.5 52.5v417c0 13.333 4 24.333 12 33s22.333 13 43 13
c10.667 0 21 -0.5 31 -1.5s17.667 -2.16699 23 -3.5v-440c0 -36 -4.5 -66.833 -13.5 -92.5s-22.333 -47.834 -40 -66.501s-39.834 -34.334 -66.501 -47.001s-57.334 -23.667 -92.001 -33zM121.001 573.999c-17.333 0 -31.833 6 -43.5 18s-17.5 26.333 -17.5 43
c0 17.333 5.83301 32 17.5 44s26.167 18 43.5 18c16.667 0 31 -6 43 -18s18 -26.667 18 -44c0 -16.667 -6 -31 -18 -43s-26.333 -18 -43 -18z" />
    <glyph glyph-name="k" unicode="k" horiz-adv-x="489" 
d="M111 -6c-10 0 -20.165 0.499023 -30.498 1.49902s-18.166 2.16699 -23.499 3.5v635c0 13.333 3.83301 24.333 11.5 33s22.167 13 43.5 13c10 0 20.167 -0.5 30.5 -1.5s18.166 -2.16699 23.499 -3.5v-406l168 183c9.33301 10 19.666 17.667 30.999 23s27 8 47 8
c12 0 23.667 -1.16699 35 -3.5s21.666 -5.16602 30.999 -8.49902l-204 -221l217 -240c-10.667 -5.33301 -22.5 -9.33301 -35.5 -12s-26.5 -4 -40.5 -4c-20 0 -36.333 4.33301 -49 13s-22.667 17 -30 25l-170 197v-189c0 -13.333 -3.83301 -24.333 -11.5 -33
s-22.167 -13 -43.5 -13z" />
    <glyph glyph-name="l" unicode="l" horiz-adv-x="223" 
d="M111 -6c-10 0 -20.167 0.5 -30.5 1.5s-18.166 2.16699 -23.499 3.5v635c0 13.333 3.83301 24.333 11.5 33s22.167 13 43.5 13c10 0 20.167 -0.5 30.5 -1.5s18.166 -2.16699 23.499 -3.5v-635c0 -13.333 -3.83301 -24.333 -11.5 -33s-22.167 -13 -43.5 -13z" />
    <glyph glyph-name="m" unicode="m" horiz-adv-x="799" 
d="M111 -6c-10 0 -20.1719 0.5 -30.5049 1.5s-18.166 2.16699 -23.499 3.5v480c7.33301 2 14.833 3.83301 22.5 5.5s16.167 2.5 25.5 2.5c20.667 0 35.5 -5.5 44.5 -16.5s13.5 -25.833 13.5 -44.5l1 -12c14 22 33 40.5 57 55.5s50 22.5 78 22.5
c32.667 0 61.834 -8.16699 87.501 -24.5s44.167 -40.5 55.5 -72.5c19.333 32 41.5 56.167 66.5 72.5s53.5 24.5 85.5 24.5c52.667 0 91.834 -16.333 117.501 -49s38.5 -77.334 38.5 -134.001v-269c0 -13.333 -3.83301 -24.333 -11.5 -33s-22.167 -13 -43.5 -13
c-10 0 -20.167 0.5 -30.5 1.5s-18.166 2.16699 -23.499 3.5v299c0 34 -7.66699 59.167 -23 75.5s-35.666 24.5 -60.999 24.5c-24 0 -44.333 -6.16699 -61 -18.5s-29.334 -27.166 -38.001 -44.499v-295c0 -13.333 -3.83301 -24.333 -11.5 -33s-22.167 -13 -43.5 -13
c-10 0 -20.167 0.5 -30.5 1.5s-18.166 2.16699 -23.499 3.5v299c0 32.667 -7.5 57.5 -22.5 74.5s-36.5 25.5 -64.5 25.5c-21.333 0 -40.5 -6.16699 -57.5 -18.5s-29.833 -26.833 -38.5 -43.5v-296c0 -13.333 -3.83301 -24.333 -11.5 -33s-22.167 -13 -43.5 -13z" />
    <glyph glyph-name="n" unicode="n" horiz-adv-x="545" 
d="M111 -6c-10 0 -20.1689 0.5 -30.502 1.5s-18.166 2.16699 -23.499 3.5v480c7.33301 2 14.833 3.83301 22.5 5.5s16.167 2.5 25.5 2.5c20.667 0 35.5 -5.5 44.5 -16.5s13.5 -25.833 13.5 -44.5l1 -14c16.667 23.333 38.5 42.5 65.5 57.5s57.5 22.5 91.5 22.5
c54 0 96.667 -17.667 128 -53s47 -86 47 -152v-247c0 -13.333 -3.83301 -24.333 -11.5 -33s-22.167 -13 -43.5 -13c-10 0 -20.167 0.5 -30.5 1.5s-18.166 2.16699 -23.499 3.5v276c0 42.667 -9.33301 74 -28 94s-45 30 -79 30c-21.333 0 -42.833 -6 -64.5 -18
s-38.167 -28 -49.5 -48v-293c0 -13.333 -3.83301 -24.333 -11.5 -33s-22.167 -13 -43.5 -13z" />
    <glyph glyph-name="o" unicode="o" horiz-adv-x="552" 
d="M277 -10c-37.333 0 -71.334 6.50098 -102.001 19.501s-57 30.667 -79 53s-39 48.833 -51 79.5s-18 63.667 -18 99c0 34 6.16699 66.167 18.5 96.5s29.5 56.833 51.5 79.5s48.333 40.667 79 54s64.334 20 101.001 20s70.334 -6.66699 101.001 -20
s56.834 -31.333 78.501 -54s38.5 -49.167 50.5 -79.5s18 -62.5 18 -96.5s-5.83301 -66.333 -17.5 -97s-28.334 -57.334 -50.001 -80.001s-47.834 -40.667 -78.501 -54s-64.667 -20 -102 -20zM276.999 80.001c16.667 0 33.167 3.33398 49.5 10.001s31 16.667 44 30
s23.5 30 31.5 50s12 43.667 12 71c0 24.667 -3.66699 47 -11 67s-17.166 36.833 -29.499 50.5s-26.833 24.167 -43.5 31.5s-34.334 11 -53.001 11c-18 0 -35.333 -3.66699 -52 -11s-31.5 -17.833 -44.5 -31.5s-23.333 -30.5 -31 -50.5s-11.5 -42.333 -11.5 -67
c0 -26.667 4 -50 12 -70s18.5 -36.833 31.5 -50.5s27.833 -23.834 44.5 -30.501s33.667 -10 51 -10z" />
    <glyph glyph-name="p" unicode="p" horiz-adv-x="566" 
d="M111 -193c-10 0 -20.1719 0.498047 -30.5049 1.49805s-18.166 2.16699 -23.499 3.5v667c7.33301 2 14.833 3.83301 22.5 5.5s16.167 2.5 25.5 2.5c21.333 0 36 -5.5 44 -16.5s12.667 -25.833 14 -44.5l1 -19c17.333 24.667 38.833 44.834 64.5 60.501
s57.834 23.5 96.501 23.5c26.667 0 52.834 -5.5 78.501 -16.5s48.5 -27 68.5 -48s36.167 -47 48.5 -78s18.5 -66.5 18.5 -106.5c0 -43.333 -6.66699 -80.666 -20 -111.999s-30.5 -57.333 -51.5 -78s-44.667 -36 -71 -46s-52.166 -15 -77.499 -15
c-36 0 -66.667 7.16699 -92 21.5s-45.666 30.5 -60.999 48.5v-208c0 -13.333 -3.83301 -24.333 -11.5 -33s-22.167 -13 -43.5 -13zM287.995 80.998c20.667 0 39.667 3.83398 57 11.501s32 18.5 44 32.5s21.333 30.667 28 50s10 40.666 10 63.999
c0 20.667 -2.83301 40.5 -8.5 59.5s-14.334 36 -26.001 51s-26.167 27 -43.5 36s-37.666 13.5 -60.999 13.5c-24 0 -47.167 -5.83301 -69.5 -17.5s-39.833 -29.167 -52.5 -52.5v-180c10.667 -19.333 26.667 -35.5 48 -48.5s46 -19.5 74 -19.5z" />
    <glyph glyph-name="q" unicode="q" horiz-adv-x="566" 
d="M454 -193c-10 0 -20.1709 0.498047 -30.5039 1.49805s-18.166 2.16699 -23.499 3.5v248c-19.333 -23.333 -42.666 -40.5 -69.999 -51.5s-55 -16.5 -83 -16.5c-28.667 0 -56.167 5.83301 -82.5 17.5s-49.666 28.334 -69.999 50.001s-36.666 47.667 -48.999 78
s-18.5 64.5 -18.5 102.5c0 38.667 6 73.5 18 104.5s28.167 57.333 48.5 79s43.5 38.334 69.5 50.001s53 17.5 81 17.5c38.667 0 71.334 -9 98.001 -27s46.667 -38.333 60 -61l1 23c0.666992 18.667 5.16699 33.5 13.5 44.5s23.166 16.5 44.499 16.5
c9.33301 0 17.833 -0.833008 25.5 -2.5s15.167 -3.5 22.5 -5.5v-626c0 -13.333 -3.83301 -24.333 -11.5 -33s-22.167 -13 -43.5 -13zM274.996 80.998c25.333 0 49.332 5.99902 71.999 17.999s40 29.667 52 53v123c0 17.333 -3.16699 33.5 -9.5 48.5
s-15.166 28.167 -26.499 39.5s-24.5 20.166 -39.5 26.499s-30.833 9.5 -47.5 9.5c-22.667 0 -42.5 -4.33301 -59.5 -13s-31.333 -20.5 -43 -35.5s-20.334 -32.167 -26.001 -51.5s-8.5 -39.666 -8.5 -60.999s3 -41.5 9 -60.5s14.833 -35.667 26.5 -50
s25.834 -25.666 42.501 -33.999s36 -12.5 58 -12.5z" />
    <glyph glyph-name="r" unicode="r" horiz-adv-x="364" 
d="M119 -6c-10 0 -20.167 0.5 -30.5 1.5s-18.166 2.16699 -23.499 3.5v480c7.33301 2 14.833 3.83301 22.5 5.5s16.167 2.5 25.5 2.5c20.667 0 35.5 -5.5 44.5 -16.5s13.5 -25.833 13.5 -44.5v-35h2c13.333 32.667 31.333 57.167 54 73.5s49 24.5 79 24.5
c10 0 19.167 -0.5 27.5 -1.5s16.166 -2.16699 23.499 -3.5c4 -14 6 -26.667 6 -38c0 -37.333 -18.667 -56 -56 -56h-18c-34.667 0 -62.5 -9 -83.5 -27s-31.5 -46 -31.5 -84v-239c0 -13.333 -3.83301 -24.333 -11.5 -33s-22.167 -13 -43.5 -13z" />
    <glyph glyph-name="s" unicode="s" horiz-adv-x="467" 
d="M231 -7c-32 0 -65.1689 3.17188 -99.502 9.50488s-67.5 15.166 -99.5 26.499c-0.666992 3.33301 -1.16699 6.83301 -1.5 10.5s-0.5 7.16699 -0.5 10.5c0 17.333 3.66699 31.333 11 42s17.666 16 30.999 16c8 0 17.5 -1.33301 28.5 -4s23 -5.83398 36 -9.50098
s27.5 -6.83398 43.5 -9.50098s33 -4 51 -4c20 0 36.167 1.5 48.5 4.5s21.833 7 28.5 12s11.167 10.667 13.5 17s3.5 13.166 3.5 20.499c0 14.667 -5.66699 25.834 -17 33.501s-31.333 15.5 -60 23.5l-71 20c-54 15.333 -91.667 34.166 -113 56.499s-32 50.166 -32 83.499
c0 18 3.66699 35.333 11 52s18.833 31.334 34.5 44.001s35.834 22.834 60.501 30.501s54.667 11.5 90 11.5c58 0 119 -10.667 183 -32c0 -3.33301 0.166992 -6.16602 0.5 -8.49902s0.5 -4.83301 0.5 -7.5c0 -19.333 -3.5 -34.5 -10.5 -45.5s-17.833 -16.5 -32.5 -16.5
s-33.167 3.5 -55.5 10.5s-50.833 10.5 -85.5 10.5c-32 0 -54.5 -4 -67.5 -12s-19.5 -19 -19.5 -33c0 -6 0.833008 -11.333 2.5 -16s5 -9 10 -13s12 -7.83301 21 -11.5s21.167 -7.5 36.5 -11.5l75 -21c54.667 -15.333 93.167 -34.333 115.5 -57s33.5 -51.334 33.5 -86.001
c0 -18 -3.16699 -35.833 -9.5 -53.5s-17.166 -33.334 -32.499 -47.001s-36.166 -24.834 -62.499 -33.501s-59.5 -13 -99.5 -13z" />
    <glyph glyph-name="t" unicode="t" horiz-adv-x="403" 
d="M248 -7c-26 0 -49.165 4.16895 -69.498 12.502s-37.5 20 -51.5 35s-24.667 32.667 -32 53s-11 42.833 -11 67.5v237h-76c-1.33301 4.66699 -2.33301 10.667 -3 18s-1 14.666 -1 21.999c0 16.667 3.5 28.334 10.5 35.001s15.833 10 26.5 10h43v69
c0 8 0.833008 15.667 2.5 23s4.66699 14 9 20s10.666 10.667 18.999 14s19.5 5 33.5 5c16 0 30.333 -2.33301 43 -7v-124h164c3.33301 -10 5 -23.333 5 -40s-3.5 -28.334 -10.5 -35.001s-15.833 -10 -26.5 -10h-132v-233c0 -25.333 6 -45 18 -59s29.667 -21 53 -21
c10 0 19 1 27 3s15.167 4.33301 21.5 7s12.333 5 18 7s11.167 3 16.5 3c12.667 0 22.667 -4.33301 30 -13s11 -22.334 11 -41.001v-10.5c0 -3.66699 -0.333008 -7.16699 -1 -10.5c-19.333 -11.333 -39.833 -20.333 -61.5 -27s-46.834 -10 -75.501 -10z" />
    <glyph glyph-name="u" unicode="u" horiz-adv-x="548" 
d="M225 -9c-24 0 -46.668 3.99902 -68.001 11.999s-40 20.333 -56 37s-28.667 37.834 -38 63.501s-14 56.167 -14 91.5v246c0 13.333 4 24.333 12 33s22.333 13 43 13c10.667 0 21 -0.5 31 -1.5s17.667 -2.16699 23 -3.5v-278c0 -42 9.83301 -72.667 29.5 -92
s44.834 -29 75.501 -29c22 0 43.333 6 64 18s38 29.667 52 53v287c0 13.333 4 24.333 12 33s22.333 13 43 13c10.667 0 21.167 -0.5 31.5 -1.5s18.166 -2.16699 23.499 -3.5v-293c0 -20 0.166992 -37.833 0.5 -53.5s1.16602 -30.5 2.49902 -44.5s3 -27.833 5 -41.5
s4.66699 -28.5 8 -44.5c-16 -7.33301 -34.667 -11 -56 -11c-17.333 0 -30 3 -38 9s-13.667 13.167 -17 21.5s-5.16602 17.5 -5.49902 27.5s-1.16602 19 -2.49902 27h-1c-17.333 -26 -38.833 -47.167 -64.5 -63.5s-57.5 -24.5 -95.5 -24.5z" />
    <glyph glyph-name="v" unicode="v" horiz-adv-x="467" 
d="M231 -7c-9.33301 0 -18.8281 0.667969 -28.4951 2.00098s-18.834 3.66602 -27.501 6.99902l-175 472c7.33301 3.33301 16.5 6.33301 27.5 9s21.5 4 31.5 4c12.667 0 24.167 -1.66699 34.5 -5s18.166 -12.333 23.499 -27l67 -198l26.5 -79
c8.33301 -24.667 16.166 -51 23.499 -79h2c7.33301 28 15.5 54.167 24.5 78.5s18.167 50.833 27.5 79.5l66 197c4.66699 13.333 12.167 22.166 22.5 26.499s22.166 6.5 35.499 6.5c8.66699 0 18.5 -1.16699 29.5 -3.5s19.833 -5.16602 26.5 -8.49902l-165 -440
c-6 -16 -14.333 -27 -25 -33s-26.334 -9 -47.001 -9z" />
    <glyph glyph-name="w" unicode="w" horiz-adv-x="689" 
d="M183 -7c-8.66699 0 -19.502 0.666016 -32.502 1.99902s-23.167 3.66602 -30.5 6.99902l-115 472c7.33301 3.33301 15.666 6.33301 24.999 9s20.333 4 33 4c16 0 29 -3 39 -9s16.667 -17 20 -33l41 -193c6 -28.667 11.333 -55.334 16 -80.001l14 -72l9 37.5l10.5 43.5
c3.66699 14.667 7.5 29 11.5 43s7.66699 26 11 36l49 177c5.33301 19.333 13.5 32.5 24.5 39.5s26.167 10.5 45.5 10.5c8.66699 0 17.334 -0.666992 26.001 -2s16.334 -3 23.001 -5l59 -220l22.5 -85c7.66699 -28.667 13.834 -53.667 18.501 -75l13 69
c4.66699 24.667 10.334 52.334 17.001 83.001l43 196c3.33301 14.667 9.33301 24.834 18 30.501s20.667 8.5 36 8.5c11.333 0 21.5 -1.16699 30.5 -3.5s16.833 -4.83301 23.5 -7.5l-107 -438c-4.66699 -17.333 -14 -29.166 -28 -35.499s-30 -9.5 -48 -9.5
c-9.33301 0 -20.333 0.666992 -33 2s-22.334 3.33301 -29.001 6l-94 354l-86 -315c-5.33301 -18.667 -14.5 -31.167 -27.5 -37.5s-29.167 -9.5 -48.5 -9.5z" />
    <glyph glyph-name="x" unicode="x" horiz-adv-x="485" 
d="M71 -6c-11.333 0 -22.498 1.16602 -33.498 3.49902s-20.5 5.16602 -28.5 8.49902l172 238l-166 228c8.66699 4.66699 19.167 8.33398 31.5 11.001s23.166 4 32.499 4c16.667 0 30.667 -2.16699 42 -6.5s21 -12.166 29 -23.499l97 -143l93 144
c7.33301 10.667 16.166 18.167 26.499 22.5s21.833 6.5 34.5 6.5c9.33301 0 20.166 -1 32.499 -3s22.5 -4.66699 30.5 -8l-158 -233l162 -234c-8.66699 -4.66699 -19 -8.33398 -31 -11.001s-22.667 -4 -32 -4c-16.667 0 -30.667 2.16699 -42 6.5
s-20.666 12.166 -27.999 23.499l-95 149l-107 -153c-6.66699 -9.33301 -14.667 -16.166 -24 -20.499s-22 -6.16602 -38 -5.49902z" />
    <glyph glyph-name="y" unicode="y" horiz-adv-x="476" 
d="M167 -193c-12.667 0 -23.501 1 -32.501 3s-16.833 4.33301 -23.5 7l81 185l-187 472c7.33301 3.33301 16.333 6.33301 27 9s21.667 4 33 4c17.333 0 30.666 -2.83301 39.999 -8.5s15.666 -13.834 18.999 -24.501l118 -336l121 337
c4.66699 12.667 11.834 21.167 21.501 25.5s21.167 6.5 34.5 6.5c8.66699 0 18.334 -1.16699 29.001 -3.5s19.334 -5.16602 26.001 -8.49902l-244 -625c-10.667 -28.667 -31.667 -43 -63 -43z" />
    <glyph glyph-name="z" unicode="z" horiz-adv-x="451" 
d="M31 0c-1.33301 4.66699 -2.50195 11.001 -3.50195 19.001s-1.5 16 -1.5 24c0 10.667 1.5 21.167 4.5 31.5s9.16699 21.166 18.5 32.499l236 287h-214c-11.333 0 -20.666 3.33301 -27.999 10s-11 19 -11 37c0 8 0.5 15.833 1.5 23.5s2.16699 13.834 3.5 18.501h378
c1.33301 -4.66699 2.5 -10.834 3.5 -18.501s1.5 -15.5 1.5 -23.5c0 -9.33301 -1.5 -19.5 -4.5 -30.5s-8.83301 -21.833 -17.5 -32.5l-238 -290h260c3.33301 -10 5 -23.667 5 -41c0 -18 -3.66699 -30.333 -11 -37s-16.666 -10 -27.999 -10h-355z" />
    <glyph glyph-name="braceleft" unicode="{" horiz-adv-x="307" 
d="M214 -196c-36 18.667 -64.3311 41.4941 -84.998 68.4941s-31 59.5 -31 97.5c0 16 1.16699 31 3.5 45s5 27.5 8 40.5l8.5 38.5c2.66699 12.667 4 25.334 4 38.001c0 10.667 -2.33301 19.834 -7 27.501s-10.834 14 -18.501 19s-16.334 9.16699 -26.001 12.5
s-19.5 6.33301 -29.5 9v67c10 2 20 4.5 30 7.5s18.667 7 26 12s13.333 11.333 18 19s7 17.5 7 29.5s-1.16699 24.167 -3.5 36.5s-5 25 -8 38s-5.66699 26.667 -8 41s-3.5 29.833 -3.5 46.5c0 38 10.333 70.5 31 97.5s49 49.833 85 68.5c18 -5.33301 31 -13 39 -23
s12 -20.333 12 -31c0 -15.333 -6.66699 -27.666 -20 -36.999c-16.667 -11.333 -28 -24 -34 -38s-9 -28.667 -9 -44c0 -23.333 2.5 -49 7.5 -77s7.5 -53.667 7.5 -77c0 -28 -8 -50.667 -24 -68s-37 -29.333 -63 -36c26 -6 47.167 -17 63.5 -33s24.5 -38.333 24.5 -67
c0 -21.333 -2.83301 -46.166 -8.5 -74.499s-8.5 -55.166 -8.5 -80.499c0 -15.333 3 -30 9 -44s17.333 -26.667 34 -38c13.333 -9.33301 20 -21.666 20 -36.999c0 -10.667 -4 -21 -12 -31s-21 -17.667 -39 -23z" />
    <glyph glyph-name="bar" unicode="|" horiz-adv-x="285" 
d="M144 -192c-11.333 0 -24 2.33301 -38 7v814c0 7.33301 2.33301 14.5 7 21.5s14 10.5 28 10.5c11.333 0 24 -2.33301 38 -7v-814c0 -7.33301 -2.33301 -14.5 -7 -21.5s-14 -10.5 -28 -10.5z" />
    <glyph glyph-name="braceright" unicode="}" horiz-adv-x="307" 
d="M92 -196c-18 5.33301 -31.002 13.0039 -39.002 23.0039s-12 20.333 -12 31c0 15.333 6.66699 27.666 20 36.999c16.667 11.333 28 24 34 38s9 28.667 9 44c0 23.333 -2.5 49 -7.5 77s-7.5 53.667 -7.5 77c0 28 8 50.667 24 68s37 29.333 63 36c-26 6 -47.167 17 -63.5 33
s-24.5 38.333 -24.5 67c0 21.333 2.83301 46.166 8.5 74.499s8.5 55.166 8.5 80.499c0 15.333 -3 30 -9 44s-17.333 26.667 -34 38c-13.333 9.33301 -20 21.666 -20 36.999c0 10.667 4 21 12 31s21 17.667 39 23c36 -18.667 64.333 -41.5 85 -68.5s31 -59.5 31 -97.5
c0 -16 -1.33301 -31 -4 -45s-5.5 -27.5 -8.5 -40.5s-5.66699 -25.833 -8 -38.5s-3.5 -25.334 -3.5 -38.001c0 -11.333 2.33301 -20.666 7 -27.999s10.834 -13.5 18.501 -18.5s16.334 -9.16699 26.001 -12.5s19.5 -6.33301 29.5 -9v-67c-10 -2 -20 -4.5 -30 -7.5
s-18.667 -7 -26 -12s-13.333 -11.333 -18 -19s-7 -17.5 -7 -29.5s1.16699 -24.167 3.5 -36.5s5 -25 8 -38s5.66699 -26.667 8 -41s3.5 -29.833 3.5 -46.5c0 -38 -10.333 -70.5 -31 -97.5s-49 -49.833 -85 -68.5z" />
    <glyph glyph-name="asciitilde" unicode="~" horiz-adv-x="567" 
d="M310 163c-18 0 -31.1689 2.66797 -39.502 8.00098s-17.166 12.666 -26.499 21.999l-77 76l-52 -100h-70l75 146c6.66699 4 14.834 7.5 24.501 10.5s20.5 4.5 32.5 4.5s23 -2.5 33 -7.5s19.667 -12.167 29 -21.5l80 -79l49 100h68l-74 -145
c-8 -4.66699 -16.667 -8.16699 -26 -10.5s-18 -3.5 -26 -3.5z" />
    <glyph glyph-name="uni00A0" unicode="&#xa0;" horiz-adv-x="200" 
 />
    <glyph glyph-name="exclamdown" unicode="&#xa1;" horiz-adv-x="271" 
d="M129 -6c-12 0 -23.833 0.667969 -35.5 2.00098s-20.5 2.66602 -26.5 3.99902l24 389c0.666992 8 4 15.167 10 21.5s15.667 9.5 29 9.5c10.667 0 22.667 -2.33301 36 -7l27 -366v-6c0 -13.333 -5 -24.5 -15 -33.5s-26.333 -13.5 -49 -13.5zM131 525.001
c-18 0 -33.333 6.33301 -46 19s-19 28 -19 46c0 17.333 6.33301 32.5 19 45.5s28 19.5 46 19.5c17.333 0 32.5 -6.5 45.5 -19.5s19.5 -28.167 19.5 -45.5c0 -18 -6.5 -33.333 -19.5 -46s-28.167 -19 -45.5 -19z" />
    <glyph glyph-name="cent" unicode="&#xa2;" 
d="M341 -92c-10.667 0 -23.001 2.33203 -37.001 6.99902v121c-32 4 -61 13.167 -87 27.5s-48.167 32.333 -66.5 54s-32.666 46.5 -42.999 74.5s-15.5 58 -15.5 90c0 31.333 5.16699 61 15.5 89s24.666 53 42.999 75s40.5 40.167 66.5 54.5s55 23.5 87 27.5v90
c0 7.33301 1.83301 14.5 5.5 21.5s12.167 10.5 25.5 10.5c10.667 0 23 -2.33301 37 -7v-114c25.333 -2.66699 48.166 -7 68.499 -13s38.5 -13.333 54.5 -22c0.666992 -3.33301 1 -6.5 1 -9.5v-8.5c0 -18.667 -4 -33.5 -12 -44.5s-18.333 -16.5 -31 -16.5
c-10.667 0 -21.5 2.66699 -32.5 8s-27.167 9.33301 -48.5 12v-307c22.667 1.33301 40.334 4.5 53.001 9.5s24.334 7.5 35.001 7.5c13.333 0 23.833 -4.66699 31.5 -14s11.5 -23.666 11.5 -42.999v-10.5c0 -3.66699 -0.333008 -7.5 -1 -11.5c-19.333 -10 -39.5 -17 -60.5 -21
s-44.167 -7.33301 -69.5 -10v-95c0 -7.33301 -1.83301 -14.5 -5.5 -21.5s-12.167 -10.5 -25.5 -10.5zM303.999 433.999c-30 -5.33301 -54.667 -21.332 -74 -47.999s-29 -61.334 -29 -104.001c0 -44 10 -78.833 30 -104.5s44.333 -41.5 73 -47.5v304z" />
    <glyph glyph-name="sterling" unicode="&#xa3;" horiz-adv-x="504" 
d="M67 0c-3.33301 8 -4.99902 18.999 -4.99902 32.999s3.66699 28.667 11 44l23.5 49.5c8.33301 17.667 16.166 36.834 23.499 57.501s11 43.667 11 69v11h-92c-1.33301 4.66699 -2.33301 10.834 -3 18.501s-1 15.5 -1 23.5c0 17.333 3.66699 29.333 11 36s16 10 26 10h50
c-4 16.667 -9 35.167 -15 55.5s-9 42.166 -9 65.499c0 56.667 17.667 101.5 53 134.5s84.333 49.5 147 49.5c34 0 65.167 -4.5 93.5 -13.5s54.5 -20.833 78.5 -35.5c0 -21.333 -4.5 -39.5 -13.5 -54.5s-21.5 -22.5 -37.5 -22.5c-8.66699 0 -16.834 1.5 -24.501 4.5
l-24.5 9.5c-8.66699 3.33301 -18.5 6.5 -29.5 9.5s-24.167 4.5 -39.5 4.5c-34.667 0 -59 -8.83301 -73 -26.5s-21 -40.5 -21 -68.5c0 -20 2.5 -39.5 7.5 -58.5s9.16699 -36.833 12.5 -53.5h166c1.33301 -4.66699 2.33301 -10.834 3 -18.501s1 -15.5 1 -23.5
c0 -17.333 -3.5 -29.333 -10.5 -36s-15.833 -10 -26.5 -10h-126c0 -57.333 -19 -111.333 -57 -162h311c1.33301 -5.33301 2.33301 -12.333 3 -21s1 -17.667 1 -27c0 -19.333 -4.16699 -33.166 -12.5 -41.499s-20.166 -12.5 -35.499 -12.5h-377z" />
    <glyph glyph-name="currency" unicode="&#xa4;" 
d="M139 26l-63.998 63.9971l66 66c-18.667 30.667 -28 64.334 -28 101.001c0 37.333 9.33301 70.333 28 99l-66 67l65 65l66 -67c29.333 19.333 62.666 29 99.999 29s70.666 -9.66699 99.999 -29l66 66l65 -64l-67 -66c20 -29.333 30 -62.666 30 -99.999
s-9.66699 -70.666 -29 -99.999l66 -65l-65 -65l-66 65c-29.333 -18.667 -62.666 -28 -99.999 -28c-36.667 0 -70.334 9.33301 -101.001 28zM306.002 146.997c14.667 0 28.834 2.83301 42.501 8.5s25.5 13.5 35.5 23.5s18 21.667 24 35s9 27.666 9 42.999
s-3 29.666 -9 42.999s-14 25 -24 35s-21.833 17.833 -35.5 23.5s-27.834 8.5 -42.501 8.5c-15.333 0 -29.666 -2.83301 -42.999 -8.5s-25 -13.5 -35 -23.5s-17.833 -21.667 -23.5 -35s-8.5 -27.666 -8.5 -42.999s2.83301 -29.666 8.5 -42.999s13.5 -25 23.5 -35
s21.667 -17.833 35 -23.5s27.666 -8.5 42.999 -8.5z" />
    <glyph glyph-name="yen" unicode="&#xa5;" 
d="M303 -6c-10.667 0 -21.167 0.498047 -31.5 1.49805s-18.166 2.16699 -23.499 3.5v188h-139c-1.33301 4.66699 -2.33301 10.834 -3 18.501s-1 15.5 -1 23.5c0 17.333 3.66699 29.333 11 36s16 10 26 10h106l-236 361c9.33301 5.33301 20.333 9.33301 33 12s24 4 34 4
c17.333 0 31.666 -2.16699 42.999 -6.5s21 -12.833 29 -25.5l156 -251l155 250c7.33301 12.667 16.166 21.334 26.499 26.001s23.5 7 39.5 7c9.33301 0 20.5 -1.16699 33.5 -3.5s23.5 -6.16602 31.5 -11.499l-233 -362h135c1.33301 -4.66699 2.33301 -10.834 3 -18.501
s1 -15.5 1 -23.5c0 -17.333 -3.5 -29.333 -10.5 -36s-15.833 -10 -26.5 -10h-102v-146c0 -13.333 -4.16699 -24.5 -12.5 -33.5s-23.166 -13.5 -44.499 -13.5z" />
    <glyph glyph-name="brokenbar" unicode="&#xa6;" horiz-adv-x="284" 
d="M144 -190c-11.333 0 -24 2.33301 -38 7v342c0 7.33301 2.33301 14.5 7 21.5s14 10.5 28 10.5c11.333 0 24 -2.33301 38 -7v-342c0 -7.33301 -2.33301 -14.5 -7 -21.5s-14 -10.5 -28 -10.5zM144 280c-11.333 0 -24 2.33301 -38 7v342c0 7.33301 2.33301 14.5 7 21.5
s14 10.5 28 10.5c11.333 0 24 -2.33301 38 -7v-342c0 -7.33301 -2.33301 -14.5 -7 -21.5s-14 -10.5 -28 -10.5z" />
    <glyph glyph-name="section" unicode="&#xa7;" 
d="M289 -51c-32 0 -62.9971 2.6709 -92.9971 8.00391s-61 13.666 -93 24.999c-0.666992 4 -1.16699 7.83301 -1.5 11.5s-0.5 7.16699 -0.5 10.5c0 17.333 3.66699 30.833 11 40.5s17.666 14.5 30.999 14.5c8 0 16.833 -1.16699 26.5 -3.5l31.5 -8
c11.333 -3 24.333 -5.66699 39 -8s31 -3.5 49 -3.5c20 0 36.333 1.66699 49 5s22.5 7.66602 29.5 12.999s11.833 11.333 14.5 18s4 13.334 4 20.001c0 14.667 -5.5 25.834 -16.5 33.501s-31.5 15.5 -61.5 23.5l-56 15c-29.333 8 -53.833 16.667 -73.5 26
s-35.5 19.666 -47.5 30.999s-20.333 24 -25 38s-7 29.667 -7 47c0 20.667 5 40.5 15 59.5s25.667 35.167 47 48.5c-21.333 11.333 -37.833 26.5 -49.5 45.5s-17.5 39.833 -17.5 62.5c0 20 3.83301 38.333 11.5 55s19.667 31.334 36 44.001s37 22.5 62 29.5
s54.5 10.5 88.5 10.5c30 0 59 -2.66699 87 -8s58 -13.333 90 -24c0 -2.66699 0.166992 -5.16699 0.5 -7.5s0.5 -4.83301 0.5 -7.5c0 -18 -3.5 -32.667 -10.5 -44s-17.833 -17 -32.5 -17c-8 0 -16.333 1.16699 -25 3.5s-18.334 4.66602 -29.001 6.99902
s-22.5 4.66602 -35.5 6.99902s-27.833 3.5 -44.5 3.5c-61.333 0 -92 -16.333 -92 -49c0 -11.333 4.33301 -22 13 -32s29 -19 61 -27l69 -17c55.333 -14 94 -32.833 116 -56.5s33 -52.5 33 -86.5c0 -20 -5 -39.5 -15 -58.5s-26 -35.167 -48 -48.5
c23.333 -14 39.666 -28.833 48.999 -44.5s14 -35.167 14 -58.5c0 -20 -3.66699 -38.833 -11 -56.5s-19 -33.334 -35 -47.001s-37 -24.334 -63 -32.001s-57.667 -11.5 -95 -11.5zM345.003 235.004c36.667 8.66699 54.9971 28.334 54.9971 59.001
c0 10.667 -4.16699 20 -12.5 28s-19.666 15 -33.999 21s-31.166 11.667 -50.499 17s-39.666 10.666 -60.999 15.999c-18.667 -4.66699 -32.5 -12.5 -41.5 -23.5s-13.5 -23.833 -13.5 -38.5c0 -10.667 4 -19.667 12 -27s19 -13.833 33 -19.5s30.667 -11 50 -16z" />
    <glyph glyph-name="dieresis" unicode="&#xa8;" horiz-adv-x="466" 
d="M149 556c-16.667 0 -30.834 5.83301 -42.501 17.5s-17.5 25.5 -17.5 41.5c0 17.333 5.83301 31.833 17.5 43.5s25.834 17.5 42.501 17.5s30.834 -5.83301 42.501 -17.5s17.5 -26.167 17.5 -43.5c0 -16 -5.83301 -29.833 -17.5 -41.5s-25.834 -17.5 -42.501 -17.5z
M332 556c-16.667 0 -30.834 5.83301 -42.501 17.5s-17.5 25.5 -17.5 41.5c0 17.333 5.83301 31.833 17.5 43.5s25.834 17.5 42.501 17.5s30.834 -5.83301 42.501 -17.5s17.5 -26.167 17.5 -43.5c0 -16 -5.83301 -29.833 -17.5 -41.5s-25.834 -17.5 -42.501 -17.5z" />
    <glyph glyph-name="copyright" unicode="&#xa9;" horiz-adv-x="713" 
d="M356 -12c-48 0 -92.3311 8.33301 -132.998 25s-75.5 39.834 -104.5 69.501s-51.667 65 -68 106s-24.5 86.167 -24.5 135.5c0 48.667 8.16699 93.667 24.5 135s39.166 76.833 68.499 106.5s64.166 52.834 104.499 69.501s84.5 25 132.5 25s92 -8.33301 132 -25
s74.5 -39.834 103.5 -69.501s51.667 -65.167 68 -106.5s24.5 -86.333 24.5 -135c0 -49.333 -8.16699 -94.5 -24.5 -135.5s-39 -76.333 -68 -106s-63.5 -52.834 -103.5 -69.501s-84 -25 -132 -25zM356.002 53c38 0 72.999 6.66699 104.999 20s59.333 32 82 56
s40.334 52.667 53.001 86s19 69.666 19 108.999c0 38.667 -6.5 74.5 -19.5 107.5s-31 61.5 -54 85.5s-50.333 42.833 -82 56.5s-66.5 20.5 -104.5 20.5s-72.833 -6.83301 -104.5 -20.5s-59 -32.5 -82 -56.5s-41 -52.5 -54 -85.5s-19.5 -68.833 -19.5 -107.5
c0 -39.333 6.5 -75.666 19.5 -108.999s31 -62 54 -86s50.5 -42.667 82.5 -56s67 -20 105 -20zM363.001 135c-27.333 0 -52.166 5 -74.499 15s-41.5 23.5 -57.5 40.5s-28.5 37 -37.5 60s-13.5 47.5 -13.5 73.5s4.33301 50.333 13 73s21 42.5 37 59.5s35.333 30.5 58 40.5
s47.667 15 75 15c12 0 25 -1 39 -3s27 -4.66699 39 -8s22 -7.83301 30 -13.5s12 -11.834 12 -18.501c0 -15.333 -3.66699 -27.333 -11 -36s-16.333 -13 -27 -13c-4 0 -8.16699 0.833008 -12.5 2.5l-15 6c-5.66699 2.33301 -12.167 4.33301 -19.5 6s-16.333 2.5 -27 2.5
c-30 0 -55.333 -9.83301 -76 -29.5s-31 -47.5 -31 -83.5s10.333 -64.167 31 -84.5s46 -30.5 76 -30.5c11.333 0 21 0.833008 29 2.5s17.5 4.5 28.5 8.5s18.833 6 23.5 6c23.333 0 35 -16.667 35 -50c0 -8 -4.83301 -14.5 -14.5 -19.5s-21.334 -9.16699 -35.001 -12.5
s-27.5 -5.66602 -41.5 -6.99902s-25 -2 -33 -2z" />
    <glyph glyph-name="ordfeminine" unicode="&#xaa;" horiz-adv-x="440" 
d="M170 257c-20.667 0 -38.998 3.16602 -54.998 9.49902s-29.5 14.833 -40.5 25.5s-19.333 23 -25 37s-8.5 29 -8.5 45c0 42.667 15.167 74.334 45.5 95.001s72.5 31 126.5 31c13.333 0 27.166 -0.666992 41.499 -2s29.166 -3.33301 44.499 -6v19
c0 25.333 -5.83301 43.666 -17.5 54.999s-31.5 17 -59.5 17s-51.167 -3 -69.5 -9s-33.833 -9 -46.5 -9c-11.333 0 -19.833 4.66699 -25.5 14s-8.5 21.666 -8.5 36.999c0 6.66699 0.333008 11.667 1 15c6 2 14.333 4.33301 25 7s22.667 5.33398 36 8.00098
s27.833 4.83398 43.5 6.50098s31.5 2.5 47.5 2.5c30.667 0 56.334 -3.5 77.001 -10.5s37.167 -17.167 49.5 -30.5s21.166 -29.833 26.499 -49.5s8 -42.167 8 -67.5v-83v-41.5c0 -12.333 0.5 -24.166 1.5 -35.499s2.66699 -22.5 5 -33.5s5.5 -22.833 9.5 -35.5
c-5.33301 -2 -11.833 -4 -19.5 -6s-16.5 -3 -26.5 -3c-19.333 0 -32.333 6.66699 -39 20s-10.667 29.666 -12 48.999c-14.667 -21.333 -33.167 -38.5 -55.5 -51.5s-48.833 -19.5 -79.5 -19.5zM200.002 325.999c22 0 41.5 6 58.5 18s30.833 29.333 41.5 52v42
c-12.667 2 -24.667 3.66699 -36 5s-22.333 2 -33 2c-32 0 -56.833 -5.33301 -74.5 -16s-26.5 -27 -26.5 -49c0 -16 6 -29 18 -39s29.333 -15 52 -15z" />
    <glyph glyph-name="guillemotleft" unicode="&#xab;" horiz-adv-x="583" 
d="M29 194v76.999l235 159c4 -7.33301 7.5 -15.833 10.5 -25.5s4.5 -19.5 4.5 -29.5c0 -15.333 -3.5 -28.833 -10.5 -40.5s-15.5 -20.5 -25.5 -26.5l-120 -73l120 -71c10 -6 18.5 -14.667 25.5 -26s10.5 -24.666 10.5 -39.999c0 -10 -1.5 -19.833 -4.5 -29.5
s-6.5 -18.167 -10.5 -25.5zM271 193.999v76.999l235 159c4 -7.33301 7.5 -15.833 10.5 -25.5s4.5 -19.5 4.5 -29.5c0 -15.333 -3.5 -28.833 -10.5 -40.5s-15.5 -20.5 -25.5 -26.5l-120 -73l120 -71c10 -6 18.5 -14.667 25.5 -26s10.5 -24.666 10.5 -39.999
c0 -10 -1.5 -19.833 -4.5 -29.5s-6.5 -18.167 -10.5 -25.5z" />
    <glyph glyph-name="logicalnot" unicode="&#xac;" 
d="M501 -1c-8.66699 0 -17 0.499023 -25 1.49902s-14.333 1.83301 -19 2.5v212h-398c-2.66699 10 -4 24.667 -4 44c0 18.667 3.83301 31 11.5 37s17.5 9 29.5 9h394c24.667 0 40.5 -4.83301 47.5 -14.5s10.5 -22.167 10.5 -37.5v-215
c0 -11.333 -3.33301 -20.666 -10 -27.999s-19 -11 -37 -11z" />
    <glyph glyph-name="uni00AD" unicode="&#xad;" horiz-adv-x="355" 
d="M32 207c-0.666992 5.33301 -1.66699 12.1689 -3 20.502s-2 17.166 -2 26.499c0 19.333 4.16699 32.666 12.5 39.999s18.5 11 30.5 11h254l2.5 -20.5c1 -8.33301 1.5 -16.833 1.5 -25.5c0 -19.333 -4 -32.833 -12 -40.5s-18 -11.5 -30 -11.5h-254z" />
    <glyph glyph-name="registered" unicode="&#xae;" horiz-adv-x="375" 
d="M188 335c-23.333 0 -44.833 4.16406 -64.5 12.4971s-36.667 19.833 -51 34.5s-25.666 31.834 -33.999 51.501s-12.5 40.834 -12.5 63.501c0 22 4.16699 42.833 12.5 62.5s19.666 36.834 33.999 51.501s31.333 26.334 51 35.001s41.167 13 64.5 13
c22.667 0 43.834 -4.33301 63.501 -13s36.667 -20.334 51 -35.001s25.666 -31.834 33.999 -51.501s12.5 -40.5 12.5 -62.5c0 -23.333 -4.16699 -44.833 -12.5 -64.5s-19.666 -36.667 -33.999 -51s-31.333 -25.666 -51 -33.999s-40.834 -12.5 -63.501 -12.5zM188 369.997
c16 0 31.5 3 46.5 9s28.167 14.5 39.5 25.5s20.5 24.333 27.5 40s10.5 33.167 10.5 52.5c0 18.667 -3.5 35.834 -10.5 51.501s-16.167 29 -27.5 40s-24.5 19.5 -39.5 25.5s-30.5 9 -46.5 9s-31.667 -3 -47 -9s-28.833 -14.5 -40.5 -25.5s-21 -24.333 -28 -40
s-10.5 -32.834 -10.5 -51.501c0 -19.333 3.5 -36.833 10.5 -52.5s16.333 -29 28 -40s25.167 -19.5 40.5 -25.5s31 -9 47 -9zM237 409.997c-11.333 0 -19.999 4.33398 -25.999 13.001l-37 50h-7v-45c0 -10.667 -6.66699 -16 -20 -16c-6 0 -12.333 0.666992 -19 2v150
c0 5.33301 1.16699 9.66602 3.5 12.999s7.83301 5 16.5 5h43c19.333 0 35.166 -4.83301 47.499 -14.5s18.5 -23.167 18.5 -40.5c0 -11.333 -3.5 -21.5 -10.5 -30.5s-17.5 -15.167 -31.5 -18.5l46 -61c-3.33301 -2 -6.83301 -3.66699 -10.5 -5s-8.16699 -2 -13.5 -2z
M167.001 504.998l22 0.000976562c10 0 17.167 2.16699 21.5 6.5s6.5 9.16602 6.5 14.499c0 14.667 -8.66699 22 -26 22h-24v-43z" />
    <glyph glyph-name="macron" unicode="&#xaf;" horiz-adv-x="466" 
d="M107 579c-1.33301 4.66699 -2.33301 10.501 -3 17.501s-1 14.5 -1 22.5c0 17.333 3.5 29.166 10.5 35.499s16.167 9.5 27.5 9.5h246c1.33301 -4.66699 2.33301 -10.5 3 -17.5s1 -14.5 1 -22.5c0 -30 -12.667 -45 -38 -45h-246z" />
    <glyph glyph-name="degree" unicode="&#xb0;" horiz-adv-x="397" 
d="M199 341c-22 0 -42.833 4.16699 -62.5 12.5s-36.834 19.833 -51.501 34.5s-26.167 31.667 -34.5 51s-12.5 40 -12.5 62s4.16699 42.833 12.5 62.5s19.833 36.667 34.5 51s31.834 25.666 51.501 33.999s40.5 12.5 62.5 12.5s42.667 -4.16699 62 -12.5
s36.333 -19.666 51 -33.999s26.167 -31.333 34.5 -51s12.5 -40.5 12.5 -62.5s-4.16699 -42.667 -12.5 -62s-19.833 -36.333 -34.5 -51s-31.667 -26.167 -51 -34.5s-40 -12.5 -62 -12.5zM199 408c12.667 0 24.667 2.5 36 7.5s21.166 11.667 29.499 20s15 18.166 20 29.499
s7.5 23.333 7.5 36s-2.5 24.834 -7.5 36.501s-11.667 21.667 -20 30s-18.166 15 -29.499 20s-23.333 7.5 -36 7.5c-13.333 0 -25.666 -2.5 -36.999 -7.5s-21.166 -11.667 -29.499 -20s-15 -18.333 -20 -30s-7.5 -23.834 -7.5 -36.501s2.5 -24.667 7.5 -36
s11.667 -21.166 20 -29.499s18.166 -15 29.499 -20s23.666 -7.5 36.999 -7.5z" />
    <glyph glyph-name="plusminus" unicode="&#xb1;" horiz-adv-x="561" 
d="M278 175c-8.66699 0 -17.167 0.5 -25.5 1.5s-14.833 1.83301 -19.5 2.5v212h-196c-2.66699 10 -4 24.667 -4 44c0 18.667 3.83301 31 11.5 37s17.5 9 29.5 9h159v169c0 11.333 3.33301 20.666 10 27.999s19 11 37 11c8.66699 0 17.167 -0.5 25.5 -1.5
s14.833 -1.83301 19.5 -2.5v-204h199c2.66699 -10 4 -24.667 4 -44c0 -18.667 -3.83301 -31 -11.5 -37s-17.5 -9 -29.5 -9h-162v-177c0 -11.333 -3.33301 -20.666 -10 -27.999s-19 -11 -37 -11z" />
    <glyph glyph-name="twosuperior" unicode="&#xb2;" horiz-adv-x="429" 
d="M62 222c-0.666992 3.33301 -1.5 8.33496 -2.5 15.002s-1.5 13.334 -1.5 20.001s1.66699 15.667 5 27s11 22 23 32l104 87l42.5 36.5c11.667 10.333 21 19.666 28 27.999s12 16.5 15 24.5s4.5 17 4.5 27c0 19.333 -6.33301 34.666 -19 45.999s-31 17 -55 17
c-12.667 0 -24 -1.5 -34 -4.5s-19.333 -6.5 -28 -10.5s-16.834 -7.5 -24.501 -10.5s-15.167 -4.5 -22.5 -4.5c-10.667 0 -19.667 5.16699 -27 15.5s-11 24.833 -11 43.5c16 12 37 23.333 63 34s56 16 90 16c48 0 85.5 -12.667 112.5 -38s40.5 -59 40.5 -101
c0 -32 -9.66699 -59.833 -29 -83.5s-47.333 -49.5 -84 -77.5l-79 -61h196c0.666992 -4.66699 1.33398 -10.334 2.00098 -17.001s1 -13.667 1 -21c0 -14.667 -3 -25 -9 -31s-13.667 -9 -23 -9h-278z" />
    <glyph glyph-name="threesuperior" unicode="&#xb3;" horiz-adv-x="451" 
d="M221 212c-28 0 -55.8359 3.66797 -83.5029 11.001s-51.167 16.666 -70.5 27.999c0 17.333 3.33301 31.5 10 42.5s16 16.5 28 16.5c6.66699 0 13.334 -1 20.001 -3l23 -7c8.66699 -2.66699 18.834 -5 30.501 -7s25.834 -3 42.501 -3c24.667 0 44.5 5.16699 59.5 15.5
s22.5 24.166 22.5 41.499c0 16.667 -6.66699 30.667 -20 42s-36.333 17 -69 17h-56c-8 0 -14.5 3 -19.5 9s-7.5 15 -7.5 27c0 5.33301 0.333008 11.333 1 18s1.33398 11.667 2.00098 15h77c28 0 48.667 5 62 15s20 23.333 20 40c0 15.333 -5.83301 28 -17.5 38
s-30.5 15 -56.5 15c-27.333 0 -49 -3 -65 -9s-29.333 -9 -40 -9c-13.333 0 -23 6 -29 18s-9 26.333 -9 43c17.333 9.33301 38.5 17.333 63.5 24s53.5 10 85.5 10c24.667 0 46.5 -3.16699 65.5 -9.5s34.667 -14.666 47 -24.999s21.666 -22.5 27.999 -36.5s9.5 -29 9.5 -45
c0 -24 -6.5 -44.333 -19.5 -61s-30.5 -28.667 -52.5 -36c24.667 -5.33301 45.334 -17 62.001 -35s25 -41 25 -69c0 -20.667 -4.16699 -39 -12.5 -55s-20 -29.667 -35 -41s-32.833 -20 -53.5 -26s-43.334 -9 -68.001 -9z" />
    <glyph glyph-name="acute" unicode="&#xb4;" horiz-adv-x="466" 
d="M213 537c-22.667 0 -41.333 9.33301 -56 28l160 149c13.333 -4 23.5 -11.167 30.5 -21.5s10.5 -21.833 10.5 -34.5c0 -11.333 -2.5 -22 -7.5 -32s-13.167 -19 -24.5 -27l-64 -45c-16.667 -11.333 -33 -17 -49 -17z" />
    <glyph glyph-name="mu" unicode="&#xb5;" horiz-adv-x="570" 
d="M109 -192c-10 0 -19.9971 0.5 -29.9971 1.5s-17.667 2.16699 -23 3.5v628c0 13.333 4 24.333 12 33s22.333 13 43 13c10.667 0 21 -0.5 31 -1.5s17.667 -2.16699 23 -3.5v-268c0 -22.667 3 -42.334 9 -59.001s14 -30.334 24 -41.001s21.667 -18.667 35 -24
s27.333 -8 42 -8c21.333 0 41.666 6.16699 60.999 18.5s36 30.166 50 53.499v287c0 13.333 4 24.333 12 33s22.333 13 43 13c10.667 0 21.167 -0.5 31.5 -1.5s18.166 -2.16699 23.499 -3.5v-252c0 -34.667 0.833008 -69.667 2.5 -105s6.5 -75.666 14.5 -120.999
c-5.33301 -2 -11.833 -4 -19.5 -6s-16.834 -3 -27.501 -3c-12 0 -21.5 1.33301 -28.5 4s-12.667 6.83398 -17 12.501s-7.66602 13.334 -9.99902 23.001s-4.5 21.5 -6.5 35.5h-1c-13.333 -24 -29.833 -43.5 -49.5 -58.5s-44.5 -22.5 -74.5 -22.5s-53.833 5.66699 -71.5 17
s-31.834 26 -42.501 44v-196c0 -13.333 -4 -24.333 -12 -33s-22.667 -13 -44 -13z" />
    <glyph glyph-name="paragraph" unicode="&#xb6;" horiz-adv-x="581" 
d="M345 -6c-7.33301 0 -14.667 0.330078 -22 0.99707s-13 1.33398 -17 2.00098v228h-50c-36 0 -68.667 5.16699 -98 15.5s-54.166 24.833 -74.499 43.5s-36.166 40.834 -47.499 66.501s-17 54.167 -17 85.5c0 30.667 5.5 59.167 16.5 85.5s26.833 49 47.5 68
s45.667 33.833 75 44.5s62 16 98 16h197c24.667 0 40.5 -4.83301 47.5 -14.5s10.5 -22.167 10.5 -37.5v-572c0 -9.33301 -2.83301 -17 -8.5 -23s-15.834 -9 -30.501 -9c-7.33301 0 -14.5 0.333008 -21.5 1s-12.5 1.33398 -16.5 2.00098v577h-50v-548
c0 -9.33301 -2.83301 -17 -8.5 -23s-15.834 -9 -30.501 -9zM305.999 302.997v271h-45c-52 0 -91.5 -12.5 -118.5 -37.5s-40.5 -58.5 -40.5 -100.5s13.5 -74.667 40.5 -98s66.5 -35 118.5 -35h45z" />
    <glyph glyph-name="periodcentered" unicode="&#xb7;" horiz-adv-x="213" 
d="M105 188c-17.333 0 -32.333 6.33301 -45 19s-19 27.667 -19 45c0 18 6.33301 33.333 19 46s27.667 19 45 19c18 0 33.5 -6.33301 46.5 -19s19.5 -28 19.5 -46c0 -17.333 -6.5 -32.333 -19.5 -45s-28.5 -19 -46.5 -19z" />
    <glyph glyph-name="cedilla" unicode="&#xb8;" horiz-adv-x="466" 
d="M249 -215c-16.667 0 -33.667 2.49902 -51 7.49902s-32.666 11.167 -45.999 18.5c0 13.333 2.83301 24.5 8.5 33.5s13.167 13.5 22.5 13.5s18.666 -2.16699 27.999 -6.5s22 -6.5 38 -6.5c13.333 0 24.666 3.33301 33.999 10s14 16.334 14 29.001
c0 9.33301 -4.16699 17.5 -12.5 24.5s-23.166 10.5 -44.499 10.5h-6c-9.33301 0 -16.666 2.33301 -21.999 7s-8 11 -8 19c0 4 1 8.66699 3 14l16 43h60l-13 -34c17.333 -0.666992 32.166 -3.66699 44.499 -9s22.333 -12 30 -20s13.167 -16.833 16.5 -26.5s5 -19.5 5 -29.5
c0 -32 -11 -56.333 -33 -73s-50 -25 -84 -25z" />
    <glyph glyph-name="onesuperior" unicode="&#xb9;" horiz-adv-x="390" 
d="M215 214c-7.33301 0 -14.833 0.333984 -22.5 1.00098s-13.5 1.66699 -17.5 3v340l-91 -45l-12.5 18c-5 7.33301 -7.5 16.666 -7.5 27.999c0 15.333 8.33301 27.333 25 36l108 55h59v-402c0 -9.33301 -3 -17.333 -9 -24s-16.667 -10 -32 -10z" />
    <glyph glyph-name="ordmasculine" unicode="&#xba;" horiz-adv-x="443" 
d="M226 257c-29.333 0 -56 5.16895 -80 15.502s-44.667 24.5 -62 42.5s-30.833 39 -40.5 63s-14.5 50 -14.5 78c0 27.333 4.83301 53.166 14.5 77.499s23.167 45.5 40.5 63.5s38 32.333 62 43s50.667 16 80 16c30 0 57 -5.16699 81 -15.5s44.5 -24.5 61.5 -42.5
s30.167 -39 39.5 -63s14 -49.667 14 -77s-4.66699 -53 -14 -77s-22.5 -45.333 -39.5 -64s-37.5 -33.334 -61.5 -44.001s-51 -16 -81 -16zM226 333.002c12.667 0 25.498 2.49902 38.498 7.49902s24.833 12.667 35.5 23s19.334 23.166 26.001 38.499s10 33.333 10 54
c0 19.333 -3 36.833 -9 52.5s-14 28.834 -24 39.501s-21.667 18.834 -35 24.501s-27.333 8.5 -42 8.5c-14 0 -27.5 -2.83301 -40.5 -8.5s-24.667 -13.834 -35 -24.501s-18.666 -23.834 -24.999 -39.501s-9.5 -33.167 -9.5 -52.5c0 -20 3.33301 -37.667 10 -53
s15.167 -28.166 25.5 -38.499s22 -18.166 35 -23.499s26.167 -8 39.5 -8z" />
    <glyph glyph-name="guillemotright" unicode="&#xbb;" horiz-adv-x="583" 
d="M76 43c-4 7.33301 -7.5 15.834 -10.5 25.501s-4.5 19.5 -4.5 29.5c0 15.333 3.5 28.833 10.5 40.5s15.5 20.5 25.5 26.5l120 73l-120 71c-10 6 -18.5 14.667 -25.5 26s-10.5 24.666 -10.5 39.999c0 10 1.5 19.833 4.5 29.5s6.5 18.167 10.5 25.5l235 -151v-77z
M318 43.001c-4 7.33301 -7.5 15.834 -10.5 25.501s-4.5 19.5 -4.5 29.5c0 15.333 3.5 28.833 10.5 40.5s15.5 20.5 25.5 26.5l120 73l-120 71c-10 6 -18.5 14.667 -25.5 26s-10.5 24.666 -10.5 39.999c0 10 1.5 19.833 4.5 29.5s6.5 18.167 10.5 25.5l235 -151v-77z" />
    <glyph glyph-name="onequarter" unicode="&#xbc;" horiz-adv-x="904" 
d="M705 87l-204 0.000976562c-3.33301 10 -5 23 -5 39c0 9.33301 1.66699 18.666 5 27.999s8.66602 19.333 15.999 30l181 250h89v-272h69c1.33301 -4 2.33301 -9.5 3 -16.5s1 -14.167 1 -21.5c0 -13.333 -2.66699 -22.833 -8 -28.5s-12.666 -8.5 -21.999 -8.5h-43v-59
c0 -9.33301 -3 -17.333 -9 -24s-16.667 -10 -32 -10c-7.33301 0 -15 0.333008 -23 1s-14 1.66699 -18 3v89zM512 553.001c5.33301 8.66699 11.167 14.499 17.5 17.499s13.166 4.5 20.499 4.5c11.333 0 20 -1.66699 26 -5s11.333 -6.66602 16 -9.99902l-278 -460
c-5.33301 -8 -11.166 -13.833 -17.499 -17.5s-12.833 -5.5 -19.5 -5.5c-16 0 -30.333 5 -43 15zM586.001 161h119v164zM180.001 214c-7.33301 0 -14.833 0.333984 -22.5 1.00098s-13.5 1.66699 -17.5 3v340l-91 -45l-12.5 18c-5 7.33301 -7.5 16.666 -7.5 27.999
c0 15.333 8.33301 27.333 25 36l108 55h59v-402c0 -9.33301 -3 -17.333 -9 -24s-16.667 -10 -32 -10z" />
    <glyph glyph-name="onehalf" unicode="&#xbd;" horiz-adv-x="917" 
d="M550 0c-0.666992 3.33301 -1.50195 8.66602 -2.50195 15.999s-1.5 14 -1.5 20c0 11.333 2 22.833 6 34.5s12.333 22.5 25 32.5l90 71l43.5 34c13 10 24 19.5 33 28.5s15.833 18.167 20.5 27.5s7 20 7 32c0 18 -6.16699 33 -18.5 45s-29.5 18 -51.5 18
c-13.333 0 -25.333 -1.66699 -36 -5s-20.5 -6.83301 -29.5 -10.5l-25 -10.5c-7.66699 -3.33301 -15.167 -5 -22.5 -5c-9.33301 0 -18.166 4.5 -26.499 13.5s-12.5 21.5 -12.5 37.5c0 7.33301 5.16699 14.5 15.5 21.5s23.5 13.333 39.5 19s33.167 10.334 51.5 14.001
s35.5 5.5 51.5 5.5c22.667 0 43.334 -3.5 62.001 -10.5s34.5 -16.667 47.5 -29s23.167 -27 30.5 -44s11 -35.5 11 -55.5s-3.5 -37.833 -10.5 -53.5s-16.5 -30 -28.5 -43s-26 -25.333 -42 -37l-52 -37.5l-69 -51h205c0.666992 -4 1.16699 -9.5 1.5 -16.5
s0.5 -14.167 0.5 -21.5c0 -14.667 -2.83301 -25 -8.5 -31s-13.167 -9 -22.5 -9h-282zM502.998 553c5.33301 8.66699 11.3311 14.499 17.998 17.499s13.667 4.5 21 4.5c10.667 0 18.834 -1.66699 24.501 -5s10.834 -6.66602 15.501 -9.99902l-277 -460
c-5.33301 -9.33301 -11.5 -15.5 -18.5 -18.5s-14.167 -4.5 -21.5 -4.5c-14 0 -27.333 5 -40 15zM179.996 213.999c-7.33301 0 -14.833 0.333984 -22.5 1.00098s-13.5 1.66699 -17.5 3v340l-91 -45l-12.5 18c-5 7.33301 -7.5 16.666 -7.5 27.999
c0 15.333 8.33301 27.333 25 36l108 55h59v-402c0 -9.33301 -3 -17.333 -9 -24s-16.667 -10 -32 -10z" />
    <glyph glyph-name="threequarters" unicode="&#xbe;" horiz-adv-x="1014" 
d="M853 -6c-7.33301 0 -15 0.333984 -23 1.00098s-14 1.66699 -18 3v89h-204c-3.33301 10 -5 23 -5 39c0 9.33301 1.66699 18.666 5 27.999s8.66602 19.333 15.999 30l181 250h89v-272h69c1.33301 -4 2.33301 -9.5 3 -16.5s1 -14.167 1 -21.5
c0 -13.333 -2.66699 -22.833 -8 -28.5s-12.666 -8.5 -21.999 -8.5h-43v-59c0 -9.33301 -3 -17.333 -9 -24s-16.667 -10 -32 -10zM366 79.001c-6 1.33301 -10.668 3.16602 -14.001 5.49902s-6.66602 4.83301 -9.99902 7.5l278 461c9.33301 14.667 22 22 38 22
c11.333 0 19.833 -1.66699 25.5 -5s10.834 -6.66602 15.501 -9.99902l-278 -460c-5.33301 -9.33301 -11.333 -15.5 -18 -18.5s-13.667 -4.5 -21 -4.5h-8c-2.66699 0 -5.33398 0.666992 -8.00098 2zM695.999 161.001h117v164zM199.999 212.001
c-28 0 -55.999 3.66406 -83.999 10.9971s-51.333 16.666 -70 27.999c0 17.333 3.33301 31.666 10 42.999s15.667 17 27 17c6.66699 0 13.5 -1.16699 20.5 -3.5l23 -8c8.33301 -3 18.333 -5.66699 30 -8s25.834 -3.5 42.501 -3.5c24.667 0 44.5 5.33301 59.5 16
s22.5 24.667 22.5 42c0 16.667 -6.5 30.834 -19.5 42.501s-36.167 17.5 -69.5 17.5h-56c-7.33301 0 -13.5 3 -18.5 9s-7.5 15 -7.5 27c0 5.33301 0.166992 11.333 0.5 18s0.833008 11.667 1.5 15h77c28.667 0 49.5 5 62.5 15s19.5 24 19.5 42c0 14 -5.66699 26.333 -17 37
s-30 16 -56 16c-14 0 -26.333 -1.16699 -37 -3.5s-20.334 -4.66602 -29.001 -6.99902s-16.167 -4.66602 -22.5 -6.99902s-12.166 -3.5 -17.499 -3.5c-13.333 0 -22.833 6.16699 -28.5 18.5s-8.83398 26.833 -9.50098 43.5c17.333 9.33301 38.666 17.333 63.999 24
s54 10 86 10c24.667 0 46.334 -3.16699 65.001 -9.5s34.167 -14.666 46.5 -24.999s21.666 -22.5 27.999 -36.5s9.5 -29 9.5 -45c0 -24 -6.5 -44.333 -19.5 -61s-30.167 -28.667 -51.5 -36c24.667 -5.33301 45.167 -17.166 61.5 -35.499s24.5 -41.5 24.5 -69.5
c0 -20 -4.16699 -38.167 -12.5 -54.5s-20 -30 -35 -41s-32.833 -19.5 -53.5 -25.5s-43 -9 -67 -9z" />
    <glyph glyph-name="questiondown" unicode="&#xbf;" horiz-adv-x="461" 
d="M236 -5c-34 0 -64.1709 4.16406 -90.5039 12.4971s-48.5 20 -66.5 35s-31.667 32.667 -41 53s-14 42.5 -14 66.5c0 18 2.5 34.5 7.5 49.5s11.667 28.333 20 40s18 22 29 31s22.167 16.5 33.5 22.5l47.5 26.5c13.667 7.66699 25.5 15.5 35.5 23.5s18 17 24 27s10 22 12 36
c1.33301 6 5 12 11 18s15.667 9 29 9c12 0 24.667 -2.33301 38 -7c0.666992 -5.33301 1.16699 -10.5 1.5 -15.5s0.5 -9.83301 0.5 -14.5c0 -25.333 -4.33301 -46.5 -13 -63.5s-19.667 -31.667 -33 -44s-27.666 -23.166 -42.999 -32.499s-29.666 -18.5 -42.999 -27.5
s-24.333 -18.667 -33 -29s-13 -22.833 -13 -37.5c0 -23.333 8.83301 -42.166 26.5 -56.499s42.5 -21.5 74.5 -21.5c22 0 40.833 1.83301 56.5 5.5s29.334 7.66699 41.001 12s22 8.33301 31 12s18.167 5.5 27.5 5.5c14.667 0 26.5 -6.66699 35.5 -20s13.833 -32.333 14.5 -57
c-12 -8 -25.833 -15.5 -41.5 -22.5s-32.5 -13.167 -50.5 -18.5s-36.667 -9.66602 -56 -12.999s-38.666 -5 -57.999 -5zM274.996 532.997c-18 0 -33.5 6.33301 -46.5 19s-19.5 28 -19.5 46c0 17.333 6.5 32.333 19.5 45s28.5 19 46.5 19c17.333 0 32.333 -6.33301 45 -19
s19 -27.667 19 -45c0 -18 -6.33301 -33.333 -19 -46s-27.667 -19 -45 -19z" />
    <glyph glyph-name="Agrave" unicode="&#xc0;" horiz-adv-x="603" 
d="M65 -6c-9.33301 0 -19.833 1.00098 -31.5 3.00098s-20.834 5 -27.501 9l221 639c12.667 3.33301 25.167 5.66602 37.5 6.99902s24.166 2 35.499 2c16 0 29.167 -1.16699 39.5 -3.5s19 -6 26 -11s12.833 -11.333 17.5 -19s9 -17.167 13 -28.5l201 -585
c-8 -3.33301 -17.167 -6.33301 -27.5 -9s-19.833 -4 -28.5 -4c-15.333 0 -28.666 1.83301 -39.999 5.5s-19.666 13.167 -24.999 28.5l-48 143h-256l-47 -143c-5.33301 -14.667 -13 -24 -23 -28s-22.333 -6 -37 -6zM204 267.001h193l-96 290zM315 682.001
c-16.667 0 -33.335 5.66699 -50.002 17l-64 45c-11.333 8 -19.666 17 -24.999 27s-7.66602 20.667 -6.99902 32c0 12.667 3.5 24.167 10.5 34.5s17.167 17.5 30.5 21.5l160 -149c-14.667 -18.667 -33 -28 -55 -28z" />
    <glyph glyph-name="Aacute" unicode="&#xc1;" horiz-adv-x="603" 
d="M65 -6c-9.33301 0 -19.833 1.00098 -31.5 3.00098s-20.834 5 -27.501 9l221 639c12.667 3.33301 25.167 5.66602 37.5 6.99902s24.166 2 35.499 2c16 0 29.167 -1.16699 39.5 -3.5s19 -6 26 -11s12.833 -11.333 17.5 -19s9 -17.167 13 -28.5l201 -585
c-8 -3.33301 -17.167 -6.33301 -27.5 -9s-19.833 -4 -28.5 -4c-15.333 0 -28.666 1.83301 -39.999 5.5s-19.666 13.167 -24.999 28.5l-48 143h-256l-47 -143c-5.33301 -14.667 -13 -24 -23 -28s-22.333 -6 -37 -6zM204 267.001h193l-96 290zM262 682.001
c-22.667 0 -41.333 9.33301 -56 28l160 149c13.333 -4 23.5 -11.167 30.5 -21.5s10.5 -21.833 10.5 -34.5c0 -11.333 -2.5 -22 -7.5 -32s-13.167 -19 -24.5 -27l-64 -45c-16.667 -11.333 -33 -17 -49 -17z" />
    <glyph glyph-name="Acircumflex" unicode="&#xc2;" horiz-adv-x="603" 
d="M65 -6c-9.33301 0 -19.833 1.00098 -31.5 3.00098s-20.834 5 -27.501 9l221 639c12.667 3.33301 25.167 5.66602 37.5 6.99902s24.166 2 35.499 2c16 0 29.167 -1.16699 39.5 -3.5s19 -6 26 -11s12.833 -11.333 17.5 -19s9 -17.167 13 -28.5l201 -585
c-8 -3.33301 -17.167 -6.33301 -27.5 -9s-19.833 -4 -28.5 -4c-15.333 0 -28.666 1.83301 -39.999 5.5s-19.666 13.167 -24.999 28.5l-48 143h-256l-47 -143c-5.33301 -14.667 -13 -24 -23 -28s-22.333 -6 -37 -6zM204 267.001h193l-96 290zM195 677.001
c-8.66699 0 -17.3291 1.00098 -25.9961 3.00098s-16 4.33301 -22 7l100 155c8 3.33301 16.667 6.16602 26 8.49902s18.666 3.5 27.999 3.5c19.333 0 33.666 -2.66699 42.999 -8s17.666 -13 24.999 -23l87 -135c-6.66699 -3.33301 -14.334 -6 -23.001 -8s-16.667 -3 -24 -3
c-13.333 0 -24.333 1.83301 -33 5.5s-15.667 10.167 -21 19.5l-53 90l-57 -94c-9.33301 -14 -26 -21 -50 -21z" />
    <glyph glyph-name="Atilde" unicode="&#xc3;" horiz-adv-x="603" 
d="M65 -6c-9.33301 0 -19.833 1.00098 -31.5 3.00098s-20.834 5 -27.501 9l221 639c12.667 3.33301 25.167 5.66602 37.5 6.99902s24.166 2 35.499 2c16 0 29.167 -1.16699 39.5 -3.5s19 -6 26 -11s12.833 -11.333 17.5 -19s9 -17.167 13 -28.5l201 -585
c-8 -3.33301 -17.167 -6.33301 -27.5 -9s-19.833 -4 -28.5 -4c-15.333 0 -28.666 1.83301 -39.999 5.5s-19.666 13.167 -24.999 28.5l-48 143h-256l-47 -143c-5.33301 -14.667 -13 -24 -23 -28s-22.333 -6 -37 -6zM204 267.001h193l-96 290zM354 699.001
c-12.667 0 -24.6689 2.5 -36.002 7.5s-22 10.5 -32 16.5l-28.5 16.5c-9 5 -17.5 7.5 -25.5 7.5c-7.33301 0 -13 -2.16699 -17 -6.5s-7.83301 -9.16602 -11.5 -14.499s-7.83398 -10.166 -12.501 -14.499s-11.334 -6.5 -20.001 -6.5s-15.667 1.5 -21 4.5s-11 7.83301 -17 14.5
c8 34 19.333 60.667 34 80s36 29 64 29c14 0 26.667 -2.5 38 -7.5s21.833 -10.5 31.5 -16.5l27.5 -16.5c8.66699 -5 17 -7.5 25 -7.5c7.33301 0 13 2.16699 17 6.5s7.83301 9.16602 11.5 14.499s7.83398 10.166 12.501 14.499s11.334 6.5 20.001 6.5s15.667 -1.5 21 -4.5
s11 -7.83301 17 -14.5c-11.333 -35.333 -23.666 -62.333 -36.999 -81s-33.666 -28 -60.999 -28z" />
    <glyph glyph-name="Adieresis" unicode="&#xc4;" horiz-adv-x="603" 
d="M65 -6c-9.33301 0 -19.833 1.00098 -31.5 3.00098s-20.834 5 -27.501 9l221 639c12.667 3.33301 25.167 5.66602 37.5 6.99902s24.166 2 35.499 2c16 0 29.167 -1.16699 39.5 -3.5s19 -6 26 -11s12.833 -11.333 17.5 -19s9 -17.167 13 -28.5l201 -585
c-8 -3.33301 -17.167 -6.33301 -27.5 -9s-19.833 -4 -28.5 -4c-15.333 0 -28.666 1.83301 -39.999 5.5s-19.666 13.167 -24.999 28.5l-48 143h-256l-47 -143c-5.33301 -14.667 -13 -24 -23 -28s-22.333 -6 -37 -6zM204 267.001h193l-96 290zM210 692.001
c-16.667 0 -30.834 5.83301 -42.501 17.5s-17.5 25.5 -17.5 41.5c0 17.333 5.83301 31.833 17.5 43.5s25.834 17.5 42.501 17.5s30.834 -5.83301 42.501 -17.5s17.5 -26.167 17.5 -43.5c0 -16 -5.83301 -29.833 -17.5 -41.5s-25.834 -17.5 -42.501 -17.5zM393 692.001
c-16.667 0 -30.834 5.83301 -42.501 17.5s-17.5 25.5 -17.5 41.5c0 17.333 5.83301 31.833 17.5 43.5s25.834 17.5 42.501 17.5s30.834 -5.83301 42.501 -17.5s17.5 -26.167 17.5 -43.5c0 -16 -5.83301 -29.833 -17.5 -41.5s-25.834 -17.5 -42.501 -17.5z" />
    <glyph glyph-name="Aring" unicode="&#xc5;" horiz-adv-x="603" 
d="M65 -6c-9.33301 0 -19.833 1.00098 -31.5 3.00098s-20.834 5 -27.501 9l221 639c12.667 3.33301 25.167 5.66602 37.5 6.99902s24.166 2 35.499 2c16 0 29.167 -1.16699 39.5 -3.5s19 -6 26 -11s12.833 -11.333 17.5 -19s9 -17.167 13 -28.5l201 -585
c-8 -3.33301 -17.167 -6.33301 -27.5 -9s-19.833 -4 -28.5 -4c-15.333 0 -28.666 1.83301 -39.999 5.5s-19.666 13.167 -24.999 28.5l-48 143h-256l-47 -143c-5.33301 -14.667 -13 -24 -23 -28s-22.333 -6 -37 -6zM204 267.001h193l-96 290zM301 682.001
c-30 0 -55.332 9.66504 -75.999 28.998s-31 44 -31 74c0 14.667 2.83301 28.167 8.5 40.5s13.334 23.166 23.001 32.499s21.167 16.666 34.5 21.999s27.666 8 42.999 8c14.667 0 28.667 -2.66699 42 -8s24.666 -12.666 33.999 -21.999s16.833 -20.166 22.5 -32.499
s8.5 -25.833 8.5 -40.5c0 -15.333 -2.83301 -29.166 -8.5 -41.499s-13.5 -23.166 -23.5 -32.499s-21.667 -16.5 -35 -21.5s-27.333 -7.5 -42 -7.5zM302.001 731.999c13.333 0 25.166 5 35.499 15s15.5 22.667 15.5 38s-5.16699 28 -15.5 38s-22.166 15 -35.499 15
c-14 0 -26 -5 -36 -15s-15 -22.667 -15 -38s5 -28 15 -38s22 -15 36 -15z" />
    <glyph glyph-name="AE" unicode="&#xc6;" horiz-adv-x="813" 
d="M69 -6c-9.33301 0 -19.998 0.99707 -31.998 2.99707s-21.667 5.33301 -29 10l244 642l513 1c1.33301 -5.33301 2.33301 -12.333 3 -21s1 -17.667 1 -27c0 -19.333 -4 -33.166 -12 -41.499s-18 -12.5 -30 -12.5h-291l44 -170h266l2.5 -19.5
c1 -7.66699 1.5 -16.167 1.5 -25.5c0 -19.333 -3.83301 -32.333 -11.5 -39s-17.167 -10 -28.5 -10h-206l48 -182h220c1.33301 -5.33301 2.5 -12.666 3.5 -21.999s1.5 -18.666 1.5 -27.999c0 -20 -4 -33.667 -12 -41s-18 -11 -30 -11h-216c-7.33301 0 -14.5 0.5 -21.5 1.5
s-13.333 3.16699 -19 6.5s-10.834 8.33301 -15.501 15s-8.33398 15.667 -11.001 27l-37 145h-222l-61 -166c-6.66699 -14.667 -15 -24.167 -25 -28.5s-22.667 -6.5 -38 -6.5zM229.002 290.997h162l-65 259z" />
    <glyph glyph-name="Ccedilla" unicode="&#xc7;" horiz-adv-x="562" 
d="M314 -215c-16.667 0 -33.666 2.49609 -50.999 7.49609s-32.666 11.167 -45.999 18.5c0 13.333 2.83301 24.5 8.5 33.5s13.167 13.5 22.5 13.5s18.666 -2.16699 27.999 -6.5s22 -6.5 38 -6.5c13.333 0 24.666 3.33301 33.999 10s14 16.334 14 29.001
c0 9.33301 -4.16699 17.5 -12.5 24.5s-23.166 10.5 -44.499 10.5h-6c-9.33301 0 -16.666 2.33301 -21.999 7s-8 11 -8 19c0 4 1 8.66699 3 14l13 35c-37.333 6.66699 -71.666 19.5 -102.999 38.5s-58.333 42.833 -81 71.5s-40.334 61.5 -53.001 98.5s-19 76.833 -19 119.5
c0 46.667 8 90.334 24 131.001s38.167 76 66.5 106s61.833 53.5 100.5 70.5s80.667 25.5 126 25.5c34 0 66.5 -3.83301 97.5 -11.5s60.5 -17.167 88.5 -28.5c0 -3.33301 0.166992 -6.5 0.5 -9.5s0.5 -6.16699 0.5 -9.5c0 -25.333 -4.33301 -43.833 -13 -55.5
s-20.334 -17.5 -35.001 -17.5c-6.66699 0 -14 1.33301 -22 4l-27.5 9c-10.333 3.33301 -22.5 6.33301 -36.5 9s-30.333 4 -49 4c-28.667 0 -55.5 -5.33301 -80.5 -16s-46.667 -25.667 -65 -45s-32.833 -43.166 -43.5 -71.499s-16 -59.833 -16 -94.5
c0 -36 5.33301 -68.167 16 -96.5s25.167 -52.333 43.5 -72s40 -34.5 65 -44.5s51.833 -15 80.5 -15c18.667 0 35.167 1.33301 49.5 4s27 5.66699 38 9s20.5 6.33301 28.5 9s15.667 4 23 4c14.667 0 26 -6.16699 34 -18.5s12 -32.166 12 -59.499v-14
c-28 -11.333 -58.167 -20.833 -90.5 -28.5s-66.5 -11.5 -102.5 -11.5l-7 -20c17.333 -0.666992 32.166 -3.66699 44.499 -9s22.333 -12 30 -20s13.167 -16.833 16.5 -26.5s5 -19.5 5 -29.5c0 -32 -11 -56.333 -33 -73s-50 -25 -84 -25z" />
    <glyph glyph-name="Egrave" unicode="&#xc8;" horiz-adv-x="504" 
d="M119 0c-24.667 0 -40.5 4.8291 -47.5 14.4961s-10.5 22.167 -10.5 37.5v546c0 15.333 3.5 27.833 10.5 37.5s22.833 14.5 47.5 14.5h336c1.33301 -5.33301 2.5 -12.666 3.5 -21.999s1.5 -18.666 1.5 -27.999c0 -19.333 -4.16699 -32.833 -12.5 -40.5
s-18.5 -11.5 -30.5 -11.5h-244v-174h258l2.5 -20.5c1 -8.33301 1.5 -17.166 1.5 -26.499c0 -18.667 -3.83301 -31.667 -11.5 -39s-17.167 -11 -28.5 -11h-222v-175h291l2.5 -20.5c1 -8.33301 1.5 -17.166 1.5 -26.499c0 -20 -4 -34.167 -12 -42.5s-18 -12.5 -30 -12.5h-307z
M307 681.996c-16.667 0 -33.335 5.66699 -50.002 17l-64 45c-11.333 8 -19.666 17 -24.999 27s-7.66602 20.667 -6.99902 32c0 12.667 3.5 24.167 10.5 34.5s17.167 17.5 30.5 21.5l160 -149c-14.667 -18.667 -33 -28 -55 -28z" />
    <glyph glyph-name="Eacute" unicode="&#xc9;" horiz-adv-x="504" 
d="M119 0c-24.667 0 -40.5 4.8291 -47.5 14.4961s-10.5 22.167 -10.5 37.5v546c0 15.333 3.5 27.833 10.5 37.5s22.833 14.5 47.5 14.5h336c1.33301 -5.33301 2.5 -12.666 3.5 -21.999s1.5 -18.666 1.5 -27.999c0 -19.333 -4.16699 -32.833 -12.5 -40.5
s-18.5 -11.5 -30.5 -11.5h-244v-174h258l2.5 -20.5c1 -8.33301 1.5 -17.166 1.5 -26.499c0 -18.667 -3.83301 -31.667 -11.5 -39s-17.167 -11 -28.5 -11h-222v-175h291l2.5 -20.5c1 -8.33301 1.5 -17.166 1.5 -26.499c0 -20 -4 -34.167 -12 -42.5s-18 -12.5 -30 -12.5h-307z
M219 681.996c-22.667 0 -41.333 9.33301 -56 28l160 149c13.333 -4 23.5 -11.167 30.5 -21.5s10.5 -21.833 10.5 -34.5c0 -11.333 -2.5 -22 -7.5 -32s-13.167 -19 -24.5 -27l-64 -45c-16.667 -11.333 -33 -17 -49 -17z" />
    <glyph glyph-name="Ecircumflex" unicode="&#xca;" horiz-adv-x="504" 
d="M119 0c-24.667 0 -40.5 4.8291 -47.5 14.4961s-10.5 22.167 -10.5 37.5v546c0 15.333 3.5 27.833 10.5 37.5s22.833 14.5 47.5 14.5h336c1.33301 -5.33301 2.5 -12.666 3.5 -21.999s1.5 -18.666 1.5 -27.999c0 -19.333 -4.16699 -32.833 -12.5 -40.5
s-18.5 -11.5 -30.5 -11.5h-244v-174h258l2.5 -20.5c1 -8.33301 1.5 -17.166 1.5 -26.499c0 -18.667 -3.83301 -31.667 -11.5 -39s-17.167 -11 -28.5 -11h-222v-175h291l2.5 -20.5c1 -8.33301 1.5 -17.166 1.5 -26.499c0 -20 -4 -34.167 -12 -42.5s-18 -12.5 -30 -12.5h-307z
M146 676.996c-8.66699 0 -17.3291 1.00098 -25.9961 3.00098s-16 4.33301 -22 7l100 155c8 3.33301 16.667 6.16602 26 8.49902s18.666 3.5 27.999 3.5c19.333 0 33.666 -2.66699 42.999 -8s17.666 -13 24.999 -23l87 -135c-6.66699 -3.33301 -14.334 -6 -23.001 -8
s-16.667 -3 -24 -3c-13.333 0 -24.333 1.83301 -33 5.5s-15.667 10.167 -21 19.5l-53 90l-57 -94c-9.33301 -14 -26 -21 -50 -21z" />
    <glyph glyph-name="Edieresis" unicode="&#xcb;" horiz-adv-x="504" 
d="M119 0c-24.667 0 -40.5 4.8291 -47.5 14.4961s-10.5 22.167 -10.5 37.5v546c0 15.333 3.5 27.833 10.5 37.5s22.833 14.5 47.5 14.5h336c1.33301 -5.33301 2.5 -12.666 3.5 -21.999s1.5 -18.666 1.5 -27.999c0 -19.333 -4.16699 -32.833 -12.5 -40.5
s-18.5 -11.5 -30.5 -11.5h-244v-174h258l2.5 -20.5c1 -8.33301 1.5 -17.166 1.5 -26.499c0 -18.667 -3.83301 -31.667 -11.5 -39s-17.167 -11 -28.5 -11h-222v-175h291l2.5 -20.5c1 -8.33301 1.5 -17.166 1.5 -26.499c0 -20 -4 -34.167 -12 -42.5s-18 -12.5 -30 -12.5h-307z
M169 697.996c-16.667 0 -30.834 5.83301 -42.501 17.5s-17.5 25.5 -17.5 41.5c0 17.333 5.83301 31.833 17.5 43.5s25.834 17.5 42.501 17.5s30.834 -5.83301 42.501 -17.5s17.5 -26.167 17.5 -43.5c0 -16 -5.83301 -29.833 -17.5 -41.5s-25.834 -17.5 -42.501 -17.5z
M352 697.996c-16.667 0 -30.834 5.83301 -42.501 17.5s-17.5 25.5 -17.5 41.5c0 17.333 5.83301 31.833 17.5 43.5s25.834 17.5 42.501 17.5s30.834 -5.83301 42.501 -17.5s17.5 -26.167 17.5 -43.5c0 -16 -5.83301 -29.833 -17.5 -41.5s-25.834 -17.5 -42.501 -17.5z" />
    <glyph glyph-name="Igrave" unicode="&#xcc;" horiz-adv-x="244" 
d="M121 -6c-10.667 0 -21.167 0.5 -31.5 1.5s-18.166 2.16699 -23.499 3.5v606c0 13.333 4.16699 24.5 12.5 33.5s23.166 13.5 44.499 13.5c10.667 0 21.167 -0.5 31.5 -1.5s18.166 -2.16699 23.499 -3.5v-606c0 -13.333 -4.16699 -24.5 -12.5 -33.5
s-23.166 -13.5 -44.499 -13.5zM141 681c-16.667 0 -33.335 5.66699 -50.002 17l-64 45c-11.333 8 -19.666 17 -24.999 27s-7.66602 20.667 -6.99902 32c0 12.667 3.5 24.167 10.5 34.5s17.167 17.5 30.5 21.5l160 -149c-14.667 -18.667 -33 -28 -55 -28z" />
    <glyph glyph-name="Iacute" unicode="&#xcd;" horiz-adv-x="244" 
d="M121 -6c-10.667 0 -21.167 0.5 -31.5 1.5s-18.166 2.16699 -23.499 3.5v606c0 13.333 4.16699 24.5 12.5 33.5s23.166 13.5 44.499 13.5c10.667 0 21.167 -0.5 31.5 -1.5s18.166 -2.16699 23.499 -3.5v-606c0 -13.333 -4.16699 -24.5 -12.5 -33.5
s-23.166 -13.5 -44.499 -13.5zM115 681c-22.667 0 -41.333 9.33301 -56 28l160 149c13.333 -4 23.5 -11.167 30.5 -21.5s10.5 -21.833 10.5 -34.5c0 -11.333 -2.5 -22 -7.5 -32s-13.167 -19 -24.5 -27l-64 -45c-16.667 -11.333 -33 -17 -49 -17z" />
    <glyph glyph-name="Icircumflex" unicode="&#xce;" horiz-adv-x="244" 
d="M121 -6c-10.667 0 -21.167 0.5 -31.5 1.5s-18.166 2.16699 -23.499 3.5v606c0 13.333 4.16699 24.5 12.5 33.5s23.166 13.5 44.499 13.5c10.667 0 21.167 -0.5 31.5 -1.5s18.166 -2.16699 23.499 -3.5v-606c0 -13.333 -4.16699 -24.5 -12.5 -33.5
s-23.166 -13.5 -44.499 -13.5zM18 677c-8.66699 0 -17.3291 1.00098 -25.9961 3.00098s-16 4.33301 -22 7l100 155c8 3.33301 16.667 6.16602 26 8.49902s18.666 3.5 27.999 3.5c19.333 0 33.666 -2.66699 42.999 -8s17.666 -13 24.999 -23l87 -135
c-6.66699 -3.33301 -14.334 -6 -23.001 -8s-16.667 -3 -24 -3c-13.333 0 -24.333 1.83301 -33 5.5s-15.667 10.167 -21 19.5l-53 90l-57 -94c-9.33301 -14 -26 -21 -50 -21z" />
    <glyph glyph-name="Idieresis" unicode="&#xcf;" horiz-adv-x="244" 
d="M121 -6c-10.667 0 -21.167 0.5 -31.5 1.5s-18.166 2.16699 -23.499 3.5v606c0 13.333 4.16699 24.5 12.5 33.5s23.166 13.5 44.499 13.5c10.667 0 21.167 -0.5 31.5 -1.5s18.166 -2.16699 23.499 -3.5v-606c0 -13.333 -4.16699 -24.5 -12.5 -33.5
s-23.166 -13.5 -44.499 -13.5zM34 698c-16.667 0 -30.834 5.83301 -42.501 17.5s-17.5 25.5 -17.5 41.5c0 17.333 5.83301 31.833 17.5 43.5s25.834 17.5 42.501 17.5s30.834 -5.83301 42.501 -17.5s17.5 -26.167 17.5 -43.5c0 -16 -5.83301 -29.833 -17.5 -41.5
s-25.834 -17.5 -42.501 -17.5zM217 698c-16.667 0 -30.834 5.83301 -42.501 17.5s-17.5 25.5 -17.5 41.5c0 17.333 5.83301 31.833 17.5 43.5s25.834 17.5 42.501 17.5s30.834 -5.83301 42.501 -17.5s17.5 -26.167 17.5 -43.5c0 -16 -5.83301 -29.833 -17.5 -41.5
s-25.834 -17.5 -42.501 -17.5z" />
    <glyph glyph-name="Eth" unicode="&#xd0;" horiz-adv-x="634" 
d="M119 0c-24.667 0 -40.4971 4.83398 -47.4971 14.501s-10.5 22.167 -10.5 37.5v231h-75c-1.33301 4.66699 -2.5 11 -3.5 19s-1.5 16 -1.5 24c0 17.333 3.66699 29.666 11 36.999s16.666 11 27.999 11h41v224c0 15.333 3.5 27.833 10.5 37.5s22.833 14.5 47.5 14.5h138
c54 0 102.667 -7.5 146 -22.5s80 -36.5 110 -64.5s53.167 -61.667 69.5 -101s24.5 -83.333 24.5 -132c0 -46 -8 -89 -24 -129s-39.333 -74.833 -70 -104.5s-67.834 -53.167 -111.501 -70.5s-92.834 -26 -147.501 -26h-135zM174.003 98.001h88.001c32 0 61.833 5 89.5 15
s52 24.833 73 44.5s37.5 44 49.5 73s18 62.833 18 101.5s-6.83301 72 -20.5 100s-32 50.833 -55 68.5s-49.833 30.667 -80.5 39s-63.334 12.5 -98.001 12.5h-64v-178h135c1.33301 -4.66699 2.33301 -11 3 -19s1 -16 1 -24c0 -11.333 -2 -20.333 -6 -27
s-9.16699 -11.5 -15.5 -14.5s-13.5 -4.83301 -21.5 -5.5s-15.667 -1 -23 -1h-73v-185z" />
    <glyph glyph-name="Ntilde" unicode="&#xd1;" horiz-adv-x="667" 
d="M118 -6c-10 0 -19.833 0.333008 -29.5 1s-17.167 1.66699 -22.5 3v644c7.33301 3.33301 16.666 5.83301 27.999 7.5s21.666 2.5 30.999 2.5c26.667 0 45.834 -3.5 57.501 -10.5s21.834 -17.167 30.501 -30.5l291 -450l-6 447c0 12 3.83301 22.333 11.5 31
s21.5 13 41.5 13c9.33301 0 18.833 -0.5 28.5 -1.5s17.167 -2.16699 22.5 -3.5v-644c-15.333 -6 -33.333 -9 -54 -9c-24 0 -41.667 3.5 -53 10.5s-20.666 16.167 -27.999 27.5l-301 469l6 -463c0 -12.667 -3.83301 -23.167 -11.5 -31.5s-21.834 -12.5 -42.501 -12.5z
M406 706c-12.667 0 -24.6689 2.5 -36.002 7.5s-22 10.5 -32 16.5l-28.5 16.5c-9 5 -17.5 7.5 -25.5 7.5c-7.33301 0 -13 -2.16699 -17 -6.5s-7.83301 -9.16602 -11.5 -14.499s-7.83398 -10.166 -12.501 -14.499s-11.334 -6.5 -20.001 -6.5s-15.667 1.5 -21 4.5
s-11 7.83301 -17 14.5c8 34 19.333 60.667 34 80s36 29 64 29c14 0 26.667 -2.5 38 -7.5s21.833 -10.5 31.5 -16.5l27.5 -16.5c8.66699 -5 17 -7.5 25 -7.5c7.33301 0 13 2.16699 17 6.5s7.83301 9.16602 11.5 14.499s7.83398 10.166 12.501 14.499s11.334 6.5 20.001 6.5
s15.667 -1.5 21 -4.5s11 -7.83301 17 -14.5c-11.333 -35.333 -23.666 -62.333 -36.999 -81s-33.666 -28 -60.999 -28z" />
    <glyph glyph-name="Ograve" unicode="&#xd2;" horiz-adv-x="694" 
d="M347 -13c-47.333 0 -90.666 8.83301 -129.999 26.5s-73 42 -101 73s-49.833 67 -65.5 108s-23.5 85.167 -23.5 132.5c0 46.667 7.83301 90.5 23.5 131.5s37.5 76.5 65.5 106.5s61.667 53.667 101 71s82.666 26 129.999 26s90.666 -8.66699 129.999 -26s73 -41 101 -71
s49.833 -65.333 65.5 -106s23.5 -84.667 23.5 -132s-7.83301 -91.5 -23.5 -132.5s-37.5 -77 -65.5 -108s-61.667 -55.333 -101 -73s-82.666 -26.5 -129.999 -26.5zM346 87c28 0 54.332 6.16895 78.999 18.502s46.334 29.166 65.001 50.499s33.334 46.666 44.001 75.999
s16 60.666 16 93.999s-5.16699 64.5 -15.5 93.5s-24.666 54 -42.999 75s-39.833 37.5 -64.5 49.5s-51.334 18 -80.001 18c-28 0 -54.333 -5.83301 -79 -17.5s-46.167 -28 -64.5 -49s-32.833 -45.833 -43.5 -74.5s-16 -60 -16 -94c0 -34.667 5.16699 -66.667 15.5 -96
s24.666 -54.666 42.999 -75.999s39.833 -38 64.5 -50s51 -18 79 -18zM380.999 682.002c-16.667 0 -33.335 5.66699 -50.002 17l-64 45c-11.333 8 -19.666 17 -24.999 27s-7.66602 20.667 -6.99902 32c0 12.667 3.5 24.167 10.5 34.5s17.167 17.5 30.5 21.5l160 -149
c-14.667 -18.667 -33 -28 -55 -28z" />
    <glyph glyph-name="Oacute" unicode="&#xd3;" horiz-adv-x="694" 
d="M347 -13c-47.333 0 -90.666 8.83301 -129.999 26.5s-73 42 -101 73s-49.833 67 -65.5 108s-23.5 85.167 -23.5 132.5c0 46.667 7.83301 90.5 23.5 131.5s37.5 76.5 65.5 106.5s61.667 53.667 101 71s82.666 26 129.999 26s90.666 -8.66699 129.999 -26s73 -41 101 -71
s49.833 -65.333 65.5 -106s23.5 -84.667 23.5 -132s-7.83301 -91.5 -23.5 -132.5s-37.5 -77 -65.5 -108s-61.667 -55.333 -101 -73s-82.666 -26.5 -129.999 -26.5zM346 87c28 0 54.332 6.16895 78.999 18.502s46.334 29.166 65.001 50.499s33.334 46.666 44.001 75.999
s16 60.666 16 93.999s-5.16699 64.5 -15.5 93.5s-24.666 54 -42.999 75s-39.833 37.5 -64.5 49.5s-51.334 18 -80.001 18c-28 0 -54.333 -5.83301 -79 -17.5s-46.167 -28 -64.5 -49s-32.833 -45.833 -43.5 -74.5s-16 -60 -16 -94c0 -34.667 5.16699 -66.667 15.5 -96
s24.666 -54.666 42.999 -75.999s39.833 -38 64.5 -50s51 -18 79 -18zM281.999 682.002c-22.667 0 -41.333 9.33301 -56 28l160 149c13.333 -4 23.5 -11.167 30.5 -21.5s10.5 -21.833 10.5 -34.5c0 -11.333 -2.5 -22 -7.5 -32s-13.167 -19 -24.5 -27l-64 -45
c-16.667 -11.333 -33 -17 -49 -17z" />
    <glyph glyph-name="Ocircumflex" unicode="&#xd4;" horiz-adv-x="694" 
d="M347 -13c-47.333 0 -90.666 8.83301 -129.999 26.5s-73 42 -101 73s-49.833 67 -65.5 108s-23.5 85.167 -23.5 132.5c0 46.667 7.83301 90.5 23.5 131.5s37.5 76.5 65.5 106.5s61.667 53.667 101 71s82.666 26 129.999 26s90.666 -8.66699 129.999 -26s73 -41 101 -71
s49.833 -65.333 65.5 -106s23.5 -84.667 23.5 -132s-7.83301 -91.5 -23.5 -132.5s-37.5 -77 -65.5 -108s-61.667 -55.333 -101 -73s-82.666 -26.5 -129.999 -26.5zM346 87c28 0 54.332 6.16895 78.999 18.502s46.334 29.166 65.001 50.499s33.334 46.666 44.001 75.999
s16 60.666 16 93.999s-5.16699 64.5 -15.5 93.5s-24.666 54 -42.999 75s-39.833 37.5 -64.5 49.5s-51.334 18 -80.001 18c-28 0 -54.333 -5.83301 -79 -17.5s-46.167 -28 -64.5 -49s-32.833 -45.833 -43.5 -74.5s-16 -60 -16 -94c0 -34.667 5.16699 -66.667 15.5 -96
s24.666 -54.666 42.999 -75.999s39.833 -38 64.5 -50s51 -18 79 -18zM239.999 677.002c-8.66699 0 -17.3291 1.00098 -25.9961 3.00098s-16 4.33301 -22 7l100 155c8 3.33301 16.667 6.16602 26 8.49902s18.666 3.5 27.999 3.5c19.333 0 33.666 -2.66699 42.999 -8
s17.666 -13 24.999 -23l87 -135c-6.66699 -3.33301 -14.334 -6 -23.001 -8s-16.667 -3 -24 -3c-13.333 0 -24.333 1.83301 -33 5.5s-15.667 10.167 -21 19.5l-53 90l-57 -94c-9.33301 -14 -26 -21 -50 -21z" />
    <glyph glyph-name="Otilde" unicode="&#xd5;" horiz-adv-x="694" 
d="M347 -13c-47.333 0 -90.666 8.83301 -129.999 26.5s-73 42 -101 73s-49.833 67 -65.5 108s-23.5 85.167 -23.5 132.5c0 46.667 7.83301 90.5 23.5 131.5s37.5 76.5 65.5 106.5s61.667 53.667 101 71s82.666 26 129.999 26s90.666 -8.66699 129.999 -26s73 -41 101 -71
s49.833 -65.333 65.5 -106s23.5 -84.667 23.5 -132s-7.83301 -91.5 -23.5 -132.5s-37.5 -77 -65.5 -108s-61.667 -55.333 -101 -73s-82.666 -26.5 -129.999 -26.5zM346 87c28 0 54.332 6.16895 78.999 18.502s46.334 29.166 65.001 50.499s33.334 46.666 44.001 75.999
s16 60.666 16 93.999s-5.16699 64.5 -15.5 93.5s-24.666 54 -42.999 75s-39.833 37.5 -64.5 49.5s-51.334 18 -80.001 18c-28 0 -54.333 -5.83301 -79 -17.5s-46.167 -28 -64.5 -49s-32.833 -45.833 -43.5 -74.5s-16 -60 -16 -94c0 -34.667 5.16699 -66.667 15.5 -96
s24.666 -54.666 42.999 -75.999s39.833 -38 64.5 -50s51 -18 79 -18zM410.999 703.002c-12.667 0 -24.6689 2.5 -36.002 7.5s-22 10.5 -32 16.5l-28.5 16.5c-9 5 -17.5 7.5 -25.5 7.5c-7.33301 0 -13 -2.16699 -17 -6.5s-7.83301 -9.16602 -11.5 -14.499
s-7.83398 -10.166 -12.501 -14.499s-11.334 -6.5 -20.001 -6.5s-15.667 1.5 -21 4.5s-11 7.83301 -17 14.5c8 34 19.333 60.667 34 80s36 29 64 29c14 0 26.667 -2.5 38 -7.5s21.833 -10.5 31.5 -16.5l27.5 -16.5c8.66699 -5 17 -7.5 25 -7.5c7.33301 0 13 2.16699 17 6.5
s7.83301 9.16602 11.5 14.499s7.83398 10.166 12.501 14.499s11.334 6.5 20.001 6.5s15.667 -1.5 21 -4.5s11 -7.83301 17 -14.5c-11.333 -35.333 -23.666 -62.333 -36.999 -81s-33.666 -28 -60.999 -28z" />
    <glyph glyph-name="Odieresis" unicode="&#xd6;" horiz-adv-x="694" 
d="M347 -13c-47.333 0 -90.666 8.83301 -129.999 26.5s-73 42 -101 73s-49.833 67 -65.5 108s-23.5 85.167 -23.5 132.5c0 46.667 7.83301 90.5 23.5 131.5s37.5 76.5 65.5 106.5s61.667 53.667 101 71s82.666 26 129.999 26s90.666 -8.66699 129.999 -26s73 -41 101 -71
s49.833 -65.333 65.5 -106s23.5 -84.667 23.5 -132s-7.83301 -91.5 -23.5 -132.5s-37.5 -77 -65.5 -108s-61.667 -55.333 -101 -73s-82.666 -26.5 -129.999 -26.5zM346 87c28 0 54.332 6.16895 78.999 18.502s46.334 29.166 65.001 50.499s33.334 46.666 44.001 75.999
s16 60.666 16 93.999s-5.16699 64.5 -15.5 93.5s-24.666 54 -42.999 75s-39.833 37.5 -64.5 49.5s-51.334 18 -80.001 18c-28 0 -54.333 -5.83301 -79 -17.5s-46.167 -28 -64.5 -49s-32.833 -45.833 -43.5 -74.5s-16 -60 -16 -94c0 -34.667 5.16699 -66.667 15.5 -96
s24.666 -54.666 42.999 -75.999s39.833 -38 64.5 -50s51 -18 79 -18zM254.999 698.002c-16.667 0 -30.834 5.83301 -42.501 17.5s-17.5 25.5 -17.5 41.5c0 17.333 5.83301 31.833 17.5 43.5s25.834 17.5 42.501 17.5s30.834 -5.83301 42.501 -17.5s17.5 -26.167 17.5 -43.5
c0 -16 -5.83301 -29.833 -17.5 -41.5s-25.834 -17.5 -42.501 -17.5zM437.999 698.002c-16.667 0 -30.834 5.83301 -42.501 17.5s-17.5 25.5 -17.5 41.5c0 17.333 5.83301 31.833 17.5 43.5s25.834 17.5 42.501 17.5s30.834 -5.83301 42.501 -17.5s17.5 -26.167 17.5 -43.5
c0 -16 -5.83301 -29.833 -17.5 -41.5s-25.834 -17.5 -42.501 -17.5z" />
    <glyph glyph-name="multiply" unicode="&#xd7;" 
d="M303 181l-137.001 -135.997c-8.66699 -8.66699 -17.667 -13 -27 -13c-6 0 -12 1.83301 -18 5.5s-11.5 8.33398 -16.5 14.001s-9.5 11.667 -13.5 18s-7 12.5 -9 18.5l157 156l-137 137c-8.66699 8.66699 -13 17.667 -13 27c0 6.66699 1.83301 13 5.5 19
s8.33398 11.667 14.001 17s11.5 10.333 17.5 15l16 12l162 -162l137 136c8.66699 8.66699 17.667 13 27 13c6 0 12 -1.83301 18 -5.5s11.667 -8.33398 17 -14.001s10 -11.834 14 -18.501s6.66699 -12.667 8 -18l-157 -156l136 -136c8.66699 -8.66699 13 -17.667 13 -27
c0 -6 -2 -12 -6 -18s-8.83301 -11.833 -14.5 -17.5s-11.5 -10.834 -17.5 -15.501s-11.333 -8.33398 -16 -11.001z" />
    <glyph glyph-name="Oslash" unicode="&#xd8;" horiz-adv-x="701" 
d="M110 -27c-10.667 0 -20.1689 0.831055 -28.502 2.49805s-16.166 3.83398 -23.499 6.50098l70 96c-32 32 -56.333 69 -73 111s-25 88 -25 138c0 46.667 7.83301 90.334 23.5 131.001s37.667 76 66 106s62 53.667 101 71s82.167 26 129.5 26c32 0 61.333 -3.83301 88 -11.5
s51.667 -18.5 75 -32.5l24 34c5.33301 7.33301 11.666 13.833 18.999 19.5s18 8.5 32 8.5c22.667 0 41 -3.33301 55 -10l-70 -98c30.667 -30 54.5 -65.667 71.5 -107s25.5 -87 25.5 -137c0 -47.333 -7.83301 -91.5 -23.5 -132.5s-37.667 -76.667 -66 -107
s-62.166 -54.333 -101.499 -72s-82.333 -26.5 -129 -26.5c-30 0 -58.5 3.83301 -85.5 11.5s-52.167 18.5 -75.5 32.5l-28 -35c-6 -7.33301 -12.667 -13.333 -20 -18s-17.666 -7 -30.999 -7zM349.998 87.998c26.667 0 52.332 6 76.999 18s46.5 28.5 65.5 49.5
s34 46.167 45 75.5s16.5 61 16.5 95c0 28 -4.33301 55 -13 81s-21.667 48.667 -39 68l-250 -357c28.667 -20 61.334 -30 98.001 -30zM448.996 530.998c-14.667 9.33301 -30.333 16.667 -47 22s-34 8 -52 8c-28 0 -54.333 -5.83301 -79 -17.5s-46.167 -28 -64.5 -49
s-32.833 -45.667 -43.5 -74s-16 -59.5 -16 -93.5c0 -32 4.5 -60.833 13.5 -86.5s21.167 -48.167 36.5 -67.5z" />
    <glyph glyph-name="Ugrave" unicode="&#xd9;" horiz-adv-x="647" 
d="M321 -13c-43.333 0 -81.4941 7.33301 -114.494 22s-60.833 34.834 -83.5 60.501s-39.834 55.5 -51.501 89.5s-17.5 70.667 -17.5 110v336c0 13.333 4.16699 24.5 12.5 33.5s23.166 13.5 44.499 13.5c10.667 0 21.167 -0.5 31.5 -1.5s18.166 -2.16699 23.499 -3.5v-381
c0 -54 13.5 -97.167 40.5 -129.5s65.5 -48.5 115.5 -48.5c48 0 86.167 16.167 114.5 48.5s42.5 75.5 42.5 129.5v339c0 13.333 4.16699 24.5 12.5 33.5s23.166 13.5 44.499 13.5c10.667 0 21 -0.5 31 -1.5s17.667 -2.16699 23 -3.5v-378c0 -39.333 -6 -76 -18 -110
s-29.333 -63.833 -52 -89.5s-50.834 -45.834 -84.501 -60.501s-71.834 -22 -114.501 -22zM377.006 682c-16.667 0 -33.335 5.66699 -50.002 17l-64 45c-11.333 8 -19.666 17 -24.999 27s-7.66602 20.667 -6.99902 32c0 12.667 3.5 24.167 10.5 34.5s17.167 17.5 30.5 21.5
l160 -149c-14.667 -18.667 -33 -28 -55 -28z" />
    <glyph glyph-name="Uacute" unicode="&#xda;" horiz-adv-x="647" 
d="M321 -13c-43.333 0 -81.4941 7.33301 -114.494 22s-60.833 34.834 -83.5 60.501s-39.834 55.5 -51.501 89.5s-17.5 70.667 -17.5 110v336c0 13.333 4.16699 24.5 12.5 33.5s23.166 13.5 44.499 13.5c10.667 0 21.167 -0.5 31.5 -1.5s18.166 -2.16699 23.499 -3.5v-381
c0 -54 13.5 -97.167 40.5 -129.5s65.5 -48.5 115.5 -48.5c48 0 86.167 16.167 114.5 48.5s42.5 75.5 42.5 129.5v339c0 13.333 4.16699 24.5 12.5 33.5s23.166 13.5 44.499 13.5c10.667 0 21 -0.5 31 -1.5s17.667 -2.16699 23 -3.5v-378c0 -39.333 -6 -76 -18 -110
s-29.333 -63.833 -52 -89.5s-50.834 -45.834 -84.501 -60.501s-71.834 -22 -114.501 -22zM285.006 682c-22.667 0 -41.333 9.33301 -56 28l160 149c13.333 -4 23.5 -11.167 30.5 -21.5s10.5 -21.833 10.5 -34.5c0 -11.333 -2.5 -22 -7.5 -32s-13.167 -19 -24.5 -27l-64 -45
c-16.667 -11.333 -33 -17 -49 -17z" />
    <glyph glyph-name="Ucircumflex" unicode="&#xdb;" horiz-adv-x="647" 
d="M321 -13c-43.333 0 -81.4941 7.33301 -114.494 22s-60.833 34.834 -83.5 60.501s-39.834 55.5 -51.501 89.5s-17.5 70.667 -17.5 110v336c0 13.333 4.16699 24.5 12.5 33.5s23.166 13.5 44.499 13.5c10.667 0 21.167 -0.5 31.5 -1.5s18.166 -2.16699 23.499 -3.5v-381
c0 -54 13.5 -97.167 40.5 -129.5s65.5 -48.5 115.5 -48.5c48 0 86.167 16.167 114.5 48.5s42.5 75.5 42.5 129.5v339c0 13.333 4.16699 24.5 12.5 33.5s23.166 13.5 44.499 13.5c10.667 0 21 -0.5 31 -1.5s17.667 -2.16699 23 -3.5v-378c0 -39.333 -6 -76 -18 -110
s-29.333 -63.833 -52 -89.5s-50.834 -45.834 -84.501 -60.501s-71.834 -22 -114.501 -22zM221.006 677c-8.66699 0 -17.3291 1.00098 -25.9961 3.00098s-16 4.33301 -22 7l100 155c8 3.33301 16.667 6.16602 26 8.49902s18.666 3.5 27.999 3.5
c19.333 0 33.666 -2.66699 42.999 -8s17.666 -13 24.999 -23l87 -135c-6.66699 -3.33301 -14.334 -6 -23.001 -8s-16.667 -3 -24 -3c-13.333 0 -24.333 1.83301 -33 5.5s-15.667 10.167 -21 19.5l-53 90l-57 -94c-9.33301 -14 -26 -21 -50 -21z" />
    <glyph glyph-name="Udieresis" unicode="&#xdc;" horiz-adv-x="647" 
d="M321 -13c-43.333 0 -81.4941 7.33301 -114.494 22s-60.833 34.834 -83.5 60.501s-39.834 55.5 -51.501 89.5s-17.5 70.667 -17.5 110v336c0 13.333 4.16699 24.5 12.5 33.5s23.166 13.5 44.499 13.5c10.667 0 21.167 -0.5 31.5 -1.5s18.166 -2.16699 23.499 -3.5v-381
c0 -54 13.5 -97.167 40.5 -129.5s65.5 -48.5 115.5 -48.5c48 0 86.167 16.167 114.5 48.5s42.5 75.5 42.5 129.5v339c0 13.333 4.16699 24.5 12.5 33.5s23.166 13.5 44.499 13.5c10.667 0 21 -0.5 31 -1.5s17.667 -2.16699 23 -3.5v-378c0 -39.333 -6 -76 -18 -110
s-29.333 -63.833 -52 -89.5s-50.834 -45.834 -84.501 -60.501s-71.834 -22 -114.501 -22zM235.006 698c-16.667 0 -30.834 5.83301 -42.501 17.5s-17.5 25.5 -17.5 41.5c0 17.333 5.83301 31.833 17.5 43.5s25.834 17.5 42.501 17.5s30.834 -5.83301 42.501 -17.5
s17.5 -26.167 17.5 -43.5c0 -16 -5.83301 -29.833 -17.5 -41.5s-25.834 -17.5 -42.501 -17.5zM418.006 698c-16.667 0 -30.834 5.83301 -42.501 17.5s-17.5 25.5 -17.5 41.5c0 17.333 5.83301 31.833 17.5 43.5s25.834 17.5 42.501 17.5s30.834 -5.83301 42.501 -17.5
s17.5 -26.167 17.5 -43.5c0 -16 -5.83301 -29.833 -17.5 -41.5s-25.834 -17.5 -42.501 -17.5z" />
    <glyph glyph-name="Yacute" unicode="&#xdd;" horiz-adv-x="577" 
d="M290 -6c-10.667 0 -21.1689 0.498047 -31.502 1.49805s-18.166 2.16699 -23.499 3.5v276l-236 361c9.33301 5.33301 20.333 9.33301 33 12s24 4 34 4c17.333 0 31.833 -2.16699 43.5 -6.5s21.5 -12.833 29.5 -25.5l156 -251l155 250c7.33301 12.667 16 21.334 26 26.001
s23 7 39 7c9.33301 0 20.333 -1.16699 33 -3.5s23 -6.16602 31 -11.499l-232 -361v-235c0 -13.333 -4.16699 -24.5 -12.5 -33.5s-23.166 -13.5 -44.499 -13.5zM275.998 681.998c-22.667 0 -41.333 9.33301 -56 28l160 149c13.333 -4 23.5 -11.167 30.5 -21.5
s10.5 -21.833 10.5 -34.5c0 -11.333 -2.5 -22 -7.5 -32s-13.167 -19 -24.5 -27l-64 -45c-16.667 -11.333 -33 -17 -49 -17z" />
    <glyph glyph-name="Thorn" unicode="&#xde;" horiz-adv-x="549" 
d="M121 -6c-10.667 0 -21.166 0.500977 -31.499 1.50098s-18.166 2.16699 -23.499 3.5v606c0 13.333 4.16699 24.5 12.5 33.5s23.166 13.5 44.499 13.5c10.667 0 21.167 -0.5 31.5 -1.5s18.166 -2.16699 23.499 -3.5v-92h93c43.333 0 81.166 -5.83301 113.499 -17.5
s59.333 -27.5 81 -47.5s37.834 -43.333 48.501 -70s16 -55.334 16 -86.001c0 -32.667 -6 -62.667 -18 -90s-28.833 -50.833 -50.5 -70.5s-47.834 -35 -78.501 -46s-64.667 -16.5 -102 -16.5h-103v-70c0 -13.333 -4.16699 -24.5 -12.5 -33.5s-23.166 -13.5 -44.499 -13.5z
M178.001 209.001l85 -0.000976562c52 0 90.167 11.167 114.5 33.5s36.5 52.5 36.5 90.5c0 38.667 -12.167 68.834 -36.5 90.501s-59.5 32.5 -105.5 32.5h-94v-247z" />
    <glyph glyph-name="germandbls" unicode="&#xdf;" horiz-adv-x="622" 
d="M394 -7c-30.667 0 -59.833 2.66992 -87.5 8.00293s-53.167 12.666 -76.5 21.999c-0.666992 4.66699 -1.16699 9 -1.5 13s-0.5 8 -0.5 12c0 16.667 3.16699 30.167 9.5 40.5s16.833 15.5 31.5 15.5c8 0 16.167 -1.16699 24.5 -3.5l27.5 -7.5
c10 -2.66699 21 -5.16699 33 -7.5s26 -3.5 42 -3.5c32 0 55 4.66699 69 14s21 22.666 21 39.999c0 12.667 -5 23.5 -15 32.5s-22.667 17.5 -38 25.5s-31.833 16.167 -49.5 24.5s-34.167 18.333 -49.5 30s-28 25.834 -38 42.501s-15 37.334 -15 62.001
c0 34 11.167 62.667 33.5 86s52.5 38.666 90.5 45.999c1.33301 3.33301 2 7 2 11v11c0 28 -11 51.333 -33 70s-53 28 -93 28c-42 0 -71.667 -9.66699 -89 -29s-26 -48 -26 -86v-450c0 -13.333 -3.83301 -24.333 -11.5 -33s-22.167 -13 -43.5 -13
c-10 0 -20.167 0.5 -30.5 1.5s-18.166 2.16699 -23.499 3.5v507c0 32.667 5.66699 61 17 85s26.833 43.667 46.5 59s42.5 26.666 68.5 33.999s54 11 84 11c38.667 0 72.5 -5 101.5 -15s53.167 -23.667 72.5 -41s33.833 -38 43.5 -62s14.5 -50.333 14.5 -79
c0 -15.333 -1.33301 -30.5 -4 -45.5s-6.66699 -27.167 -12 -36.5c-34.667 -0.666992 -59.834 -6.33398 -75.501 -17.001s-23.5 -23.667 -23.5 -39s5.16699 -28.166 15.5 -38.499s23 -19.666 38 -27.999s31.5 -16.333 49.5 -24s34.5 -17.167 49.5 -28.5s27.667 -25 38 -41
s15.5 -36 15.5 -60c0 -20 -4 -38.833 -12 -56.5s-20.333 -33.334 -37 -47.001s-37.667 -24.334 -63 -32.001s-55.333 -11.5 -90 -11.5z" />
    <glyph glyph-name="agrave" unicode="&#xe0;" horiz-adv-x="516" 
d="M191 -8c-26 0 -49.166 3.83594 -69.499 11.5029s-37.333 18.167 -51 31.5s-24 28.833 -31 46.5s-10.5 36.5 -10.5 56.5c0 24 4.16699 46 12.5 66s21.166 37.167 38.499 51.5s39.166 25.5 65.499 33.5s57.833 12 94.5 12c34.667 0 74 -4 118 -12v25
c0 32.667 -7.33301 55.834 -22 69.501s-41 20.5 -79 20.5c-19.333 0 -36.333 -1.16699 -51 -3.5s-27.834 -5 -39.501 -8l-31 -8c-9 -2.33301 -17.5 -3.5 -25.5 -3.5c-14 0 -24.333 6 -31 18s-10 26.667 -10 44v9.5c0 3 0.333008 6.16699 1 9.5
c22 7.33301 49.333 14.166 82 20.499s69 9.5 109 9.5c38.667 0 70.834 -4.33301 96.501 -13s46.334 -21.5 62.001 -38.5s26.667 -37.667 33 -62s9.5 -52.5 9.5 -84.5v-105c0 -20 0.166992 -38 0.5 -54s1.33301 -31 3 -45s3.83398 -27.833 6.50098 -41.5
s6.33398 -28.5 11.001 -44.5c-6 -2.66699 -13.5 -5 -22.5 -7s-19.5 -3 -31.5 -3c-13.333 0 -24.166 2.5 -32.499 7.5s-14.833 11.667 -19.5 20s-7.83398 18.166 -9.50098 29.499s-2.83398 23.333 -3.50098 36h-1c-8 -12.667 -17.167 -24.834 -27.5 -36.501
s-22.5 -21.834 -36.5 -30.501s-29.833 -15.5 -47.5 -20.5s-37.834 -7.5 -60.501 -7.5zM220.001 80.0029c32 0 59.833 9.33203 83.5 27.999s42.167 42 55.5 70v42c-34 6 -64.333 9 -91 9c-44 0 -76.833 -7.16699 -98.5 -21.5s-32.5 -34.833 -32.5 -61.5
c0 -21.333 7.66699 -37.666 23 -48.999s35.333 -17 60 -17zM298.001 537.002c-16.667 0 -33.335 5.66699 -50.002 17l-64 45c-11.333 8 -19.666 17 -24.999 27s-7.66602 20.667 -6.99902 32c0 12.667 3.5 24.167 10.5 34.5s17.167 17.5 30.5 21.5l160 -149
c-14.667 -18.667 -33 -28 -55 -28z" />
    <glyph glyph-name="aacute" unicode="&#xe1;" horiz-adv-x="516" 
d="M191 -8c-26 0 -49.166 3.83594 -69.499 11.5029s-37.333 18.167 -51 31.5s-24 28.833 -31 46.5s-10.5 36.5 -10.5 56.5c0 24 4.16699 46 12.5 66s21.166 37.167 38.499 51.5s39.166 25.5 65.499 33.5s57.833 12 94.5 12c34.667 0 74 -4 118 -12v25
c0 32.667 -7.33301 55.834 -22 69.501s-41 20.5 -79 20.5c-19.333 0 -36.333 -1.16699 -51 -3.5s-27.834 -5 -39.501 -8l-31 -8c-9 -2.33301 -17.5 -3.5 -25.5 -3.5c-14 0 -24.333 6 -31 18s-10 26.667 -10 44v9.5c0 3 0.333008 6.16699 1 9.5
c22 7.33301 49.333 14.166 82 20.499s69 9.5 109 9.5c38.667 0 70.834 -4.33301 96.501 -13s46.334 -21.5 62.001 -38.5s26.667 -37.667 33 -62s9.5 -52.5 9.5 -84.5v-105c0 -20 0.166992 -38 0.5 -54s1.33301 -31 3 -45s3.83398 -27.833 6.50098 -41.5
s6.33398 -28.5 11.001 -44.5c-6 -2.66699 -13.5 -5 -22.5 -7s-19.5 -3 -31.5 -3c-13.333 0 -24.166 2.5 -32.499 7.5s-14.833 11.667 -19.5 20s-7.83398 18.166 -9.50098 29.499s-2.83398 23.333 -3.50098 36h-1c-8 -12.667 -17.167 -24.834 -27.5 -36.501
s-22.5 -21.834 -36.5 -30.501s-29.833 -15.5 -47.5 -20.5s-37.834 -7.5 -60.501 -7.5zM220.001 80.0029c32 0 59.833 9.33203 83.5 27.999s42.167 42 55.5 70v42c-34 6 -64.333 9 -91 9c-44 0 -76.833 -7.16699 -98.5 -21.5s-32.5 -34.833 -32.5 -61.5
c0 -21.333 7.66699 -37.666 23 -48.999s35.333 -17 60 -17zM216.001 537.002c-22.667 0 -41.333 9.33301 -56 28l160 149c13.333 -4 23.5 -11.167 30.5 -21.5s10.5 -21.833 10.5 -34.5c0 -11.333 -2.5 -22 -7.5 -32s-13.167 -19 -24.5 -27l-64 -45
c-16.667 -11.333 -33 -17 -49 -17z" />
    <glyph glyph-name="acircumflex" unicode="&#xe2;" horiz-adv-x="516" 
d="M191 -8c-26 0 -49.166 3.83594 -69.499 11.5029s-37.333 18.167 -51 31.5s-24 28.833 -31 46.5s-10.5 36.5 -10.5 56.5c0 24 4.16699 46 12.5 66s21.166 37.167 38.499 51.5s39.166 25.5 65.499 33.5s57.833 12 94.5 12c34.667 0 74 -4 118 -12v25
c0 32.667 -7.33301 55.834 -22 69.501s-41 20.5 -79 20.5c-19.333 0 -36.333 -1.16699 -51 -3.5s-27.834 -5 -39.501 -8l-31 -8c-9 -2.33301 -17.5 -3.5 -25.5 -3.5c-14 0 -24.333 6 -31 18s-10 26.667 -10 44v9.5c0 3 0.333008 6.16699 1 9.5
c22 7.33301 49.333 14.166 82 20.499s69 9.5 109 9.5c38.667 0 70.834 -4.33301 96.501 -13s46.334 -21.5 62.001 -38.5s26.667 -37.667 33 -62s9.5 -52.5 9.5 -84.5v-105c0 -20 0.166992 -38 0.5 -54s1.33301 -31 3 -45s3.83398 -27.833 6.50098 -41.5
s6.33398 -28.5 11.001 -44.5c-6 -2.66699 -13.5 -5 -22.5 -7s-19.5 -3 -31.5 -3c-13.333 0 -24.166 2.5 -32.499 7.5s-14.833 11.667 -19.5 20s-7.83398 18.166 -9.50098 29.499s-2.83398 23.333 -3.50098 36h-1c-8 -12.667 -17.167 -24.834 -27.5 -36.501
s-22.5 -21.834 -36.5 -30.501s-29.833 -15.5 -47.5 -20.5s-37.834 -7.5 -60.501 -7.5zM220.001 80.0029c32 0 59.833 9.33203 83.5 27.999s42.167 42 55.5 70v42c-34 6 -64.333 9 -91 9c-44 0 -76.833 -7.16699 -98.5 -21.5s-32.5 -34.833 -32.5 -61.5
c0 -21.333 7.66699 -37.666 23 -48.999s35.333 -17 60 -17zM150.001 526.002c-8.66699 0 -17.3291 1.00098 -25.9961 3.00098s-16 4.33301 -22 7l100 155c8 3.33301 16.667 6.16602 26 8.49902s18.666 3.5 27.999 3.5c19.333 0 33.666 -2.66699 42.999 -8
s17.666 -13 24.999 -23l87 -135c-6.66699 -3.33301 -14.334 -6 -23.001 -8s-16.667 -3 -24 -3c-13.333 0 -24.333 1.83301 -33 5.5s-15.667 10.167 -21 19.5l-53 90l-57 -94c-9.33301 -14 -26 -21 -50 -21z" />
    <glyph glyph-name="atilde" unicode="&#xe3;" horiz-adv-x="516" 
d="M191 -8c-26 0 -49.166 3.83594 -69.499 11.5029s-37.333 18.167 -51 31.5s-24 28.833 -31 46.5s-10.5 36.5 -10.5 56.5c0 24 4.16699 46 12.5 66s21.166 37.167 38.499 51.5s39.166 25.5 65.499 33.5s57.833 12 94.5 12c34.667 0 74 -4 118 -12v25
c0 32.667 -7.33301 55.834 -22 69.501s-41 20.5 -79 20.5c-19.333 0 -36.333 -1.16699 -51 -3.5s-27.834 -5 -39.501 -8l-31 -8c-9 -2.33301 -17.5 -3.5 -25.5 -3.5c-14 0 -24.333 6 -31 18s-10 26.667 -10 44v9.5c0 3 0.333008 6.16699 1 9.5
c22 7.33301 49.333 14.166 82 20.499s69 9.5 109 9.5c38.667 0 70.834 -4.33301 96.501 -13s46.334 -21.5 62.001 -38.5s26.667 -37.667 33 -62s9.5 -52.5 9.5 -84.5v-105c0 -20 0.166992 -38 0.5 -54s1.33301 -31 3 -45s3.83398 -27.833 6.50098 -41.5
s6.33398 -28.5 11.001 -44.5c-6 -2.66699 -13.5 -5 -22.5 -7s-19.5 -3 -31.5 -3c-13.333 0 -24.166 2.5 -32.499 7.5s-14.833 11.667 -19.5 20s-7.83398 18.166 -9.50098 29.499s-2.83398 23.333 -3.50098 36h-1c-8 -12.667 -17.167 -24.834 -27.5 -36.501
s-22.5 -21.834 -36.5 -30.501s-29.833 -15.5 -47.5 -20.5s-37.834 -7.5 -60.501 -7.5zM220.001 80.0029c32 0 59.833 9.33203 83.5 27.999s42.167 42 55.5 70v42c-34 6 -64.333 9 -91 9c-44 0 -76.833 -7.16699 -98.5 -21.5s-32.5 -34.833 -32.5 -61.5
c0 -21.333 7.66699 -37.666 23 -48.999s35.333 -17 60 -17zM309.001 564.002c-12.667 0 -24.6689 2.5 -36.002 7.5s-22 10.5 -32 16.5l-28.5 16.5c-9 5 -17.5 7.5 -25.5 7.5c-7.33301 0 -13 -2.16699 -17 -6.5s-7.83301 -9.16602 -11.5 -14.499
s-7.83398 -10.166 -12.501 -14.499s-11.334 -6.5 -20.001 -6.5s-15.667 1.5 -21 4.5s-11 7.83301 -17 14.5c8 34 19.333 60.667 34 80s36 29 64 29c14 0 26.667 -2.5 38 -7.5s21.833 -10.5 31.5 -16.5l27.5 -16.5c8.66699 -5 17 -7.5 25 -7.5c7.33301 0 13 2.16699 17 6.5
s7.83301 9.16602 11.5 14.499s7.83398 10.166 12.501 14.499s11.334 6.5 20.001 6.5s15.667 -1.5 21 -4.5s11 -7.83301 17 -14.5c-11.333 -35.333 -23.666 -62.333 -36.999 -81s-33.666 -28 -60.999 -28z" />
    <glyph glyph-name="adieresis" unicode="&#xe4;" horiz-adv-x="516" 
d="M191 -8c-26 0 -49.166 3.83594 -69.499 11.5029s-37.333 18.167 -51 31.5s-24 28.833 -31 46.5s-10.5 36.5 -10.5 56.5c0 24 4.16699 46 12.5 66s21.166 37.167 38.499 51.5s39.166 25.5 65.499 33.5s57.833 12 94.5 12c34.667 0 74 -4 118 -12v25
c0 32.667 -7.33301 55.834 -22 69.501s-41 20.5 -79 20.5c-19.333 0 -36.333 -1.16699 -51 -3.5s-27.834 -5 -39.501 -8l-31 -8c-9 -2.33301 -17.5 -3.5 -25.5 -3.5c-14 0 -24.333 6 -31 18s-10 26.667 -10 44v9.5c0 3 0.333008 6.16699 1 9.5
c22 7.33301 49.333 14.166 82 20.499s69 9.5 109 9.5c38.667 0 70.834 -4.33301 96.501 -13s46.334 -21.5 62.001 -38.5s26.667 -37.667 33 -62s9.5 -52.5 9.5 -84.5v-105c0 -20 0.166992 -38 0.5 -54s1.33301 -31 3 -45s3.83398 -27.833 6.50098 -41.5
s6.33398 -28.5 11.001 -44.5c-6 -2.66699 -13.5 -5 -22.5 -7s-19.5 -3 -31.5 -3c-13.333 0 -24.166 2.5 -32.499 7.5s-14.833 11.667 -19.5 20s-7.83398 18.166 -9.50098 29.499s-2.83398 23.333 -3.50098 36h-1c-8 -12.667 -17.167 -24.834 -27.5 -36.501
s-22.5 -21.834 -36.5 -30.501s-29.833 -15.5 -47.5 -20.5s-37.834 -7.5 -60.501 -7.5zM220.001 80.0029c32 0 59.833 9.33203 83.5 27.999s42.167 42 55.5 70v42c-34 6 -64.333 9 -91 9c-44 0 -76.833 -7.16699 -98.5 -21.5s-32.5 -34.833 -32.5 -61.5
c0 -21.333 7.66699 -37.666 23 -48.999s35.333 -17 60 -17zM165.001 556.002c-16.667 0 -30.834 5.83301 -42.501 17.5s-17.5 25.5 -17.5 41.5c0 17.333 5.83301 31.833 17.5 43.5s25.834 17.5 42.501 17.5s30.834 -5.83301 42.501 -17.5s17.5 -26.167 17.5 -43.5
c0 -16 -5.83301 -29.833 -17.5 -41.5s-25.834 -17.5 -42.501 -17.5zM348.001 556.002c-16.667 0 -30.834 5.83301 -42.501 17.5s-17.5 25.5 -17.5 41.5c0 17.333 5.83301 31.833 17.5 43.5s25.834 17.5 42.501 17.5s30.834 -5.83301 42.501 -17.5s17.5 -26.167 17.5 -43.5
c0 -16 -5.83301 -29.833 -17.5 -41.5s-25.834 -17.5 -42.501 -17.5z" />
    <glyph glyph-name="aring" unicode="&#xe5;" horiz-adv-x="514" 
d="M191 -8c-26 0 -49.166 3.83594 -69.499 11.5029s-37.333 18.167 -51 31.5s-24 28.833 -31 46.5s-10.5 36.5 -10.5 56.5c0 24 4.16699 46 12.5 66s21.166 37.167 38.499 51.5s39.166 25.5 65.499 33.5s57.833 12 94.5 12c34.667 0 74 -4 118 -12v25
c0 32.667 -7.33301 55.834 -22 69.501s-41 20.5 -79 20.5c-19.333 0 -36.333 -1.16699 -51 -3.5s-27.834 -5 -39.501 -8l-31 -8c-9 -2.33301 -17.5 -3.5 -25.5 -3.5c-14 0 -24.333 6 -31 18s-10 26.667 -10 44v9.5c0 3 0.333008 6.16699 1 9.5
c22 7.33301 49.333 14.166 82 20.499s69 9.5 109 9.5c38.667 0 70.834 -4.33301 96.501 -13s46.334 -21.5 62.001 -38.5s26.667 -37.667 33 -62s9.5 -52.5 9.5 -84.5v-105c0 -20 0.166992 -38 0.5 -54s1.33301 -31 3 -45s3.83398 -27.833 6.50098 -41.5
s6.33398 -28.5 11.001 -44.5c-6 -2.66699 -13.5 -5 -22.5 -7s-19.5 -3 -31.5 -3c-13.333 0 -24.166 2.5 -32.499 7.5s-14.833 11.667 -19.5 20s-7.83398 18.166 -9.50098 29.499s-2.83398 23.333 -3.50098 36h-1c-8 -12.667 -17.167 -24.834 -27.5 -36.501
s-22.5 -21.834 -36.5 -30.501s-29.833 -15.5 -47.5 -20.5s-37.834 -7.5 -60.501 -7.5zM220.001 80.0029c32 0 59.833 9.33203 83.5 27.999s42.167 42 55.5 70v42c-34 6 -64.333 9 -91 9c-44 0 -76.833 -7.16699 -98.5 -21.5s-32.5 -34.833 -32.5 -61.5
c0 -21.333 7.66699 -37.666 23 -48.999s35.333 -17 60 -17zM257.001 531.002c-30 0 -55.333 9.66699 -76 29s-31 44 -31 74c0 14.667 2.83301 28.167 8.5 40.5s13.334 23.166 23.001 32.499s21.167 16.666 34.5 21.999s27.666 8 42.999 8c14.667 0 28.5 -2.66699 41.5 -8
s24.167 -12.666 33.5 -21.999s16.833 -20.166 22.5 -32.499s8.5 -25.833 8.5 -40.5c0 -30 -10.5 -54.667 -31.5 -74s-46.5 -29 -76.5 -29zM258.001 581.002c13.333 0 25.166 5 35.499 15s15.5 22.667 15.5 38s-5.16699 28 -15.5 38s-22.166 15 -35.499 15
c-14 0 -26.167 -5 -36.5 -15s-15.5 -22.667 -15.5 -38s5.16699 -28 15.5 -38s22.5 -15 36.5 -15z" />
    <glyph glyph-name="ae" unicode="&#xe6;" horiz-adv-x="842" 
d="M602 -11c-48 0 -88.833 8.83301 -122.5 26.5s-59.5 39.834 -77.5 66.501c-24 -28 -51.667 -50.333 -83 -67s-70 -25 -116 -25c-29.333 0 -55 4 -77 12s-40.167 18.667 -54.5 32s-25 28.5 -32 45.5s-10.5 34.167 -10.5 51.5c0 22.667 4.16699 43.667 12.5 63
s21.666 36 39.999 50s42.5 24.833 72.5 32.5s66.667 11.5 110 11.5c14 0 28.5 -0.5 43.5 -1.5s30.833 -2.16699 47.5 -3.5c0 3.33301 0.166992 6.33301 0.5 9s0.5 5.33398 0.5 8.00098c0 18.667 -2.83301 34.667 -8.5 48s-13.5 24.166 -23.5 32.499s-21.667 14.333 -35 18
s-27.333 5.5 -42 5.5c-18 0 -33.667 -1.16699 -47 -3.5s-25.5 -4.83301 -36.5 -7.5s-20.833 -5.16699 -29.5 -7.5s-17 -3.5 -25 -3.5c-14 0 -24.333 6.16699 -31 18.5s-10 27.5 -10 45.5v7.5c0 2.33301 0.333008 5.16602 1 8.49902c20 7.33301 44.5 14.166 73.5 20.499
s61.5 9.5 97.5 9.5c92 0 151.333 -30.333 178 -91c17.333 26.667 40 48.5 68 65.5s62 25.5 102 25.5c36.667 0 69.167 -6.83301 97.5 -20.5s52 -31.667 71 -54s33.333 -47.833 43 -76.5s14.5 -58 14.5 -88c0 -17.333 -1.66699 -34.333 -5 -51h-352
c5.33301 -40 21.5 -69.833 48.5 -89.5s61.5 -29.5 103.5 -29.5c18 0 33.833 1.33301 47.5 4s25.834 5.66699 36.501 9l28.5 9c8.33301 2.66699 16.5 4 24.5 4c12 0 22.167 -5.33301 30.5 -16s12.5 -25 12.5 -43c0 -3.33301 -0.166992 -6.83301 -0.5 -10.5
s-0.833008 -7.5 -1.5 -11.5c-19.333 -9.33301 -45.5 -18.166 -78.5 -26.499s-68.5 -12.5 -106.5 -12.5zM216 74c28 0 55.498 6.33105 82.498 18.998s49.167 32.334 66.5 59.001c-2.66699 6.66699 -5 16 -7 28s-3 22.667 -3 32c-11.333 0.666992 -22.166 1.16699 -32.499 1.5
s-20.166 0.5 -29.499 0.5c-29.333 0 -54 -1.5 -74 -4.5s-36 -7.66699 -48 -14s-20.667 -14.166 -26 -23.499s-8 -20.333 -8 -33c0 -17.333 7 -32.5 21 -45.5s33.333 -19.5 58 -19.5zM711.998 279.998c-2.66699 36 -14.833 66.167 -36.5 90.5s-51.5 36.5 -89.5 36.5
s-68 -12 -90 -36s-34.667 -54.333 -38 -91h254z" />
    <glyph glyph-name="ccedilla" unicode="&#xe7;" horiz-adv-x="456" 
d="M239 -215c-16.667 0 -33.666 2.49707 -50.999 7.49707s-32.666 11.167 -45.999 18.5c0 13.333 2.83301 24.5 8.5 33.5s13.167 13.5 22.5 13.5s18.666 -2.16699 27.999 -6.5s22 -6.5 38 -6.5c13.333 0 24.666 3.33301 33.999 10s14 16.334 14 29.001
c0 9.33301 -4.16699 17.5 -12.5 24.5s-23.166 10.5 -44.499 10.5h-6c-9.33301 0 -16.666 2.33301 -21.999 7s-8 11 -8 19c0 4 1 8.66699 3 14l15 40c-28.667 6 -54.334 16.333 -77.001 31s-42 32.667 -58 54s-28.333 45.333 -37 72s-13 54.667 -13 84
c0 34.667 5.83301 67 17.5 97s28.167 56.333 49.5 79s47 40.5 77 53.5s63.333 19.5 100 19.5c36 0 66.5 -3.66699 91.5 -11s47.5 -16.666 67.5 -27.999c0.666992 -3.33301 1 -6.5 1 -9.5v-8.5c0 -18.667 -4 -33.5 -12 -44.5s-18.333 -16.5 -31 -16.5
c-6 0 -12.167 1.16699 -18.5 3.5l-21 8c-7.66699 3 -16.834 5.83301 -27.501 8.5s-23.667 4 -39 4c-20 0 -38.667 -3.33301 -56 -10s-32.5 -16.667 -45.5 -30s-23.167 -29.666 -30.5 -48.999s-11 -41.333 -11 -66s3.66699 -46.667 11 -66s17.5 -35.5 30.5 -48.5
s28.167 -23 45.5 -30s36 -10.5 56 -10.5c16 0 29.667 1.33301 41 4s21.333 5.66699 30 9l23 9c6.66699 2.66699 13 4 19 4c13.333 0 23.833 -4.83301 31.5 -14.5s11.5 -24.167 11.5 -43.5v-10.5c0 -3.66699 -0.333008 -7.16699 -1 -10.5
c-23.333 -12.667 -48.166 -22.5 -74.499 -29.5s-57.5 -10.5 -93.5 -10.5l-9 -24c17.333 -0.666992 32.166 -3.66699 44.499 -9s22.333 -12 30 -20s13.167 -16.833 16.5 -26.5s5 -19.5 5 -29.5c0 -32 -11 -56.333 -33 -73s-50 -25 -84 -25z" />
    <glyph glyph-name="egrave" unicode="&#xe8;" horiz-adv-x="518" 
d="M285 -11c-40.667 0 -77.0029 6.33301 -109.003 19s-59 30.334 -81 53.001s-38.833 49.5 -50.5 80.5s-17.5 64.5 -17.5 100.5s6 69.167 18 99.5s28.5 56.666 49.5 78.999s45.833 39.833 74.5 52.5s59.667 19 93 19c37.333 0 70.333 -6.83301 99 -20.5
s52.5 -31.834 71.5 -54.501s33.333 -48.334 43 -77.001s14.5 -58 14.5 -88c0 -16.667 -1.66699 -33.334 -5 -50.001h-347c4.66699 -38.667 19.834 -68.167 45.501 -88.5s59.5 -30.5 101.5 -30.5c18 0 33.667 1.33301 47 4s25.333 5.83398 36 9.50098
s20.334 6.83398 29.001 9.50098s17.334 4 26.001 4c12 0 21.833 -5.33301 29.5 -16s11.5 -25 11.5 -43c0 -3.33301 -0.166992 -7 -0.5 -11s-0.833008 -8 -1.5 -12c-20 -9.33301 -45 -18.166 -75 -26.499s-64 -12.5 -102 -12.5zM387.997 280
c-3.33301 36 -15.499 66.167 -36.499 90.5s-50.833 36.5 -89.5 36.5c-36.667 0 -65.834 -11.667 -87.501 -35s-34.167 -54 -37.5 -92h251zM306.998 537c-16.667 0 -33.335 5.66699 -50.002 17l-64 45c-11.333 8 -19.666 17 -24.999 27s-7.66602 20.667 -6.99902 32
c0 12.667 3.5 24.167 10.5 34.5s17.167 17.5 30.5 21.5l160 -149c-14.667 -18.667 -33 -28 -55 -28z" />
    <glyph glyph-name="eacute" unicode="&#xe9;" horiz-adv-x="518" 
d="M285 -11c-40.667 0 -77.0029 6.33301 -109.003 19s-59 30.334 -81 53.001s-38.833 49.5 -50.5 80.5s-17.5 64.5 -17.5 100.5s6 69.167 18 99.5s28.5 56.666 49.5 78.999s45.833 39.833 74.5 52.5s59.667 19 93 19c37.333 0 70.333 -6.83301 99 -20.5
s52.5 -31.834 71.5 -54.501s33.333 -48.334 43 -77.001s14.5 -58 14.5 -88c0 -16.667 -1.66699 -33.334 -5 -50.001h-347c4.66699 -38.667 19.834 -68.167 45.501 -88.5s59.5 -30.5 101.5 -30.5c18 0 33.667 1.33301 47 4s25.333 5.83398 36 9.50098
s20.334 6.83398 29.001 9.50098s17.334 4 26.001 4c12 0 21.833 -5.33301 29.5 -16s11.5 -25 11.5 -43c0 -3.33301 -0.166992 -7 -0.5 -11s-0.833008 -8 -1.5 -12c-20 -9.33301 -45 -18.166 -75 -26.499s-64 -12.5 -102 -12.5zM387.997 280
c-3.33301 36 -15.499 66.167 -36.499 90.5s-50.833 36.5 -89.5 36.5c-36.667 0 -65.834 -11.667 -87.501 -35s-34.167 -54 -37.5 -92h251zM222.998 537c-22.667 0 -41.333 9.33301 -56 28l160 149c13.333 -4 23.5 -11.167 30.5 -21.5s10.5 -21.833 10.5 -34.5
c0 -11.333 -2.5 -22 -7.5 -32s-13.167 -19 -24.5 -27l-64 -45c-16.667 -11.333 -33 -17 -49 -17z" />
    <glyph glyph-name="ecircumflex" unicode="&#xea;" horiz-adv-x="518" 
d="M285 -11c-40.667 0 -77.0029 6.33301 -109.003 19s-59 30.334 -81 53.001s-38.833 49.5 -50.5 80.5s-17.5 64.5 -17.5 100.5s6 69.167 18 99.5s28.5 56.666 49.5 78.999s45.833 39.833 74.5 52.5s59.667 19 93 19c37.333 0 70.333 -6.83301 99 -20.5
s52.5 -31.834 71.5 -54.501s33.333 -48.334 43 -77.001s14.5 -58 14.5 -88c0 -16.667 -1.66699 -33.334 -5 -50.001h-347c4.66699 -38.667 19.834 -68.167 45.501 -88.5s59.5 -30.5 101.5 -30.5c18 0 33.667 1.33301 47 4s25.333 5.83398 36 9.50098
s20.334 6.83398 29.001 9.50098s17.334 4 26.001 4c12 0 21.833 -5.33301 29.5 -16s11.5 -25 11.5 -43c0 -3.33301 -0.166992 -7 -0.5 -11s-0.833008 -8 -1.5 -12c-20 -9.33301 -45 -18.166 -75 -26.499s-64 -12.5 -102 -12.5zM387.997 280
c-3.33301 36 -15.499 66.167 -36.499 90.5s-50.833 36.5 -89.5 36.5c-36.667 0 -65.834 -11.667 -87.501 -35s-34.167 -54 -37.5 -92h251zM150.998 526c-8.66699 0 -17.3291 1.00098 -25.9961 3.00098s-16 4.33301 -22 7l100 155c8 3.33301 16.667 6.16602 26 8.49902
s18.666 3.5 27.999 3.5c19.333 0 33.666 -2.66699 42.999 -8s17.666 -13 24.999 -23l87 -135c-6.66699 -3.33301 -14.334 -6 -23.001 -8s-16.667 -3 -24 -3c-13.333 0 -24.333 1.83301 -33 5.5s-15.667 10.167 -21 19.5l-53 90l-57 -94c-9.33301 -14 -26 -21 -50 -21z" />
    <glyph glyph-name="edieresis" unicode="&#xeb;" horiz-adv-x="518" 
d="M285 -11c-40.667 0 -77.0029 6.33301 -109.003 19s-59 30.334 -81 53.001s-38.833 49.5 -50.5 80.5s-17.5 64.5 -17.5 100.5s6 69.167 18 99.5s28.5 56.666 49.5 78.999s45.833 39.833 74.5 52.5s59.667 19 93 19c37.333 0 70.333 -6.83301 99 -20.5
s52.5 -31.834 71.5 -54.501s33.333 -48.334 43 -77.001s14.5 -58 14.5 -88c0 -16.667 -1.66699 -33.334 -5 -50.001h-347c4.66699 -38.667 19.834 -68.167 45.501 -88.5s59.5 -30.5 101.5 -30.5c18 0 33.667 1.33301 47 4s25.333 5.83398 36 9.50098
s20.334 6.83398 29.001 9.50098s17.334 4 26.001 4c12 0 21.833 -5.33301 29.5 -16s11.5 -25 11.5 -43c0 -3.33301 -0.166992 -7 -0.5 -11s-0.833008 -8 -1.5 -12c-20 -9.33301 -45 -18.166 -75 -26.499s-64 -12.5 -102 -12.5zM387.997 280
c-3.33301 36 -15.499 66.167 -36.499 90.5s-50.833 36.5 -89.5 36.5c-36.667 0 -65.834 -11.667 -87.501 -35s-34.167 -54 -37.5 -92h251zM165.998 556c-16.667 0 -30.834 5.83301 -42.501 17.5s-17.5 25.5 -17.5 41.5c0 17.333 5.83301 31.833 17.5 43.5
s25.834 17.5 42.501 17.5s30.834 -5.83301 42.501 -17.5s17.5 -26.167 17.5 -43.5c0 -16 -5.83301 -29.833 -17.5 -41.5s-25.834 -17.5 -42.501 -17.5zM348.998 556c-16.667 0 -30.834 5.83301 -42.501 17.5s-17.5 25.5 -17.5 41.5c0 17.333 5.83301 31.833 17.5 43.5
s25.834 17.5 42.501 17.5s30.834 -5.83301 42.501 -17.5s17.5 -26.167 17.5 -43.5c0 -16 -5.83301 -29.833 -17.5 -41.5s-25.834 -17.5 -42.501 -17.5z" />
    <glyph glyph-name="igrave" unicode="&#xec;" horiz-adv-x="225" 
d="M110 -6c-10 0 -20 0.5 -30 1.5s-17.667 2.16699 -23 3.5v442c0 13.333 4 24.333 12 33s22.333 13 43 13c10.667 0 21 -0.5 31 -1.5s17.667 -2.16699 23 -3.5v-442c0 -13.333 -4 -24.333 -12 -33s-22.667 -13 -44 -13zM140 537c-16.667 0 -33.335 5.66699 -50.002 17
l-64 45c-11.333 8 -19.666 17 -24.999 27s-7.66602 20.667 -6.99902 32c0 12.667 3.5 24.167 10.5 34.5s17.167 17.5 30.5 21.5l160 -149c-14.667 -18.667 -33 -28 -55 -28z" />
    <glyph glyph-name="iacute" unicode="&#xed;" horiz-adv-x="225" 
d="M110 -6c-10 0 -20 0.5 -30 1.5s-17.667 2.16699 -23 3.5v442c0 13.333 4 24.333 12 33s22.333 13 43 13c10.667 0 21 -0.5 31 -1.5s17.667 -2.16699 23 -3.5v-442c0 -13.333 -4 -24.333 -12 -33s-22.667 -13 -44 -13zM103 537c-22.667 0 -41.333 9.33301 -56 28l160 149
c13.333 -4 23.5 -11.167 30.5 -21.5s10.5 -21.833 10.5 -34.5c0 -11.333 -2.5 -22 -7.5 -32s-13.167 -19 -24.5 -27l-64 -45c-16.667 -11.333 -33 -17 -49 -17z" />
    <glyph glyph-name="icircumflex" unicode="&#xee;" horiz-adv-x="225" 
d="M110 -6c-10 0 -20 0.5 -30 1.5s-17.667 2.16699 -23 3.5v442c0 13.333 4 24.333 12 33s22.333 13 43 13c10.667 0 21 -0.5 31 -1.5s17.667 -2.16699 23 -3.5v-442c0 -13.333 -4 -24.333 -12 -33s-22.667 -13 -44 -13zM20 526
c-8.66699 0 -17.3291 1.00098 -25.9961 3.00098s-16 4.33301 -22 7l100 155c8 3.33301 16.667 6.16602 26 8.49902s18.666 3.5 27.999 3.5c19.333 0 33.666 -2.66699 42.999 -8s17.666 -13 24.999 -23l87 -135c-6.66699 -3.33301 -14.334 -6 -23.001 -8s-16.667 -3 -24 -3
c-13.333 0 -24.333 1.83301 -33 5.5s-15.667 10.167 -21 19.5l-53 90l-57 -94c-9.33301 -14 -26 -21 -50 -21z" />
    <glyph glyph-name="idieresis" unicode="&#xef;" horiz-adv-x="225" 
d="M110 -6c-10 0 -20 0.5 -30 1.5s-17.667 2.16699 -23 3.5v442c0 13.333 4 24.333 12 33s22.333 13 43 13c10.667 0 21 -0.5 31 -1.5s17.667 -2.16699 23 -3.5v-442c0 -13.333 -4 -24.333 -12 -33s-22.667 -13 -44 -13zM31 556c-16.667 0 -30.834 5.83301 -42.501 17.5
s-17.5 25.5 -17.5 41.5c0 17.333 5.83301 31.833 17.5 43.5s25.834 17.5 42.501 17.5s30.834 -5.83301 42.501 -17.5s17.5 -26.167 17.5 -43.5c0 -16 -5.83301 -29.833 -17.5 -41.5s-25.834 -17.5 -42.501 -17.5zM214 556c-16.667 0 -30.834 5.83301 -42.501 17.5
s-17.5 25.5 -17.5 41.5c0 17.333 5.83301 31.833 17.5 43.5s25.834 17.5 42.501 17.5s30.834 -5.83301 42.501 -17.5s17.5 -26.167 17.5 -43.5c0 -16 -5.83301 -29.833 -17.5 -41.5s-25.834 -17.5 -42.501 -17.5z" />
    <glyph glyph-name="eth" unicode="&#xf0;" horiz-adv-x="548" 
d="M271 -10c-37.333 0 -71.166 6.16602 -101.499 18.499s-56 29.333 -77 51s-37.167 46.834 -48.5 75.501s-17 59.334 -17 92.001c0 33.333 5.83301 64 17.5 92s27.834 52 48.501 72s44.5 35.667 71.5 47s56.167 17 87.5 17c32 0 59 -4.5 81 -13.5s44.667 -22.5 68 -40.5
c-12 56.667 -43 102.667 -93 138l-101 -55c-6.66699 -3.33301 -12.334 -5 -17.001 -5c-8.66699 0 -16.334 5.5 -23.001 16.5s-10.667 20.5 -12 28.5l93 50c-7.33301 3.33301 -15.5 6.33301 -24.5 9s-17.5 6 -25.5 10s-14.833 8.83301 -20.5 14.5s-8.5 13.167 -8.5 22.5
c0 16 7.33301 33.333 22 52c52.667 -12.667 101 -32.334 145 -59.001l77 42c6.66699 2.66699 11.667 4 15 4c8.66699 0 16.5 -4.66699 23.5 -14s11.167 -19.666 12.5 -30.999l-74 -40c42 -36 74.333 -79.5 97 -130.5s34 -108.833 34 -173.5
c0 -42 -5.83301 -80.833 -17.5 -116.5s-28.5 -66.334 -50.5 -92.001s-48.333 -45.667 -79 -60s-65 -21.5 -103 -21.5zM271 79.999c24.667 0 46.0039 5.00195 64.0039 15.002s32.667 23.5 44 40.5s19.666 36.167 24.999 57.5s8 43.666 8 66.999c0 14.667 -1 29 -3 43
c-17.333 20 -37 36.167 -59 48.5s-47 18.5 -75 18.5c-17.333 0 -34.333 -2.83301 -51 -8.5s-31.334 -14.167 -44.001 -25.5s-22.834 -26 -30.501 -44s-11.5 -39 -11.5 -63s3.66699 -45.333 11 -64s17.166 -34.334 29.499 -47.001s26.5 -22.167 42.5 -28.5
s32.667 -9.5 50 -9.5z" />
    <glyph glyph-name="ntilde" unicode="&#xf1;" horiz-adv-x="545" 
d="M111 -6c-10 0 -20.1689 0.5 -30.502 1.5s-18.166 2.16699 -23.499 3.5v480c7.33301 2 14.833 3.83301 22.5 5.5s16.167 2.5 25.5 2.5c20.667 0 35.5 -5.5 44.5 -16.5s13.5 -25.833 13.5 -44.5l1 -14c16.667 23.333 38.5 42.5 65.5 57.5s57.5 22.5 91.5 22.5
c54 0 96.667 -17.667 128 -53s47 -86 47 -152v-247c0 -13.333 -3.83301 -24.333 -11.5 -33s-22.167 -13 -43.5 -13c-10 0 -20.167 0.5 -30.5 1.5s-18.166 2.16699 -23.499 3.5v276c0 42.667 -9.33301 74 -28 94s-45 30 -79 30c-21.333 0 -42.833 -6 -64.5 -18
s-38.167 -28 -49.5 -48v-293c0 -13.333 -3.83301 -24.333 -11.5 -33s-22.167 -13 -43.5 -13zM326.998 564c-12.667 0 -24.6689 2.5 -36.002 7.5s-22 10.5 -32 16.5l-28.5 16.5c-9 5 -17.5 7.5 -25.5 7.5c-7.33301 0 -13 -2.16699 -17 -6.5s-7.83301 -9.16602 -11.5 -14.499
s-7.83398 -10.166 -12.501 -14.499s-11.334 -6.5 -20.001 -6.5s-15.667 1.5 -21 4.5s-11 7.83301 -17 14.5c8 34 19.333 60.667 34 80s36 29 64 29c14 0 26.667 -2.5 38 -7.5s21.833 -10.5 31.5 -16.5l27.5 -16.5c8.66699 -5 17 -7.5 25 -7.5c7.33301 0 13 2.16699 17 6.5
s7.83301 9.16602 11.5 14.499s7.83398 10.166 12.501 14.499s11.334 6.5 20.001 6.5s15.667 -1.5 21 -4.5s11 -7.83301 17 -14.5c-11.333 -35.333 -23.666 -62.333 -36.999 -81s-33.666 -28 -60.999 -28z" />
    <glyph glyph-name="ograve" unicode="&#xf2;" horiz-adv-x="552" 
d="M277 -10c-37.333 0 -71.334 6.50098 -102.001 19.501s-57 30.667 -79 53s-39 48.833 -51 79.5s-18 63.667 -18 99c0 34 6.16699 66.167 18.5 96.5s29.5 56.833 51.5 79.5s48.333 40.667 79 54s64.334 20 101.001 20s70.334 -6.66699 101.001 -20
s56.834 -31.333 78.501 -54s38.5 -49.167 50.5 -79.5s18 -62.5 18 -96.5s-5.83301 -66.333 -17.5 -97s-28.334 -57.334 -50.001 -80.001s-47.834 -40.667 -78.501 -54s-64.667 -20 -102 -20zM276.999 80.001c16.667 0 33.167 3.33398 49.5 10.001s31 16.667 44 30
s23.5 30 31.5 50s12 43.667 12 71c0 24.667 -3.66699 47 -11 67s-17.166 36.833 -29.499 50.5s-26.833 24.167 -43.5 31.5s-34.334 11 -53.001 11c-18 0 -35.333 -3.66699 -52 -11s-31.5 -17.833 -44.5 -31.5s-23.333 -30.5 -31 -50.5s-11.5 -42.333 -11.5 -67
c0 -26.667 4 -50 12 -70s18.5 -36.833 31.5 -50.5s27.833 -23.834 44.5 -30.501s33.667 -10 51 -10zM336.999 537.002c-16.667 0 -33.335 5.66699 -50.002 17l-64 45c-11.333 8 -19.666 17 -24.999 27s-7.66602 20.667 -6.99902 32c0 12.667 3.5 24.167 10.5 34.5
s17.167 17.5 30.5 21.5l160 -149c-14.667 -18.667 -33 -28 -55 -28z" />
    <glyph glyph-name="oacute" unicode="&#xf3;" horiz-adv-x="552" 
d="M277 -10c-37.333 0 -71.334 6.50098 -102.001 19.501s-57 30.667 -79 53s-39 48.833 -51 79.5s-18 63.667 -18 99c0 34 6.16699 66.167 18.5 96.5s29.5 56.833 51.5 79.5s48.333 40.667 79 54s64.334 20 101.001 20s70.334 -6.66699 101.001 -20
s56.834 -31.333 78.501 -54s38.5 -49.167 50.5 -79.5s18 -62.5 18 -96.5s-5.83301 -66.333 -17.5 -97s-28.334 -57.334 -50.001 -80.001s-47.834 -40.667 -78.501 -54s-64.667 -20 -102 -20zM276.999 80.001c16.667 0 33.167 3.33398 49.5 10.001s31 16.667 44 30
s23.5 30 31.5 50s12 43.667 12 71c0 24.667 -3.66699 47 -11 67s-17.166 36.833 -29.499 50.5s-26.833 24.167 -43.5 31.5s-34.334 11 -53.001 11c-18 0 -35.333 -3.66699 -52 -11s-31.5 -17.833 -44.5 -31.5s-23.333 -30.5 -31 -50.5s-11.5 -42.333 -11.5 -67
c0 -26.667 4 -50 12 -70s18.5 -36.833 31.5 -50.5s27.833 -23.834 44.5 -30.501s33.667 -10 51 -10zM211.999 537.002c-22.667 0 -41.333 9.33301 -56 28l160 149c13.333 -4 23.5 -11.167 30.5 -21.5s10.5 -21.833 10.5 -34.5c0 -11.333 -2.5 -22 -7.5 -32
s-13.167 -19 -24.5 -27l-64 -45c-16.667 -11.333 -33 -17 -49 -17z" />
    <glyph glyph-name="ocircumflex" unicode="&#xf4;" horiz-adv-x="552" 
d="M277 -10c-37.333 0 -71.334 6.50098 -102.001 19.501s-57 30.667 -79 53s-39 48.833 -51 79.5s-18 63.667 -18 99c0 34 6.16699 66.167 18.5 96.5s29.5 56.833 51.5 79.5s48.333 40.667 79 54s64.334 20 101.001 20s70.334 -6.66699 101.001 -20
s56.834 -31.333 78.501 -54s38.5 -49.167 50.5 -79.5s18 -62.5 18 -96.5s-5.83301 -66.333 -17.5 -97s-28.334 -57.334 -50.001 -80.001s-47.834 -40.667 -78.501 -54s-64.667 -20 -102 -20zM276.999 80.001c16.667 0 33.167 3.33398 49.5 10.001s31 16.667 44 30
s23.5 30 31.5 50s12 43.667 12 71c0 24.667 -3.66699 47 -11 67s-17.166 36.833 -29.499 50.5s-26.833 24.167 -43.5 31.5s-34.334 11 -53.001 11c-18 0 -35.333 -3.66699 -52 -11s-31.5 -17.833 -44.5 -31.5s-23.333 -30.5 -31 -50.5s-11.5 -42.333 -11.5 -67
c0 -26.667 4 -50 12 -70s18.5 -36.833 31.5 -50.5s27.833 -23.834 44.5 -30.501s33.667 -10 51 -10zM166.999 526.002c-8.66699 0 -17.3291 1.00098 -25.9961 3.00098s-16 4.33301 -22 7l100 155c8 3.33301 16.667 6.16602 26 8.49902s18.666 3.5 27.999 3.5
c19.333 0 33.666 -2.66699 42.999 -8s17.666 -13 24.999 -23l87 -135c-6.66699 -3.33301 -14.334 -6 -23.001 -8s-16.667 -3 -24 -3c-13.333 0 -24.333 1.83301 -33 5.5s-15.667 10.167 -21 19.5l-53 90l-57 -94c-9.33301 -14 -26 -21 -50 -21z" />
    <glyph glyph-name="otilde" unicode="&#xf5;" horiz-adv-x="552" 
d="M277 -10c-37.333 0 -71.334 6.50098 -102.001 19.501s-57 30.667 -79 53s-39 48.833 -51 79.5s-18 63.667 -18 99c0 34 6.16699 66.167 18.5 96.5s29.5 56.833 51.5 79.5s48.333 40.667 79 54s64.334 20 101.001 20s70.334 -6.66699 101.001 -20
s56.834 -31.333 78.501 -54s38.5 -49.167 50.5 -79.5s18 -62.5 18 -96.5s-5.83301 -66.333 -17.5 -97s-28.334 -57.334 -50.001 -80.001s-47.834 -40.667 -78.501 -54s-64.667 -20 -102 -20zM276.999 80.001c16.667 0 33.167 3.33398 49.5 10.001s31 16.667 44 30
s23.5 30 31.5 50s12 43.667 12 71c0 24.667 -3.66699 47 -11 67s-17.166 36.833 -29.499 50.5s-26.833 24.167 -43.5 31.5s-34.334 11 -53.001 11c-18 0 -35.333 -3.66699 -52 -11s-31.5 -17.833 -44.5 -31.5s-23.333 -30.5 -31 -50.5s-11.5 -42.333 -11.5 -67
c0 -26.667 4 -50 12 -70s18.5 -36.833 31.5 -50.5s27.833 -23.834 44.5 -30.501s33.667 -10 51 -10zM324.999 553.002c-12.667 0 -24.6689 2.5 -36.002 7.5s-22 10.5 -32 16.5l-28.5 16.5c-9 5 -17.5 7.5 -25.5 7.5c-7.33301 0 -13 -2.16699 -17 -6.5
s-7.83301 -9.16602 -11.5 -14.499s-7.83398 -10.166 -12.501 -14.499s-11.334 -6.5 -20.001 -6.5s-15.667 1.5 -21 4.5s-11 7.83301 -17 14.5c8 34 19.333 60.667 34 80s36 29 64 29c14 0 26.667 -2.5 38 -7.5s21.833 -10.5 31.5 -16.5l27.5 -16.5
c8.66699 -5 17 -7.5 25 -7.5c7.33301 0 13 2.16699 17 6.5s7.83301 9.16602 11.5 14.499s7.83398 10.166 12.501 14.499s11.334 6.5 20.001 6.5s15.667 -1.5 21 -4.5s11 -7.83301 17 -14.5c-11.333 -35.333 -23.666 -62.333 -36.999 -81s-33.666 -28 -60.999 -28z" />
    <glyph glyph-name="odieresis" unicode="&#xf6;" horiz-adv-x="552" 
d="M277 -10c-37.333 0 -71.334 6.50098 -102.001 19.501s-57 30.667 -79 53s-39 48.833 -51 79.5s-18 63.667 -18 99c0 34 6.16699 66.167 18.5 96.5s29.5 56.833 51.5 79.5s48.333 40.667 79 54s64.334 20 101.001 20s70.334 -6.66699 101.001 -20
s56.834 -31.333 78.501 -54s38.5 -49.167 50.5 -79.5s18 -62.5 18 -96.5s-5.83301 -66.333 -17.5 -97s-28.334 -57.334 -50.001 -80.001s-47.834 -40.667 -78.501 -54s-64.667 -20 -102 -20zM276.999 80.001c16.667 0 33.167 3.33398 49.5 10.001s31 16.667 44 30
s23.5 30 31.5 50s12 43.667 12 71c0 24.667 -3.66699 47 -11 67s-17.166 36.833 -29.499 50.5s-26.833 24.167 -43.5 31.5s-34.334 11 -53.001 11c-18 0 -35.333 -3.66699 -52 -11s-31.5 -17.833 -44.5 -31.5s-23.333 -30.5 -31 -50.5s-11.5 -42.333 -11.5 -67
c0 -26.667 4 -50 12 -70s18.5 -36.833 31.5 -50.5s27.833 -23.834 44.5 -30.501s33.667 -10 51 -10zM181.999 556.002c-16.667 0 -30.834 5.83301 -42.501 17.5s-17.5 25.5 -17.5 41.5c0 17.333 5.83301 31.833 17.5 43.5s25.834 17.5 42.501 17.5
s30.834 -5.83301 42.501 -17.5s17.5 -26.167 17.5 -43.5c0 -16 -5.83301 -29.833 -17.5 -41.5s-25.834 -17.5 -42.501 -17.5zM364.999 556.002c-16.667 0 -30.834 5.83301 -42.501 17.5s-17.5 25.5 -17.5 41.5c0 17.333 5.83301 31.833 17.5 43.5s25.834 17.5 42.501 17.5
s30.834 -5.83301 42.501 -17.5s17.5 -26.167 17.5 -43.5c0 -16 -5.83301 -29.833 -17.5 -41.5s-25.834 -17.5 -42.501 -17.5z" />
    <glyph glyph-name="divide" unicode="&#xf7;" 
d="M306 19c-16 0 -30 6 -42 18s-18 26 -18 42c0 17.333 6 32 18 44s26 18 42 18c17.333 0 32 -6 44 -18s18 -26.667 18 -44c0 -16 -6 -30 -18 -42s-26.667 -18 -44 -18zM59 215c-2.66699 10 -4 24.667 -4 44c0 18.667 3.83301 31 11.5 37s17.5 9 29.5 9h450
c2.66699 -10 4 -24.667 4 -44c0 -18.667 -3.83301 -31 -11.5 -37s-17.5 -9 -29.5 -9h-450zM306 382c-16.667 0 -31 6 -43 18s-18 26 -18 42c0 17.333 6 32 18 44s26.333 18 43 18c17.333 0 31.833 -6 43.5 -18s17.5 -26.667 17.5 -44c0 -16 -5.83301 -30 -17.5 -42
s-26.167 -18 -43.5 -18z" />
    <glyph glyph-name="oslash" unicode="&#xf8;" horiz-adv-x="558" 
d="M93 -35c-7.33301 0 -14.5 0.668945 -21.5 2.00195s-13.5 3 -19.5 5l57 82c-24.667 23.333 -43.667 50.833 -57 82.5s-20 66.5 -20 104.5c0 34 6 66.167 18 96.5s29 56.833 51 79.5s48.167 40.667 78.5 54s63.833 20 100.5 20c21.333 0 41.666 -2.33301 60.999 -7
s37.333 -11.334 54 -20.001l20 28c6.66699 9.33301 13.667 16.5 21 21.5s17.333 7.5 30 7.5c8.66699 0 16.167 -0.666992 22.5 -2s12.5 -3.33301 18.5 -6l-60 -84c25.333 -23.333 44.833 -51 58.5 -83s20.5 -67 20.5 -105c0 -34 -5.83301 -66.333 -17.5 -97
s-28.167 -57.334 -49.5 -80.001s-47.166 -40.667 -77.499 -54s-64.166 -20 -101.499 -20c-44.667 0 -84.334 9.33301 -119.001 28l-20 -27c-7.33301 -10 -14.333 -16.833 -21 -20.5s-15.667 -5.5 -27 -5.5zM280 80.002c16.667 0 33.5 3.50098 50.5 10.501
s32.167 17.167 45.5 30.5s24.166 30.166 32.499 50.499s12.5 43.5 12.5 69.5c0 18 -2.66699 36.167 -8 54.5s-13.666 33.833 -24.999 46.5l-173 -244c20 -12 41.667 -18 65 -18zM342 386.003c-9.33301 4.66699 -19.168 8.50098 -29.501 11.501s-21.166 4.5 -32.499 4.5
c-18 0 -35.5 -3.66699 -52.5 -11s-32.333 -18 -46 -32s-24.5 -31 -32.5 -51s-12 -42.333 -12 -67c0 -21.333 2.83301 -40.333 8.5 -57s13.167 -31.334 22.5 -44.001z" />
    <glyph glyph-name="ugrave" unicode="&#xf9;" horiz-adv-x="548" 
d="M225 -9c-24 0 -46.668 3.99902 -68.001 11.999s-40 20.333 -56 37s-28.667 37.834 -38 63.501s-14 56.167 -14 91.5v246c0 13.333 4 24.333 12 33s22.333 13 43 13c10.667 0 21 -0.5 31 -1.5s17.667 -2.16699 23 -3.5v-278c0 -42 9.83301 -72.667 29.5 -92
s44.834 -29 75.501 -29c22 0 43.333 6 64 18s38 29.667 52 53v287c0 13.333 4 24.333 12 33s22.333 13 43 13c10.667 0 21.167 -0.5 31.5 -1.5s18.166 -2.16699 23.499 -3.5v-293c0 -20 0.166992 -37.833 0.5 -53.5s1.16602 -30.5 2.49902 -44.5s3 -27.833 5 -41.5
s4.66699 -28.5 8 -44.5c-16 -7.33301 -34.667 -11 -56 -11c-17.333 0 -30 3 -38 9s-13.667 13.167 -17 21.5s-5.16602 17.5 -5.49902 27.5s-1.16602 19 -2.49902 27h-1c-17.333 -26 -38.833 -47.167 -64.5 -63.5s-57.5 -24.5 -95.5 -24.5zM333.999 533.999
c-16.667 0 -33.335 5.66699 -50.002 17l-64 45c-11.333 8 -19.666 17 -24.999 27s-7.66602 20.667 -6.99902 32c0 12.667 3.5 24.167 10.5 34.5s17.167 17.5 30.5 21.5l160 -149c-14.667 -18.667 -33 -28 -55 -28z" />
    <glyph glyph-name="uacute" unicode="&#xfa;" horiz-adv-x="548" 
d="M225 -9c-24 0 -46.668 3.99902 -68.001 11.999s-40 20.333 -56 37s-28.667 37.834 -38 63.501s-14 56.167 -14 91.5v246c0 13.333 4 24.333 12 33s22.333 13 43 13c10.667 0 21 -0.5 31 -1.5s17.667 -2.16699 23 -3.5v-278c0 -42 9.83301 -72.667 29.5 -92
s44.834 -29 75.501 -29c22 0 43.333 6 64 18s38 29.667 52 53v287c0 13.333 4 24.333 12 33s22.333 13 43 13c10.667 0 21.167 -0.5 31.5 -1.5s18.166 -2.16699 23.499 -3.5v-293c0 -20 0.166992 -37.833 0.5 -53.5s1.16602 -30.5 2.49902 -44.5s3 -27.833 5 -41.5
s4.66699 -28.5 8 -44.5c-16 -7.33301 -34.667 -11 -56 -11c-17.333 0 -30 3 -38 9s-13.667 13.167 -17 21.5s-5.16602 17.5 -5.49902 27.5s-1.16602 19 -2.49902 27h-1c-17.333 -26 -38.833 -47.167 -64.5 -63.5s-57.5 -24.5 -95.5 -24.5zM238.999 536.999
c-22.667 0 -41.333 9.33301 -56 28l160 149c13.333 -4 23.5 -11.167 30.5 -21.5s10.5 -21.833 10.5 -34.5c0 -11.333 -2.5 -22 -7.5 -32s-13.167 -19 -24.5 -27l-64 -45c-16.667 -11.333 -33 -17 -49 -17z" />
    <glyph glyph-name="ucircumflex" unicode="&#xfb;" horiz-adv-x="548" 
d="M225 -9c-24 0 -46.668 3.99902 -68.001 11.999s-40 20.333 -56 37s-28.667 37.834 -38 63.501s-14 56.167 -14 91.5v246c0 13.333 4 24.333 12 33s22.333 13 43 13c10.667 0 21 -0.5 31 -1.5s17.667 -2.16699 23 -3.5v-278c0 -42 9.83301 -72.667 29.5 -92
s44.834 -29 75.501 -29c22 0 43.333 6 64 18s38 29.667 52 53v287c0 13.333 4 24.333 12 33s22.333 13 43 13c10.667 0 21.167 -0.5 31.5 -1.5s18.166 -2.16699 23.499 -3.5v-293c0 -20 0.166992 -37.833 0.5 -53.5s1.16602 -30.5 2.49902 -44.5s3 -27.833 5 -41.5
s4.66699 -28.5 8 -44.5c-16 -7.33301 -34.667 -11 -56 -11c-17.333 0 -30 3 -38 9s-13.667 13.167 -17 21.5s-5.16602 17.5 -5.49902 27.5s-1.16602 19 -2.49902 27h-1c-17.333 -26 -38.833 -47.167 -64.5 -63.5s-57.5 -24.5 -95.5 -24.5zM163.999 525.999
c-8.66699 0 -17.3291 1.00098 -25.9961 3.00098s-16 4.33301 -22 7l100 155c8 3.33301 16.667 6.16602 26 8.49902s18.666 3.5 27.999 3.5c19.333 0 33.666 -2.66699 42.999 -8s17.666 -13 24.999 -23l87 -135c-6.66699 -3.33301 -14.334 -6 -23.001 -8s-16.667 -3 -24 -3
c-13.333 0 -24.333 1.83301 -33 5.5s-15.667 10.167 -21 19.5l-53 90l-57 -94c-9.33301 -14 -26 -21 -50 -21z" />
    <glyph glyph-name="udieresis" unicode="&#xfc;" horiz-adv-x="548" 
d="M225 -9c-24 0 -46.668 3.99902 -68.001 11.999s-40 20.333 -56 37s-28.667 37.834 -38 63.501s-14 56.167 -14 91.5v246c0 13.333 4 24.333 12 33s22.333 13 43 13c10.667 0 21 -0.5 31 -1.5s17.667 -2.16699 23 -3.5v-278c0 -42 9.83301 -72.667 29.5 -92
s44.834 -29 75.501 -29c22 0 43.333 6 64 18s38 29.667 52 53v287c0 13.333 4 24.333 12 33s22.333 13 43 13c10.667 0 21.167 -0.5 31.5 -1.5s18.166 -2.16699 23.499 -3.5v-293c0 -20 0.166992 -37.833 0.5 -53.5s1.16602 -30.5 2.49902 -44.5s3 -27.833 5 -41.5
s4.66699 -28.5 8 -44.5c-16 -7.33301 -34.667 -11 -56 -11c-17.333 0 -30 3 -38 9s-13.667 13.167 -17 21.5s-5.16602 17.5 -5.49902 27.5s-1.16602 19 -2.49902 27h-1c-17.333 -26 -38.833 -47.167 -64.5 -63.5s-57.5 -24.5 -95.5 -24.5zM178.999 555.999
c-16.667 0 -30.834 5.83301 -42.501 17.5s-17.5 25.5 -17.5 41.5c0 17.333 5.83301 31.833 17.5 43.5s25.834 17.5 42.501 17.5s30.834 -5.83301 42.501 -17.5s17.5 -26.167 17.5 -43.5c0 -16 -5.83301 -29.833 -17.5 -41.5s-25.834 -17.5 -42.501 -17.5zM361.999 555.999
c-16.667 0 -30.834 5.83301 -42.501 17.5s-17.5 25.5 -17.5 41.5c0 17.333 5.83301 31.833 17.5 43.5s25.834 17.5 42.501 17.5s30.834 -5.83301 42.501 -17.5s17.5 -26.167 17.5 -43.5c0 -16 -5.83301 -29.833 -17.5 -41.5s-25.834 -17.5 -42.501 -17.5z" />
    <glyph glyph-name="yacute" unicode="&#xfd;" horiz-adv-x="476" 
d="M167 -193c-12.667 0 -23.501 1 -32.501 3s-16.833 4.33301 -23.5 7l81 185l-187 472c7.33301 3.33301 16.333 6.33301 27 9s21.667 4 33 4c17.333 0 30.666 -2.83301 39.999 -8.5s15.666 -13.834 18.999 -24.501l118 -336l121 337
c4.66699 12.667 11.834 21.167 21.501 25.5s21.167 6.5 34.5 6.5c8.66699 0 18.334 -1.16699 29.001 -3.5s19.334 -5.16602 26.001 -8.49902l-244 -625c-10.667 -28.667 -31.667 -43 -63 -43zM217.999 537c-22.667 0 -41.333 9.33301 -56 28l160 149
c13.333 -4 23.5 -11.167 30.5 -21.5s10.5 -21.833 10.5 -34.5c0 -11.333 -2.5 -22 -7.5 -32s-13.167 -19 -24.5 -27l-64 -45c-16.667 -11.333 -33 -17 -49 -17z" />
    <glyph glyph-name="thorn" unicode="&#xfe;" horiz-adv-x="565" 
d="M111 -193c-10 0 -20.168 0.501953 -30.501 1.50195s-18.166 2.16699 -23.499 3.5v822c0 13.333 3.83301 24.333 11.5 33s22.167 13 43.5 13c10 0 20.167 -0.5 30.5 -1.5s18.166 -2.16699 23.499 -3.5v-251c14.667 17.333 34.834 33 60.501 47s57.5 21 95.5 21
c26 0 51.833 -5.16699 77.5 -15.5s48.834 -25.833 69.501 -46.5s37.334 -46.334 50.001 -77.001s19 -66.334 19 -107.001c0 -36 -5.33301 -69.333 -16 -100s-25.667 -57.5 -45 -80.5s-42.333 -41 -69 -54s-56 -19.5 -88 -19.5c-34.667 0 -65.334 7 -92.001 21
s-47.334 32.667 -62.001 56v-216c0 -13.333 -3.83301 -24.333 -11.5 -33s-22.167 -13 -43.5 -13zM289.999 85.002c38 0 70.1689 13.501 96.502 40.501s39.5 66.5 39.5 118.5c0 48 -12.833 86 -38.5 114s-58.834 42 -99.501 42c-28 0 -52.5 -6.33301 -73.5 -19
s-37.167 -29.667 -48.5 -51v-125c0 -17.333 3.16699 -33.333 9.5 -48s15 -27.334 26 -38.001s24.167 -19 39.5 -25s31.666 -9 48.999 -9z" />
    <glyph glyph-name="ydieresis" unicode="&#xff;" horiz-adv-x="476" 
d="M167 -193c-12.667 0 -23.501 1 -32.501 3s-16.833 4.33301 -23.5 7l81 185l-187 472c7.33301 3.33301 16.333 6.33301 27 9s21.667 4 33 4c17.333 0 30.666 -2.83301 39.999 -8.5s15.666 -13.834 18.999 -24.501l118 -336l121 337
c4.66699 12.667 11.834 21.167 21.501 25.5s21.167 6.5 34.5 6.5c8.66699 0 18.334 -1.16699 29.001 -3.5s19.334 -5.16602 26.001 -8.49902l-244 -625c-10.667 -28.667 -31.667 -43 -63 -43zM148.999 556c-16.667 0 -30.834 5.83301 -42.501 17.5s-17.5 25.5 -17.5 41.5
c0 17.333 5.83301 31.833 17.5 43.5s25.834 17.5 42.501 17.5s30.834 -5.83301 42.501 -17.5s17.5 -26.167 17.5 -43.5c0 -16 -5.83301 -29.833 -17.5 -41.5s-25.834 -17.5 -42.501 -17.5zM331.999 556c-16.667 0 -30.834 5.83301 -42.501 17.5s-17.5 25.5 -17.5 41.5
c0 17.333 5.83301 31.833 17.5 43.5s25.834 17.5 42.501 17.5s30.834 -5.83301 42.501 -17.5s17.5 -26.167 17.5 -43.5c0 -16 -5.83301 -29.833 -17.5 -41.5s-25.834 -17.5 -42.501 -17.5z" />
    <glyph glyph-name="dotlessi" unicode="&#x131;" horiz-adv-x="225" 
d="M110 -6c-10 0 -20 0.5 -30 1.5s-17.667 2.16699 -23 3.5v442c0 13.333 4 24.333 12 33s22.333 13 43 13c10.667 0 21 -0.5 31 -1.5s17.667 -2.16699 23 -3.5v-442c0 -13.333 -4 -24.333 -12 -33s-22.667 -13 -44 -13z" />
    <glyph glyph-name="OE" unicode="&#x152;" horiz-adv-x="879" 
d="M347 -10c-47.333 0 -90.501 8.66113 -129.501 25.9941s-72.667 41.333 -101 72s-50.333 66.334 -66 107.001s-23.5 84.667 -23.5 132c0 46.667 7.83301 90.334 23.5 131.001s37.667 76 66 106s62 53.5 101 70.5s82.167 25.5 129.5 25.5c16 0 30.333 -0.5 43 -1.5
s24.667 -2.16699 36 -3.5s22.5 -2.5 33.5 -3.5s22.5 -1.5 34.5 -1.5h346c1.33301 -5.33301 2.33301 -12.666 3 -21.999s1 -18.666 1 -27.999c0 -19.333 -4 -32.833 -12 -40.5s-18 -11.5 -30 -11.5h-244v-174h257c1.33301 -5.33301 2.33301 -12.166 3 -20.499
s1 -17.166 1 -26.499c0 -18.667 -3.83301 -31.667 -11.5 -39s-17.167 -11 -28.5 -11h-221v-175h290c1.33301 -5.33301 2.33301 -12.333 3 -21s1 -17.667 1 -27c0 -20 -4 -34 -12 -42s-18 -12 -30 -12h-315c-19.333 -0 -41.666 -1.66699 -66.999 -5s-52.333 -5 -81 -5z
M350.999 88.9941c19.333 0 36.3291 1.33398 50.9961 4.00098s29.334 6.66699 44.001 12v441c-13.333 4 -27.666 7.33301 -42.999 10s-32.666 4 -51.999 4c-29.333 0 -56.666 -5.83301 -81.999 -17.5s-47.166 -27.834 -65.499 -48.501s-32.833 -45.167 -43.5 -73.5
s-16 -59.5 -16 -93.5c0 -35.333 5.16699 -67.5 15.5 -96.5s24.833 -54 43.5 -75s40.667 -37.333 66 -49s52.666 -17.5 81.999 -17.5z" />
    <glyph glyph-name="oe" unicode="&#x153;" horiz-adv-x="902" 
d="M669 -11c-25.333 0 -48.335 2.83203 -69.002 8.49902s-39.5 13 -56.5 22s-32 19.333 -45 31s-24.167 23.5 -33.5 35.5c-9.33301 -12 -19.666 -23.833 -30.999 -35.5s-24.5 -22 -39.5 -31s-32.167 -16.167 -51.5 -21.5s-42 -8 -68 -8c-37.333 0 -71.166 6.5 -101.499 19.5
s-56.333 30.667 -78 53s-38.5 48.833 -50.5 79.5s-18 63.667 -18 99c0 34 6 66.167 18 96.5s29 56.833 51 79.5s48.167 40.667 78.5 54s63.833 20 100.5 20c24.667 0 47 -2.83301 67 -8.5s37.667 -13 53 -22s28.666 -19.333 39.999 -31s21 -23.167 29 -34.5
c8 11.333 17.667 22.833 29 34.5s24.5 22.167 39.5 31.5s32.167 16.833 51.5 22.5s41 8.5 65 8.5c36.667 0 69.167 -6.83301 97.5 -20.5s52 -31.667 71 -54s33.333 -47.833 43 -76.5s14.5 -58 14.5 -88c0 -7.33301 -0.333008 -15.833 -1 -25.5s-1.66699 -18.167 -3 -25.5
h-352c2 -20.667 7.33301 -38.5 16 -53.5s19.834 -27.5 33.501 -37.5s29 -17.333 46 -22s35.167 -7 54.5 -7c18 0 34 1.5 48 4.5s26.333 6.16699 37 9.5s20.167 6.5 28.5 9.5s16.5 4.5 24.5 4.5c12 0 22 -5.5 30 -16.5s12 -25.833 12 -44.5
c0 -3.33301 -0.166992 -6.83301 -0.5 -10.5s-0.833008 -7.16699 -1.5 -10.5c-19.333 -9.33301 -44.333 -18.166 -75 -26.499s-65 -12.5 -103 -12.5zM274.998 79.999c16.667 0 33.1699 3.33398 49.5029 10.001s31.166 16.667 44.499 30s24.166 30 32.499 50
s12.5 43.667 12.5 71c0 24.667 -3.66699 47 -11 67s-17.333 37 -30 51s-27.5 24.667 -44.5 32s-34.833 11 -53.5 11c-18 0 -35.333 -3.66699 -52 -11s-31.167 -18 -43.5 -32s-22.333 -31 -30 -51s-11.5 -42.333 -11.5 -67c0 -26.667 3.83301 -50 11.5 -70
s18 -36.833 31 -50.5s27.667 -23.834 44 -30.501s33.166 -10 50.499 -10zM773.001 280c-2.66699 36 -14.5 66.333 -35.5 91s-50.5 37 -88.5 37s-68.333 -11.833 -91 -35.5s-35.667 -54.5 -39 -92.5h254z" />
    <glyph glyph-name="Scaron" unicode="&#x160;" horiz-adv-x="542" 
d="M260 -9c-32.667 0 -68.166 3.33496 -106.499 10.002s-77.5 16.667 -117.5 30c0 2.66699 -0.166992 5 -0.5 7s-0.5 4.33301 -0.5 7c0 22 4 39.833 12 53.5s21 20.5 39 20.5c8.66699 0 19 -1.33301 31 -4l40.5 -9c15 -3.33301 31.667 -6.33301 50 -9s38.5 -4 60.5 -4
c46 0 78.833 8.33301 98.5 25s29.5 37.667 29.5 63c0 12.667 -2.33301 23.5 -7 32.5s-11.334 16.667 -20.001 23s-19.167 11.833 -31.5 16.5s-26.5 9.33398 -42.5 14.001l-83 23c-65.333 18 -110.833 43 -136.5 75s-38.5 68.667 -38.5 110
c0 20.667 3.66699 41.834 11 63.501s20 41.167 38 58.5s42 31.666 72 42.999s67.667 17 113 17c30.667 0 63.5 -3 98.5 -9s71.5 -15.667 109.5 -29v-14c0 -22.667 -3.83301 -40.334 -11.5 -53.001s-20.167 -19 -37.5 -19c-8.66699 0 -18.167 1.16699 -28.5 3.5
s-22 4.66602 -35 6.99902s-27.833 4.66602 -44.5 6.99902s-35.334 3.5 -56.001 3.5c-23.333 0 -42.666 -2.16699 -57.999 -6.5s-27.666 -10.166 -36.999 -17.499s-16 -15.5 -20 -24.5s-6 -18.167 -6 -27.5c0 -22 7.5 -38.667 22.5 -50s41.833 -22.333 80.5 -33l88 -25
c116.667 -30.667 175 -91.334 175 -182.001c0 -29.333 -4.83301 -56 -14.5 -80s-24.834 -44.667 -45.501 -62s-46.667 -30.833 -78 -40.5s-69 -14.5 -113 -14.5zM272.001 684.002c-18 0 -31.665 2.49902 -40.998 7.49902s-17 12.167 -23 21.5l-81 126
c6 3.33301 13 5.83301 21 7.5s15.667 2.5 23 2.5c12 0 22 -1.5 30 -4.5s14.667 -9.16699 20 -18.5l50 -84l53 88c4 6.66699 10.167 11.334 18.5 14.001s17.833 4.33398 28.5 5.00098c8 0 16.167 -0.833008 24.5 -2.5s15.166 -3.83398 20.499 -6.50098l-94 -145
c-16.667 -7.33301 -33.334 -11 -50.001 -11z" />
    <glyph glyph-name="scaron" unicode="&#x161;" horiz-adv-x="467" 
d="M231 -7c-32 0 -65.1689 3.17188 -99.502 9.50488s-67.5 15.166 -99.5 26.499c-0.666992 3.33301 -1.16699 6.83301 -1.5 10.5s-0.5 7.16699 -0.5 10.5c0 17.333 3.66699 31.333 11 42s17.666 16 30.999 16c8 0 17.5 -1.33301 28.5 -4s23 -5.83398 36 -9.50098
s27.5 -6.83398 43.5 -9.50098s33 -4 51 -4c20 0 36.167 1.5 48.5 4.5s21.833 7 28.5 12s11.167 10.667 13.5 17s3.5 13.166 3.5 20.499c0 14.667 -5.66699 25.834 -17 33.501s-31.333 15.5 -60 23.5l-71 20c-54 15.333 -91.667 34.166 -113 56.499s-32 50.166 -32 83.499
c0 18 3.66699 35.333 11 52s18.833 31.334 34.5 44.001s35.834 22.834 60.501 30.501s54.667 11.5 90 11.5c58 0 119 -10.667 183 -32c0 -3.33301 0.166992 -6.16602 0.5 -8.49902s0.5 -4.83301 0.5 -7.5c0 -19.333 -3.5 -34.5 -10.5 -45.5s-17.833 -16.5 -32.5 -16.5
s-33.167 3.5 -55.5 10.5s-50.833 10.5 -85.5 10.5c-32 0 -54.5 -4 -67.5 -12s-19.5 -19 -19.5 -33c0 -6 0.833008 -11.333 2.5 -16s5 -9 10 -13s12 -7.83301 21 -11.5s21.167 -7.5 36.5 -11.5l75 -21c54.667 -15.333 93.167 -34.333 115.5 -57s33.5 -51.334 33.5 -86.001
c0 -18 -3.16699 -35.833 -9.5 -53.5s-17.166 -33.334 -32.499 -47.001s-36.166 -24.834 -62.499 -33.501s-59.5 -13 -99.5 -13zM230.998 527.005c-18 0 -31.665 2.49902 -40.998 7.49902s-17 12.167 -23 21.5l-81 126c6 3.33301 13 5.83301 21 7.5s15.667 2.5 23 2.5
c12 0 22 -1.5 30 -4.5s14.667 -9.16699 20 -18.5l50 -84l53 88c4 6.66699 10.167 11.334 18.5 14.001s17.833 4.33398 28.5 5.00098c8 0 16.167 -0.833008 24.5 -2.5s15.166 -3.83398 20.499 -6.50098l-94 -145c-16.667 -7.33301 -33.334 -11 -50.001 -11z" />
    <glyph glyph-name="Ydieresis" unicode="&#x178;" horiz-adv-x="577" 
d="M290 -6c-10.667 0 -21.1689 0.498047 -31.502 1.49805s-18.166 2.16699 -23.499 3.5v276l-236 361c9.33301 5.33301 20.333 9.33301 33 12s24 4 34 4c17.333 0 31.833 -2.16699 43.5 -6.5s21.5 -12.833 29.5 -25.5l156 -251l155 250c7.33301 12.667 16 21.334 26 26.001
s23 7 39 7c9.33301 0 20.333 -1.16699 33 -3.5s23 -6.16602 31 -11.499l-232 -361v-235c0 -13.333 -4.16699 -24.5 -12.5 -33.5s-23.166 -13.5 -44.499 -13.5zM199.998 726.998c-16.667 0 -30.834 5.83301 -42.501 17.5s-17.5 25.5 -17.5 41.5
c0 17.333 5.83301 31.833 17.5 43.5s25.834 17.5 42.501 17.5s30.834 -5.83301 42.501 -17.5s17.5 -26.167 17.5 -43.5c0 -16 -5.83301 -29.833 -17.5 -41.5s-25.834 -17.5 -42.501 -17.5zM382.998 726.998c-16.667 0 -30.834 5.83301 -42.501 17.5s-17.5 25.5 -17.5 41.5
c0 17.333 5.83301 31.833 17.5 43.5s25.834 17.5 42.501 17.5s30.834 -5.83301 42.501 -17.5s17.5 -26.167 17.5 -43.5c0 -16 -5.83301 -29.833 -17.5 -41.5s-25.834 -17.5 -42.501 -17.5z" />
    <glyph glyph-name="Zcaron" unicode="&#x17d;" horiz-adv-x="535" 
d="M37 0c-1.33301 5.33301 -2.66602 12.002 -3.99902 20.002s-2 17.333 -2 28c0 12 2 23.667 6 35s10.667 23.666 20 36.999l308 428h-287c-12.667 0 -23.167 3.66699 -31.5 11s-12.5 21.333 -12.5 42c0 10 0.333008 19.333 1 28s1.66699 15.667 3 21h453
c1.33301 -5.33301 2.66602 -12.833 3.99902 -22.5s2 -19.167 2 -28.5c0 -13.333 -2 -26 -6 -38s-11 -25 -21 -39l-304 -420h333c1.33301 -5.33301 2.33301 -12.333 3 -21s1 -17.667 1 -27c0 -20.667 -4.16699 -34.834 -12.5 -42.501s-18.833 -11.5 -31.5 -11.5h-422z
M272 684.002c-18 0 -31.665 2.49902 -40.998 7.49902s-17 12.167 -23 21.5l-81 126c6 3.33301 13 5.83301 21 7.5s15.667 2.5 23 2.5c12 0 22 -1.5 30 -4.5s14.667 -9.16699 20 -18.5l50 -84l53 88c4 6.66699 10.167 11.334 18.5 14.001s17.833 4.33398 28.5 5.00098
c8 0 16.167 -0.833008 24.5 -2.5s15.166 -3.83398 20.499 -6.50098l-94 -145c-16.667 -7.33301 -33.334 -11 -50.001 -11z" />
    <glyph glyph-name="zcaron" unicode="&#x17e;" horiz-adv-x="451" 
d="M31 0c-1.33301 4.66699 -2.50195 11.001 -3.50195 19.001s-1.5 16 -1.5 24c0 10.667 1.5 21.167 4.5 31.5s9.16699 21.166 18.5 32.499l236 287h-214c-11.333 0 -20.666 3.33301 -27.999 10s-11 19 -11 37c0 8 0.5 15.833 1.5 23.5s2.16699 13.834 3.5 18.501h378
c1.33301 -4.66699 2.5 -10.834 3.5 -18.501s1.5 -15.5 1.5 -23.5c0 -9.33301 -1.5 -19.5 -4.5 -30.5s-8.83301 -21.833 -17.5 -32.5l-238 -290h260c3.33301 -10 5 -23.667 5 -41c0 -18 -3.66699 -30.333 -11 -37s-16.666 -10 -27.999 -10h-355zM230.998 527.001
c-18 0 -31.665 2.49902 -40.998 7.49902s-17 12.167 -23 21.5l-81 126c6 3.33301 13 5.83301 21 7.5s15.667 2.5 23 2.5c12 0 22 -1.5 30 -4.5s14.667 -9.16699 20 -18.5l50 -84l53 88c4 6.66699 10.167 11.334 18.5 14.001s17.833 4.33398 28.5 5.00098
c8 0 16.167 -0.833008 24.5 -2.5s15.166 -3.83398 20.499 -6.50098l-94 -145c-16.667 -7.33301 -33.334 -11 -50.001 -11z" />
    <glyph glyph-name="florin" unicode="&#x192;" horiz-adv-x="368" 
d="M-33 -152c-24.667 0 -48.666 3.00098 -71.999 9.00098s-42.333 12.667 -57 20c-0.666992 3.33301 -1 6.16602 -1 8.49902v8.5c0 20.667 5 36.167 15 46.5s22 15.5 36 15.5c11.333 0 22.666 -2.33301 33.999 -7s25.666 -7 42.999 -7c20.667 0 36.834 5 48.501 15
s19.5 27.333 23.5 52l59 377h-86c-1.33301 4.66699 -2.5 10.834 -3.5 18.501s-1.5 15.167 -1.5 22.5c0 16 3.33301 27.833 10 35.5s15.334 11.5 26.001 11.5h67l9 55c9.33301 56.667 30.666 98.5 63.999 125.5s76 40.5 128 40.5c10.667 0 23.667 -0.833008 39 -2.5
s30 -3.83398 44 -6.50098s26 -6.16699 36 -10.5s15 -8.83301 15 -13.5c0 -24.667 -5.5 -42.5 -16.5 -53.5s-23.833 -16.5 -38.5 -16.5c-10.667 0 -21.834 2 -33.501 6s-28.5 6 -50.5 6c-21.333 0 -39.333 -7 -54 -21s-24 -36 -28 -66l-6 -44h141c2.66699 -8 4 -19.667 4 -35
c0 -16 -3.33301 -28.667 -10 -38s-15 -14 -25 -14h-122l-59 -376c-9.33301 -60 -29.666 -102 -60.999 -126s-70.333 -36 -117 -36z" />
    <glyph glyph-name="circumflex" unicode="&#x2c6;" horiz-adv-x="466" 
d="M138 526c-8.66699 0 -17.3291 1.00098 -25.9961 3.00098s-16 4.33301 -22 7l100 155c8 3.33301 16.667 6.16602 26 8.49902s18.666 3.5 27.999 3.5c19.333 0 33.666 -2.66699 42.999 -8s17.666 -13 24.999 -23l87 -135c-6.66699 -3.33301 -14.334 -6 -23.001 -8
s-16.667 -3 -24 -3c-13.333 0 -24.333 1.83301 -33 5.5s-15.667 10.167 -21 19.5l-53 90l-57 -94c-9.33301 -14 -26 -21 -50 -21z" />
    <glyph glyph-name="caron" unicode="&#x2c7;" horiz-adv-x="451" 
d="M231 527c-18 0 -31.665 2.49902 -40.998 7.49902s-17 12.167 -23 21.5l-81 126c6 3.33301 13 5.83301 21 7.5s15.667 2.5 23 2.5c12 0 22 -1.5 30 -4.5s14.667 -9.16699 20 -18.5l50 -84l53 88c4 6.66699 10.167 11.334 18.5 14.001s17.833 4.33398 28.5 5.00098
c8 0 16.167 -0.833008 24.5 -2.5s15.166 -3.83398 20.499 -6.50098l-94 -145c-16.667 -7.33301 -33.334 -11 -50.001 -11z" />
    <glyph glyph-name="tilde" unicode="&#x2dc;" horiz-adv-x="430" 
d="M269 564c-12.667 0 -24.6689 2.5 -36.002 7.5s-22 10.5 -32 16.5l-28.5 16.5c-9 5 -17.5 7.5 -25.5 7.5c-7.33301 0 -13 -2.16699 -17 -6.5s-7.83301 -9.16602 -11.5 -14.499s-7.83398 -10.166 -12.501 -14.499s-11.334 -6.5 -20.001 -6.5s-15.667 1.5 -21 4.5
s-11 7.83301 -17 14.5c8 34 19.333 60.667 34 80s36 29 64 29c14 0 26.667 -2.5 38 -7.5s21.833 -10.5 31.5 -16.5l27.5 -16.5c8.66699 -5 17 -7.5 25 -7.5c7.33301 0 13 2.16699 17 6.5s7.83301 9.16602 11.5 14.499s7.83398 10.166 12.501 14.499s11.334 6.5 20.001 6.5
s15.667 -1.5 21 -4.5s11 -7.83301 17 -14.5c-11.333 -35.333 -23.666 -62.333 -36.999 -81s-33.666 -28 -60.999 -28z" />
    <glyph glyph-name="endash" unicode="&#x2013;" horiz-adv-x="454" 
d="M32 207c-0.666992 5.33301 -1.66699 12.1689 -3 20.502s-2 17.166 -2 26.499c0 19.333 4.16699 32.666 12.5 39.999s18.5 11 30.5 11h352c3.33301 -12 5 -27.333 5 -46c0 -19.333 -4 -32.833 -12 -40.5s-18 -11.5 -30 -11.5h-353z" />
    <glyph glyph-name="emdash" unicode="&#x2014;" horiz-adv-x="656" 
d="M32 207c-0.666992 5.33301 -1.66699 12.1689 -3 20.502s-2 17.166 -2 26.499c0 19.333 4.16699 32.666 12.5 39.999s18.5 11 30.5 11h554c3.33301 -12 5 -27.333 5 -46c0 -19.333 -4 -32.833 -12 -40.5s-18 -11.5 -30 -11.5h-555z" />
    <glyph glyph-name="quoteleft" unicode="&#x2018;" horiz-adv-x="183" 
d="M76 451c-11.333 0 -21.3311 4 -29.998 12s-13 19.667 -13 35c0 11.333 2 24.333 6 39s7.33301 25 10 31c15.333 36.667 33.666 63.167 54.999 79.5s44.333 24.5 69 24.5h7l-57 -181c-8.66699 -26.667 -24.334 -40 -47.001 -40z" />
    <glyph glyph-name="quoteright" unicode="&#x2019;" horiz-adv-x="183" 
d="M71 630c8 26.667 23.666 40 46.999 40c11.333 0 21.333 -4 30 -12s13 -19.667 13 -35c0 -11.333 -2 -24.333 -6 -39s-7.33301 -25 -10 -31c-15.333 -36.667 -33.666 -63.167 -54.999 -79.5s-44.333 -24.5 -69 -24.5h-7z" />
    <glyph glyph-name="quotesinglbase" unicode="&#x201a;" horiz-adv-x="206" 
d="M61 67c8 26.667 23.666 40 46.999 40c13.333 0 23.833 -4.16699 31.5 -12.5s11.5 -19.833 11.5 -34.5c0 -11.333 -2 -24.333 -6 -39s-7.33301 -25 -10 -31c-15.333 -36.667 -33.666 -63.167 -54.999 -79.5s-44.333 -24.5 -69 -24.5h-7z" />
    <glyph glyph-name="quotedblleft" unicode="&#x201c;" horiz-adv-x="353" 
d="M82 451c-11.333 0 -21.3311 4 -29.998 12s-13 19.667 -13 35c0 11.333 2 24.333 6 39s7.33301 25 10 31c15.333 36.667 33.666 63.167 54.999 79.5s44.333 24.5 69 24.5h7l-57 -181c-8.66699 -26.667 -24.334 -40 -47.001 -40zM248.002 451
c-11.333 0 -21.3311 4 -29.998 12s-13 19.667 -13 35c0 11.333 2 24.333 6 39s7.33301 25 10 31c15.333 36.667 33.666 63.167 54.999 79.5s44.333 24.5 69 24.5h7l-57 -181c-8.66699 -26.667 -24.334 -40 -47.001 -40z" />
    <glyph glyph-name="quotedblright" unicode="&#x201d;" horiz-adv-x="349" 
d="M81 630c8 26.667 23.666 40 46.999 40c11.333 0 21.333 -4 30 -12s13 -19.667 13 -35c0 -11.333 -2 -24.333 -6 -39s-7.33301 -25 -10 -31c-15.333 -36.667 -33.666 -63.167 -54.999 -79.5s-44.333 -24.5 -69 -24.5h-7zM246.999 630c8 26.667 23.666 40 46.999 40
c11.333 0 21.333 -4 30 -12s13 -19.667 13 -35c0 -11.333 -2 -24.333 -6 -39s-7.33301 -25 -10 -31c-15.333 -36.667 -33.666 -63.167 -54.999 -79.5s-44.333 -24.5 -69 -24.5h-7z" />
    <glyph glyph-name="quotedblbase" unicode="&#x201e;" horiz-adv-x="349" 
d="M58 67c8 26.667 23.666 40 46.999 40c13.333 0 23.833 -4.16699 31.5 -12.5s11.5 -19.833 11.5 -34.5c0 -11.333 -2 -24.333 -6 -39s-7.33301 -25 -10 -31c-15.333 -36.667 -33.666 -63.167 -54.999 -79.5s-44.333 -24.5 -69 -24.5h-7zM221.999 67
c8 26.667 23.666 40 46.999 40c13.333 0 23.833 -4.16699 31.5 -12.5s11.5 -19.833 11.5 -34.5c0 -11.333 -2 -24.333 -6 -39s-7.33301 -25 -10 -31c-15.333 -36.667 -33.666 -63.167 -54.999 -79.5s-44.333 -24.5 -69 -24.5h-7z" />
    <glyph glyph-name="dagger" unicode="&#x2020;" horiz-adv-x="504" 
d="M246 -158c-9.33301 0 -20.3301 2 -32.9971 6l-7 386v124l-170 -6c-1.33301 4.66699 -2.33301 11.667 -3 21s-1 17.666 -1 24.999c0 17.333 3.33301 29.5 10 36.5s16.667 10.5 30 10.5l134 -10l-11 156c-0.666992 2.66699 -1 6.66699 -1 12c0 14.667 4.16699 27 12.5 37
s23.166 15 44.499 15c10 0 19.5 -0.833008 28.5 -2.5s16.167 -3.5 21.5 -5.5l-12 -212l164 11c1.33301 -4.66699 2.33301 -11.5 3 -20.5s1 -17.167 1 -24.5c0 -17.333 -3.33301 -29.666 -10 -36.999s-16.667 -11 -30 -11l-128 5l8 -124l-14 -366
c-0.666992 -6 -3.83398 -11.833 -9.50098 -17.5s-14.834 -8.5 -27.501 -8.5z" />
    <glyph glyph-name="daggerdbl" unicode="&#x2021;" horiz-adv-x="577" 
d="M324 -158c-8.66699 0 -19.3311 2.00098 -31.998 6.00098l-10 265l-171 -6c-1.33301 4.66699 -2.66602 11.167 -3.99902 19.5s-2 17.166 -2 26.499c0 17.333 3.5 29.5 10.5 36.5s16.5 10.5 28.5 10.5l133 -9l-5 83l8 91l-168 -6c-2 7.33301 -3.66699 15 -5 23
s-2 15.667 -2 23c0 31.333 11.667 47 35 47h5l135 -10l-12 149c-0.666992 2.66699 -1 6.33398 -1 11.001c0 15.333 4.33301 28 13 38s23.667 15 45 15c10.667 0 20.167 -0.833008 28.5 -2.5s15.166 -3.5 20.499 -5.5l-12 -205l162 11
c1.33301 -5.33301 2.66602 -12.333 3.99902 -21s2 -16.667 2 -24c0 -31.333 -11.333 -47 -34 -47h-5l-129 4l8 -91l-5 -83l159 9c1.33301 -4.66699 2.66602 -10.834 3.99902 -18.501s2 -16.167 2 -25.5c0 -32.667 -13.333 -48.667 -40 -48l-129 4l-9 -244
c0 -6 -1.83301 -11.833 -5.5 -17.5s-11.167 -8.5 -22.5 -8.5z" />
    <glyph glyph-name="bullet" unicode="&#x2022;" horiz-adv-x="422" 
d="M211 159c-20.667 0 -40 4 -58 12s-33.833 18.667 -47.5 32s-24.5 29.166 -32.5 47.499s-12 37.833 -12 58.5s4 40 12 58s18.833 33.667 32.5 47s29.5 24 47.5 32s37.333 12 58 12s40.167 -4 58.5 -12s34.166 -18.667 47.499 -32s24 -29 32 -47s12 -37.333 12 -58
s-4 -40.167 -12 -58.5s-18.667 -34.166 -32 -47.499s-29.166 -24 -47.499 -32s-37.833 -12 -58.5 -12z" />
    <glyph glyph-name="ellipsis" unicode="&#x2026;" horiz-adv-x="711" 
d="M345 -7c-17.333 0 -32.333 6.33301 -45 19s-19 27.667 -19 45c0 18 6.33301 33.333 19 46s27.667 19 45 19c18 0 33.5 -6.33301 46.5 -19s19.5 -28 19.5 -46c0 -17.333 -6.5 -32.333 -19.5 -45s-28.5 -19 -46.5 -19zM596 -7c-17.333 0 -32.333 6.33301 -45 19
s-19 27.667 -19 45c0 18 6.33301 33.333 19 46s27.667 19 45 19c18 0 33.5 -6.33301 46.5 -19s19.5 -28 19.5 -46c0 -17.333 -6.5 -32.333 -19.5 -45s-28.5 -19 -46.5 -19zM97 -8c-17.333 0 -32.333 6.33301 -45 19s-19 27.667 -19 45c0 18 6.33301 33.333 19 46
s27.667 19 45 19c18 0 33.5 -6.33301 46.5 -19s19.5 -28 19.5 -46c0 -17.333 -6.5 -32.333 -19.5 -45s-28.5 -19 -46.5 -19z" />
    <glyph glyph-name="perthousand" unicode="&#x2030;" horiz-adv-x="1049" 
d="M542 -6c-20 0 -39.167 3.66699 -57.5 11s-34.333 18.5 -48 33.5s-24.5 33.667 -32.5 56s-12 48.5 -12 78.5s4 56.167 12 78.5s18.833 41 32.5 56s29.667 26.167 48 33.5s37.5 11 57.5 11s39.167 -3.66699 57.5 -11s34.5 -18.5 48.5 -33.5s25 -33.667 33 -56
s12 -48.5 12 -78.5s-4 -56.167 -12 -78.5s-19 -41 -33 -56s-30.167 -26.167 -48.5 -33.5s-37.5 -11 -57.5 -11zM883 -6c-20 0 -39.167 3.66699 -57.5 11s-34.333 18.5 -48 33.5s-24.5 33.667 -32.5 56s-12 48.5 -12 78.5s4 56.167 12 78.5s18.833 41 32.5 56
s29.667 26.167 48 33.5s37.5 11 57.5 11s39.167 -3.66699 57.5 -11s34.5 -18.5 48.5 -33.5s25 -33.667 33 -56s12 -48.5 12 -78.5s-4 -56.167 -12 -78.5s-19 -41 -33 -56s-30.167 -26.167 -48.5 -33.5s-37.5 -11 -57.5 -11zM173 -5c-7.33301 0 -14.333 1.5 -21 4.5
s-12.667 6.16699 -18 9.5l361 622c3.33301 6 8.33301 11.333 15 16s15 7 25 7s18 -1.5 24 -4.5s11.333 -6.16699 16 -9.5l-360 -622c-4.66699 -8 -10.667 -13.833 -18 -17.5s-15.333 -5.5 -24 -5.5zM542 70c16.667 0 30.334 8.33301 41.001 25s16 43 16 79
s-5.33301 61.833 -16 77.5s-24.334 23.5 -41.001 23.5c-17.333 0 -31 -7.83301 -41 -23.5s-15 -41.5 -15 -77.5s5 -62.333 15 -79s23.667 -25 41 -25zM883 70c16.667 0 30.334 8.33301 41.001 25s16 43 16 79s-5.33301 61.833 -16 77.5s-24.334 23.5 -41.001 23.5
c-17.333 0 -31 -7.83301 -41 -23.5s-15 -41.5 -15 -77.5s5 -62.333 15 -79s23.667 -25 41 -25zM165 303c-20 0 -39.167 3.66699 -57.5 11s-34.333 18.5 -48 33.5s-24.5 33.667 -32.5 56s-12 48.5 -12 78.5s4 56.167 12 78.5s18.833 41 32.5 56s29.667 26.167 48 33.5
s37.5 11 57.5 11s39.167 -3.66699 57.5 -11s34.5 -18.5 48.5 -33.5s25 -33.667 33 -56s12 -48.5 12 -78.5s-4 -56.167 -12 -78.5s-19 -41 -33 -56s-30.167 -26.167 -48.5 -33.5s-37.5 -11 -57.5 -11zM165 379c16.667 0 30.334 8.33301 41.001 25s16 43 16 79
s-5.33301 61.833 -16 77.5s-24.334 23.5 -41.001 23.5c-17.333 0 -31 -7.83301 -41 -23.5s-15 -41.5 -15 -77.5s5 -62.333 15 -79s23.667 -25 41 -25z" />
    <glyph glyph-name="guilsinglleft" unicode="&#x2039;" horiz-adv-x="340" 
d="M29 194v76.999l235 159c4 -7.33301 7.5 -15.833 10.5 -25.5s4.5 -19.5 4.5 -29.5c0 -15.333 -3.5 -28.833 -10.5 -40.5s-15.5 -20.5 -25.5 -26.5l-120 -73l120 -71c10 -6 18.5 -14.667 25.5 -26s10.5 -24.666 10.5 -39.999c0 -10 -1.5 -19.833 -4.5 -29.5
s-6.5 -18.167 -10.5 -25.5z" />
    <glyph glyph-name="guilsinglright" unicode="&#x203a;" horiz-adv-x="340" 
d="M76 43c-4 7.33301 -7.5 15.834 -10.5 25.501s-4.5 19.5 -4.5 29.5c0 15.333 3.5 28.833 10.5 40.5s15.5 20.5 25.5 26.5l120 73l-120 71c-10 6 -18.5 14.667 -25.5 26s-10.5 24.666 -10.5 39.999c0 10 1.5 19.833 4.5 29.5s6.5 18.167 10.5 25.5l235 -151v-77z" />
    <glyph glyph-name="Euro" unicode="&#x20ac;" horiz-adv-x="566" 
d="M378 -12c-70 0 -127 21.168 -171 63.501s-73 102.833 -87 181.5h-77c-1.33301 4 -2.33301 8.83301 -3 14.5s-1 11.5 -1 17.5c0 14 2.83301 23.667 8.5 29s12.834 8 21.501 8h44v42h-68c-0.666992 4 -1.33398 8.83301 -2.00098 14.5s-1 11.5 -1 17.5
c0 14 2.83301 23.667 8.5 29s12.834 8 21.501 8h48c6.66699 42.667 17.834 79.5 33.501 110.5s34.667 56.667 57 77s47.833 35.5 76.5 45.5s59 15 91 15c16.667 0 31.667 -0.833008 45 -2.5s26 -4 38 -7s23.667 -6.66699 35 -11l37 -14.5v-17
c0 -25.333 -4 -42.833 -12 -52.5s-19.667 -14.5 -35 -14.5c-7.33301 0 -14 1 -20 3s-12.667 4 -20 6s-16 4 -26 6s-22.667 3 -38 3c-40 0 -72.333 -12.833 -97 -38.5s-41 -61.834 -49 -108.501h189c1.33301 -4 2.33301 -8.83301 3 -14.5s1 -11.5 1 -17.5
c0 -14 -2.83301 -23.667 -8.5 -29s-12.834 -8 -21.501 -8h-172v-42h195c1.33301 -4 2.33301 -8.83301 3 -14.5s1 -11.5 1 -17.5c0 -14 -2.83301 -23.667 -8.5 -29s-12.834 -8 -21.501 -8h-159c8 -46 24.667 -81.333 50 -106s57 -37 95 -37c16.667 0 30.334 1 41.001 3
s19.667 4 27 6s13.833 4 19.5 6s12.167 3 19.5 3c14.667 0 26.167 -5 34.5 -15s12.5 -27.667 12.5 -53c0 -10 -5.83301 -18.333 -17.5 -25s-25.834 -12 -42.501 -16s-34 -6.83301 -52 -8.5s-33.333 -2.5 -46 -2.5z" />
    <glyph glyph-name="trademark" unicode="&#x2122;" horiz-adv-x="636" 
d="M314 353c-6 0 -10.999 0.500977 -14.999 1.50098s-7.66699 2.16699 -11 3.5l29 287c4 2 9.66699 3.66699 17 5s13.666 2 18.999 2c14.667 0 25.667 -2 33 -6s12.333 -11.333 15 -22l48 -188l50 188c3.33301 10.667 8.16602 18.167 14.499 22.5s16.166 6.5 29.499 6.5
c16.667 0 29.334 -1.66699 38.001 -5l28 -290c-3.33301 -1.33301 -7.16602 -2.5 -11.499 -3.5s-9.83301 -1.5 -16.5 -1.5c-7.33301 0 -13.5 1.16699 -18.5 3.5s-7.83301 7.16602 -8.5 14.499l-18 224l-56 -199c-4 -12.667 -15.333 -19 -34 -19
c-4.66699 0 -9.66699 0.166992 -15 0.5s-9.66602 1.16602 -12.999 2.49902l-58 214l-20 -223c-0.666992 -7.33301 -3.33398 -12.166 -8.00098 -14.499s-10.667 -3.5 -18 -3.5zM123.001 355.001v244.003h-89l-2 10.5c-0.666992 3.66699 -1 8.16699 -1 13.5
c0 11.333 2 18.666 6 21.999s9.66699 5 17 5h217c0 -2.66699 0.5 -5.83398 1.5 -9.50098s1.5 -8.83398 1.5 -15.501c0 -17.333 -8 -26 -24 -26h-70v-244h-57z" />
    <glyph glyph-name=".null" horiz-adv-x="0" 
 />
    <glyph glyph-name="nonmarkingreturn" horiz-adv-x="200" 
 />
    </font>
</defs>
</svg>
