<svg xmlns="http://www.w3.org/2000/svg" width="41" height="41" viewBox="0 0 41 41">
    <g fill="none" fill-rule="evenodd">
        <g>
            <g>
                <g>
                    <g>
                        <path d="M0 0H40V40H0z" transform="translate(-271 -209) translate(0 128) translate(48 80) translate(224 2)"/>
                        <g>
                            <path stroke="#FFF" stroke-linecap="round" stroke-linejoin="round" d="M18.696 28.406c7.804 0 14.13-6.326 14.13-14.13C32.826 6.47 26.5.144 18.696.144c-7.805 0-14.13 6.326-14.13 14.13v1.087" transform="translate(-271 -209) translate(0 128) translate(48 80) translate(224 2) matrix(-1 0 0 1 36.478 6.087)"/>
                            <path stroke="#FFF" stroke-linecap="round" stroke-linejoin="round" d="M0.217 11.01L4.565 15.358 8.913 11.01" transform="translate(-271 -209) translate(0 128) translate(48 80) translate(224 2) matrix(-1 0 0 1 36.478 6.087)"/>
                        </g>
                    </g>
                </g>
            </g>
        </g>
    </g>
</svg>
