<svg xmlns="http://www.w3.org/2000/svg" width="24" height="24" viewBox="0 0 24 24">
    <g fill="none" fill-rule="evenodd">
        <g>
            <g>
                <g>
                    <g stroke="#FFF" stroke-linecap="round" stroke-linejoin="round">
                        <path d="M0 9.087c0 4.588 3.72 8.308 8.308 8.308 4.588 0 8.307-3.72 8.307-8.308C16.615 4.5 12.895.78 8.308.78 3.719.78 0 4.499 0 9.087zM.474 6.318L16.142 6.318M.753 12.549L15.862 12.549M7.132 17.308c-3.048-5.06-3.048-11.39 0-16.45M9.483 17.308c3.048-5.06 3.048-11.39 0-16.45" transform="translate(-16 -488) translate(0 319) translate(16 169) translate(3 3)"/>
                    </g>
                    <path d="M0 0H24V24H0z" transform="translate(-16 -488) translate(0 319) translate(16 169)"/>
                </g>
            </g>
        </g>
    </g>
</svg>
