<svg xmlns="http://www.w3.org/2000/svg" width="18" height="15" viewBox="0 0 18 15">
    <g fill="none" fill-rule="evenodd">
        <g fill="#FFF" fill-rule="nonzero">
            <g>
                <g>
                    <g>
                        <path d="M15.253 0H2.747C1.253 0 0 .97 0 2.235v9.69c0 1.265 1.253 2.235 2.747 2.235h12.506c1.494 0 2.747-.97 2.747-2.235v-9.69C18 .97 16.747 0 15.253 0zM2.747.947h12.506c1.016 0 1.8.607 1.8 1.288v9.69c0 .68-.784 1.288-1.8 1.288H2.747c-1.016 0-1.8-.607-1.8-1.288v-9.69c0-.68.784-1.288 1.8-1.288z" transform="translate(-19 -445) translate(0 319) translate(16 121) translate(3 5)"/>
                        <path d="M8.145 4.04c.276 0 .5.194.5.433 0 .213-.177.39-.41.426l-.09.007H6.368c-.982 0-1.788.658-1.862 1.494l-.006.126v1.027c0 .852.759 1.55 1.722 1.615l.146.005h1.777c.276 0 .5.194.5.433 0 .213-.177.39-.41.426l-.09.007H6.368c-1.527 0-2.776-1.035-2.863-2.34L3.5 7.553V6.526c0-1.324 1.194-2.407 2.7-2.482l.168-.005h1.777zM14.145 4.04c.276 0 .5.194.5.433 0 .213-.177.39-.41.426l-.09.007h-1.777c-.982 0-1.788.658-1.862 1.494l-.006.126v1.027c0 .852.759 1.55 1.722 1.615l.146.005h1.777c.276 0 .5.194.5.433 0 .213-.177.39-.41.426l-.09.007h-1.777c-1.527 0-2.776-1.035-2.863-2.34L9.5 7.553V6.526c0-1.324 1.194-2.407 2.7-2.482l.168-.005h1.777z" transform="translate(-19 -445) translate(0 319) translate(16 121) translate(3 5)"/>
                    </g>
                </g>
            </g>
        </g>
    </g>
</svg>
