<?xml version="1.0" encoding="UTF-8"?>
<svg width="18px" height="18px" viewBox="0 0 18 18" version="1.1" xmlns="http://www.w3.org/2000/svg" xmlns:xlink="http://www.w3.org/1999/xlink">
    <title>5A09069D-3E3B-4DBF-ADB7-89D4AB4DE07D</title>
    <g id="Web-Player" stroke="none" stroke-width="1" fill="none" fill-rule="evenodd">
        <g id="10-Recommended-for-You_WEB" transform="translate(-1243.000000, -357.000000)" fill="#FFFFFF" fill-rule="nonzero">
            <g id="recommendation" transform="translate(0.000000, 338.000000)">
                <g id="Close" transform="translate(1243.000000, 19.000000)">
                    <path d="M16.1684126,0.289385361 C16.4879325,-0.0301345142 17.0059766,-0.0301345142 17.3254965,0.289385361 C17.6450163,0.608905236 17.6450163,1.12694931 17.3254965,1.44646918 L17.3254965,1.44646918 L9.9635,8.8065 L17.3254965,16.1684126 C17.6183897,16.4613059 17.6427974,16.9210145 17.3987198,17.2417103 L17.3254965,17.3254965 C17.0059766,17.6450163 16.4879325,17.6450163 16.1684126,17.3254965 L16.1684126,17.3254965 L8.8065,9.9635 L1.44622373,17.3257419 C1.15333051,17.6186351 0.69362182,17.6430429 0.372926022,17.3989652 L0.289139906,17.3257419 C-0.0303799688,17.006222 -0.0303799688,16.488178 0.289139906,16.1686581 L0.289139906,16.1686581 L7.6495,8.8065 L0.289139906,1.44622373 C-0.00375331251,1.15333051 -0.0281610807,0.69362182 0.215916602,0.372926022 L0.289139906,0.289139906 C0.608659781,-0.0303799688 1.12670385,-0.0303799688 1.44622373,0.289139906 L1.44622373,0.289139906 L8.8065,7.6495 Z" id="Combined-Shape"></path>
                </g>
            </g>
        </g>
    </g>
</svg>