<?xml version="1.0" encoding="UTF-8"?>
<svg width="24px" height="24px" viewBox="0 0 24 24" version="1.1" xmlns="http://www.w3.org/2000/svg" xmlns:xlink="http://www.w3.org/1999/xlink">
    <title>845C8D82-64D7-4D3E-B8E5-ADFAE6021662</title>
    <g id="Web-Player" stroke="none" stroke-width="1" fill="none" fill-rule="evenodd" stroke-linecap="round" stroke-linejoin="round">
        <g id="10-Recommended-for-You_WEB" transform="translate(-488.000000, -500.000000)" stroke="#FFFFFF">
            <g id="recommendation" transform="translate(0.000000, 338.000000)">
                <g id="assets" transform="translate(44.000000, 66.000000)">
                    <g id="2-hover" transform="translate(246.000000, 0.000000)">
                        <g id="Action-Bar" transform="translate(0.000000, 92.000000)">
                            <g id="Hover-Action---Info" transform="translate(180.000000, 0.000000)">
                                <g id="Action" transform="translate(18.000000, 4.000000)">
                                    <g id="icon_info" transform="translate(4.000000, 4.000000)">
                                        <path d="M9.06666667,10.6666667 L8.53333333,10.6666667 C7.94453333,10.6666667 7.46666667,10.1888 7.46666667,9.6 L7.46666667,6.93333333 C7.46666667,6.63893333 7.22773333,6.4 6.93333333,6.4 L6.4,6.4" id="Path"></path>
                                        <path d="M7.2,3.73333333 C7.0528,3.73333333 6.93333333,3.8528 6.93333333,4 C6.93333333,4.1472 7.0528,4.26666667 7.2,4.26666667 C7.3472,4.26666667 7.46666667,4.1472 7.46666667,4 C7.46666667,3.8528 7.3472,3.73333333 7.2,3.73333333 L7.2,3.73333333" id="Path"></path>
                                        <path d="M8,0 C12.4181333,0 16,3.58186667 16,8 C16,12.4181333 12.4181333,16 8,16 C3.58186667,16 0,12.4181333 0,8 C0,3.58186667 3.58186667,0 8,0 Z" id="Path"></path>
                                    </g>
                                </g>
                            </g>
                        </g>
                    </g>
                </g>
            </g>
        </g>
    </g>
</svg>