<?xml version="1.0" encoding="UTF-8"?>
<svg width="48px" height="48px" viewBox="0 0 48 48" version="1.1" xmlns="http://www.w3.org/2000/svg" xmlns:xlink="http://www.w3.org/1999/xlink">
    <title>43DBB493-C853-4FB6-A1ED-EFA3EFEF9526</title>
    <g id="Web-Player" stroke="none" stroke-width="1" fill="none" fill-rule="evenodd">
        <g id="10-Recommended-for-You_WEB" transform="translate(-1192.000000, -510.000000)">
            <g id="recommendation" transform="translate(0.000000, 338.000000)">
                <g id="ic_right-arrow" transform="translate(1192.000000, 172.000000)">
                    <circle id="Oval" fill-opacity="0.200202142" fill="#00B8F8" cx="24" cy="24" r="24"></circle>
                    <path d="M34.3438079,19.3686302 L33.4197769,18.4520604 C33.0994139,18.1507368 32.7255058,18 32.2985063,18 C31.8628852,18 31.4932123,18.1507368 31.1891851,18.4520604 L25.2,24.3910908 L19.2108149,18.4522104 C18.9067877,18.1508868 18.5371148,18.00015 18.1016449,18.00015 C17.6744942,18.00015 17.3005861,18.1508868 16.9802231,18.4522104 L16.0682927,19.3687802 C15.7560976,19.6782032 15.6,20.0489707 15.6,20.4807829 C15.6,20.9206944 15.7562488,21.2872624 16.0682927,21.5804867 L24.09083,29.5356406 C24.3866894,29.8452135 24.756211,30 25.2,30 C25.6354698,30 26.0092267,29.8452135 26.3212706,29.5356406 L34.3438079,21.5804867 C34.6478351,21.2790131 34.8,20.9124452 34.8,20.4807829 C34.8,20.05707 34.6478351,19.6864524 34.3438079,19.3686302 L34.3438079,19.3686302 Z" id="Right-Arrow" fill="#FFFFFF" transform="translate(25.200000, 24.000000) rotate(-90.000000) translate(-25.200000, -24.000000) "></path>
                </g>
            </g>
        </g>
    </g>
</svg>