<svg xmlns="http://www.w3.org/2000/svg" width="32" height="32" viewBox="0 0 32 32">
    <g fill="none" fill-rule="evenodd">
        <path d="M0 0H32V32H0z"/>
        <g fill="#FFF" fill-rule="nonzero">
            <path d="M20.337 0H3.663C1.67 0 0 1.294 0 2.98V15.9c0 1.686 1.67 2.98 3.663 2.98h16.674C22.33 18.88 24 17.586 24 15.9V2.98C24 1.294 22.33 0 20.337 0zM3.663 1.263h16.674c1.356 0 2.4.81 2.4 1.717V15.9c0 .908-1.044 1.717-2.4 1.717H3.663c-1.356 0-2.4-.81-2.4-1.717V2.98c0-.908 1.044-1.717 2.4-1.717z" transform="translate(4 6.667)"/>
            <path d="M10.86 5.386c.368 0 .666.259.666.578 0 .284-.236.52-.547.569l-.12.009H8.492c-1.31 0-2.384.877-2.484 1.99L6 8.703v1.368c0 1.136 1.012 2.067 2.297 2.154l.194.006h2.369c.368 0 .666.259.666.578 0 .284-.236.52-.547.569l-.12.009H8.492c-2.037 0-3.702-1.38-3.818-3.12l-.006-.196V8.702c0-1.766 1.592-3.21 3.6-3.31l.224-.006h2.369zM18.86 5.386c.368 0 .666.259.666.578 0 .284-.236.52-.547.569l-.12.009h-2.368c-1.31 0-2.384.877-2.484 1.99l-.007.17v1.368c0 1.136 1.012 2.067 2.297 2.154l.194.006h2.369c.368 0 .666.259.666.578 0 .284-.236.52-.547.569l-.12.009h-2.368c-2.037 0-3.702-1.38-3.818-3.12l-.006-.196V8.702c0-1.766 1.592-3.21 3.6-3.31l.224-.006h2.369z" transform="translate(4 6.667)"/>
        </g>
    </g>
</svg>
