<svg width="63" height="63" viewBox="0 0 63 63" xmlns="http://www.w3.org/2000/svg">
    <g fill="none" fill-rule="evenodd">
        <path d="M0 0h63v63H0z"/>
        <path d="M30.983 6c7.174 0 13.671 2.91 18.372 7.614.22.223.422.456.617.693l.579.711L57 8.57V24.18l-15.629.032 5.458-5.522a14.277 14.277 0 0 0-1.167-1.398 20.729 20.729 0 0 0-14.693-6.078c-11.488 0-20.804 9.32-20.804 20.814 0 11.493 9.316 20.814 20.804 20.814 11.488 0 20.804-9.321 20.804-20.814v-.033h5.175v.026C56.948 46.37 45.324 58 30.983 58a25.872 25.872 0 0 1-18.373-7.62A25.924 25.924 0 0 1 5 31.995C5 17.637 16.634 6 30.983 6zm4.447 19.323c3.265 0 5.616 2.954 5.574 6.968.042 4.035-2.246 6.989-5.408 6.989-3.224 0-5.574-2.954-5.574-6.968 0-4.035 2.288-6.989 5.408-6.989zm-7.924.312v13.333h-3.35v-9.402l-1.788 1.727-1.976-2.205 3.66-3.453h3.454zm7.944 2.829c-1.248 0-2.08 1.518-2.08 3.827 0 2.33.853 3.848 2.164 3.848 1.31 0 2.121-1.518 2.121-3.827s-.832-3.848-2.205-3.848z" fill="#FFF"/>
    </g>
</svg>
