<svg xmlns="http://www.w3.org/2000/svg" width="20" height="20" viewBox="0 0 20 20">
    <defs>
        <filter id="eozteessoa">
            <feColorMatrix in="SourceGraphic" values="0 0 0 0 1.000000 0 0 0 0 1.000000 0 0 0 0 1.000000 0 0 0 1.000000 0"/>
        </filter>
    </defs>
    <g fill="none" fill-rule="evenodd" stroke-linecap="round" stroke-linejoin="round">
        <g>
            <g filter="url(#eozteessoa)" transform="translate(-919 -571) translate(904 473)">
                <g stroke="#000">
                    <path d="M10.758 4.898V1.383c0-.647-.525-1.172-1.172-1.172C7.258.213 5.152 1.593 4.22 3.727H1.383C.736 3.727.21 4.25.21 4.898v2.344c0 .647.525 1.172 1.172 1.172H4.22c.39.888.994 1.667 1.758 2.266M11.93 12.516c0 .647.524 1.171 1.172 1.171.647 0 1.171-.524 1.171-1.171 0-.648-.524-1.172-1.171-1.172-.648 0-1.172.524-1.172 1.172z" transform="translate(16 99)"/>
                    <path d="M14.097 7.984l.345 1.136c.118.39.52.623.917.532l1.15-.267c.448-.1.909.102 1.137.5.229.397.172.897-.14 1.233l-.806.868c-.279.3-.279.764 0 1.064l.805.868c.313.336.37.836.141 1.234-.228.397-.69.6-1.137.499l-1.15-.267c-.398-.091-.799.141-.917.532l-.345 1.13c-.132.44-.536.742-.995.742-.46 0-.864-.301-.996-.741l-.345-1.135c-.118-.391-.52-.624-.917-.532l-1.15.266c-.448.1-.909-.101-1.137-.5-.229-.397-.172-.897.14-1.233l.806-.868c.279-.3.279-.764 0-1.064l-.805-.868c-.313-.336-.37-.836-.141-1.233.228-.398.69-.6 1.137-.5l1.15.267c.398.091.799-.141.917-.532l.345-1.135c.133-.44.538-.74.997-.739.46.001.863.303.994.743h0z" transform="translate(16 99)"/>
                </g>
            </g>
        </g>
    </g>
</svg>
