<svg xmlns="http://www.w3.org/2000/svg" width="32" height="32" viewBox="0 0 32 32">
    <g fill="none" fill-rule="evenodd">
        <g stroke="#FFF" stroke-linecap="round" stroke-linejoin="round" stroke-width="1.4">
            <path d="M15.333 1.176c-.564-.283-1.24-.222-1.745.157L6.253 6H2.92C2 6 1.253 6.746 1.253 7.667V11c0 .92.747 1.667 1.667 1.667h3.333l7.334 4.666c.505.38 1.18.44 1.745.158.565-.283.921-.86.921-1.491V2.667c0-.631-.355-1.209-.92-1.491zM21.253 12.667c.943-.74 1.494-1.87 1.494-3.069 0-1.198-.551-2.329-1.494-3.068M6.253 6L6.253 12.667" transform="translate(4 6.667)"/>
        </g>
        <path d="M0 0H32V32H0z"/>
    </g>
</svg>
