<svg xmlns="http://www.w3.org/2000/svg" width="32" height="32" viewBox="0 0 32 32">
    <g fill="none" fill-rule="evenodd">
        <g>
            <g>
                <g stroke="#FFF">
                    <path stroke-linecap="round" stroke-linejoin="round" stroke-width="1.4" d="M14.333.176c-.564-.283-1.24-.222-1.745.157L5.253 5H1.92C1 5 .253 5.746.253 6.667V10c0 .92.747 1.667 1.667 1.667h3.333l7.334 4.666c.505.38 1.18.44 1.745.158.565-.283.921-.86.921-1.491V1.667c0-.631-.355-1.209-.92-1.491zM5.253 5L5.253 11.667" transform="translate(-338 -104) translate(338 104) translate(5 7.667)"/>
                    <path fill-rule="nonzero" d="M19.12 6.454c.074-.073.192-.073.265 0h0l1.68 1.68 1.682-1.68c.058-.058.146-.07.216-.035l.048.035c.073.073.073.191 0 .264h0L21.33 8.4l1.681 1.681c.059.059.07.146.035.216l-.035.049c-.073.073-.191.073-.264 0h0l-1.682-1.682-1.68 1.682c-.058.058-.146.07-.216.035l-.048-.035c-.073-.073-.073-.192 0-.265h0l1.68-1.682-1.68-1.68c-.059-.058-.07-.145-.035-.215z" transform="translate(-338 -104) translate(338 104) translate(5 7.667)"/>
                </g>
                <path d="M0 0H32V32H0z" transform="translate(-338 -104) translate(338 104)"/>
            </g>
        </g>
    </g>
</svg>
