<svg xmlns="http://www.w3.org/2000/svg" width="32" height="32" viewBox="0 0 32 32">
    <g fill="none" fill-rule="evenodd">
        <g>
            <g>
                <g>
                    <g>
                        <g stroke="#FFF" stroke-linecap="round" stroke-linejoin="round" stroke-width="1.4">
                            <path d="M9.201 12.89c0 1.522 1.234 2.756 2.757 2.756 1.522 0 2.756-1.234 2.756-2.756 0-1.523-1.234-2.757-2.756-2.757-1.523 0-2.757 1.234-2.757 2.757z" transform="translate(-1092 -672) translate(44 672) translate(992) translate(56) translate(4 2.667)"/>
                            <path d="M14.299 2.231l.812 2.67c.278.92 1.221 1.467 2.157 1.252l2.705-.627c1.053-.237 2.137.24 2.675 1.174.537.936.403 2.112-.332 2.902l-1.894 2.042c-.656.705-.656 1.797 0 2.503l1.894 2.041c.735.79.87 1.967.332 2.902s-1.622 1.411-2.675 1.174l-2.705-.627c-.936-.215-1.879.332-2.157 1.252l-.812 2.659c-.31 1.034-1.262 1.742-2.341 1.742-1.08 0-2.031-.708-2.341-1.742l-.813-2.67c-.278-.92-1.22-1.467-2.157-1.252l-2.705.627c-1.052.237-2.137-.239-2.674-1.174-.538-.935-.404-2.112.331-2.902l1.895-2.041c.656-.706.656-1.798 0-2.503L1.599 9.59C.864 8.801.73 7.625 1.268 6.69c.537-.935 1.622-1.41 2.674-1.174l2.705.627c.936.215 1.88-.332 2.157-1.252l.813-2.67C9.929 1.187 10.882.481 11.962.484c1.08.002 2.03.713 2.337 1.747h0z" transform="translate(-1092 -672) translate(44 672) translate(992) translate(56) translate(4 2.667)"/>
                        </g>
                        <path d="M0 0H32V32H0z" transform="translate(-1092 -672) translate(44 672) translate(992) translate(56)"/>
                    </g>
                </g>
            </g>
        </g>
    </g>
</svg>
