<svg width="63" height="63" viewBox="0 0 63 63" xmlns="http://www.w3.org/2000/svg">
    <g fill="none" fill-rule="evenodd">
        <path d="M0 0h63v63H0z"/>
        <path d="M31.017 6C45.367 6 57 17.637 57 31.995a25.91 25.91 0 0 1-7.61 18.382v.003A25.872 25.872 0 0 1 31.017 58C16.677 58 5.052 46.37 5.052 32.021v-.026h5.175v.033c0 11.493 9.316 20.814 20.804 20.814 11.488 0 20.804-9.321 20.804-20.814 0-11.494-9.316-20.814-20.804-20.814a20.729 20.729 0 0 0-14.693 6.078c-.413.436-.806.904-1.167 1.398l5.458 5.522L5 24.18V8.57l6.45 6.448.578-.711c.195-.237.396-.47.617-.693A25.899 25.899 0 0 1 31.017 6zm5.66 19.323c3.266 0 5.616 2.954 5.575 6.968v.268c-.06 3.897-2.317 6.721-5.408 6.721-3.224 0-5.575-2.954-5.575-6.968 0-4.035 2.288-6.989 5.408-6.989zm-7.924.312v13.333h-3.348v-9.402l-1.79 1.727-1.975-2.205 3.66-3.453h3.453zm7.945 2.829c-1.248 0-2.08 1.518-2.08 3.827 0 2.33.853 3.848 2.163 3.848 1.31 0 2.122-1.518 2.122-3.827s-.832-3.848-2.205-3.848z" fill="#FFF"/>
    </g>
</svg>
