<svg width="63" height="63" viewBox="0 0 63 63" xmlns="http://www.w3.org/2000/svg">
    <g fill="none" fill-rule="evenodd">
        <path d="M0 0h63v63H0z"/>
        <path d="M31.017 6C45.367 6 57 17.637 57 31.995a25.91 25.91 0 0 1-7.61 18.382v.003A25.872 25.872 0 0 1 31.017 58C16.677 58 5.052 46.37 5.052 32.021v-.026h5.175v.033c0 11.493 9.316 20.814 20.804 20.814 11.488 0 20.804-9.321 20.804-20.814 0-11.494-9.316-20.814-20.804-20.814a20.729 20.729 0 0 0-14.693 6.078c-.413.436-.806.904-1.167 1.398l5.458 5.522L5 24.18V8.57l6.45 6.448.578-.711c.195-.237.396-.47.617-.693A25.899 25.899 0 0 1 31.017 6zM25 22l18 10.82-18 10.82V22z" fill="#FFF"/>
    </g>
</svg>
