<svg xmlns="http://www.w3.org/2000/svg" width="32" height="32" viewBox="0 0 32 32">
    <g fill="none" fill-rule="evenodd">
        <g>
            <g stroke="#FFF" stroke-linecap="round" stroke-linejoin="round" stroke-width="1.4">
                <path d="M14.957 22.725c6.243 0 11.304-5.061 11.304-11.305C26.26 5.177 21.2.116 14.957.116 8.713.116 3.652 5.176 3.652 11.42v.87" transform="translate(2.783 4.87)"/>
                <path d="M0.174 8.808L3.652 12.286 7.13 8.808" transform="translate(2.783 4.87)"/>
            </g>
            <path fill="#FFF" fill-rule="nonzero" d="M13.178 15.304V7.88h-1.135l-2.137 2.16.757.79 1.213-1.258v5.732h1.302zm4.219.134c2.081 0 2.972-1.97 2.972-3.84 0-1.87-.89-3.829-2.972-3.829s-2.972 1.959-2.972 3.829.89 3.84 2.972 3.84zm0-1.158c-1.213 0-1.647-1.269-1.647-2.682 0-1.414.434-2.671 1.647-2.671s1.647 1.257 1.647 2.67c0 1.414-.434 2.683-1.647 2.683z" transform="translate(2.783 4.87)"/>
        </g>
        <path d="M0 0H32V32H0z"/>
    </g>
</svg>
