<svg xmlns="http://www.w3.org/2000/svg" width="32" height="32" viewBox="0 0 32 32">
    <g fill="none" fill-rule="evenodd">
        <path d="M0 0H32V32H0z"/>
        <path fill="#FFF" fill-rule="nonzero" d="M25.558 4.386c.426-.426 1.117-.426 1.543 0 .426.426.426 1.117 0 1.543l-9.815 9.814 9.815 9.815c.395.395.424 1.02.084 1.448l-.084.095c-.426.426-1.117.426-1.543 0l-9.815-9.815-9.815 9.815c-.395.396-1.02.424-1.447.085l-.095-.085c-.427-.426-.427-1.117 0-1.543l9.814-9.815-9.814-9.815c-.396-.395-.424-1.02-.085-1.447l.085-.095c.426-.427 1.116-.427 1.542 0l9.815 9.814z"/>
    </g>
</svg>
