<svg xmlns="http://www.w3.org/2000/svg" width="32" height="32" viewBox="0 0 32 32">
    <g fill="none" fill-rule="evenodd">
        <path fill="#0D1118" fill-opacity=".8" d="M16 0c8.836 0 16 7.164 16 16s-7.164 16-16 16S0 24.836 0 16 7.164 0 16 0z"/>
        <path fill="#FFF" fill-rule="nonzero" d="M10.96 9.142V22.22c0 1.027.935 1.757 1.781 1.268l11.303-6.54c.707-.492.88-1.432.416-2.121-.101-.153-.233-.287-.386-.395L12.741 7.87c-.848-.484-1.781.246-1.781 1.272zm.8 0c0-.466.329-.723.583-.579l11.3 6.543c.044.032.105.095.152.165.222.33.14.78-.18 1.004l-11.274 6.52c-.253.147-.581-.109-.581-.575V9.142z"/>
    </g>
</svg>
